M48
; DRILL file {KiCad 9.0.2} date 2026-04-04T21:19:20-0500
; FORMAT={-:-/ absolute / metric / decimal}
; #@! TF.CreationDate,2026-04-04T21:19:20-05:00
; #@! TF.GenerationSoftware,Kicad,Pcbnew,9.0.2
; #@! TF.FileFunction,MixedPlating,1,2
FMAT,2
METRIC
; #@! TA.AperFunction,Plated,PTH,ViaDrill
T1C0.300
; #@! TA.AperFunction,Plated,PTH,ComponentDrill
T2C1.000
%
G90
G05
T1
X102.926Y-132.553
X140.116Y-96.095
X140.717Y-134.67
X143.282Y-88.0
X146.222Y-120.507
X163.725Y-137.131
X166.12Y-105.28
X170.099Y-99.751
X172.789Y-130.0
X176.564Y-129.175
T2
X103.0Y-100.0
X103.0Y-102.54
X142.0Y-108.0
X142.0Y-110.54
X142.0Y-113.08
X142.0Y-115.62
X142.0Y-118.16
X142.0Y-120.7
X142.0Y-123.24
X142.0Y-125.78
X142.0Y-128.32
X142.0Y-130.86
X142.0Y-133.4
X142.0Y-135.94
X142.0Y-138.48
X142.0Y-141.02
X142.0Y-143.56
X142.0Y-146.1
X142.0Y-148.64
X142.0Y-151.18
X142.0Y-153.72
X142.0Y-156.26
X144.54Y-108.0
X144.54Y-110.54
X144.54Y-113.08
X144.54Y-115.62
X144.54Y-118.16
X144.54Y-120.7
X144.54Y-123.24
X144.54Y-125.78
X144.54Y-128.32
X144.54Y-130.86
X144.54Y-133.4
X144.54Y-135.94
X144.54Y-138.48
X144.54Y-141.02
X144.54Y-143.56
X144.54Y-146.1
X144.54Y-148.64
X144.54Y-151.18
X144.54Y-153.72
X144.54Y-156.26
X175.0Y-135.0
X175.0Y-137.54
X175.0Y-140.08
X175.0Y-142.62
X185.0Y-135.0
X185.0Y-137.54
X185.0Y-140.08
X185.0Y-142.62
X185.0Y-145.16
X185.0Y-147.7
X192.0Y-98.0
X192.0Y-100.54
X192.0Y-103.08
X192.0Y-105.62
X192.0Y-136.0
X192.0Y-138.54
X192.0Y-141.08
X192.0Y-143.62
X192.0Y-146.16
X192.0Y-148.7
X192.0Y-151.24
X192.0Y-153.78
M30
