%TF.GenerationSoftware,KiCad,Pcbnew,9.0.2*%
%TF.CreationDate,2026-04-04T22:46:44-05:00*%
%TF.ProjectId,cm4_carrier,636d345f-6361-4727-9269-65722e6b6963,rev?*%
%TF.SameCoordinates,Original*%
%TF.FileFunction,Other,User*%
%FSLAX46Y46*%
G04 Gerber Fmt 4.6, Leading zero omitted, Abs format (unit mm)*
G04 Created by KiCad (PCBNEW 9.0.2) date 2026-04-04 22:46:44*
%MOMM*%
%LPD*%
G01*
G04 APERTURE LIST*
%ADD10C,0.050000*%
G04 APERTURE END LIST*
%TO.C,C3*%
D10*
X167090000Y-104540000D02*
X168910000Y-104540000D01*
X168910000Y-105460000D01*
X167090000Y-105460000D01*
X167090000Y-104540000D01*
%TO.C,J4*%
X103300000Y-145350000D02*
X112700000Y-145350000D01*
X103300000Y-151850000D02*
X103300000Y-145350000D01*
X112700000Y-145350000D02*
X112700000Y-151850000D01*
X112700000Y-151850000D02*
X103300000Y-151850000D01*
%TO.C,R5*%
X171270000Y-131480000D02*
X172730000Y-131480000D01*
X172730000Y-128520000D01*
X171270000Y-128520000D01*
X171270000Y-131480000D01*
%TO.C,C5*%
X129090000Y-89540000D02*
X130910000Y-89540000D01*
X130910000Y-90460000D01*
X129090000Y-90460000D01*
X129090000Y-89540000D01*
%TO.C,C4*%
X127090000Y-134540000D02*
X128910000Y-134540000D01*
X128910000Y-135460000D01*
X127090000Y-135460000D01*
X127090000Y-134540000D01*
%TO.C,R3*%
X175270000Y-91480000D02*
X176730000Y-91480000D01*
X176730000Y-88520000D01*
X175270000Y-88520000D01*
X175270000Y-91480000D01*
%TO.C,J2*%
X140230000Y-106220000D02*
X146320000Y-106220000D01*
X146320000Y-158030000D01*
X140230000Y-158030000D01*
X140230000Y-106220000D01*
%TO.C,J1*%
X101230000Y-98230000D02*
X104770000Y-98230000D01*
X104770000Y-104320000D01*
X101230000Y-104320000D01*
X101230000Y-98230000D01*
%TO.C,C8*%
X133090000Y-93540000D02*
X134910000Y-93540000D01*
X134910000Y-94460000D01*
X133090000Y-94460000D01*
X133090000Y-93540000D01*
%TO.C,J5*%
X173230000Y-133230000D02*
X176770000Y-133230000D01*
X176770000Y-144390000D01*
X173230000Y-144390000D01*
X173230000Y-133230000D01*
%TO.C,C6*%
X133090000Y-89540000D02*
X134910000Y-89540000D01*
X134910000Y-90460000D01*
X133090000Y-90460000D01*
X133090000Y-89540000D01*
%TO.C,J3*%
X190230000Y-96230000D02*
X193770000Y-96230000D01*
X193770000Y-107390000D01*
X190230000Y-107390000D01*
X190230000Y-96230000D01*
%TO.C,C2*%
X123300000Y-101020000D02*
X126700000Y-101020000D01*
X126700000Y-102980000D01*
X123300000Y-102980000D01*
X123300000Y-101020000D01*
%TO.C,J7*%
X190230000Y-134230000D02*
X193770000Y-134230000D01*
X193770000Y-155550000D01*
X190230000Y-155550000D01*
X190230000Y-134230000D01*
%TO.C,R4*%
X167270000Y-131480000D02*
X168730000Y-131480000D01*
X168730000Y-128520000D01*
X167270000Y-128520000D01*
X167270000Y-131480000D01*
%TO.C,R2*%
X171270000Y-91480000D02*
X172730000Y-91480000D01*
X172730000Y-88520000D01*
X171270000Y-88520000D01*
X171270000Y-91480000D01*
%TO.C,U1*%
X171300000Y-95540000D02*
X172800000Y-95540000D01*
X171300000Y-100460000D02*
X171300000Y-95540000D01*
X172800000Y-95300000D02*
X177200000Y-95300000D01*
X172800000Y-95540000D02*
X172800000Y-95300000D01*
X172800000Y-100460000D02*
X171300000Y-100460000D01*
X172800000Y-100700000D02*
X172800000Y-100460000D01*
X177200000Y-95300000D02*
X177200000Y-95540000D01*
X177200000Y-95540000D02*
X178700000Y-95540000D01*
X177200000Y-100460000D02*
X177200000Y-100700000D01*
X177200000Y-100700000D02*
X172800000Y-100700000D01*
X178700000Y-95540000D02*
X178700000Y-100460000D01*
X178700000Y-100460000D02*
X177200000Y-100460000D01*
%TO.C,U2*%
X115400000Y-133620000D02*
X115750000Y-133620000D01*
X115400000Y-136380000D02*
X115400000Y-133620000D01*
X115750000Y-132750000D02*
X116620000Y-132750000D01*
X115750000Y-133620000D02*
X115750000Y-132750000D01*
X115750000Y-136380000D02*
X115400000Y-136380000D01*
X115750000Y-137250000D02*
X115750000Y-136380000D01*
X116620000Y-132400000D02*
X119380000Y-132400000D01*
X116620000Y-132750000D02*
X116620000Y-132400000D01*
X116620000Y-137250000D02*
X115750000Y-137250000D01*
X116620000Y-137600000D02*
X116620000Y-137250000D01*
X119380000Y-132400000D02*
X119380000Y-132750000D01*
X119380000Y-132750000D02*
X120250000Y-132750000D01*
X119380000Y-137250000D02*
X119380000Y-137600000D01*
X119380000Y-137600000D02*
X116620000Y-137600000D01*
X120250000Y-132750000D02*
X120250000Y-133620000D01*
X120250000Y-133620000D02*
X120600000Y-133620000D01*
X120250000Y-136380000D02*
X120250000Y-137250000D01*
X120250000Y-137250000D02*
X119380000Y-137250000D01*
X120600000Y-133620000D02*
X120600000Y-136380000D01*
X120600000Y-136380000D02*
X120250000Y-136380000D01*
%TO.C,J6*%
X183230000Y-133230000D02*
X186770000Y-133230000D01*
X186770000Y-149470000D01*
X183230000Y-149470000D01*
X183230000Y-133230000D01*
%TO.C,Q1*%
X113070000Y-98500000D02*
X114100000Y-98500000D01*
X113070000Y-99610000D02*
X113070000Y-98500000D01*
X113070000Y-100390000D02*
X114100000Y-100390000D01*
X113070000Y-101500000D02*
X113070000Y-100390000D01*
X114100000Y-98300000D02*
X115900000Y-98300000D01*
X114100000Y-98500000D02*
X114100000Y-98300000D01*
X114100000Y-99610000D02*
X113070000Y-99610000D01*
X114100000Y-100390000D02*
X114100000Y-99610000D01*
X114100000Y-101500000D02*
X113070000Y-101500000D01*
X114100000Y-101700000D02*
X114100000Y-101500000D01*
X115900000Y-98300000D02*
X115900000Y-99450000D01*
X115900000Y-99450000D02*
X116930000Y-99450000D01*
X115900000Y-100550000D02*
X115900000Y-101700000D01*
X115900000Y-101700000D02*
X114100000Y-101700000D01*
X116930000Y-99450000D02*
X116930000Y-100550000D01*
X116930000Y-100550000D02*
X115900000Y-100550000D01*
%TO.C,R1*%
X167050000Y-91680000D02*
X168950000Y-91680000D01*
X168950000Y-88320000D01*
X167050000Y-88320000D01*
X167050000Y-91680000D01*
%TO.C,C1*%
X122700000Y-90400000D02*
X127300000Y-90400000D01*
X127300000Y-93600000D01*
X122700000Y-93600000D01*
X122700000Y-90400000D01*
%TO.C,C7*%
X129090000Y-93540000D02*
X130910000Y-93540000D01*
X130910000Y-94460000D01*
X129090000Y-94460000D01*
X129090000Y-93540000D01*
%TO.C,F1*%
X112050000Y-90050000D02*
X117950000Y-90050000D01*
X117950000Y-93950000D01*
X112050000Y-93950000D01*
X112050000Y-90050000D01*
%TD*%
M02*
