%TF.GenerationSoftware,KiCad,Pcbnew,9.0.2*%
%TF.CreationDate,2026-04-04T22:46:44-05:00*%
%TF.ProjectId,cm4_carrier,636d345f-6361-4727-9269-65722e6b6963,rev?*%
%TF.SameCoordinates,Original*%
%TF.FileFunction,AssemblyDrawing,Top*%
%FSLAX46Y46*%
G04 Gerber Fmt 4.6, Leading zero omitted, Abs format (unit mm)*
G04 Created by KiCad (PCBNEW 9.0.2) date 2026-04-04 22:46:44*
%MOMM*%
%LPD*%
G01*
G04 APERTURE LIST*
%ADD10C,0.150000*%
%ADD11C,0.040000*%
%ADD12C,0.060000*%
%ADD13C,0.080000*%
%ADD14C,0.110000*%
%ADD15C,0.120000*%
%ADD16C,0.100000*%
G04 APERTURE END LIST*
D10*
X166452380Y-106614819D02*
X165880952Y-106614819D01*
X166166666Y-106614819D02*
X166166666Y-105614819D01*
X166166666Y-105614819D02*
X166071428Y-105757676D01*
X166071428Y-105757676D02*
X165976190Y-105852914D01*
X165976190Y-105852914D02*
X165880952Y-105900533D01*
X167071428Y-105614819D02*
X167166666Y-105614819D01*
X167166666Y-105614819D02*
X167261904Y-105662438D01*
X167261904Y-105662438D02*
X167309523Y-105710057D01*
X167309523Y-105710057D02*
X167357142Y-105805295D01*
X167357142Y-105805295D02*
X167404761Y-105995771D01*
X167404761Y-105995771D02*
X167404761Y-106233866D01*
X167404761Y-106233866D02*
X167357142Y-106424342D01*
X167357142Y-106424342D02*
X167309523Y-106519580D01*
X167309523Y-106519580D02*
X167261904Y-106567200D01*
X167261904Y-106567200D02*
X167166666Y-106614819D01*
X167166666Y-106614819D02*
X167071428Y-106614819D01*
X167071428Y-106614819D02*
X166976190Y-106567200D01*
X166976190Y-106567200D02*
X166928571Y-106519580D01*
X166928571Y-106519580D02*
X166880952Y-106424342D01*
X166880952Y-106424342D02*
X166833333Y-106233866D01*
X166833333Y-106233866D02*
X166833333Y-105995771D01*
X166833333Y-105995771D02*
X166880952Y-105805295D01*
X166880952Y-105805295D02*
X166928571Y-105710057D01*
X166928571Y-105710057D02*
X166976190Y-105662438D01*
X166976190Y-105662438D02*
X167071428Y-105614819D01*
X168023809Y-105614819D02*
X168119047Y-105614819D01*
X168119047Y-105614819D02*
X168214285Y-105662438D01*
X168214285Y-105662438D02*
X168261904Y-105710057D01*
X168261904Y-105710057D02*
X168309523Y-105805295D01*
X168309523Y-105805295D02*
X168357142Y-105995771D01*
X168357142Y-105995771D02*
X168357142Y-106233866D01*
X168357142Y-106233866D02*
X168309523Y-106424342D01*
X168309523Y-106424342D02*
X168261904Y-106519580D01*
X168261904Y-106519580D02*
X168214285Y-106567200D01*
X168214285Y-106567200D02*
X168119047Y-106614819D01*
X168119047Y-106614819D02*
X168023809Y-106614819D01*
X168023809Y-106614819D02*
X167928571Y-106567200D01*
X167928571Y-106567200D02*
X167880952Y-106519580D01*
X167880952Y-106519580D02*
X167833333Y-106424342D01*
X167833333Y-106424342D02*
X167785714Y-106233866D01*
X167785714Y-106233866D02*
X167785714Y-105995771D01*
X167785714Y-105995771D02*
X167833333Y-105805295D01*
X167833333Y-105805295D02*
X167880952Y-105710057D01*
X167880952Y-105710057D02*
X167928571Y-105662438D01*
X167928571Y-105662438D02*
X168023809Y-105614819D01*
X168785714Y-105948152D02*
X168785714Y-106614819D01*
X168785714Y-106043390D02*
X168833333Y-105995771D01*
X168833333Y-105995771D02*
X168928571Y-105948152D01*
X168928571Y-105948152D02*
X169071428Y-105948152D01*
X169071428Y-105948152D02*
X169166666Y-105995771D01*
X169166666Y-105995771D02*
X169214285Y-106091009D01*
X169214285Y-106091009D02*
X169214285Y-106614819D01*
X170023809Y-106091009D02*
X169690476Y-106091009D01*
X169690476Y-106614819D02*
X169690476Y-105614819D01*
X169690476Y-105614819D02*
X170166666Y-105614819D01*
D11*
X167958333Y-105089765D02*
X167946429Y-105101670D01*
X167946429Y-105101670D02*
X167910714Y-105113574D01*
X167910714Y-105113574D02*
X167886905Y-105113574D01*
X167886905Y-105113574D02*
X167851191Y-105101670D01*
X167851191Y-105101670D02*
X167827381Y-105077860D01*
X167827381Y-105077860D02*
X167815476Y-105054050D01*
X167815476Y-105054050D02*
X167803572Y-105006431D01*
X167803572Y-105006431D02*
X167803572Y-104970717D01*
X167803572Y-104970717D02*
X167815476Y-104923098D01*
X167815476Y-104923098D02*
X167827381Y-104899289D01*
X167827381Y-104899289D02*
X167851191Y-104875479D01*
X167851191Y-104875479D02*
X167886905Y-104863574D01*
X167886905Y-104863574D02*
X167910714Y-104863574D01*
X167910714Y-104863574D02*
X167946429Y-104875479D01*
X167946429Y-104875479D02*
X167958333Y-104887384D01*
X168041667Y-104863574D02*
X168196429Y-104863574D01*
X168196429Y-104863574D02*
X168113095Y-104958812D01*
X168113095Y-104958812D02*
X168148810Y-104958812D01*
X168148810Y-104958812D02*
X168172619Y-104970717D01*
X168172619Y-104970717D02*
X168184524Y-104982622D01*
X168184524Y-104982622D02*
X168196429Y-105006431D01*
X168196429Y-105006431D02*
X168196429Y-105065955D01*
X168196429Y-105065955D02*
X168184524Y-105089765D01*
X168184524Y-105089765D02*
X168172619Y-105101670D01*
X168172619Y-105101670D02*
X168148810Y-105113574D01*
X168148810Y-105113574D02*
X168077381Y-105113574D01*
X168077381Y-105113574D02*
X168053572Y-105101670D01*
X168053572Y-105101670D02*
X168041667Y-105089765D01*
D10*
X103880952Y-152054819D02*
X103880952Y-152864342D01*
X103880952Y-152864342D02*
X103928571Y-152959580D01*
X103928571Y-152959580D02*
X103976190Y-153007200D01*
X103976190Y-153007200D02*
X104071428Y-153054819D01*
X104071428Y-153054819D02*
X104261904Y-153054819D01*
X104261904Y-153054819D02*
X104357142Y-153007200D01*
X104357142Y-153007200D02*
X104404761Y-152959580D01*
X104404761Y-152959580D02*
X104452380Y-152864342D01*
X104452380Y-152864342D02*
X104452380Y-152054819D01*
X104880952Y-153007200D02*
X105023809Y-153054819D01*
X105023809Y-153054819D02*
X105261904Y-153054819D01*
X105261904Y-153054819D02*
X105357142Y-153007200D01*
X105357142Y-153007200D02*
X105404761Y-152959580D01*
X105404761Y-152959580D02*
X105452380Y-152864342D01*
X105452380Y-152864342D02*
X105452380Y-152769104D01*
X105452380Y-152769104D02*
X105404761Y-152673866D01*
X105404761Y-152673866D02*
X105357142Y-152626247D01*
X105357142Y-152626247D02*
X105261904Y-152578628D01*
X105261904Y-152578628D02*
X105071428Y-152531009D01*
X105071428Y-152531009D02*
X104976190Y-152483390D01*
X104976190Y-152483390D02*
X104928571Y-152435771D01*
X104928571Y-152435771D02*
X104880952Y-152340533D01*
X104880952Y-152340533D02*
X104880952Y-152245295D01*
X104880952Y-152245295D02*
X104928571Y-152150057D01*
X104928571Y-152150057D02*
X104976190Y-152102438D01*
X104976190Y-152102438D02*
X105071428Y-152054819D01*
X105071428Y-152054819D02*
X105309523Y-152054819D01*
X105309523Y-152054819D02*
X105452380Y-152102438D01*
X106214285Y-152531009D02*
X106357142Y-152578628D01*
X106357142Y-152578628D02*
X106404761Y-152626247D01*
X106404761Y-152626247D02*
X106452380Y-152721485D01*
X106452380Y-152721485D02*
X106452380Y-152864342D01*
X106452380Y-152864342D02*
X106404761Y-152959580D01*
X106404761Y-152959580D02*
X106357142Y-153007200D01*
X106357142Y-153007200D02*
X106261904Y-153054819D01*
X106261904Y-153054819D02*
X105880952Y-153054819D01*
X105880952Y-153054819D02*
X105880952Y-152054819D01*
X105880952Y-152054819D02*
X106214285Y-152054819D01*
X106214285Y-152054819D02*
X106309523Y-152102438D01*
X106309523Y-152102438D02*
X106357142Y-152150057D01*
X106357142Y-152150057D02*
X106404761Y-152245295D01*
X106404761Y-152245295D02*
X106404761Y-152340533D01*
X106404761Y-152340533D02*
X106357142Y-152435771D01*
X106357142Y-152435771D02*
X106309523Y-152483390D01*
X106309523Y-152483390D02*
X106214285Y-152531009D01*
X106214285Y-152531009D02*
X105880952Y-152531009D01*
X106642857Y-153150057D02*
X107404761Y-153150057D01*
X107642857Y-153054819D02*
X107642857Y-152054819D01*
X107642857Y-152054819D02*
X107880952Y-152054819D01*
X107880952Y-152054819D02*
X108023809Y-152102438D01*
X108023809Y-152102438D02*
X108119047Y-152197676D01*
X108119047Y-152197676D02*
X108166666Y-152292914D01*
X108166666Y-152292914D02*
X108214285Y-152483390D01*
X108214285Y-152483390D02*
X108214285Y-152626247D01*
X108214285Y-152626247D02*
X108166666Y-152816723D01*
X108166666Y-152816723D02*
X108119047Y-152911961D01*
X108119047Y-152911961D02*
X108023809Y-153007200D01*
X108023809Y-153007200D02*
X107880952Y-153054819D01*
X107880952Y-153054819D02*
X107642857Y-153054819D01*
X108642857Y-152531009D02*
X108976190Y-152531009D01*
X109119047Y-153054819D02*
X108642857Y-153054819D01*
X108642857Y-153054819D02*
X108642857Y-152054819D01*
X108642857Y-152054819D02*
X109119047Y-152054819D01*
X109880952Y-152531009D02*
X110023809Y-152578628D01*
X110023809Y-152578628D02*
X110071428Y-152626247D01*
X110071428Y-152626247D02*
X110119047Y-152721485D01*
X110119047Y-152721485D02*
X110119047Y-152864342D01*
X110119047Y-152864342D02*
X110071428Y-152959580D01*
X110071428Y-152959580D02*
X110023809Y-153007200D01*
X110023809Y-153007200D02*
X109928571Y-153054819D01*
X109928571Y-153054819D02*
X109547619Y-153054819D01*
X109547619Y-153054819D02*
X109547619Y-152054819D01*
X109547619Y-152054819D02*
X109880952Y-152054819D01*
X109880952Y-152054819D02*
X109976190Y-152102438D01*
X109976190Y-152102438D02*
X110023809Y-152150057D01*
X110023809Y-152150057D02*
X110071428Y-152245295D01*
X110071428Y-152245295D02*
X110071428Y-152340533D01*
X110071428Y-152340533D02*
X110023809Y-152435771D01*
X110023809Y-152435771D02*
X109976190Y-152483390D01*
X109976190Y-152483390D02*
X109880952Y-152531009D01*
X109880952Y-152531009D02*
X109547619Y-152531009D01*
X110547619Y-152054819D02*
X110547619Y-152864342D01*
X110547619Y-152864342D02*
X110595238Y-152959580D01*
X110595238Y-152959580D02*
X110642857Y-153007200D01*
X110642857Y-153007200D02*
X110738095Y-153054819D01*
X110738095Y-153054819D02*
X110928571Y-153054819D01*
X110928571Y-153054819D02*
X111023809Y-153007200D01*
X111023809Y-153007200D02*
X111071428Y-152959580D01*
X111071428Y-152959580D02*
X111119047Y-152864342D01*
X111119047Y-152864342D02*
X111119047Y-152054819D01*
X112119047Y-152102438D02*
X112023809Y-152054819D01*
X112023809Y-152054819D02*
X111880952Y-152054819D01*
X111880952Y-152054819D02*
X111738095Y-152102438D01*
X111738095Y-152102438D02*
X111642857Y-152197676D01*
X111642857Y-152197676D02*
X111595238Y-152292914D01*
X111595238Y-152292914D02*
X111547619Y-152483390D01*
X111547619Y-152483390D02*
X111547619Y-152626247D01*
X111547619Y-152626247D02*
X111595238Y-152816723D01*
X111595238Y-152816723D02*
X111642857Y-152911961D01*
X111642857Y-152911961D02*
X111738095Y-153007200D01*
X111738095Y-153007200D02*
X111880952Y-153054819D01*
X111880952Y-153054819D02*
X111976190Y-153054819D01*
X111976190Y-153054819D02*
X112119047Y-153007200D01*
X112119047Y-153007200D02*
X112166666Y-152959580D01*
X112166666Y-152959580D02*
X112166666Y-152626247D01*
X112166666Y-152626247D02*
X111976190Y-152626247D01*
X107666666Y-148654819D02*
X107666666Y-149369104D01*
X107666666Y-149369104D02*
X107619047Y-149511961D01*
X107619047Y-149511961D02*
X107523809Y-149607200D01*
X107523809Y-149607200D02*
X107380952Y-149654819D01*
X107380952Y-149654819D02*
X107285714Y-149654819D01*
X108571428Y-148988152D02*
X108571428Y-149654819D01*
X108333333Y-148607200D02*
X108095238Y-149321485D01*
X108095238Y-149321485D02*
X108714285Y-149321485D01*
X172980057Y-131404761D02*
X172932438Y-131357142D01*
X172932438Y-131357142D02*
X172884819Y-131261904D01*
X172884819Y-131261904D02*
X172884819Y-131023809D01*
X172884819Y-131023809D02*
X172932438Y-130928571D01*
X172932438Y-130928571D02*
X172980057Y-130880952D01*
X172980057Y-130880952D02*
X173075295Y-130833333D01*
X173075295Y-130833333D02*
X173170533Y-130833333D01*
X173170533Y-130833333D02*
X173313390Y-130880952D01*
X173313390Y-130880952D02*
X173884819Y-131452380D01*
X173884819Y-131452380D02*
X173884819Y-130833333D01*
X173789580Y-130404761D02*
X173837200Y-130357142D01*
X173837200Y-130357142D02*
X173884819Y-130404761D01*
X173884819Y-130404761D02*
X173837200Y-130452380D01*
X173837200Y-130452380D02*
X173789580Y-130404761D01*
X173789580Y-130404761D02*
X173884819Y-130404761D01*
X172980057Y-129976190D02*
X172932438Y-129928571D01*
X172932438Y-129928571D02*
X172884819Y-129833333D01*
X172884819Y-129833333D02*
X172884819Y-129595238D01*
X172884819Y-129595238D02*
X172932438Y-129500000D01*
X172932438Y-129500000D02*
X172980057Y-129452381D01*
X172980057Y-129452381D02*
X173075295Y-129404762D01*
X173075295Y-129404762D02*
X173170533Y-129404762D01*
X173170533Y-129404762D02*
X173313390Y-129452381D01*
X173313390Y-129452381D02*
X173884819Y-130023809D01*
X173884819Y-130023809D02*
X173884819Y-129404762D01*
X173884819Y-128976190D02*
X172884819Y-128976190D01*
X173503866Y-128880952D02*
X173884819Y-128595238D01*
X173218152Y-128595238D02*
X173599104Y-128976190D01*
D12*
X172181927Y-130066666D02*
X171991451Y-130199999D01*
X172181927Y-130295237D02*
X171781927Y-130295237D01*
X171781927Y-130295237D02*
X171781927Y-130142856D01*
X171781927Y-130142856D02*
X171800975Y-130104761D01*
X171800975Y-130104761D02*
X171820022Y-130085714D01*
X171820022Y-130085714D02*
X171858118Y-130066666D01*
X171858118Y-130066666D02*
X171915260Y-130066666D01*
X171915260Y-130066666D02*
X171953356Y-130085714D01*
X171953356Y-130085714D02*
X171972403Y-130104761D01*
X171972403Y-130104761D02*
X171991451Y-130142856D01*
X171991451Y-130142856D02*
X171991451Y-130295237D01*
X171781927Y-129704761D02*
X171781927Y-129895237D01*
X171781927Y-129895237D02*
X171972403Y-129914285D01*
X171972403Y-129914285D02*
X171953356Y-129895237D01*
X171953356Y-129895237D02*
X171934308Y-129857142D01*
X171934308Y-129857142D02*
X171934308Y-129761904D01*
X171934308Y-129761904D02*
X171953356Y-129723809D01*
X171953356Y-129723809D02*
X171972403Y-129704761D01*
X171972403Y-129704761D02*
X172010499Y-129685714D01*
X172010499Y-129685714D02*
X172105737Y-129685714D01*
X172105737Y-129685714D02*
X172143832Y-129704761D01*
X172143832Y-129704761D02*
X172162880Y-129723809D01*
X172162880Y-129723809D02*
X172181927Y-129761904D01*
X172181927Y-129761904D02*
X172181927Y-129857142D01*
X172181927Y-129857142D02*
X172162880Y-129895237D01*
X172162880Y-129895237D02*
X172143832Y-129914285D01*
D10*
X128452380Y-91614819D02*
X127880952Y-91614819D01*
X128166666Y-91614819D02*
X128166666Y-90614819D01*
X128166666Y-90614819D02*
X128071428Y-90757676D01*
X128071428Y-90757676D02*
X127976190Y-90852914D01*
X127976190Y-90852914D02*
X127880952Y-90900533D01*
X129071428Y-90614819D02*
X129166666Y-90614819D01*
X129166666Y-90614819D02*
X129261904Y-90662438D01*
X129261904Y-90662438D02*
X129309523Y-90710057D01*
X129309523Y-90710057D02*
X129357142Y-90805295D01*
X129357142Y-90805295D02*
X129404761Y-90995771D01*
X129404761Y-90995771D02*
X129404761Y-91233866D01*
X129404761Y-91233866D02*
X129357142Y-91424342D01*
X129357142Y-91424342D02*
X129309523Y-91519580D01*
X129309523Y-91519580D02*
X129261904Y-91567200D01*
X129261904Y-91567200D02*
X129166666Y-91614819D01*
X129166666Y-91614819D02*
X129071428Y-91614819D01*
X129071428Y-91614819D02*
X128976190Y-91567200D01*
X128976190Y-91567200D02*
X128928571Y-91519580D01*
X128928571Y-91519580D02*
X128880952Y-91424342D01*
X128880952Y-91424342D02*
X128833333Y-91233866D01*
X128833333Y-91233866D02*
X128833333Y-90995771D01*
X128833333Y-90995771D02*
X128880952Y-90805295D01*
X128880952Y-90805295D02*
X128928571Y-90710057D01*
X128928571Y-90710057D02*
X128976190Y-90662438D01*
X128976190Y-90662438D02*
X129071428Y-90614819D01*
X130023809Y-90614819D02*
X130119047Y-90614819D01*
X130119047Y-90614819D02*
X130214285Y-90662438D01*
X130214285Y-90662438D02*
X130261904Y-90710057D01*
X130261904Y-90710057D02*
X130309523Y-90805295D01*
X130309523Y-90805295D02*
X130357142Y-90995771D01*
X130357142Y-90995771D02*
X130357142Y-91233866D01*
X130357142Y-91233866D02*
X130309523Y-91424342D01*
X130309523Y-91424342D02*
X130261904Y-91519580D01*
X130261904Y-91519580D02*
X130214285Y-91567200D01*
X130214285Y-91567200D02*
X130119047Y-91614819D01*
X130119047Y-91614819D02*
X130023809Y-91614819D01*
X130023809Y-91614819D02*
X129928571Y-91567200D01*
X129928571Y-91567200D02*
X129880952Y-91519580D01*
X129880952Y-91519580D02*
X129833333Y-91424342D01*
X129833333Y-91424342D02*
X129785714Y-91233866D01*
X129785714Y-91233866D02*
X129785714Y-90995771D01*
X129785714Y-90995771D02*
X129833333Y-90805295D01*
X129833333Y-90805295D02*
X129880952Y-90710057D01*
X129880952Y-90710057D02*
X129928571Y-90662438D01*
X129928571Y-90662438D02*
X130023809Y-90614819D01*
X130785714Y-90948152D02*
X130785714Y-91614819D01*
X130785714Y-91043390D02*
X130833333Y-90995771D01*
X130833333Y-90995771D02*
X130928571Y-90948152D01*
X130928571Y-90948152D02*
X131071428Y-90948152D01*
X131071428Y-90948152D02*
X131166666Y-90995771D01*
X131166666Y-90995771D02*
X131214285Y-91091009D01*
X131214285Y-91091009D02*
X131214285Y-91614819D01*
X132023809Y-91091009D02*
X131690476Y-91091009D01*
X131690476Y-91614819D02*
X131690476Y-90614819D01*
X131690476Y-90614819D02*
X132166666Y-90614819D01*
D11*
X129958333Y-90089765D02*
X129946429Y-90101670D01*
X129946429Y-90101670D02*
X129910714Y-90113574D01*
X129910714Y-90113574D02*
X129886905Y-90113574D01*
X129886905Y-90113574D02*
X129851191Y-90101670D01*
X129851191Y-90101670D02*
X129827381Y-90077860D01*
X129827381Y-90077860D02*
X129815476Y-90054050D01*
X129815476Y-90054050D02*
X129803572Y-90006431D01*
X129803572Y-90006431D02*
X129803572Y-89970717D01*
X129803572Y-89970717D02*
X129815476Y-89923098D01*
X129815476Y-89923098D02*
X129827381Y-89899289D01*
X129827381Y-89899289D02*
X129851191Y-89875479D01*
X129851191Y-89875479D02*
X129886905Y-89863574D01*
X129886905Y-89863574D02*
X129910714Y-89863574D01*
X129910714Y-89863574D02*
X129946429Y-89875479D01*
X129946429Y-89875479D02*
X129958333Y-89887384D01*
X130184524Y-89863574D02*
X130065476Y-89863574D01*
X130065476Y-89863574D02*
X130053572Y-89982622D01*
X130053572Y-89982622D02*
X130065476Y-89970717D01*
X130065476Y-89970717D02*
X130089286Y-89958812D01*
X130089286Y-89958812D02*
X130148810Y-89958812D01*
X130148810Y-89958812D02*
X130172619Y-89970717D01*
X130172619Y-89970717D02*
X130184524Y-89982622D01*
X130184524Y-89982622D02*
X130196429Y-90006431D01*
X130196429Y-90006431D02*
X130196429Y-90065955D01*
X130196429Y-90065955D02*
X130184524Y-90089765D01*
X130184524Y-90089765D02*
X130172619Y-90101670D01*
X130172619Y-90101670D02*
X130148810Y-90113574D01*
X130148810Y-90113574D02*
X130089286Y-90113574D01*
X130089286Y-90113574D02*
X130065476Y-90101670D01*
X130065476Y-90101670D02*
X130053572Y-90089765D01*
D10*
X126452380Y-136614819D02*
X125880952Y-136614819D01*
X126166666Y-136614819D02*
X126166666Y-135614819D01*
X126166666Y-135614819D02*
X126071428Y-135757676D01*
X126071428Y-135757676D02*
X125976190Y-135852914D01*
X125976190Y-135852914D02*
X125880952Y-135900533D01*
X127071428Y-135614819D02*
X127166666Y-135614819D01*
X127166666Y-135614819D02*
X127261904Y-135662438D01*
X127261904Y-135662438D02*
X127309523Y-135710057D01*
X127309523Y-135710057D02*
X127357142Y-135805295D01*
X127357142Y-135805295D02*
X127404761Y-135995771D01*
X127404761Y-135995771D02*
X127404761Y-136233866D01*
X127404761Y-136233866D02*
X127357142Y-136424342D01*
X127357142Y-136424342D02*
X127309523Y-136519580D01*
X127309523Y-136519580D02*
X127261904Y-136567200D01*
X127261904Y-136567200D02*
X127166666Y-136614819D01*
X127166666Y-136614819D02*
X127071428Y-136614819D01*
X127071428Y-136614819D02*
X126976190Y-136567200D01*
X126976190Y-136567200D02*
X126928571Y-136519580D01*
X126928571Y-136519580D02*
X126880952Y-136424342D01*
X126880952Y-136424342D02*
X126833333Y-136233866D01*
X126833333Y-136233866D02*
X126833333Y-135995771D01*
X126833333Y-135995771D02*
X126880952Y-135805295D01*
X126880952Y-135805295D02*
X126928571Y-135710057D01*
X126928571Y-135710057D02*
X126976190Y-135662438D01*
X126976190Y-135662438D02*
X127071428Y-135614819D01*
X128023809Y-135614819D02*
X128119047Y-135614819D01*
X128119047Y-135614819D02*
X128214285Y-135662438D01*
X128214285Y-135662438D02*
X128261904Y-135710057D01*
X128261904Y-135710057D02*
X128309523Y-135805295D01*
X128309523Y-135805295D02*
X128357142Y-135995771D01*
X128357142Y-135995771D02*
X128357142Y-136233866D01*
X128357142Y-136233866D02*
X128309523Y-136424342D01*
X128309523Y-136424342D02*
X128261904Y-136519580D01*
X128261904Y-136519580D02*
X128214285Y-136567200D01*
X128214285Y-136567200D02*
X128119047Y-136614819D01*
X128119047Y-136614819D02*
X128023809Y-136614819D01*
X128023809Y-136614819D02*
X127928571Y-136567200D01*
X127928571Y-136567200D02*
X127880952Y-136519580D01*
X127880952Y-136519580D02*
X127833333Y-136424342D01*
X127833333Y-136424342D02*
X127785714Y-136233866D01*
X127785714Y-136233866D02*
X127785714Y-135995771D01*
X127785714Y-135995771D02*
X127833333Y-135805295D01*
X127833333Y-135805295D02*
X127880952Y-135710057D01*
X127880952Y-135710057D02*
X127928571Y-135662438D01*
X127928571Y-135662438D02*
X128023809Y-135614819D01*
X128785714Y-135948152D02*
X128785714Y-136614819D01*
X128785714Y-136043390D02*
X128833333Y-135995771D01*
X128833333Y-135995771D02*
X128928571Y-135948152D01*
X128928571Y-135948152D02*
X129071428Y-135948152D01*
X129071428Y-135948152D02*
X129166666Y-135995771D01*
X129166666Y-135995771D02*
X129214285Y-136091009D01*
X129214285Y-136091009D02*
X129214285Y-136614819D01*
X130023809Y-136091009D02*
X129690476Y-136091009D01*
X129690476Y-136614819D02*
X129690476Y-135614819D01*
X129690476Y-135614819D02*
X130166666Y-135614819D01*
D11*
X127958333Y-135089765D02*
X127946429Y-135101670D01*
X127946429Y-135101670D02*
X127910714Y-135113574D01*
X127910714Y-135113574D02*
X127886905Y-135113574D01*
X127886905Y-135113574D02*
X127851191Y-135101670D01*
X127851191Y-135101670D02*
X127827381Y-135077860D01*
X127827381Y-135077860D02*
X127815476Y-135054050D01*
X127815476Y-135054050D02*
X127803572Y-135006431D01*
X127803572Y-135006431D02*
X127803572Y-134970717D01*
X127803572Y-134970717D02*
X127815476Y-134923098D01*
X127815476Y-134923098D02*
X127827381Y-134899289D01*
X127827381Y-134899289D02*
X127851191Y-134875479D01*
X127851191Y-134875479D02*
X127886905Y-134863574D01*
X127886905Y-134863574D02*
X127910714Y-134863574D01*
X127910714Y-134863574D02*
X127946429Y-134875479D01*
X127946429Y-134875479D02*
X127958333Y-134887384D01*
X128172619Y-134946908D02*
X128172619Y-135113574D01*
X128113095Y-134851670D02*
X128053572Y-135030241D01*
X128053572Y-135030241D02*
X128208333Y-135030241D01*
D10*
X176884819Y-90714285D02*
X176884819Y-91190475D01*
X176884819Y-91190475D02*
X177361009Y-91238094D01*
X177361009Y-91238094D02*
X177313390Y-91190475D01*
X177313390Y-91190475D02*
X177265771Y-91095237D01*
X177265771Y-91095237D02*
X177265771Y-90857142D01*
X177265771Y-90857142D02*
X177313390Y-90761904D01*
X177313390Y-90761904D02*
X177361009Y-90714285D01*
X177361009Y-90714285D02*
X177456247Y-90666666D01*
X177456247Y-90666666D02*
X177694342Y-90666666D01*
X177694342Y-90666666D02*
X177789580Y-90714285D01*
X177789580Y-90714285D02*
X177837200Y-90761904D01*
X177837200Y-90761904D02*
X177884819Y-90857142D01*
X177884819Y-90857142D02*
X177884819Y-91095237D01*
X177884819Y-91095237D02*
X177837200Y-91190475D01*
X177837200Y-91190475D02*
X177789580Y-91238094D01*
X176884819Y-89809523D02*
X176884819Y-89999999D01*
X176884819Y-89999999D02*
X176932438Y-90095237D01*
X176932438Y-90095237D02*
X176980057Y-90142856D01*
X176980057Y-90142856D02*
X177122914Y-90238094D01*
X177122914Y-90238094D02*
X177313390Y-90285713D01*
X177313390Y-90285713D02*
X177694342Y-90285713D01*
X177694342Y-90285713D02*
X177789580Y-90238094D01*
X177789580Y-90238094D02*
X177837200Y-90190475D01*
X177837200Y-90190475D02*
X177884819Y-90095237D01*
X177884819Y-90095237D02*
X177884819Y-89904761D01*
X177884819Y-89904761D02*
X177837200Y-89809523D01*
X177837200Y-89809523D02*
X177789580Y-89761904D01*
X177789580Y-89761904D02*
X177694342Y-89714285D01*
X177694342Y-89714285D02*
X177456247Y-89714285D01*
X177456247Y-89714285D02*
X177361009Y-89761904D01*
X177361009Y-89761904D02*
X177313390Y-89809523D01*
X177313390Y-89809523D02*
X177265771Y-89904761D01*
X177265771Y-89904761D02*
X177265771Y-90095237D01*
X177265771Y-90095237D02*
X177313390Y-90190475D01*
X177313390Y-90190475D02*
X177361009Y-90238094D01*
X177361009Y-90238094D02*
X177456247Y-90285713D01*
X176884819Y-89095237D02*
X176884819Y-88999999D01*
X176884819Y-88999999D02*
X176932438Y-88904761D01*
X176932438Y-88904761D02*
X176980057Y-88857142D01*
X176980057Y-88857142D02*
X177075295Y-88809523D01*
X177075295Y-88809523D02*
X177265771Y-88761904D01*
X177265771Y-88761904D02*
X177503866Y-88761904D01*
X177503866Y-88761904D02*
X177694342Y-88809523D01*
X177694342Y-88809523D02*
X177789580Y-88857142D01*
X177789580Y-88857142D02*
X177837200Y-88904761D01*
X177837200Y-88904761D02*
X177884819Y-88999999D01*
X177884819Y-88999999D02*
X177884819Y-89095237D01*
X177884819Y-89095237D02*
X177837200Y-89190475D01*
X177837200Y-89190475D02*
X177789580Y-89238094D01*
X177789580Y-89238094D02*
X177694342Y-89285713D01*
X177694342Y-89285713D02*
X177503866Y-89333332D01*
X177503866Y-89333332D02*
X177265771Y-89333332D01*
X177265771Y-89333332D02*
X177075295Y-89285713D01*
X177075295Y-89285713D02*
X176980057Y-89238094D01*
X176980057Y-89238094D02*
X176932438Y-89190475D01*
X176932438Y-89190475D02*
X176884819Y-89095237D01*
D12*
X176181927Y-90066666D02*
X175991451Y-90199999D01*
X176181927Y-90295237D02*
X175781927Y-90295237D01*
X175781927Y-90295237D02*
X175781927Y-90142856D01*
X175781927Y-90142856D02*
X175800975Y-90104761D01*
X175800975Y-90104761D02*
X175820022Y-90085714D01*
X175820022Y-90085714D02*
X175858118Y-90066666D01*
X175858118Y-90066666D02*
X175915260Y-90066666D01*
X175915260Y-90066666D02*
X175953356Y-90085714D01*
X175953356Y-90085714D02*
X175972403Y-90104761D01*
X175972403Y-90104761D02*
X175991451Y-90142856D01*
X175991451Y-90142856D02*
X175991451Y-90295237D01*
X175781927Y-89933333D02*
X175781927Y-89685714D01*
X175781927Y-89685714D02*
X175934308Y-89819047D01*
X175934308Y-89819047D02*
X175934308Y-89761904D01*
X175934308Y-89761904D02*
X175953356Y-89723809D01*
X175953356Y-89723809D02*
X175972403Y-89704761D01*
X175972403Y-89704761D02*
X176010499Y-89685714D01*
X176010499Y-89685714D02*
X176105737Y-89685714D01*
X176105737Y-89685714D02*
X176143832Y-89704761D01*
X176143832Y-89704761D02*
X176162880Y-89723809D01*
X176162880Y-89723809D02*
X176181927Y-89761904D01*
X176181927Y-89761904D02*
X176181927Y-89876190D01*
X176181927Y-89876190D02*
X176162880Y-89914285D01*
X176162880Y-89914285D02*
X176143832Y-89933333D01*
D10*
X142531904Y-158999580D02*
X142484285Y-159047200D01*
X142484285Y-159047200D02*
X142341428Y-159094819D01*
X142341428Y-159094819D02*
X142246190Y-159094819D01*
X142246190Y-159094819D02*
X142103333Y-159047200D01*
X142103333Y-159047200D02*
X142008095Y-158951961D01*
X142008095Y-158951961D02*
X141960476Y-158856723D01*
X141960476Y-158856723D02*
X141912857Y-158666247D01*
X141912857Y-158666247D02*
X141912857Y-158523390D01*
X141912857Y-158523390D02*
X141960476Y-158332914D01*
X141960476Y-158332914D02*
X142008095Y-158237676D01*
X142008095Y-158237676D02*
X142103333Y-158142438D01*
X142103333Y-158142438D02*
X142246190Y-158094819D01*
X142246190Y-158094819D02*
X142341428Y-158094819D01*
X142341428Y-158094819D02*
X142484285Y-158142438D01*
X142484285Y-158142438D02*
X142531904Y-158190057D01*
X142960476Y-159094819D02*
X142960476Y-158094819D01*
X142960476Y-158094819D02*
X143293809Y-158809104D01*
X143293809Y-158809104D02*
X143627142Y-158094819D01*
X143627142Y-158094819D02*
X143627142Y-159094819D01*
X144531904Y-158428152D02*
X144531904Y-159094819D01*
X144293809Y-158047200D02*
X144055714Y-158761485D01*
X144055714Y-158761485D02*
X144674761Y-158761485D01*
X142724819Y-132463333D02*
X143439104Y-132463333D01*
X143439104Y-132463333D02*
X143581961Y-132510952D01*
X143581961Y-132510952D02*
X143677200Y-132606190D01*
X143677200Y-132606190D02*
X143724819Y-132749047D01*
X143724819Y-132749047D02*
X143724819Y-132844285D01*
X142820057Y-132034761D02*
X142772438Y-131987142D01*
X142772438Y-131987142D02*
X142724819Y-131891904D01*
X142724819Y-131891904D02*
X142724819Y-131653809D01*
X142724819Y-131653809D02*
X142772438Y-131558571D01*
X142772438Y-131558571D02*
X142820057Y-131510952D01*
X142820057Y-131510952D02*
X142915295Y-131463333D01*
X142915295Y-131463333D02*
X143010533Y-131463333D01*
X143010533Y-131463333D02*
X143153390Y-131510952D01*
X143153390Y-131510952D02*
X143724819Y-132082380D01*
X143724819Y-132082380D02*
X143724819Y-131463333D01*
X101666666Y-104374819D02*
X101190476Y-104374819D01*
X101190476Y-104374819D02*
X101142857Y-104851009D01*
X101142857Y-104851009D02*
X101190476Y-104803390D01*
X101190476Y-104803390D02*
X101285714Y-104755771D01*
X101285714Y-104755771D02*
X101523809Y-104755771D01*
X101523809Y-104755771D02*
X101619047Y-104803390D01*
X101619047Y-104803390D02*
X101666666Y-104851009D01*
X101666666Y-104851009D02*
X101714285Y-104946247D01*
X101714285Y-104946247D02*
X101714285Y-105184342D01*
X101714285Y-105184342D02*
X101666666Y-105279580D01*
X101666666Y-105279580D02*
X101619047Y-105327200D01*
X101619047Y-105327200D02*
X101523809Y-105374819D01*
X101523809Y-105374819D02*
X101285714Y-105374819D01*
X101285714Y-105374819D02*
X101190476Y-105327200D01*
X101190476Y-105327200D02*
X101142857Y-105279580D01*
X102000000Y-104374819D02*
X102333333Y-105374819D01*
X102333333Y-105374819D02*
X102666666Y-104374819D01*
X102761905Y-105470057D02*
X103523809Y-105470057D01*
X103761905Y-105374819D02*
X103761905Y-104374819D01*
X104238095Y-105374819D02*
X104238095Y-104374819D01*
X104238095Y-104374819D02*
X104809523Y-105374819D01*
X104809523Y-105374819D02*
X104809523Y-104374819D01*
X102454819Y-101603333D02*
X103169104Y-101603333D01*
X103169104Y-101603333D02*
X103311961Y-101650952D01*
X103311961Y-101650952D02*
X103407200Y-101746190D01*
X103407200Y-101746190D02*
X103454819Y-101889047D01*
X103454819Y-101889047D02*
X103454819Y-101984285D01*
X103454819Y-100603333D02*
X103454819Y-101174761D01*
X103454819Y-100889047D02*
X102454819Y-100889047D01*
X102454819Y-100889047D02*
X102597676Y-100984285D01*
X102597676Y-100984285D02*
X102692914Y-101079523D01*
X102692914Y-101079523D02*
X102740533Y-101174761D01*
X132452380Y-95614819D02*
X131880952Y-95614819D01*
X132166666Y-95614819D02*
X132166666Y-94614819D01*
X132166666Y-94614819D02*
X132071428Y-94757676D01*
X132071428Y-94757676D02*
X131976190Y-94852914D01*
X131976190Y-94852914D02*
X131880952Y-94900533D01*
X133071428Y-94614819D02*
X133166666Y-94614819D01*
X133166666Y-94614819D02*
X133261904Y-94662438D01*
X133261904Y-94662438D02*
X133309523Y-94710057D01*
X133309523Y-94710057D02*
X133357142Y-94805295D01*
X133357142Y-94805295D02*
X133404761Y-94995771D01*
X133404761Y-94995771D02*
X133404761Y-95233866D01*
X133404761Y-95233866D02*
X133357142Y-95424342D01*
X133357142Y-95424342D02*
X133309523Y-95519580D01*
X133309523Y-95519580D02*
X133261904Y-95567200D01*
X133261904Y-95567200D02*
X133166666Y-95614819D01*
X133166666Y-95614819D02*
X133071428Y-95614819D01*
X133071428Y-95614819D02*
X132976190Y-95567200D01*
X132976190Y-95567200D02*
X132928571Y-95519580D01*
X132928571Y-95519580D02*
X132880952Y-95424342D01*
X132880952Y-95424342D02*
X132833333Y-95233866D01*
X132833333Y-95233866D02*
X132833333Y-94995771D01*
X132833333Y-94995771D02*
X132880952Y-94805295D01*
X132880952Y-94805295D02*
X132928571Y-94710057D01*
X132928571Y-94710057D02*
X132976190Y-94662438D01*
X132976190Y-94662438D02*
X133071428Y-94614819D01*
X134023809Y-94614819D02*
X134119047Y-94614819D01*
X134119047Y-94614819D02*
X134214285Y-94662438D01*
X134214285Y-94662438D02*
X134261904Y-94710057D01*
X134261904Y-94710057D02*
X134309523Y-94805295D01*
X134309523Y-94805295D02*
X134357142Y-94995771D01*
X134357142Y-94995771D02*
X134357142Y-95233866D01*
X134357142Y-95233866D02*
X134309523Y-95424342D01*
X134309523Y-95424342D02*
X134261904Y-95519580D01*
X134261904Y-95519580D02*
X134214285Y-95567200D01*
X134214285Y-95567200D02*
X134119047Y-95614819D01*
X134119047Y-95614819D02*
X134023809Y-95614819D01*
X134023809Y-95614819D02*
X133928571Y-95567200D01*
X133928571Y-95567200D02*
X133880952Y-95519580D01*
X133880952Y-95519580D02*
X133833333Y-95424342D01*
X133833333Y-95424342D02*
X133785714Y-95233866D01*
X133785714Y-95233866D02*
X133785714Y-94995771D01*
X133785714Y-94995771D02*
X133833333Y-94805295D01*
X133833333Y-94805295D02*
X133880952Y-94710057D01*
X133880952Y-94710057D02*
X133928571Y-94662438D01*
X133928571Y-94662438D02*
X134023809Y-94614819D01*
X134785714Y-94948152D02*
X134785714Y-95614819D01*
X134785714Y-95043390D02*
X134833333Y-94995771D01*
X134833333Y-94995771D02*
X134928571Y-94948152D01*
X134928571Y-94948152D02*
X135071428Y-94948152D01*
X135071428Y-94948152D02*
X135166666Y-94995771D01*
X135166666Y-94995771D02*
X135214285Y-95091009D01*
X135214285Y-95091009D02*
X135214285Y-95614819D01*
X136023809Y-95091009D02*
X135690476Y-95091009D01*
X135690476Y-95614819D02*
X135690476Y-94614819D01*
X135690476Y-94614819D02*
X136166666Y-94614819D01*
D11*
X133958333Y-94089765D02*
X133946429Y-94101670D01*
X133946429Y-94101670D02*
X133910714Y-94113574D01*
X133910714Y-94113574D02*
X133886905Y-94113574D01*
X133886905Y-94113574D02*
X133851191Y-94101670D01*
X133851191Y-94101670D02*
X133827381Y-94077860D01*
X133827381Y-94077860D02*
X133815476Y-94054050D01*
X133815476Y-94054050D02*
X133803572Y-94006431D01*
X133803572Y-94006431D02*
X133803572Y-93970717D01*
X133803572Y-93970717D02*
X133815476Y-93923098D01*
X133815476Y-93923098D02*
X133827381Y-93899289D01*
X133827381Y-93899289D02*
X133851191Y-93875479D01*
X133851191Y-93875479D02*
X133886905Y-93863574D01*
X133886905Y-93863574D02*
X133910714Y-93863574D01*
X133910714Y-93863574D02*
X133946429Y-93875479D01*
X133946429Y-93875479D02*
X133958333Y-93887384D01*
X134101191Y-93970717D02*
X134077381Y-93958812D01*
X134077381Y-93958812D02*
X134065476Y-93946908D01*
X134065476Y-93946908D02*
X134053572Y-93923098D01*
X134053572Y-93923098D02*
X134053572Y-93911193D01*
X134053572Y-93911193D02*
X134065476Y-93887384D01*
X134065476Y-93887384D02*
X134077381Y-93875479D01*
X134077381Y-93875479D02*
X134101191Y-93863574D01*
X134101191Y-93863574D02*
X134148810Y-93863574D01*
X134148810Y-93863574D02*
X134172619Y-93875479D01*
X134172619Y-93875479D02*
X134184524Y-93887384D01*
X134184524Y-93887384D02*
X134196429Y-93911193D01*
X134196429Y-93911193D02*
X134196429Y-93923098D01*
X134196429Y-93923098D02*
X134184524Y-93946908D01*
X134184524Y-93946908D02*
X134172619Y-93958812D01*
X134172619Y-93958812D02*
X134148810Y-93970717D01*
X134148810Y-93970717D02*
X134101191Y-93970717D01*
X134101191Y-93970717D02*
X134077381Y-93982622D01*
X134077381Y-93982622D02*
X134065476Y-93994527D01*
X134065476Y-93994527D02*
X134053572Y-94018336D01*
X134053572Y-94018336D02*
X134053572Y-94065955D01*
X134053572Y-94065955D02*
X134065476Y-94089765D01*
X134065476Y-94089765D02*
X134077381Y-94101670D01*
X134077381Y-94101670D02*
X134101191Y-94113574D01*
X134101191Y-94113574D02*
X134148810Y-94113574D01*
X134148810Y-94113574D02*
X134172619Y-94101670D01*
X134172619Y-94101670D02*
X134184524Y-94089765D01*
X134184524Y-94089765D02*
X134196429Y-94065955D01*
X134196429Y-94065955D02*
X134196429Y-94018336D01*
X134196429Y-94018336D02*
X134184524Y-93994527D01*
X134184524Y-93994527D02*
X134172619Y-93982622D01*
X134172619Y-93982622D02*
X134148810Y-93970717D01*
D10*
X174023810Y-145454819D02*
X174023810Y-144454819D01*
X174452381Y-144550057D02*
X174500000Y-144502438D01*
X174500000Y-144502438D02*
X174595238Y-144454819D01*
X174595238Y-144454819D02*
X174833333Y-144454819D01*
X174833333Y-144454819D02*
X174928571Y-144502438D01*
X174928571Y-144502438D02*
X174976190Y-144550057D01*
X174976190Y-144550057D02*
X175023809Y-144645295D01*
X175023809Y-144645295D02*
X175023809Y-144740533D01*
X175023809Y-144740533D02*
X174976190Y-144883390D01*
X174976190Y-144883390D02*
X174404762Y-145454819D01*
X174404762Y-145454819D02*
X175023809Y-145454819D01*
X176023809Y-145359580D02*
X175976190Y-145407200D01*
X175976190Y-145407200D02*
X175833333Y-145454819D01*
X175833333Y-145454819D02*
X175738095Y-145454819D01*
X175738095Y-145454819D02*
X175595238Y-145407200D01*
X175595238Y-145407200D02*
X175500000Y-145311961D01*
X175500000Y-145311961D02*
X175452381Y-145216723D01*
X175452381Y-145216723D02*
X175404762Y-145026247D01*
X175404762Y-145026247D02*
X175404762Y-144883390D01*
X175404762Y-144883390D02*
X175452381Y-144692914D01*
X175452381Y-144692914D02*
X175500000Y-144597676D01*
X175500000Y-144597676D02*
X175595238Y-144502438D01*
X175595238Y-144502438D02*
X175738095Y-144454819D01*
X175738095Y-144454819D02*
X175833333Y-144454819D01*
X175833333Y-144454819D02*
X175976190Y-144502438D01*
X175976190Y-144502438D02*
X176023809Y-144550057D01*
X174454819Y-139143333D02*
X175169104Y-139143333D01*
X175169104Y-139143333D02*
X175311961Y-139190952D01*
X175311961Y-139190952D02*
X175407200Y-139286190D01*
X175407200Y-139286190D02*
X175454819Y-139429047D01*
X175454819Y-139429047D02*
X175454819Y-139524285D01*
X174454819Y-138190952D02*
X174454819Y-138667142D01*
X174454819Y-138667142D02*
X174931009Y-138714761D01*
X174931009Y-138714761D02*
X174883390Y-138667142D01*
X174883390Y-138667142D02*
X174835771Y-138571904D01*
X174835771Y-138571904D02*
X174835771Y-138333809D01*
X174835771Y-138333809D02*
X174883390Y-138238571D01*
X174883390Y-138238571D02*
X174931009Y-138190952D01*
X174931009Y-138190952D02*
X175026247Y-138143333D01*
X175026247Y-138143333D02*
X175264342Y-138143333D01*
X175264342Y-138143333D02*
X175359580Y-138190952D01*
X175359580Y-138190952D02*
X175407200Y-138238571D01*
X175407200Y-138238571D02*
X175454819Y-138333809D01*
X175454819Y-138333809D02*
X175454819Y-138571904D01*
X175454819Y-138571904D02*
X175407200Y-138667142D01*
X175407200Y-138667142D02*
X175359580Y-138714761D01*
X132452380Y-91614819D02*
X131880952Y-91614819D01*
X132166666Y-91614819D02*
X132166666Y-90614819D01*
X132166666Y-90614819D02*
X132071428Y-90757676D01*
X132071428Y-90757676D02*
X131976190Y-90852914D01*
X131976190Y-90852914D02*
X131880952Y-90900533D01*
X133071428Y-90614819D02*
X133166666Y-90614819D01*
X133166666Y-90614819D02*
X133261904Y-90662438D01*
X133261904Y-90662438D02*
X133309523Y-90710057D01*
X133309523Y-90710057D02*
X133357142Y-90805295D01*
X133357142Y-90805295D02*
X133404761Y-90995771D01*
X133404761Y-90995771D02*
X133404761Y-91233866D01*
X133404761Y-91233866D02*
X133357142Y-91424342D01*
X133357142Y-91424342D02*
X133309523Y-91519580D01*
X133309523Y-91519580D02*
X133261904Y-91567200D01*
X133261904Y-91567200D02*
X133166666Y-91614819D01*
X133166666Y-91614819D02*
X133071428Y-91614819D01*
X133071428Y-91614819D02*
X132976190Y-91567200D01*
X132976190Y-91567200D02*
X132928571Y-91519580D01*
X132928571Y-91519580D02*
X132880952Y-91424342D01*
X132880952Y-91424342D02*
X132833333Y-91233866D01*
X132833333Y-91233866D02*
X132833333Y-90995771D01*
X132833333Y-90995771D02*
X132880952Y-90805295D01*
X132880952Y-90805295D02*
X132928571Y-90710057D01*
X132928571Y-90710057D02*
X132976190Y-90662438D01*
X132976190Y-90662438D02*
X133071428Y-90614819D01*
X134023809Y-90614819D02*
X134119047Y-90614819D01*
X134119047Y-90614819D02*
X134214285Y-90662438D01*
X134214285Y-90662438D02*
X134261904Y-90710057D01*
X134261904Y-90710057D02*
X134309523Y-90805295D01*
X134309523Y-90805295D02*
X134357142Y-90995771D01*
X134357142Y-90995771D02*
X134357142Y-91233866D01*
X134357142Y-91233866D02*
X134309523Y-91424342D01*
X134309523Y-91424342D02*
X134261904Y-91519580D01*
X134261904Y-91519580D02*
X134214285Y-91567200D01*
X134214285Y-91567200D02*
X134119047Y-91614819D01*
X134119047Y-91614819D02*
X134023809Y-91614819D01*
X134023809Y-91614819D02*
X133928571Y-91567200D01*
X133928571Y-91567200D02*
X133880952Y-91519580D01*
X133880952Y-91519580D02*
X133833333Y-91424342D01*
X133833333Y-91424342D02*
X133785714Y-91233866D01*
X133785714Y-91233866D02*
X133785714Y-90995771D01*
X133785714Y-90995771D02*
X133833333Y-90805295D01*
X133833333Y-90805295D02*
X133880952Y-90710057D01*
X133880952Y-90710057D02*
X133928571Y-90662438D01*
X133928571Y-90662438D02*
X134023809Y-90614819D01*
X134785714Y-90948152D02*
X134785714Y-91614819D01*
X134785714Y-91043390D02*
X134833333Y-90995771D01*
X134833333Y-90995771D02*
X134928571Y-90948152D01*
X134928571Y-90948152D02*
X135071428Y-90948152D01*
X135071428Y-90948152D02*
X135166666Y-90995771D01*
X135166666Y-90995771D02*
X135214285Y-91091009D01*
X135214285Y-91091009D02*
X135214285Y-91614819D01*
X136023809Y-91091009D02*
X135690476Y-91091009D01*
X135690476Y-91614819D02*
X135690476Y-90614819D01*
X135690476Y-90614819D02*
X136166666Y-90614819D01*
D11*
X133958333Y-90089765D02*
X133946429Y-90101670D01*
X133946429Y-90101670D02*
X133910714Y-90113574D01*
X133910714Y-90113574D02*
X133886905Y-90113574D01*
X133886905Y-90113574D02*
X133851191Y-90101670D01*
X133851191Y-90101670D02*
X133827381Y-90077860D01*
X133827381Y-90077860D02*
X133815476Y-90054050D01*
X133815476Y-90054050D02*
X133803572Y-90006431D01*
X133803572Y-90006431D02*
X133803572Y-89970717D01*
X133803572Y-89970717D02*
X133815476Y-89923098D01*
X133815476Y-89923098D02*
X133827381Y-89899289D01*
X133827381Y-89899289D02*
X133851191Y-89875479D01*
X133851191Y-89875479D02*
X133886905Y-89863574D01*
X133886905Y-89863574D02*
X133910714Y-89863574D01*
X133910714Y-89863574D02*
X133946429Y-89875479D01*
X133946429Y-89875479D02*
X133958333Y-89887384D01*
X134172619Y-89863574D02*
X134125000Y-89863574D01*
X134125000Y-89863574D02*
X134101191Y-89875479D01*
X134101191Y-89875479D02*
X134089286Y-89887384D01*
X134089286Y-89887384D02*
X134065476Y-89923098D01*
X134065476Y-89923098D02*
X134053572Y-89970717D01*
X134053572Y-89970717D02*
X134053572Y-90065955D01*
X134053572Y-90065955D02*
X134065476Y-90089765D01*
X134065476Y-90089765D02*
X134077381Y-90101670D01*
X134077381Y-90101670D02*
X134101191Y-90113574D01*
X134101191Y-90113574D02*
X134148810Y-90113574D01*
X134148810Y-90113574D02*
X134172619Y-90101670D01*
X134172619Y-90101670D02*
X134184524Y-90089765D01*
X134184524Y-90089765D02*
X134196429Y-90065955D01*
X134196429Y-90065955D02*
X134196429Y-90006431D01*
X134196429Y-90006431D02*
X134184524Y-89982622D01*
X134184524Y-89982622D02*
X134172619Y-89970717D01*
X134172619Y-89970717D02*
X134148810Y-89958812D01*
X134148810Y-89958812D02*
X134101191Y-89958812D01*
X134101191Y-89958812D02*
X134077381Y-89970717D01*
X134077381Y-89970717D02*
X134065476Y-89982622D01*
X134065476Y-89982622D02*
X134053572Y-90006431D01*
D10*
X190404761Y-108454819D02*
X190071428Y-107978628D01*
X189833333Y-108454819D02*
X189833333Y-107454819D01*
X189833333Y-107454819D02*
X190214285Y-107454819D01*
X190214285Y-107454819D02*
X190309523Y-107502438D01*
X190309523Y-107502438D02*
X190357142Y-107550057D01*
X190357142Y-107550057D02*
X190404761Y-107645295D01*
X190404761Y-107645295D02*
X190404761Y-107788152D01*
X190404761Y-107788152D02*
X190357142Y-107883390D01*
X190357142Y-107883390D02*
X190309523Y-107931009D01*
X190309523Y-107931009D02*
X190214285Y-107978628D01*
X190214285Y-107978628D02*
X189833333Y-107978628D01*
X190785714Y-108407200D02*
X190928571Y-108454819D01*
X190928571Y-108454819D02*
X191166666Y-108454819D01*
X191166666Y-108454819D02*
X191261904Y-108407200D01*
X191261904Y-108407200D02*
X191309523Y-108359580D01*
X191309523Y-108359580D02*
X191357142Y-108264342D01*
X191357142Y-108264342D02*
X191357142Y-108169104D01*
X191357142Y-108169104D02*
X191309523Y-108073866D01*
X191309523Y-108073866D02*
X191261904Y-108026247D01*
X191261904Y-108026247D02*
X191166666Y-107978628D01*
X191166666Y-107978628D02*
X190976190Y-107931009D01*
X190976190Y-107931009D02*
X190880952Y-107883390D01*
X190880952Y-107883390D02*
X190833333Y-107835771D01*
X190833333Y-107835771D02*
X190785714Y-107740533D01*
X190785714Y-107740533D02*
X190785714Y-107645295D01*
X190785714Y-107645295D02*
X190833333Y-107550057D01*
X190833333Y-107550057D02*
X190880952Y-107502438D01*
X190880952Y-107502438D02*
X190976190Y-107454819D01*
X190976190Y-107454819D02*
X191214285Y-107454819D01*
X191214285Y-107454819D02*
X191357142Y-107502438D01*
X192214285Y-107788152D02*
X192214285Y-108454819D01*
X191976190Y-107407200D02*
X191738095Y-108121485D01*
X191738095Y-108121485D02*
X192357142Y-108121485D01*
X192880952Y-107883390D02*
X192785714Y-107835771D01*
X192785714Y-107835771D02*
X192738095Y-107788152D01*
X192738095Y-107788152D02*
X192690476Y-107692914D01*
X192690476Y-107692914D02*
X192690476Y-107645295D01*
X192690476Y-107645295D02*
X192738095Y-107550057D01*
X192738095Y-107550057D02*
X192785714Y-107502438D01*
X192785714Y-107502438D02*
X192880952Y-107454819D01*
X192880952Y-107454819D02*
X193071428Y-107454819D01*
X193071428Y-107454819D02*
X193166666Y-107502438D01*
X193166666Y-107502438D02*
X193214285Y-107550057D01*
X193214285Y-107550057D02*
X193261904Y-107645295D01*
X193261904Y-107645295D02*
X193261904Y-107692914D01*
X193261904Y-107692914D02*
X193214285Y-107788152D01*
X193214285Y-107788152D02*
X193166666Y-107835771D01*
X193166666Y-107835771D02*
X193071428Y-107883390D01*
X193071428Y-107883390D02*
X192880952Y-107883390D01*
X192880952Y-107883390D02*
X192785714Y-107931009D01*
X192785714Y-107931009D02*
X192738095Y-107978628D01*
X192738095Y-107978628D02*
X192690476Y-108073866D01*
X192690476Y-108073866D02*
X192690476Y-108264342D01*
X192690476Y-108264342D02*
X192738095Y-108359580D01*
X192738095Y-108359580D02*
X192785714Y-108407200D01*
X192785714Y-108407200D02*
X192880952Y-108454819D01*
X192880952Y-108454819D02*
X193071428Y-108454819D01*
X193071428Y-108454819D02*
X193166666Y-108407200D01*
X193166666Y-108407200D02*
X193214285Y-108359580D01*
X193214285Y-108359580D02*
X193261904Y-108264342D01*
X193261904Y-108264342D02*
X193261904Y-108073866D01*
X193261904Y-108073866D02*
X193214285Y-107978628D01*
X193214285Y-107978628D02*
X193166666Y-107931009D01*
X193166666Y-107931009D02*
X193071428Y-107883390D01*
X194166666Y-107454819D02*
X193690476Y-107454819D01*
X193690476Y-107454819D02*
X193642857Y-107931009D01*
X193642857Y-107931009D02*
X193690476Y-107883390D01*
X193690476Y-107883390D02*
X193785714Y-107835771D01*
X193785714Y-107835771D02*
X194023809Y-107835771D01*
X194023809Y-107835771D02*
X194119047Y-107883390D01*
X194119047Y-107883390D02*
X194166666Y-107931009D01*
X194166666Y-107931009D02*
X194214285Y-108026247D01*
X194214285Y-108026247D02*
X194214285Y-108264342D01*
X194214285Y-108264342D02*
X194166666Y-108359580D01*
X194166666Y-108359580D02*
X194119047Y-108407200D01*
X194119047Y-108407200D02*
X194023809Y-108454819D01*
X194023809Y-108454819D02*
X193785714Y-108454819D01*
X193785714Y-108454819D02*
X193690476Y-108407200D01*
X193690476Y-108407200D02*
X193642857Y-108359580D01*
X191454819Y-102143333D02*
X192169104Y-102143333D01*
X192169104Y-102143333D02*
X192311961Y-102190952D01*
X192311961Y-102190952D02*
X192407200Y-102286190D01*
X192407200Y-102286190D02*
X192454819Y-102429047D01*
X192454819Y-102429047D02*
X192454819Y-102524285D01*
X191454819Y-101762380D02*
X191454819Y-101143333D01*
X191454819Y-101143333D02*
X191835771Y-101476666D01*
X191835771Y-101476666D02*
X191835771Y-101333809D01*
X191835771Y-101333809D02*
X191883390Y-101238571D01*
X191883390Y-101238571D02*
X191931009Y-101190952D01*
X191931009Y-101190952D02*
X192026247Y-101143333D01*
X192026247Y-101143333D02*
X192264342Y-101143333D01*
X192264342Y-101143333D02*
X192359580Y-101190952D01*
X192359580Y-101190952D02*
X192407200Y-101238571D01*
X192407200Y-101238571D02*
X192454819Y-101333809D01*
X192454819Y-101333809D02*
X192454819Y-101619523D01*
X192454819Y-101619523D02*
X192407200Y-101714761D01*
X192407200Y-101714761D02*
X192359580Y-101762380D01*
X123928571Y-104134819D02*
X123357143Y-104134819D01*
X123642857Y-104134819D02*
X123642857Y-103134819D01*
X123642857Y-103134819D02*
X123547619Y-103277676D01*
X123547619Y-103277676D02*
X123452381Y-103372914D01*
X123452381Y-103372914D02*
X123357143Y-103420533D01*
X124547619Y-103134819D02*
X124642857Y-103134819D01*
X124642857Y-103134819D02*
X124738095Y-103182438D01*
X124738095Y-103182438D02*
X124785714Y-103230057D01*
X124785714Y-103230057D02*
X124833333Y-103325295D01*
X124833333Y-103325295D02*
X124880952Y-103515771D01*
X124880952Y-103515771D02*
X124880952Y-103753866D01*
X124880952Y-103753866D02*
X124833333Y-103944342D01*
X124833333Y-103944342D02*
X124785714Y-104039580D01*
X124785714Y-104039580D02*
X124738095Y-104087200D01*
X124738095Y-104087200D02*
X124642857Y-104134819D01*
X124642857Y-104134819D02*
X124547619Y-104134819D01*
X124547619Y-104134819D02*
X124452381Y-104087200D01*
X124452381Y-104087200D02*
X124404762Y-104039580D01*
X124404762Y-104039580D02*
X124357143Y-103944342D01*
X124357143Y-103944342D02*
X124309524Y-103753866D01*
X124309524Y-103753866D02*
X124309524Y-103515771D01*
X124309524Y-103515771D02*
X124357143Y-103325295D01*
X124357143Y-103325295D02*
X124404762Y-103230057D01*
X124404762Y-103230057D02*
X124452381Y-103182438D01*
X124452381Y-103182438D02*
X124547619Y-103134819D01*
X125738095Y-103468152D02*
X125738095Y-104134819D01*
X125309524Y-103468152D02*
X125309524Y-103991961D01*
X125309524Y-103991961D02*
X125357143Y-104087200D01*
X125357143Y-104087200D02*
X125452381Y-104134819D01*
X125452381Y-104134819D02*
X125595238Y-104134819D01*
X125595238Y-104134819D02*
X125690476Y-104087200D01*
X125690476Y-104087200D02*
X125738095Y-104039580D01*
X126547619Y-103611009D02*
X126214286Y-103611009D01*
X126214286Y-104134819D02*
X126214286Y-103134819D01*
X126214286Y-103134819D02*
X126690476Y-103134819D01*
D13*
X124916666Y-102179530D02*
X124892857Y-102203340D01*
X124892857Y-102203340D02*
X124821428Y-102227149D01*
X124821428Y-102227149D02*
X124773809Y-102227149D01*
X124773809Y-102227149D02*
X124702381Y-102203340D01*
X124702381Y-102203340D02*
X124654762Y-102155720D01*
X124654762Y-102155720D02*
X124630952Y-102108101D01*
X124630952Y-102108101D02*
X124607143Y-102012863D01*
X124607143Y-102012863D02*
X124607143Y-101941435D01*
X124607143Y-101941435D02*
X124630952Y-101846197D01*
X124630952Y-101846197D02*
X124654762Y-101798578D01*
X124654762Y-101798578D02*
X124702381Y-101750959D01*
X124702381Y-101750959D02*
X124773809Y-101727149D01*
X124773809Y-101727149D02*
X124821428Y-101727149D01*
X124821428Y-101727149D02*
X124892857Y-101750959D01*
X124892857Y-101750959D02*
X124916666Y-101774768D01*
X125107143Y-101774768D02*
X125130952Y-101750959D01*
X125130952Y-101750959D02*
X125178571Y-101727149D01*
X125178571Y-101727149D02*
X125297619Y-101727149D01*
X125297619Y-101727149D02*
X125345238Y-101750959D01*
X125345238Y-101750959D02*
X125369047Y-101774768D01*
X125369047Y-101774768D02*
X125392857Y-101822387D01*
X125392857Y-101822387D02*
X125392857Y-101870006D01*
X125392857Y-101870006D02*
X125369047Y-101941435D01*
X125369047Y-101941435D02*
X125083333Y-102227149D01*
X125083333Y-102227149D02*
X125392857Y-102227149D01*
D10*
X191000000Y-155662438D02*
X190904762Y-155614819D01*
X190904762Y-155614819D02*
X190761905Y-155614819D01*
X190761905Y-155614819D02*
X190619048Y-155662438D01*
X190619048Y-155662438D02*
X190523810Y-155757676D01*
X190523810Y-155757676D02*
X190476191Y-155852914D01*
X190476191Y-155852914D02*
X190428572Y-156043390D01*
X190428572Y-156043390D02*
X190428572Y-156186247D01*
X190428572Y-156186247D02*
X190476191Y-156376723D01*
X190476191Y-156376723D02*
X190523810Y-156471961D01*
X190523810Y-156471961D02*
X190619048Y-156567200D01*
X190619048Y-156567200D02*
X190761905Y-156614819D01*
X190761905Y-156614819D02*
X190857143Y-156614819D01*
X190857143Y-156614819D02*
X191000000Y-156567200D01*
X191000000Y-156567200D02*
X191047619Y-156519580D01*
X191047619Y-156519580D02*
X191047619Y-156186247D01*
X191047619Y-156186247D02*
X190857143Y-156186247D01*
X191476191Y-156614819D02*
X191476191Y-155614819D01*
X191476191Y-155614819D02*
X191857143Y-155614819D01*
X191857143Y-155614819D02*
X191952381Y-155662438D01*
X191952381Y-155662438D02*
X192000000Y-155710057D01*
X192000000Y-155710057D02*
X192047619Y-155805295D01*
X192047619Y-155805295D02*
X192047619Y-155948152D01*
X192047619Y-155948152D02*
X192000000Y-156043390D01*
X192000000Y-156043390D02*
X191952381Y-156091009D01*
X191952381Y-156091009D02*
X191857143Y-156138628D01*
X191857143Y-156138628D02*
X191476191Y-156138628D01*
X192476191Y-156614819D02*
X192476191Y-155614819D01*
X193142857Y-155614819D02*
X193333333Y-155614819D01*
X193333333Y-155614819D02*
X193428571Y-155662438D01*
X193428571Y-155662438D02*
X193523809Y-155757676D01*
X193523809Y-155757676D02*
X193571428Y-155948152D01*
X193571428Y-155948152D02*
X193571428Y-156281485D01*
X193571428Y-156281485D02*
X193523809Y-156471961D01*
X193523809Y-156471961D02*
X193428571Y-156567200D01*
X193428571Y-156567200D02*
X193333333Y-156614819D01*
X193333333Y-156614819D02*
X193142857Y-156614819D01*
X193142857Y-156614819D02*
X193047619Y-156567200D01*
X193047619Y-156567200D02*
X192952381Y-156471961D01*
X192952381Y-156471961D02*
X192904762Y-156281485D01*
X192904762Y-156281485D02*
X192904762Y-155948152D01*
X192904762Y-155948152D02*
X192952381Y-155757676D01*
X192952381Y-155757676D02*
X193047619Y-155662438D01*
X193047619Y-155662438D02*
X193142857Y-155614819D01*
X191454819Y-145223333D02*
X192169104Y-145223333D01*
X192169104Y-145223333D02*
X192311961Y-145270952D01*
X192311961Y-145270952D02*
X192407200Y-145366190D01*
X192407200Y-145366190D02*
X192454819Y-145509047D01*
X192454819Y-145509047D02*
X192454819Y-145604285D01*
X191454819Y-144842380D02*
X191454819Y-144175714D01*
X191454819Y-144175714D02*
X192454819Y-144604285D01*
X168980057Y-131404761D02*
X168932438Y-131357142D01*
X168932438Y-131357142D02*
X168884819Y-131261904D01*
X168884819Y-131261904D02*
X168884819Y-131023809D01*
X168884819Y-131023809D02*
X168932438Y-130928571D01*
X168932438Y-130928571D02*
X168980057Y-130880952D01*
X168980057Y-130880952D02*
X169075295Y-130833333D01*
X169075295Y-130833333D02*
X169170533Y-130833333D01*
X169170533Y-130833333D02*
X169313390Y-130880952D01*
X169313390Y-130880952D02*
X169884819Y-131452380D01*
X169884819Y-131452380D02*
X169884819Y-130833333D01*
X169789580Y-130404761D02*
X169837200Y-130357142D01*
X169837200Y-130357142D02*
X169884819Y-130404761D01*
X169884819Y-130404761D02*
X169837200Y-130452380D01*
X169837200Y-130452380D02*
X169789580Y-130404761D01*
X169789580Y-130404761D02*
X169884819Y-130404761D01*
X168980057Y-129976190D02*
X168932438Y-129928571D01*
X168932438Y-129928571D02*
X168884819Y-129833333D01*
X168884819Y-129833333D02*
X168884819Y-129595238D01*
X168884819Y-129595238D02*
X168932438Y-129500000D01*
X168932438Y-129500000D02*
X168980057Y-129452381D01*
X168980057Y-129452381D02*
X169075295Y-129404762D01*
X169075295Y-129404762D02*
X169170533Y-129404762D01*
X169170533Y-129404762D02*
X169313390Y-129452381D01*
X169313390Y-129452381D02*
X169884819Y-130023809D01*
X169884819Y-130023809D02*
X169884819Y-129404762D01*
X169884819Y-128976190D02*
X168884819Y-128976190D01*
X169503866Y-128880952D02*
X169884819Y-128595238D01*
X169218152Y-128595238D02*
X169599104Y-128976190D01*
D12*
X168181927Y-130066666D02*
X167991451Y-130199999D01*
X168181927Y-130295237D02*
X167781927Y-130295237D01*
X167781927Y-130295237D02*
X167781927Y-130142856D01*
X167781927Y-130142856D02*
X167800975Y-130104761D01*
X167800975Y-130104761D02*
X167820022Y-130085714D01*
X167820022Y-130085714D02*
X167858118Y-130066666D01*
X167858118Y-130066666D02*
X167915260Y-130066666D01*
X167915260Y-130066666D02*
X167953356Y-130085714D01*
X167953356Y-130085714D02*
X167972403Y-130104761D01*
X167972403Y-130104761D02*
X167991451Y-130142856D01*
X167991451Y-130142856D02*
X167991451Y-130295237D01*
X167915260Y-129723809D02*
X168181927Y-129723809D01*
X167762880Y-129819047D02*
X168048594Y-129914285D01*
X168048594Y-129914285D02*
X168048594Y-129666666D01*
D10*
X172884819Y-90714285D02*
X172884819Y-91190475D01*
X172884819Y-91190475D02*
X173361009Y-91238094D01*
X173361009Y-91238094D02*
X173313390Y-91190475D01*
X173313390Y-91190475D02*
X173265771Y-91095237D01*
X173265771Y-91095237D02*
X173265771Y-90857142D01*
X173265771Y-90857142D02*
X173313390Y-90761904D01*
X173313390Y-90761904D02*
X173361009Y-90714285D01*
X173361009Y-90714285D02*
X173456247Y-90666666D01*
X173456247Y-90666666D02*
X173694342Y-90666666D01*
X173694342Y-90666666D02*
X173789580Y-90714285D01*
X173789580Y-90714285D02*
X173837200Y-90761904D01*
X173837200Y-90761904D02*
X173884819Y-90857142D01*
X173884819Y-90857142D02*
X173884819Y-91095237D01*
X173884819Y-91095237D02*
X173837200Y-91190475D01*
X173837200Y-91190475D02*
X173789580Y-91238094D01*
X172884819Y-89809523D02*
X172884819Y-89999999D01*
X172884819Y-89999999D02*
X172932438Y-90095237D01*
X172932438Y-90095237D02*
X172980057Y-90142856D01*
X172980057Y-90142856D02*
X173122914Y-90238094D01*
X173122914Y-90238094D02*
X173313390Y-90285713D01*
X173313390Y-90285713D02*
X173694342Y-90285713D01*
X173694342Y-90285713D02*
X173789580Y-90238094D01*
X173789580Y-90238094D02*
X173837200Y-90190475D01*
X173837200Y-90190475D02*
X173884819Y-90095237D01*
X173884819Y-90095237D02*
X173884819Y-89904761D01*
X173884819Y-89904761D02*
X173837200Y-89809523D01*
X173837200Y-89809523D02*
X173789580Y-89761904D01*
X173789580Y-89761904D02*
X173694342Y-89714285D01*
X173694342Y-89714285D02*
X173456247Y-89714285D01*
X173456247Y-89714285D02*
X173361009Y-89761904D01*
X173361009Y-89761904D02*
X173313390Y-89809523D01*
X173313390Y-89809523D02*
X173265771Y-89904761D01*
X173265771Y-89904761D02*
X173265771Y-90095237D01*
X173265771Y-90095237D02*
X173313390Y-90190475D01*
X173313390Y-90190475D02*
X173361009Y-90238094D01*
X173361009Y-90238094D02*
X173456247Y-90285713D01*
X172884819Y-89095237D02*
X172884819Y-88999999D01*
X172884819Y-88999999D02*
X172932438Y-88904761D01*
X172932438Y-88904761D02*
X172980057Y-88857142D01*
X172980057Y-88857142D02*
X173075295Y-88809523D01*
X173075295Y-88809523D02*
X173265771Y-88761904D01*
X173265771Y-88761904D02*
X173503866Y-88761904D01*
X173503866Y-88761904D02*
X173694342Y-88809523D01*
X173694342Y-88809523D02*
X173789580Y-88857142D01*
X173789580Y-88857142D02*
X173837200Y-88904761D01*
X173837200Y-88904761D02*
X173884819Y-88999999D01*
X173884819Y-88999999D02*
X173884819Y-89095237D01*
X173884819Y-89095237D02*
X173837200Y-89190475D01*
X173837200Y-89190475D02*
X173789580Y-89238094D01*
X173789580Y-89238094D02*
X173694342Y-89285713D01*
X173694342Y-89285713D02*
X173503866Y-89333332D01*
X173503866Y-89333332D02*
X173265771Y-89333332D01*
X173265771Y-89333332D02*
X173075295Y-89285713D01*
X173075295Y-89285713D02*
X172980057Y-89238094D01*
X172980057Y-89238094D02*
X172932438Y-89190475D01*
X172932438Y-89190475D02*
X172884819Y-89095237D01*
D12*
X172181927Y-90066666D02*
X171991451Y-90199999D01*
X172181927Y-90295237D02*
X171781927Y-90295237D01*
X171781927Y-90295237D02*
X171781927Y-90142856D01*
X171781927Y-90142856D02*
X171800975Y-90104761D01*
X171800975Y-90104761D02*
X171820022Y-90085714D01*
X171820022Y-90085714D02*
X171858118Y-90066666D01*
X171858118Y-90066666D02*
X171915260Y-90066666D01*
X171915260Y-90066666D02*
X171953356Y-90085714D01*
X171953356Y-90085714D02*
X171972403Y-90104761D01*
X171972403Y-90104761D02*
X171991451Y-90142856D01*
X171991451Y-90142856D02*
X171991451Y-90295237D01*
X171820022Y-89914285D02*
X171800975Y-89895237D01*
X171800975Y-89895237D02*
X171781927Y-89857142D01*
X171781927Y-89857142D02*
X171781927Y-89761904D01*
X171781927Y-89761904D02*
X171800975Y-89723809D01*
X171800975Y-89723809D02*
X171820022Y-89704761D01*
X171820022Y-89704761D02*
X171858118Y-89685714D01*
X171858118Y-89685714D02*
X171896213Y-89685714D01*
X171896213Y-89685714D02*
X171953356Y-89704761D01*
X171953356Y-89704761D02*
X172181927Y-89933333D01*
X172181927Y-89933333D02*
X172181927Y-89685714D01*
D10*
X171857143Y-101854819D02*
X171857143Y-100854819D01*
X171857143Y-100854819D02*
X172190476Y-101569104D01*
X172190476Y-101569104D02*
X172523809Y-100854819D01*
X172523809Y-100854819D02*
X172523809Y-101854819D01*
X172952381Y-101569104D02*
X173428571Y-101569104D01*
X172857143Y-101854819D02*
X173190476Y-100854819D01*
X173190476Y-100854819D02*
X173523809Y-101854819D01*
X173761905Y-100854819D02*
X174428571Y-101854819D01*
X174428571Y-100854819D02*
X173761905Y-101854819D01*
X174714286Y-100854819D02*
X175333333Y-100854819D01*
X175333333Y-100854819D02*
X175000000Y-101235771D01*
X175000000Y-101235771D02*
X175142857Y-101235771D01*
X175142857Y-101235771D02*
X175238095Y-101283390D01*
X175238095Y-101283390D02*
X175285714Y-101331009D01*
X175285714Y-101331009D02*
X175333333Y-101426247D01*
X175333333Y-101426247D02*
X175333333Y-101664342D01*
X175333333Y-101664342D02*
X175285714Y-101759580D01*
X175285714Y-101759580D02*
X175238095Y-101807200D01*
X175238095Y-101807200D02*
X175142857Y-101854819D01*
X175142857Y-101854819D02*
X174857143Y-101854819D01*
X174857143Y-101854819D02*
X174761905Y-101807200D01*
X174761905Y-101807200D02*
X174714286Y-101759580D01*
X176190476Y-101188152D02*
X176190476Y-101854819D01*
X175952381Y-100807200D02*
X175714286Y-101521485D01*
X175714286Y-101521485D02*
X176333333Y-101521485D01*
X176857143Y-101283390D02*
X176761905Y-101235771D01*
X176761905Y-101235771D02*
X176714286Y-101188152D01*
X176714286Y-101188152D02*
X176666667Y-101092914D01*
X176666667Y-101092914D02*
X176666667Y-101045295D01*
X176666667Y-101045295D02*
X176714286Y-100950057D01*
X176714286Y-100950057D02*
X176761905Y-100902438D01*
X176761905Y-100902438D02*
X176857143Y-100854819D01*
X176857143Y-100854819D02*
X177047619Y-100854819D01*
X177047619Y-100854819D02*
X177142857Y-100902438D01*
X177142857Y-100902438D02*
X177190476Y-100950057D01*
X177190476Y-100950057D02*
X177238095Y-101045295D01*
X177238095Y-101045295D02*
X177238095Y-101092914D01*
X177238095Y-101092914D02*
X177190476Y-101188152D01*
X177190476Y-101188152D02*
X177142857Y-101235771D01*
X177142857Y-101235771D02*
X177047619Y-101283390D01*
X177047619Y-101283390D02*
X176857143Y-101283390D01*
X176857143Y-101283390D02*
X176761905Y-101331009D01*
X176761905Y-101331009D02*
X176714286Y-101378628D01*
X176714286Y-101378628D02*
X176666667Y-101473866D01*
X176666667Y-101473866D02*
X176666667Y-101664342D01*
X176666667Y-101664342D02*
X176714286Y-101759580D01*
X176714286Y-101759580D02*
X176761905Y-101807200D01*
X176761905Y-101807200D02*
X176857143Y-101854819D01*
X176857143Y-101854819D02*
X177047619Y-101854819D01*
X177047619Y-101854819D02*
X177142857Y-101807200D01*
X177142857Y-101807200D02*
X177190476Y-101759580D01*
X177190476Y-101759580D02*
X177238095Y-101664342D01*
X177238095Y-101664342D02*
X177238095Y-101473866D01*
X177238095Y-101473866D02*
X177190476Y-101378628D01*
X177190476Y-101378628D02*
X177142857Y-101331009D01*
X177142857Y-101331009D02*
X177047619Y-101283390D01*
X178142857Y-100854819D02*
X177666667Y-100854819D01*
X177666667Y-100854819D02*
X177619048Y-101331009D01*
X177619048Y-101331009D02*
X177666667Y-101283390D01*
X177666667Y-101283390D02*
X177761905Y-101235771D01*
X177761905Y-101235771D02*
X178000000Y-101235771D01*
X178000000Y-101235771D02*
X178095238Y-101283390D01*
X178095238Y-101283390D02*
X178142857Y-101331009D01*
X178142857Y-101331009D02*
X178190476Y-101426247D01*
X178190476Y-101426247D02*
X178190476Y-101664342D01*
X178190476Y-101664342D02*
X178142857Y-101759580D01*
X178142857Y-101759580D02*
X178095238Y-101807200D01*
X178095238Y-101807200D02*
X178000000Y-101854819D01*
X178000000Y-101854819D02*
X177761905Y-101854819D01*
X177761905Y-101854819D02*
X177666667Y-101807200D01*
X177666667Y-101807200D02*
X177619048Y-101759580D01*
X174454819Y-98761904D02*
X175264342Y-98761904D01*
X175264342Y-98761904D02*
X175359580Y-98714285D01*
X175359580Y-98714285D02*
X175407200Y-98666666D01*
X175407200Y-98666666D02*
X175454819Y-98571428D01*
X175454819Y-98571428D02*
X175454819Y-98380952D01*
X175454819Y-98380952D02*
X175407200Y-98285714D01*
X175407200Y-98285714D02*
X175359580Y-98238095D01*
X175359580Y-98238095D02*
X175264342Y-98190476D01*
X175264342Y-98190476D02*
X174454819Y-98190476D01*
X175454819Y-97190476D02*
X175454819Y-97761904D01*
X175454819Y-97476190D02*
X174454819Y-97476190D01*
X174454819Y-97476190D02*
X174597676Y-97571428D01*
X174597676Y-97571428D02*
X174692914Y-97666666D01*
X174692914Y-97666666D02*
X174740533Y-97761904D01*
X115380952Y-138659580D02*
X115333333Y-138707200D01*
X115333333Y-138707200D02*
X115190476Y-138754819D01*
X115190476Y-138754819D02*
X115095238Y-138754819D01*
X115095238Y-138754819D02*
X114952381Y-138707200D01*
X114952381Y-138707200D02*
X114857143Y-138611961D01*
X114857143Y-138611961D02*
X114809524Y-138516723D01*
X114809524Y-138516723D02*
X114761905Y-138326247D01*
X114761905Y-138326247D02*
X114761905Y-138183390D01*
X114761905Y-138183390D02*
X114809524Y-137992914D01*
X114809524Y-137992914D02*
X114857143Y-137897676D01*
X114857143Y-137897676D02*
X114952381Y-137802438D01*
X114952381Y-137802438D02*
X115095238Y-137754819D01*
X115095238Y-137754819D02*
X115190476Y-137754819D01*
X115190476Y-137754819D02*
X115333333Y-137802438D01*
X115333333Y-137802438D02*
X115380952Y-137850057D01*
X115809524Y-138754819D02*
X115809524Y-137754819D01*
X115809524Y-137754819D02*
X116190476Y-137754819D01*
X116190476Y-137754819D02*
X116285714Y-137802438D01*
X116285714Y-137802438D02*
X116333333Y-137850057D01*
X116333333Y-137850057D02*
X116380952Y-137945295D01*
X116380952Y-137945295D02*
X116380952Y-138088152D01*
X116380952Y-138088152D02*
X116333333Y-138183390D01*
X116333333Y-138183390D02*
X116285714Y-138231009D01*
X116285714Y-138231009D02*
X116190476Y-138278628D01*
X116190476Y-138278628D02*
X115809524Y-138278628D01*
X116761905Y-137850057D02*
X116809524Y-137802438D01*
X116809524Y-137802438D02*
X116904762Y-137754819D01*
X116904762Y-137754819D02*
X117142857Y-137754819D01*
X117142857Y-137754819D02*
X117238095Y-137802438D01*
X117238095Y-137802438D02*
X117285714Y-137850057D01*
X117285714Y-137850057D02*
X117333333Y-137945295D01*
X117333333Y-137945295D02*
X117333333Y-138040533D01*
X117333333Y-138040533D02*
X117285714Y-138183390D01*
X117285714Y-138183390D02*
X116714286Y-138754819D01*
X116714286Y-138754819D02*
X117333333Y-138754819D01*
X118285714Y-138754819D02*
X117714286Y-138754819D01*
X118000000Y-138754819D02*
X118000000Y-137754819D01*
X118000000Y-137754819D02*
X117904762Y-137897676D01*
X117904762Y-137897676D02*
X117809524Y-137992914D01*
X117809524Y-137992914D02*
X117714286Y-138040533D01*
X118904762Y-137754819D02*
X119000000Y-137754819D01*
X119000000Y-137754819D02*
X119095238Y-137802438D01*
X119095238Y-137802438D02*
X119142857Y-137850057D01*
X119142857Y-137850057D02*
X119190476Y-137945295D01*
X119190476Y-137945295D02*
X119238095Y-138135771D01*
X119238095Y-138135771D02*
X119238095Y-138373866D01*
X119238095Y-138373866D02*
X119190476Y-138564342D01*
X119190476Y-138564342D02*
X119142857Y-138659580D01*
X119142857Y-138659580D02*
X119095238Y-138707200D01*
X119095238Y-138707200D02*
X119000000Y-138754819D01*
X119000000Y-138754819D02*
X118904762Y-138754819D01*
X118904762Y-138754819D02*
X118809524Y-138707200D01*
X118809524Y-138707200D02*
X118761905Y-138659580D01*
X118761905Y-138659580D02*
X118714286Y-138564342D01*
X118714286Y-138564342D02*
X118666667Y-138373866D01*
X118666667Y-138373866D02*
X118666667Y-138135771D01*
X118666667Y-138135771D02*
X118714286Y-137945295D01*
X118714286Y-137945295D02*
X118761905Y-137850057D01*
X118761905Y-137850057D02*
X118809524Y-137802438D01*
X118809524Y-137802438D02*
X118904762Y-137754819D01*
X119619048Y-137850057D02*
X119666667Y-137802438D01*
X119666667Y-137802438D02*
X119761905Y-137754819D01*
X119761905Y-137754819D02*
X120000000Y-137754819D01*
X120000000Y-137754819D02*
X120095238Y-137802438D01*
X120095238Y-137802438D02*
X120142857Y-137850057D01*
X120142857Y-137850057D02*
X120190476Y-137945295D01*
X120190476Y-137945295D02*
X120190476Y-138040533D01*
X120190476Y-138040533D02*
X120142857Y-138183390D01*
X120142857Y-138183390D02*
X119571429Y-138754819D01*
X119571429Y-138754819D02*
X120190476Y-138754819D01*
X120619048Y-138754819D02*
X120619048Y-137754819D01*
X120619048Y-137754819D02*
X121190476Y-138754819D01*
X121190476Y-138754819D02*
X121190476Y-137754819D01*
X117238095Y-134454819D02*
X117238095Y-135264342D01*
X117238095Y-135264342D02*
X117285714Y-135359580D01*
X117285714Y-135359580D02*
X117333333Y-135407200D01*
X117333333Y-135407200D02*
X117428571Y-135454819D01*
X117428571Y-135454819D02*
X117619047Y-135454819D01*
X117619047Y-135454819D02*
X117714285Y-135407200D01*
X117714285Y-135407200D02*
X117761904Y-135359580D01*
X117761904Y-135359580D02*
X117809523Y-135264342D01*
X117809523Y-135264342D02*
X117809523Y-134454819D01*
X118238095Y-134550057D02*
X118285714Y-134502438D01*
X118285714Y-134502438D02*
X118380952Y-134454819D01*
X118380952Y-134454819D02*
X118619047Y-134454819D01*
X118619047Y-134454819D02*
X118714285Y-134502438D01*
X118714285Y-134502438D02*
X118761904Y-134550057D01*
X118761904Y-134550057D02*
X118809523Y-134645295D01*
X118809523Y-134645295D02*
X118809523Y-134740533D01*
X118809523Y-134740533D02*
X118761904Y-134883390D01*
X118761904Y-134883390D02*
X118190476Y-135454819D01*
X118190476Y-135454819D02*
X118809523Y-135454819D01*
X183976191Y-150487200D02*
X184119048Y-150534819D01*
X184119048Y-150534819D02*
X184357143Y-150534819D01*
X184357143Y-150534819D02*
X184452381Y-150487200D01*
X184452381Y-150487200D02*
X184500000Y-150439580D01*
X184500000Y-150439580D02*
X184547619Y-150344342D01*
X184547619Y-150344342D02*
X184547619Y-150249104D01*
X184547619Y-150249104D02*
X184500000Y-150153866D01*
X184500000Y-150153866D02*
X184452381Y-150106247D01*
X184452381Y-150106247D02*
X184357143Y-150058628D01*
X184357143Y-150058628D02*
X184166667Y-150011009D01*
X184166667Y-150011009D02*
X184071429Y-149963390D01*
X184071429Y-149963390D02*
X184023810Y-149915771D01*
X184023810Y-149915771D02*
X183976191Y-149820533D01*
X183976191Y-149820533D02*
X183976191Y-149725295D01*
X183976191Y-149725295D02*
X184023810Y-149630057D01*
X184023810Y-149630057D02*
X184071429Y-149582438D01*
X184071429Y-149582438D02*
X184166667Y-149534819D01*
X184166667Y-149534819D02*
X184404762Y-149534819D01*
X184404762Y-149534819D02*
X184547619Y-149582438D01*
X184976191Y-150534819D02*
X184976191Y-149534819D01*
X184976191Y-149534819D02*
X185357143Y-149534819D01*
X185357143Y-149534819D02*
X185452381Y-149582438D01*
X185452381Y-149582438D02*
X185500000Y-149630057D01*
X185500000Y-149630057D02*
X185547619Y-149725295D01*
X185547619Y-149725295D02*
X185547619Y-149868152D01*
X185547619Y-149868152D02*
X185500000Y-149963390D01*
X185500000Y-149963390D02*
X185452381Y-150011009D01*
X185452381Y-150011009D02*
X185357143Y-150058628D01*
X185357143Y-150058628D02*
X184976191Y-150058628D01*
X185976191Y-150534819D02*
X185976191Y-149534819D01*
X184454819Y-141683333D02*
X185169104Y-141683333D01*
X185169104Y-141683333D02*
X185311961Y-141730952D01*
X185311961Y-141730952D02*
X185407200Y-141826190D01*
X185407200Y-141826190D02*
X185454819Y-141969047D01*
X185454819Y-141969047D02*
X185454819Y-142064285D01*
X184454819Y-140778571D02*
X184454819Y-140969047D01*
X184454819Y-140969047D02*
X184502438Y-141064285D01*
X184502438Y-141064285D02*
X184550057Y-141111904D01*
X184550057Y-141111904D02*
X184692914Y-141207142D01*
X184692914Y-141207142D02*
X184883390Y-141254761D01*
X184883390Y-141254761D02*
X185264342Y-141254761D01*
X185264342Y-141254761D02*
X185359580Y-141207142D01*
X185359580Y-141207142D02*
X185407200Y-141159523D01*
X185407200Y-141159523D02*
X185454819Y-141064285D01*
X185454819Y-141064285D02*
X185454819Y-140873809D01*
X185454819Y-140873809D02*
X185407200Y-140778571D01*
X185407200Y-140778571D02*
X185359580Y-140730952D01*
X185359580Y-140730952D02*
X185264342Y-140683333D01*
X185264342Y-140683333D02*
X185026247Y-140683333D01*
X185026247Y-140683333D02*
X184931009Y-140730952D01*
X184931009Y-140730952D02*
X184883390Y-140778571D01*
X184883390Y-140778571D02*
X184835771Y-140873809D01*
X184835771Y-140873809D02*
X184835771Y-141064285D01*
X184835771Y-141064285D02*
X184883390Y-141159523D01*
X184883390Y-141159523D02*
X184931009Y-141207142D01*
X184931009Y-141207142D02*
X185026247Y-141254761D01*
X112571429Y-102807200D02*
X112714286Y-102854819D01*
X112714286Y-102854819D02*
X112952381Y-102854819D01*
X112952381Y-102854819D02*
X113047619Y-102807200D01*
X113047619Y-102807200D02*
X113095238Y-102759580D01*
X113095238Y-102759580D02*
X113142857Y-102664342D01*
X113142857Y-102664342D02*
X113142857Y-102569104D01*
X113142857Y-102569104D02*
X113095238Y-102473866D01*
X113095238Y-102473866D02*
X113047619Y-102426247D01*
X113047619Y-102426247D02*
X112952381Y-102378628D01*
X112952381Y-102378628D02*
X112761905Y-102331009D01*
X112761905Y-102331009D02*
X112666667Y-102283390D01*
X112666667Y-102283390D02*
X112619048Y-102235771D01*
X112619048Y-102235771D02*
X112571429Y-102140533D01*
X112571429Y-102140533D02*
X112571429Y-102045295D01*
X112571429Y-102045295D02*
X112619048Y-101950057D01*
X112619048Y-101950057D02*
X112666667Y-101902438D01*
X112666667Y-101902438D02*
X112761905Y-101854819D01*
X112761905Y-101854819D02*
X113000000Y-101854819D01*
X113000000Y-101854819D02*
X113142857Y-101902438D01*
X113571429Y-102854819D02*
X113571429Y-101854819D01*
X114000000Y-101950057D02*
X114047619Y-101902438D01*
X114047619Y-101902438D02*
X114142857Y-101854819D01*
X114142857Y-101854819D02*
X114380952Y-101854819D01*
X114380952Y-101854819D02*
X114476190Y-101902438D01*
X114476190Y-101902438D02*
X114523809Y-101950057D01*
X114523809Y-101950057D02*
X114571428Y-102045295D01*
X114571428Y-102045295D02*
X114571428Y-102140533D01*
X114571428Y-102140533D02*
X114523809Y-102283390D01*
X114523809Y-102283390D02*
X113952381Y-102854819D01*
X113952381Y-102854819D02*
X114571428Y-102854819D01*
X114904762Y-101854819D02*
X115523809Y-101854819D01*
X115523809Y-101854819D02*
X115190476Y-102235771D01*
X115190476Y-102235771D02*
X115333333Y-102235771D01*
X115333333Y-102235771D02*
X115428571Y-102283390D01*
X115428571Y-102283390D02*
X115476190Y-102331009D01*
X115476190Y-102331009D02*
X115523809Y-102426247D01*
X115523809Y-102426247D02*
X115523809Y-102664342D01*
X115523809Y-102664342D02*
X115476190Y-102759580D01*
X115476190Y-102759580D02*
X115428571Y-102807200D01*
X115428571Y-102807200D02*
X115333333Y-102854819D01*
X115333333Y-102854819D02*
X115047619Y-102854819D01*
X115047619Y-102854819D02*
X114952381Y-102807200D01*
X114952381Y-102807200D02*
X114904762Y-102759580D01*
X116142857Y-101854819D02*
X116238095Y-101854819D01*
X116238095Y-101854819D02*
X116333333Y-101902438D01*
X116333333Y-101902438D02*
X116380952Y-101950057D01*
X116380952Y-101950057D02*
X116428571Y-102045295D01*
X116428571Y-102045295D02*
X116476190Y-102235771D01*
X116476190Y-102235771D02*
X116476190Y-102473866D01*
X116476190Y-102473866D02*
X116428571Y-102664342D01*
X116428571Y-102664342D02*
X116380952Y-102759580D01*
X116380952Y-102759580D02*
X116333333Y-102807200D01*
X116333333Y-102807200D02*
X116238095Y-102854819D01*
X116238095Y-102854819D02*
X116142857Y-102854819D01*
X116142857Y-102854819D02*
X116047619Y-102807200D01*
X116047619Y-102807200D02*
X116000000Y-102759580D01*
X116000000Y-102759580D02*
X115952381Y-102664342D01*
X115952381Y-102664342D02*
X115904762Y-102473866D01*
X115904762Y-102473866D02*
X115904762Y-102235771D01*
X115904762Y-102235771D02*
X115952381Y-102045295D01*
X115952381Y-102045295D02*
X116000000Y-101950057D01*
X116000000Y-101950057D02*
X116047619Y-101902438D01*
X116047619Y-101902438D02*
X116142857Y-101854819D01*
X117428571Y-102854819D02*
X116857143Y-102854819D01*
X117142857Y-102854819D02*
X117142857Y-101854819D01*
X117142857Y-101854819D02*
X117047619Y-101997676D01*
X117047619Y-101997676D02*
X116952381Y-102092914D01*
X116952381Y-102092914D02*
X116857143Y-102140533D01*
D14*
X115395937Y-100068571D02*
X115361651Y-100137142D01*
X115361651Y-100137142D02*
X115293080Y-100205714D01*
X115293080Y-100205714D02*
X115190222Y-100308571D01*
X115190222Y-100308571D02*
X115155937Y-100377142D01*
X115155937Y-100377142D02*
X115155937Y-100445714D01*
X115327365Y-100411428D02*
X115293080Y-100480000D01*
X115293080Y-100480000D02*
X115224508Y-100548571D01*
X115224508Y-100548571D02*
X115087365Y-100582857D01*
X115087365Y-100582857D02*
X114847365Y-100582857D01*
X114847365Y-100582857D02*
X114710222Y-100548571D01*
X114710222Y-100548571D02*
X114641651Y-100480000D01*
X114641651Y-100480000D02*
X114607365Y-100411428D01*
X114607365Y-100411428D02*
X114607365Y-100274285D01*
X114607365Y-100274285D02*
X114641651Y-100205714D01*
X114641651Y-100205714D02*
X114710222Y-100137142D01*
X114710222Y-100137142D02*
X114847365Y-100102857D01*
X114847365Y-100102857D02*
X115087365Y-100102857D01*
X115087365Y-100102857D02*
X115224508Y-100137142D01*
X115224508Y-100137142D02*
X115293080Y-100205714D01*
X115293080Y-100205714D02*
X115327365Y-100274285D01*
X115327365Y-100274285D02*
X115327365Y-100411428D01*
X115327365Y-99417142D02*
X115327365Y-99828571D01*
X115327365Y-99622856D02*
X114607365Y-99622856D01*
X114607365Y-99622856D02*
X114710222Y-99691428D01*
X114710222Y-99691428D02*
X114778794Y-99759999D01*
X114778794Y-99759999D02*
X114813080Y-99828571D01*
D10*
X170104819Y-90666666D02*
X170104819Y-91238094D01*
X170104819Y-90952380D02*
X169104819Y-90952380D01*
X169104819Y-90952380D02*
X169247676Y-91047618D01*
X169247676Y-91047618D02*
X169342914Y-91142856D01*
X169342914Y-91142856D02*
X169390533Y-91238094D01*
X169200057Y-90285713D02*
X169152438Y-90238094D01*
X169152438Y-90238094D02*
X169104819Y-90142856D01*
X169104819Y-90142856D02*
X169104819Y-89904761D01*
X169104819Y-89904761D02*
X169152438Y-89809523D01*
X169152438Y-89809523D02*
X169200057Y-89761904D01*
X169200057Y-89761904D02*
X169295295Y-89714285D01*
X169295295Y-89714285D02*
X169390533Y-89714285D01*
X169390533Y-89714285D02*
X169533390Y-89761904D01*
X169533390Y-89761904D02*
X170104819Y-90333332D01*
X170104819Y-90333332D02*
X170104819Y-89714285D01*
X169104819Y-89095237D02*
X169104819Y-88999999D01*
X169104819Y-88999999D02*
X169152438Y-88904761D01*
X169152438Y-88904761D02*
X169200057Y-88857142D01*
X169200057Y-88857142D02*
X169295295Y-88809523D01*
X169295295Y-88809523D02*
X169485771Y-88761904D01*
X169485771Y-88761904D02*
X169723866Y-88761904D01*
X169723866Y-88761904D02*
X169914342Y-88809523D01*
X169914342Y-88809523D02*
X170009580Y-88857142D01*
X170009580Y-88857142D02*
X170057200Y-88904761D01*
X170057200Y-88904761D02*
X170104819Y-88999999D01*
X170104819Y-88999999D02*
X170104819Y-89095237D01*
X170104819Y-89095237D02*
X170057200Y-89190475D01*
X170057200Y-89190475D02*
X170009580Y-89238094D01*
X170009580Y-89238094D02*
X169914342Y-89285713D01*
X169914342Y-89285713D02*
X169723866Y-89333332D01*
X169723866Y-89333332D02*
X169485771Y-89333332D01*
X169485771Y-89333332D02*
X169295295Y-89285713D01*
X169295295Y-89285713D02*
X169200057Y-89238094D01*
X169200057Y-89238094D02*
X169152438Y-89190475D01*
X169152438Y-89190475D02*
X169104819Y-89095237D01*
D13*
X168227149Y-90083333D02*
X167989054Y-90249999D01*
X168227149Y-90369047D02*
X167727149Y-90369047D01*
X167727149Y-90369047D02*
X167727149Y-90178571D01*
X167727149Y-90178571D02*
X167750959Y-90130952D01*
X167750959Y-90130952D02*
X167774768Y-90107142D01*
X167774768Y-90107142D02*
X167822387Y-90083333D01*
X167822387Y-90083333D02*
X167893816Y-90083333D01*
X167893816Y-90083333D02*
X167941435Y-90107142D01*
X167941435Y-90107142D02*
X167965244Y-90130952D01*
X167965244Y-90130952D02*
X167989054Y-90178571D01*
X167989054Y-90178571D02*
X167989054Y-90369047D01*
X168227149Y-89607142D02*
X168227149Y-89892856D01*
X168227149Y-89749999D02*
X167727149Y-89749999D01*
X167727149Y-89749999D02*
X167798578Y-89797618D01*
X167798578Y-89797618D02*
X167846197Y-89845237D01*
X167846197Y-89845237D02*
X167870006Y-89892856D01*
D10*
X123452380Y-94754819D02*
X122880952Y-94754819D01*
X123166666Y-94754819D02*
X123166666Y-93754819D01*
X123166666Y-93754819D02*
X123071428Y-93897676D01*
X123071428Y-93897676D02*
X122976190Y-93992914D01*
X122976190Y-93992914D02*
X122880952Y-94040533D01*
X124071428Y-93754819D02*
X124166666Y-93754819D01*
X124166666Y-93754819D02*
X124261904Y-93802438D01*
X124261904Y-93802438D02*
X124309523Y-93850057D01*
X124309523Y-93850057D02*
X124357142Y-93945295D01*
X124357142Y-93945295D02*
X124404761Y-94135771D01*
X124404761Y-94135771D02*
X124404761Y-94373866D01*
X124404761Y-94373866D02*
X124357142Y-94564342D01*
X124357142Y-94564342D02*
X124309523Y-94659580D01*
X124309523Y-94659580D02*
X124261904Y-94707200D01*
X124261904Y-94707200D02*
X124166666Y-94754819D01*
X124166666Y-94754819D02*
X124071428Y-94754819D01*
X124071428Y-94754819D02*
X123976190Y-94707200D01*
X123976190Y-94707200D02*
X123928571Y-94659580D01*
X123928571Y-94659580D02*
X123880952Y-94564342D01*
X123880952Y-94564342D02*
X123833333Y-94373866D01*
X123833333Y-94373866D02*
X123833333Y-94135771D01*
X123833333Y-94135771D02*
X123880952Y-93945295D01*
X123880952Y-93945295D02*
X123928571Y-93850057D01*
X123928571Y-93850057D02*
X123976190Y-93802438D01*
X123976190Y-93802438D02*
X124071428Y-93754819D01*
X125023809Y-93754819D02*
X125119047Y-93754819D01*
X125119047Y-93754819D02*
X125214285Y-93802438D01*
X125214285Y-93802438D02*
X125261904Y-93850057D01*
X125261904Y-93850057D02*
X125309523Y-93945295D01*
X125309523Y-93945295D02*
X125357142Y-94135771D01*
X125357142Y-94135771D02*
X125357142Y-94373866D01*
X125357142Y-94373866D02*
X125309523Y-94564342D01*
X125309523Y-94564342D02*
X125261904Y-94659580D01*
X125261904Y-94659580D02*
X125214285Y-94707200D01*
X125214285Y-94707200D02*
X125119047Y-94754819D01*
X125119047Y-94754819D02*
X125023809Y-94754819D01*
X125023809Y-94754819D02*
X124928571Y-94707200D01*
X124928571Y-94707200D02*
X124880952Y-94659580D01*
X124880952Y-94659580D02*
X124833333Y-94564342D01*
X124833333Y-94564342D02*
X124785714Y-94373866D01*
X124785714Y-94373866D02*
X124785714Y-94135771D01*
X124785714Y-94135771D02*
X124833333Y-93945295D01*
X124833333Y-93945295D02*
X124880952Y-93850057D01*
X124880952Y-93850057D02*
X124928571Y-93802438D01*
X124928571Y-93802438D02*
X125023809Y-93754819D01*
X126214285Y-94088152D02*
X126214285Y-94754819D01*
X125785714Y-94088152D02*
X125785714Y-94611961D01*
X125785714Y-94611961D02*
X125833333Y-94707200D01*
X125833333Y-94707200D02*
X125928571Y-94754819D01*
X125928571Y-94754819D02*
X126071428Y-94754819D01*
X126071428Y-94754819D02*
X126166666Y-94707200D01*
X126166666Y-94707200D02*
X126214285Y-94659580D01*
X127023809Y-94231009D02*
X126690476Y-94231009D01*
X126690476Y-94754819D02*
X126690476Y-93754819D01*
X126690476Y-93754819D02*
X127166666Y-93754819D01*
D15*
X124866667Y-92287664D02*
X124828571Y-92325760D01*
X124828571Y-92325760D02*
X124714286Y-92363855D01*
X124714286Y-92363855D02*
X124638095Y-92363855D01*
X124638095Y-92363855D02*
X124523809Y-92325760D01*
X124523809Y-92325760D02*
X124447619Y-92249569D01*
X124447619Y-92249569D02*
X124409524Y-92173379D01*
X124409524Y-92173379D02*
X124371428Y-92020998D01*
X124371428Y-92020998D02*
X124371428Y-91906712D01*
X124371428Y-91906712D02*
X124409524Y-91754331D01*
X124409524Y-91754331D02*
X124447619Y-91678140D01*
X124447619Y-91678140D02*
X124523809Y-91601950D01*
X124523809Y-91601950D02*
X124638095Y-91563855D01*
X124638095Y-91563855D02*
X124714286Y-91563855D01*
X124714286Y-91563855D02*
X124828571Y-91601950D01*
X124828571Y-91601950D02*
X124866667Y-91640045D01*
X125628571Y-92363855D02*
X125171428Y-92363855D01*
X125400000Y-92363855D02*
X125400000Y-91563855D01*
X125400000Y-91563855D02*
X125323809Y-91678140D01*
X125323809Y-91678140D02*
X125247619Y-91754331D01*
X125247619Y-91754331D02*
X125171428Y-91792426D01*
D10*
X128452380Y-95614819D02*
X127880952Y-95614819D01*
X128166666Y-95614819D02*
X128166666Y-94614819D01*
X128166666Y-94614819D02*
X128071428Y-94757676D01*
X128071428Y-94757676D02*
X127976190Y-94852914D01*
X127976190Y-94852914D02*
X127880952Y-94900533D01*
X129071428Y-94614819D02*
X129166666Y-94614819D01*
X129166666Y-94614819D02*
X129261904Y-94662438D01*
X129261904Y-94662438D02*
X129309523Y-94710057D01*
X129309523Y-94710057D02*
X129357142Y-94805295D01*
X129357142Y-94805295D02*
X129404761Y-94995771D01*
X129404761Y-94995771D02*
X129404761Y-95233866D01*
X129404761Y-95233866D02*
X129357142Y-95424342D01*
X129357142Y-95424342D02*
X129309523Y-95519580D01*
X129309523Y-95519580D02*
X129261904Y-95567200D01*
X129261904Y-95567200D02*
X129166666Y-95614819D01*
X129166666Y-95614819D02*
X129071428Y-95614819D01*
X129071428Y-95614819D02*
X128976190Y-95567200D01*
X128976190Y-95567200D02*
X128928571Y-95519580D01*
X128928571Y-95519580D02*
X128880952Y-95424342D01*
X128880952Y-95424342D02*
X128833333Y-95233866D01*
X128833333Y-95233866D02*
X128833333Y-94995771D01*
X128833333Y-94995771D02*
X128880952Y-94805295D01*
X128880952Y-94805295D02*
X128928571Y-94710057D01*
X128928571Y-94710057D02*
X128976190Y-94662438D01*
X128976190Y-94662438D02*
X129071428Y-94614819D01*
X130023809Y-94614819D02*
X130119047Y-94614819D01*
X130119047Y-94614819D02*
X130214285Y-94662438D01*
X130214285Y-94662438D02*
X130261904Y-94710057D01*
X130261904Y-94710057D02*
X130309523Y-94805295D01*
X130309523Y-94805295D02*
X130357142Y-94995771D01*
X130357142Y-94995771D02*
X130357142Y-95233866D01*
X130357142Y-95233866D02*
X130309523Y-95424342D01*
X130309523Y-95424342D02*
X130261904Y-95519580D01*
X130261904Y-95519580D02*
X130214285Y-95567200D01*
X130214285Y-95567200D02*
X130119047Y-95614819D01*
X130119047Y-95614819D02*
X130023809Y-95614819D01*
X130023809Y-95614819D02*
X129928571Y-95567200D01*
X129928571Y-95567200D02*
X129880952Y-95519580D01*
X129880952Y-95519580D02*
X129833333Y-95424342D01*
X129833333Y-95424342D02*
X129785714Y-95233866D01*
X129785714Y-95233866D02*
X129785714Y-94995771D01*
X129785714Y-94995771D02*
X129833333Y-94805295D01*
X129833333Y-94805295D02*
X129880952Y-94710057D01*
X129880952Y-94710057D02*
X129928571Y-94662438D01*
X129928571Y-94662438D02*
X130023809Y-94614819D01*
X130785714Y-94948152D02*
X130785714Y-95614819D01*
X130785714Y-95043390D02*
X130833333Y-94995771D01*
X130833333Y-94995771D02*
X130928571Y-94948152D01*
X130928571Y-94948152D02*
X131071428Y-94948152D01*
X131071428Y-94948152D02*
X131166666Y-94995771D01*
X131166666Y-94995771D02*
X131214285Y-95091009D01*
X131214285Y-95091009D02*
X131214285Y-95614819D01*
X132023809Y-95091009D02*
X131690476Y-95091009D01*
X131690476Y-95614819D02*
X131690476Y-94614819D01*
X131690476Y-94614819D02*
X132166666Y-94614819D01*
D11*
X129958333Y-94089765D02*
X129946429Y-94101670D01*
X129946429Y-94101670D02*
X129910714Y-94113574D01*
X129910714Y-94113574D02*
X129886905Y-94113574D01*
X129886905Y-94113574D02*
X129851191Y-94101670D01*
X129851191Y-94101670D02*
X129827381Y-94077860D01*
X129827381Y-94077860D02*
X129815476Y-94054050D01*
X129815476Y-94054050D02*
X129803572Y-94006431D01*
X129803572Y-94006431D02*
X129803572Y-93970717D01*
X129803572Y-93970717D02*
X129815476Y-93923098D01*
X129815476Y-93923098D02*
X129827381Y-93899289D01*
X129827381Y-93899289D02*
X129851191Y-93875479D01*
X129851191Y-93875479D02*
X129886905Y-93863574D01*
X129886905Y-93863574D02*
X129910714Y-93863574D01*
X129910714Y-93863574D02*
X129946429Y-93875479D01*
X129946429Y-93875479D02*
X129958333Y-93887384D01*
X130041667Y-93863574D02*
X130208333Y-93863574D01*
X130208333Y-93863574D02*
X130101191Y-94113574D01*
D10*
X114285714Y-94200057D02*
X114333333Y-94152438D01*
X114333333Y-94152438D02*
X114428571Y-94104819D01*
X114428571Y-94104819D02*
X114666666Y-94104819D01*
X114666666Y-94104819D02*
X114761904Y-94152438D01*
X114761904Y-94152438D02*
X114809523Y-94200057D01*
X114809523Y-94200057D02*
X114857142Y-94295295D01*
X114857142Y-94295295D02*
X114857142Y-94390533D01*
X114857142Y-94390533D02*
X114809523Y-94533390D01*
X114809523Y-94533390D02*
X114238095Y-95104819D01*
X114238095Y-95104819D02*
X114857142Y-95104819D01*
X115238095Y-94819104D02*
X115714285Y-94819104D01*
X115142857Y-95104819D02*
X115476190Y-94104819D01*
X115476190Y-94104819D02*
X115809523Y-95104819D01*
X114666666Y-91931009D02*
X114333333Y-91931009D01*
X114333333Y-92454819D02*
X114333333Y-91454819D01*
X114333333Y-91454819D02*
X114809523Y-91454819D01*
X115714285Y-92454819D02*
X115142857Y-92454819D01*
X115428571Y-92454819D02*
X115428571Y-91454819D01*
X115428571Y-91454819D02*
X115333333Y-91597676D01*
X115333333Y-91597676D02*
X115238095Y-91692914D01*
X115238095Y-91692914D02*
X115142857Y-91740533D01*
%TO.C,C3*%
D16*
X167500000Y-104750000D02*
X168500000Y-104750000D01*
X168500000Y-105250000D01*
X167500000Y-105250000D01*
X167500000Y-104750000D01*
%TO.C,J4*%
X104250000Y-146350000D02*
X111750000Y-146350000D01*
X104250000Y-151350000D02*
X104250000Y-146350000D01*
X104750000Y-150650000D02*
X111250000Y-150650000D01*
X111750000Y-146350000D02*
X111750000Y-151350000D01*
X111750000Y-151350000D02*
X104250000Y-151350000D01*
%TO.C,R5*%
X171587500Y-130800000D02*
X172412500Y-130800000D01*
X172412500Y-129200000D01*
X171587500Y-129200000D01*
X171587500Y-130800000D01*
%TO.C,C5*%
X129500000Y-89750000D02*
X130500000Y-89750000D01*
X130500000Y-90250000D01*
X129500000Y-90250000D01*
X129500000Y-89750000D01*
%TO.C,C4*%
X127500000Y-134750000D02*
X128500000Y-134750000D01*
X128500000Y-135250000D01*
X127500000Y-135250000D01*
X127500000Y-134750000D01*
%TO.C,R3*%
X175587500Y-90800000D02*
X176412500Y-90800000D01*
X176412500Y-89200000D01*
X175587500Y-89200000D01*
X175587500Y-90800000D01*
%TO.C,J2*%
X140730000Y-108000000D02*
X142000000Y-106730000D01*
X140730000Y-157530000D02*
X140730000Y-108000000D01*
X142000000Y-106730000D02*
X145810000Y-106730000D01*
X145810000Y-106730000D02*
X145810000Y-157530000D01*
X145810000Y-157530000D02*
X140730000Y-157530000D01*
%TO.C,J1*%
X101730000Y-99365000D02*
X102365000Y-98730000D01*
X101730000Y-103810000D02*
X101730000Y-99365000D01*
X102365000Y-98730000D02*
X104270000Y-98730000D01*
X104270000Y-98730000D02*
X104270000Y-103810000D01*
X104270000Y-103810000D02*
X101730000Y-103810000D01*
%TO.C,C8*%
X133500000Y-93750000D02*
X134500000Y-93750000D01*
X134500000Y-94250000D01*
X133500000Y-94250000D01*
X133500000Y-93750000D01*
%TO.C,J5*%
X173730000Y-134365000D02*
X174365000Y-133730000D01*
X173730000Y-143890000D02*
X173730000Y-134365000D01*
X174365000Y-133730000D02*
X176270000Y-133730000D01*
X176270000Y-133730000D02*
X176270000Y-143890000D01*
X176270000Y-143890000D02*
X173730000Y-143890000D01*
%TO.C,C6*%
X133500000Y-89750000D02*
X134500000Y-89750000D01*
X134500000Y-90250000D01*
X133500000Y-90250000D01*
X133500000Y-89750000D01*
%TO.C,J3*%
X190730000Y-97365000D02*
X191365000Y-96730000D01*
X190730000Y-106890000D02*
X190730000Y-97365000D01*
X191365000Y-96730000D02*
X193270000Y-96730000D01*
X193270000Y-96730000D02*
X193270000Y-106890000D01*
X193270000Y-106890000D02*
X190730000Y-106890000D01*
%TO.C,C2*%
X124000000Y-101375000D02*
X126000000Y-101375000D01*
X126000000Y-102625000D01*
X124000000Y-102625000D01*
X124000000Y-101375000D01*
%TO.C,J7*%
X190730000Y-135365000D02*
X191365000Y-134730000D01*
X190730000Y-155050000D02*
X190730000Y-135365000D01*
X191365000Y-134730000D02*
X193270000Y-134730000D01*
X193270000Y-134730000D02*
X193270000Y-155050000D01*
X193270000Y-155050000D02*
X190730000Y-155050000D01*
%TO.C,R4*%
X167587500Y-130800000D02*
X168412500Y-130800000D01*
X168412500Y-129200000D01*
X167587500Y-129200000D01*
X167587500Y-130800000D01*
%TO.C,R2*%
X171587500Y-90800000D02*
X172412500Y-90800000D01*
X172412500Y-89200000D01*
X171587500Y-89200000D01*
X171587500Y-90800000D01*
%TO.C,U1*%
X176950000Y-100450000D02*
X173050000Y-100450000D01*
X173050000Y-96525000D01*
X174025000Y-95550000D01*
X176950000Y-95550000D01*
X176950000Y-100450000D01*
%TO.C,U2*%
X120000000Y-137000000D02*
X116000000Y-137000000D01*
X116000000Y-134000000D01*
X117000000Y-133000000D01*
X120000000Y-133000000D01*
X120000000Y-137000000D01*
%TO.C,J6*%
X183730000Y-134365000D02*
X184365000Y-133730000D01*
X183730000Y-148970000D02*
X183730000Y-134365000D01*
X184365000Y-133730000D02*
X186270000Y-133730000D01*
X186270000Y-133730000D02*
X186270000Y-148970000D01*
X186270000Y-148970000D02*
X183730000Y-148970000D01*
%TO.C,Q1*%
X115650000Y-101450000D02*
X114350000Y-101450000D01*
X114350000Y-98875000D01*
X114675000Y-98550000D01*
X115650000Y-98550000D01*
X115650000Y-101450000D01*
%TO.C,R1*%
X167375000Y-91000000D02*
X168625000Y-91000000D01*
X168625000Y-89000000D01*
X167375000Y-89000000D01*
X167375000Y-91000000D01*
%TO.C,C1*%
X123400000Y-90750000D02*
X126600000Y-90750000D01*
X126600000Y-93250000D01*
X123400000Y-93250000D01*
X123400000Y-90750000D01*
%TO.C,C7*%
X129500000Y-93750000D02*
X130500000Y-93750000D01*
X130500000Y-94250000D01*
X129500000Y-94250000D01*
X129500000Y-93750000D01*
%TO.C,F1*%
X112750000Y-90400000D02*
X117250000Y-90400000D01*
X117250000Y-93600000D01*
X112750000Y-93600000D01*
X112750000Y-90400000D01*
%TD*%
M02*
