%TF.GenerationSoftware,KiCad,Pcbnew,9.0.2*%
%TF.CreationDate,2026-04-04T22:46:44-05:00*%
%TF.ProjectId,cm4_carrier,636d345f-6361-4727-9269-65722e6b6963,rev?*%
%TF.SameCoordinates,Original*%
%TF.FileFunction,Copper,L2,Bot*%
%TF.FilePolarity,Positive*%
%FSLAX46Y46*%
G04 Gerber Fmt 4.6, Leading zero omitted, Abs format (unit mm)*
G04 Created by KiCad (PCBNEW 9.0.2) date 2026-04-04 22:46:44*
%MOMM*%
%LPD*%
G01*
G04 APERTURE LIST*
%TA.AperFunction,ComponentPad*%
%ADD10R,1.700000X1.700000*%
%TD*%
%TA.AperFunction,ComponentPad*%
%ADD11C,1.700000*%
%TD*%
%TA.AperFunction,ViaPad*%
%ADD12C,0.600000*%
%TD*%
%TA.AperFunction,Conductor*%
%ADD13C,0.200000*%
%TD*%
G04 APERTURE END LIST*
D10*
%TO.P,J2,1,Pin_1*%
%TO.N,+5V*%
X142000000Y-108000000D03*
D11*
%TO.P,J2,2,Pin_2*%
%TO.N,GND*%
X144540000Y-108000000D03*
%TO.P,J2,3,Pin_3*%
%TO.N,+5V*%
X142000000Y-110540000D03*
%TO.P,J2,4,Pin_4*%
%TO.N,GND*%
X144540000Y-110540000D03*
%TO.P,J2,5,Pin_5*%
%TO.N,+3V3*%
X142000000Y-113080000D03*
%TO.P,J2,6,Pin_6*%
%TO.N,unconnected-(J2-Pin_6-Pad6)*%
X144540000Y-113080000D03*
%TO.P,J2,7,Pin_7*%
%TO.N,/SDA*%
X142000000Y-115620000D03*
%TO.P,J2,8,Pin_8*%
%TO.N,unconnected-(J2-Pin_8-Pad8)*%
X144540000Y-115620000D03*
%TO.P,J2,9,Pin_9*%
%TO.N,/SCL*%
X142000000Y-118160000D03*
%TO.P,J2,10,Pin_10*%
%TO.N,unconnected-(J2-Pin_10-Pad10)*%
X144540000Y-118160000D03*
%TO.P,J2,11,Pin_11*%
%TO.N,/UART_TX*%
X142000000Y-120700000D03*
%TO.P,J2,12,Pin_12*%
%TO.N,unconnected-(J2-Pin_12-Pad12)*%
X144540000Y-120700000D03*
%TO.P,J2,13,Pin_13*%
%TO.N,/UART_RX*%
X142000000Y-123240000D03*
%TO.P,J2,14,Pin_14*%
%TO.N,unconnected-(J2-Pin_14-Pad14)*%
X144540000Y-123240000D03*
%TO.P,J2,15,Pin_15*%
%TO.N,/MOSI*%
X142000000Y-125780000D03*
%TO.P,J2,16,Pin_16*%
%TO.N,unconnected-(J2-Pin_16-Pad16)*%
X144540000Y-125780000D03*
%TO.P,J2,17,Pin_17*%
%TO.N,/MISO*%
X142000000Y-128320000D03*
%TO.P,J2,18,Pin_18*%
%TO.N,unconnected-(J2-Pin_18-Pad18)*%
X144540000Y-128320000D03*
%TO.P,J2,19,Pin_19*%
%TO.N,/SCK*%
X142000000Y-130860000D03*
%TO.P,J2,20,Pin_20*%
%TO.N,unconnected-(J2-Pin_20-Pad20)*%
X144540000Y-130860000D03*
%TO.P,J2,21,Pin_21*%
%TO.N,/SPI_CS0*%
X142000000Y-133400000D03*
%TO.P,J2,22,Pin_22*%
%TO.N,unconnected-(J2-Pin_22-Pad22)*%
X144540000Y-133400000D03*
%TO.P,J2,23,Pin_23*%
%TO.N,/RS485_TX*%
X142000000Y-135940000D03*
%TO.P,J2,24,Pin_24*%
%TO.N,unconnected-(J2-Pin_24-Pad24)*%
X144540000Y-135940000D03*
%TO.P,J2,25,Pin_25*%
%TO.N,/RS485_RX*%
X142000000Y-138480000D03*
%TO.P,J2,26,Pin_26*%
%TO.N,unconnected-(J2-Pin_26-Pad26)*%
X144540000Y-138480000D03*
%TO.P,J2,27,Pin_27*%
%TO.N,unconnected-(J2-Pin_27-Pad27)*%
X142000000Y-141020000D03*
%TO.P,J2,28,Pin_28*%
%TO.N,unconnected-(J2-Pin_28-Pad28)*%
X144540000Y-141020000D03*
%TO.P,J2,29,Pin_29*%
%TO.N,unconnected-(J2-Pin_29-Pad29)*%
X142000000Y-143560000D03*
%TO.P,J2,30,Pin_30*%
%TO.N,unconnected-(J2-Pin_30-Pad30)*%
X144540000Y-143560000D03*
%TO.P,J2,31,Pin_31*%
%TO.N,unconnected-(J2-Pin_31-Pad31)*%
X142000000Y-146100000D03*
%TO.P,J2,32,Pin_32*%
%TO.N,unconnected-(J2-Pin_32-Pad32)*%
X144540000Y-146100000D03*
%TO.P,J2,33,Pin_33*%
%TO.N,unconnected-(J2-Pin_33-Pad33)*%
X142000000Y-148640000D03*
%TO.P,J2,34,Pin_34*%
%TO.N,unconnected-(J2-Pin_34-Pad34)*%
X144540000Y-148640000D03*
%TO.P,J2,35,Pin_35*%
%TO.N,unconnected-(J2-Pin_35-Pad35)*%
X142000000Y-151180000D03*
%TO.P,J2,36,Pin_36*%
%TO.N,unconnected-(J2-Pin_36-Pad36)*%
X144540000Y-151180000D03*
%TO.P,J2,37,Pin_37*%
%TO.N,unconnected-(J2-Pin_37-Pad37)*%
X142000000Y-153720000D03*
%TO.P,J2,38,Pin_38*%
%TO.N,unconnected-(J2-Pin_38-Pad38)*%
X144540000Y-153720000D03*
%TO.P,J2,39,Pin_39*%
%TO.N,unconnected-(J2-Pin_39-Pad39)*%
X142000000Y-156260000D03*
%TO.P,J2,40,Pin_40*%
%TO.N,unconnected-(J2-Pin_40-Pad40)*%
X144540000Y-156260000D03*
%TD*%
D10*
%TO.P,J1,1,Pin_1*%
%TO.N,/5V_IN*%
X103000000Y-100000000D03*
D11*
%TO.P,J1,2,Pin_2*%
%TO.N,GND*%
X103000000Y-102540000D03*
%TD*%
D10*
%TO.P,J5,1,Pin_1*%
%TO.N,+3V3*%
X175000000Y-135000000D03*
D11*
%TO.P,J5,2,Pin_2*%
%TO.N,/SDA*%
X175000000Y-137540000D03*
%TO.P,J5,3,Pin_3*%
%TO.N,/SCL*%
X175000000Y-140080000D03*
%TO.P,J5,4,Pin_4*%
%TO.N,GND*%
X175000000Y-142620000D03*
%TD*%
D10*
%TO.P,J3,1,Pin_1*%
%TO.N,/RS485_A*%
X192000000Y-98000000D03*
D11*
%TO.P,J3,2,Pin_2*%
%TO.N,/RS485_B*%
X192000000Y-100540000D03*
%TO.P,J3,3,Pin_3*%
%TO.N,/RS485_DE*%
X192000000Y-103080000D03*
%TO.P,J3,4,Pin_4*%
%TO.N,GND*%
X192000000Y-105620000D03*
%TD*%
D10*
%TO.P,J7,1,Pin_1*%
%TO.N,+3V3*%
X192000000Y-136000000D03*
D11*
%TO.P,J7,2,Pin_2*%
%TO.N,unconnected-(J7-Pin_2-Pad2)*%
X192000000Y-138540000D03*
%TO.P,J7,3,Pin_3*%
%TO.N,unconnected-(J7-Pin_3-Pad3)*%
X192000000Y-141080000D03*
%TO.P,J7,4,Pin_4*%
%TO.N,unconnected-(J7-Pin_4-Pad4)*%
X192000000Y-143620000D03*
%TO.P,J7,5,Pin_5*%
%TO.N,unconnected-(J7-Pin_5-Pad5)*%
X192000000Y-146160000D03*
%TO.P,J7,6,Pin_6*%
%TO.N,unconnected-(J7-Pin_6-Pad6)*%
X192000000Y-148700000D03*
%TO.P,J7,7,Pin_7*%
%TO.N,unconnected-(J7-Pin_7-Pad7)*%
X192000000Y-151240000D03*
%TO.P,J7,8,Pin_8*%
%TO.N,GND*%
X192000000Y-153780000D03*
%TD*%
D10*
%TO.P,J6,1,Pin_1*%
%TO.N,+3V3*%
X185000000Y-135000000D03*
D11*
%TO.P,J6,2,Pin_2*%
%TO.N,/MOSI*%
X185000000Y-137540000D03*
%TO.P,J6,3,Pin_3*%
%TO.N,/MISO*%
X185000000Y-140080000D03*
%TO.P,J6,4,Pin_4*%
%TO.N,/SCK*%
X185000000Y-142620000D03*
%TO.P,J6,5,Pin_5*%
%TO.N,/SPI_CS0*%
X185000000Y-145160000D03*
%TO.P,J6,6,Pin_6*%
%TO.N,GND*%
X185000000Y-147700000D03*
%TD*%
D12*
%TO.N,GND*%
X103000000Y-135000000D03*
%TO.N,+3V3*%
X175382000Y-95892800D03*
X176783300Y-131188200D03*
X140850600Y-99206800D03*
X141021700Y-132130000D03*
X175382000Y-105666800D03*
%TO.N,/RS485_TX*%
X143270000Y-99905000D03*
%TO.N,/RS485_RX*%
X140248900Y-96095000D03*
%TO.N,/SCL*%
X173026700Y-129643900D03*
%TO.N,/SDA*%
X173848300Y-130560500D03*
%TO.N,/USB_DP*%
X107267800Y-134133200D03*
X108000000Y-145313900D03*
%TD*%
D13*
%TO.N,+5V*%
X142000000Y-110540000D02*
X142000000Y-108000000D01*
%TO.N,GND*%
X186151700Y-111468300D02*
X192000000Y-105620000D01*
X103000000Y-102540000D02*
X103000000Y-135000000D01*
X144540000Y-110540000D02*
X144540000Y-108000000D01*
X185000000Y-147700000D02*
X186151700Y-146548300D01*
X186151700Y-146548300D02*
X186151700Y-111468300D01*
%TO.N,+3V3*%
X140848300Y-114231700D02*
X142000000Y-113080000D01*
X140848300Y-111928300D02*
X142000000Y-113080000D01*
X175000000Y-135000000D02*
X175000000Y-133848300D01*
X175382000Y-129786900D02*
X175382000Y-105666800D01*
X175000000Y-133848300D02*
X176783300Y-132065000D01*
X140850600Y-99206800D02*
X140848300Y-99209100D01*
X176783300Y-132065000D02*
X176783300Y-131188200D01*
X140848300Y-131956600D02*
X140848300Y-114231700D01*
X176783300Y-131188200D02*
X175382000Y-129786900D01*
X141021700Y-132130000D02*
X140848300Y-131956600D01*
X175382000Y-105666800D02*
X175382000Y-95892800D01*
X140848300Y-99209100D02*
X140848300Y-111928300D01*
%TO.N,/RS485_TX*%
X142000000Y-135940000D02*
X143270000Y-134670000D01*
X143270000Y-134670000D02*
X143270000Y-99905000D01*
%TO.N,/RS485_RX*%
X140783900Y-132743000D02*
X140248900Y-132208000D01*
X140784000Y-132743000D02*
X140783900Y-132743000D01*
X140248900Y-132208000D02*
X140248900Y-96095000D01*
X140784000Y-137264000D02*
X140784000Y-132743000D01*
X142000000Y-138480000D02*
X140784000Y-137264000D01*
%TO.N,/SCL*%
X173026700Y-138106700D02*
X175000000Y-140080000D01*
X173026700Y-129643900D02*
X173026700Y-138106700D01*
%TO.N,/SDA*%
X173848300Y-136388300D02*
X173848300Y-130560500D01*
X175000000Y-137540000D02*
X173848300Y-136388300D01*
%TO.N,/USB_DP*%
X107267800Y-134133200D02*
X107267800Y-144581700D01*
X107267800Y-144581700D02*
X108000000Y-145313900D01*
%TD*%
%TA.AperFunction,Conductor*%
%TO.N,GND*%
G36*
X199442539Y-80520185D02*
G01*
X199488294Y-80572989D01*
X199499500Y-80624500D01*
X199499500Y-159375500D01*
X199479815Y-159442539D01*
X199427011Y-159488294D01*
X199375500Y-159499500D01*
X100624500Y-159499500D01*
X100557461Y-159479815D01*
X100511706Y-159427011D01*
X100500500Y-159375500D01*
X100500500Y-134054353D01*
X106467300Y-134054353D01*
X106467300Y-134212046D01*
X106498061Y-134366689D01*
X106498064Y-134366701D01*
X106558402Y-134512372D01*
X106558409Y-134512385D01*
X106646402Y-134644074D01*
X106667280Y-134710751D01*
X106667300Y-134712965D01*
X106667300Y-144495030D01*
X106667299Y-144495048D01*
X106667299Y-144660754D01*
X106667298Y-144660754D01*
X106699120Y-144779516D01*
X106708223Y-144813485D01*
X106725122Y-144842754D01*
X106755466Y-144895312D01*
X106787279Y-144950415D01*
X106906149Y-145069285D01*
X106906155Y-145069290D01*
X107165425Y-145328560D01*
X107198910Y-145389883D01*
X107199361Y-145392049D01*
X107230261Y-145547391D01*
X107230264Y-145547401D01*
X107290602Y-145693072D01*
X107290609Y-145693085D01*
X107378210Y-145824188D01*
X107378213Y-145824192D01*
X107489707Y-145935686D01*
X107489711Y-145935689D01*
X107620814Y-146023290D01*
X107620827Y-146023297D01*
X107766498Y-146083635D01*
X107766503Y-146083637D01*
X107921153Y-146114399D01*
X107921156Y-146114400D01*
X107921158Y-146114400D01*
X108078844Y-146114400D01*
X108078845Y-146114399D01*
X108233497Y-146083637D01*
X108379179Y-146023294D01*
X108510289Y-145935689D01*
X108621789Y-145824189D01*
X108709394Y-145693079D01*
X108769737Y-145547397D01*
X108800500Y-145392742D01*
X108800500Y-145235058D01*
X108800500Y-145235055D01*
X108800499Y-145235053D01*
X108779582Y-145129896D01*
X108769737Y-145080403D01*
X108765385Y-145069896D01*
X108709397Y-144934727D01*
X108709390Y-144934714D01*
X108621789Y-144803611D01*
X108621786Y-144803607D01*
X108510292Y-144692113D01*
X108510288Y-144692110D01*
X108379185Y-144604509D01*
X108379172Y-144604502D01*
X108233501Y-144544164D01*
X108233491Y-144544161D01*
X108078149Y-144513261D01*
X108061392Y-144504495D01*
X108042914Y-144500476D01*
X108017877Y-144481733D01*
X108016238Y-144480876D01*
X108014660Y-144479325D01*
X107904619Y-144369284D01*
X107871134Y-144307961D01*
X107868300Y-144281603D01*
X107868300Y-134712965D01*
X107887985Y-134645926D01*
X107889198Y-134644074D01*
X107977190Y-134512385D01*
X107977190Y-134512384D01*
X107977194Y-134512379D01*
X108037537Y-134366697D01*
X108068300Y-134212042D01*
X108068300Y-134054358D01*
X108068300Y-134054355D01*
X108068299Y-134054353D01*
X108039122Y-133907671D01*
X108037537Y-133899703D01*
X108037535Y-133899698D01*
X107977197Y-133754027D01*
X107977190Y-133754014D01*
X107889589Y-133622911D01*
X107889586Y-133622907D01*
X107778092Y-133511413D01*
X107778088Y-133511410D01*
X107646985Y-133423809D01*
X107646972Y-133423802D01*
X107501301Y-133363464D01*
X107501289Y-133363461D01*
X107346645Y-133332700D01*
X107346642Y-133332700D01*
X107188958Y-133332700D01*
X107188955Y-133332700D01*
X107034310Y-133363461D01*
X107034298Y-133363464D01*
X106888627Y-133423802D01*
X106888614Y-133423809D01*
X106757511Y-133511410D01*
X106757507Y-133511413D01*
X106646013Y-133622907D01*
X106646010Y-133622911D01*
X106558409Y-133754014D01*
X106558402Y-133754027D01*
X106498064Y-133899698D01*
X106498061Y-133899710D01*
X106467300Y-134054353D01*
X100500500Y-134054353D01*
X100500500Y-99102135D01*
X101649500Y-99102135D01*
X101649500Y-100897870D01*
X101649501Y-100897876D01*
X101655908Y-100957483D01*
X101706202Y-101092328D01*
X101706206Y-101092335D01*
X101792452Y-101207544D01*
X101792455Y-101207547D01*
X101907664Y-101293793D01*
X101907671Y-101293797D01*
X101952618Y-101310561D01*
X102042517Y-101344091D01*
X102102127Y-101350500D01*
X102112685Y-101350499D01*
X102179723Y-101370179D01*
X102200372Y-101386818D01*
X102870591Y-102057037D01*
X102807007Y-102074075D01*
X102692993Y-102139901D01*
X102599901Y-102232993D01*
X102534075Y-102347007D01*
X102517037Y-102410591D01*
X101884728Y-101778282D01*
X101884727Y-101778282D01*
X101845380Y-101832439D01*
X101748904Y-102021782D01*
X101683242Y-102223869D01*
X101683242Y-102223872D01*
X101650000Y-102433753D01*
X101650000Y-102646246D01*
X101683242Y-102856127D01*
X101683242Y-102856130D01*
X101748904Y-103058217D01*
X101845375Y-103247550D01*
X101884728Y-103301716D01*
X102517037Y-102669408D01*
X102534075Y-102732993D01*
X102599901Y-102847007D01*
X102692993Y-102940099D01*
X102807007Y-103005925D01*
X102870590Y-103022962D01*
X102238282Y-103655269D01*
X102238282Y-103655270D01*
X102292449Y-103694624D01*
X102481782Y-103791095D01*
X102683870Y-103856757D01*
X102893754Y-103890000D01*
X103106246Y-103890000D01*
X103316127Y-103856757D01*
X103316130Y-103856757D01*
X103518217Y-103791095D01*
X103707554Y-103694622D01*
X103761716Y-103655270D01*
X103761717Y-103655270D01*
X103129408Y-103022962D01*
X103192993Y-103005925D01*
X103307007Y-102940099D01*
X103400099Y-102847007D01*
X103465925Y-102732993D01*
X103482962Y-102669409D01*
X104115270Y-103301717D01*
X104115270Y-103301716D01*
X104154622Y-103247554D01*
X104251095Y-103058217D01*
X104316757Y-102856130D01*
X104316757Y-102856127D01*
X104350000Y-102646246D01*
X104350000Y-102433753D01*
X104316757Y-102223872D01*
X104316757Y-102223869D01*
X104251095Y-102021782D01*
X104154624Y-101832449D01*
X104115270Y-101778282D01*
X104115269Y-101778282D01*
X103482962Y-102410590D01*
X103465925Y-102347007D01*
X103400099Y-102232993D01*
X103307007Y-102139901D01*
X103192993Y-102074075D01*
X103129409Y-102057037D01*
X103799627Y-101386818D01*
X103860950Y-101353333D01*
X103887307Y-101350499D01*
X103897872Y-101350499D01*
X103957483Y-101344091D01*
X104092331Y-101293796D01*
X104207546Y-101207546D01*
X104293796Y-101092331D01*
X104344091Y-100957483D01*
X104350500Y-100897873D01*
X104350499Y-99102128D01*
X104344091Y-99042517D01*
X104318278Y-98973310D01*
X104293797Y-98907671D01*
X104293793Y-98907664D01*
X104207547Y-98792455D01*
X104207544Y-98792452D01*
X104092335Y-98706206D01*
X104092328Y-98706202D01*
X103957482Y-98655908D01*
X103957483Y-98655908D01*
X103897883Y-98649501D01*
X103897881Y-98649500D01*
X103897873Y-98649500D01*
X103897864Y-98649500D01*
X102102129Y-98649500D01*
X102102123Y-98649501D01*
X102042516Y-98655908D01*
X101907671Y-98706202D01*
X101907664Y-98706206D01*
X101792455Y-98792452D01*
X101792452Y-98792455D01*
X101706206Y-98907664D01*
X101706202Y-98907671D01*
X101655908Y-99042517D01*
X101649501Y-99102116D01*
X101649501Y-99102123D01*
X101649500Y-99102135D01*
X100500500Y-99102135D01*
X100500500Y-96016153D01*
X139448400Y-96016153D01*
X139448400Y-96173846D01*
X139479161Y-96328489D01*
X139479164Y-96328501D01*
X139539502Y-96474172D01*
X139539509Y-96474185D01*
X139627502Y-96605874D01*
X139648380Y-96672551D01*
X139648400Y-96674765D01*
X139648400Y-132121330D01*
X139648399Y-132121348D01*
X139648399Y-132287054D01*
X139648398Y-132287054D01*
X139689323Y-132439785D01*
X139718258Y-132489900D01*
X139718259Y-132489904D01*
X139718260Y-132489904D01*
X139756260Y-132555724D01*
X139768379Y-132576714D01*
X139768381Y-132576717D01*
X139887249Y-132695585D01*
X139887255Y-132695590D01*
X140147181Y-132955516D01*
X140180666Y-133016839D01*
X140183500Y-133043197D01*
X140183500Y-137177330D01*
X140183499Y-137177348D01*
X140183499Y-137343054D01*
X140183498Y-137343054D01*
X140224422Y-137495781D01*
X140224425Y-137495789D01*
X140230438Y-137506203D01*
X140303477Y-137632712D01*
X140303481Y-137632717D01*
X140422349Y-137751585D01*
X140422355Y-137751590D01*
X140666241Y-137995476D01*
X140699726Y-138056799D01*
X140696492Y-138121473D01*
X140682753Y-138163757D01*
X140649500Y-138373712D01*
X140649500Y-138586286D01*
X140682011Y-138791557D01*
X140682754Y-138796243D01*
X140724573Y-138924949D01*
X140748444Y-138998414D01*
X140844951Y-139187820D01*
X140969890Y-139359786D01*
X141120213Y-139510109D01*
X141292182Y-139635050D01*
X141300946Y-139639516D01*
X141351742Y-139687491D01*
X141368536Y-139755312D01*
X141345998Y-139821447D01*
X141300946Y-139860484D01*
X141292182Y-139864949D01*
X141120213Y-139989890D01*
X140969890Y-140140213D01*
X140844951Y-140312179D01*
X140748444Y-140501585D01*
X140682753Y-140703760D01*
X140649500Y-140913713D01*
X140649500Y-141126286D01*
X140682011Y-141331557D01*
X140682754Y-141336243D01*
X140737498Y-141504728D01*
X140748444Y-141538414D01*
X140844951Y-141727820D01*
X140969890Y-141899786D01*
X141120213Y-142050109D01*
X141292182Y-142175050D01*
X141300946Y-142179516D01*
X141351742Y-142227491D01*
X141368536Y-142295312D01*
X141345998Y-142361447D01*
X141300946Y-142400484D01*
X141292182Y-142404949D01*
X141120213Y-142529890D01*
X140969890Y-142680213D01*
X140844951Y-142852179D01*
X140748444Y-143041585D01*
X140682753Y-143243760D01*
X140660903Y-143381716D01*
X140649500Y-143453713D01*
X140649500Y-143666287D01*
X140659003Y-143726286D01*
X140682753Y-143876239D01*
X140682753Y-143876241D01*
X140682754Y-143876243D01*
X140724573Y-144004949D01*
X140748444Y-144078414D01*
X140844951Y-144267820D01*
X140969890Y-144439786D01*
X141120213Y-144590109D01*
X141292182Y-144715050D01*
X141300946Y-144719516D01*
X141351742Y-144767491D01*
X141368536Y-144835312D01*
X141345998Y-144901447D01*
X141300946Y-144940484D01*
X141292182Y-144944949D01*
X141120213Y-145069890D01*
X140969890Y-145220213D01*
X140844951Y-145392179D01*
X140748444Y-145581585D01*
X140682753Y-145783760D01*
X140649500Y-145993713D01*
X140649500Y-146206286D01*
X140682011Y-146411557D01*
X140682754Y-146416243D01*
X140737498Y-146584728D01*
X140748444Y-146618414D01*
X140844951Y-146807820D01*
X140969890Y-146979786D01*
X141120213Y-147130109D01*
X141292182Y-147255050D01*
X141300946Y-147259516D01*
X141351742Y-147307491D01*
X141368536Y-147375312D01*
X141345998Y-147441447D01*
X141300946Y-147480484D01*
X141292182Y-147484949D01*
X141120213Y-147609890D01*
X140969890Y-147760213D01*
X140844951Y-147932179D01*
X140748444Y-148121585D01*
X140682753Y-148323760D01*
X140660903Y-148461716D01*
X140649500Y-148533713D01*
X140649500Y-148746287D01*
X140659003Y-148806286D01*
X140682753Y-148956239D01*
X140682753Y-148956241D01*
X140682754Y-148956243D01*
X140702416Y-149016757D01*
X140748444Y-149158414D01*
X140844951Y-149347820D01*
X140969890Y-149519786D01*
X141120213Y-149670109D01*
X141292182Y-149795050D01*
X141300946Y-149799516D01*
X141351742Y-149847491D01*
X141368536Y-149915312D01*
X141345998Y-149981447D01*
X141300946Y-150020484D01*
X141292182Y-150024949D01*
X141120213Y-150149890D01*
X140969890Y-150300213D01*
X140844951Y-150472179D01*
X140748444Y-150661585D01*
X140682753Y-150863760D01*
X140673250Y-150923760D01*
X140649500Y-151073713D01*
X140649500Y-151286287D01*
X140682754Y-151496243D01*
X140702249Y-151556243D01*
X140748444Y-151698414D01*
X140844951Y-151887820D01*
X140969890Y-152059786D01*
X141120213Y-152210109D01*
X141292182Y-152335050D01*
X141300946Y-152339516D01*
X141351742Y-152387491D01*
X141368536Y-152455312D01*
X141345998Y-152521447D01*
X141300946Y-152560484D01*
X141292182Y-152564949D01*
X141120213Y-152689890D01*
X140969890Y-152840213D01*
X140844951Y-153012179D01*
X140748444Y-153201585D01*
X140682753Y-153403760D01*
X140671788Y-153472993D01*
X140649500Y-153613713D01*
X140649500Y-153826287D01*
X140682754Y-154036243D01*
X140714372Y-154133554D01*
X140748444Y-154238414D01*
X140844951Y-154427820D01*
X140969890Y-154599786D01*
X141120213Y-154750109D01*
X141292182Y-154875050D01*
X141300946Y-154879516D01*
X141351742Y-154927491D01*
X141368536Y-154995312D01*
X141345998Y-155061447D01*
X141300946Y-155100484D01*
X141292182Y-155104949D01*
X141120213Y-155229890D01*
X140969890Y-155380213D01*
X140844951Y-155552179D01*
X140748444Y-155741585D01*
X140682753Y-155943760D01*
X140649500Y-156153713D01*
X140649500Y-156366286D01*
X140682753Y-156576239D01*
X140748444Y-156778414D01*
X140844951Y-156967820D01*
X140969890Y-157139786D01*
X141120213Y-157290109D01*
X141292179Y-157415048D01*
X141292181Y-157415049D01*
X141292184Y-157415051D01*
X141481588Y-157511557D01*
X141683757Y-157577246D01*
X141893713Y-157610500D01*
X141893714Y-157610500D01*
X142106286Y-157610500D01*
X142106287Y-157610500D01*
X142316243Y-157577246D01*
X142518412Y-157511557D01*
X142707816Y-157415051D01*
X142729789Y-157399086D01*
X142879786Y-157290109D01*
X142879788Y-157290106D01*
X142879792Y-157290104D01*
X143030104Y-157139792D01*
X143030106Y-157139788D01*
X143030109Y-157139786D01*
X143155048Y-156967820D01*
X143155047Y-156967820D01*
X143155051Y-156967816D01*
X143159514Y-156959054D01*
X143207488Y-156908259D01*
X143275308Y-156891463D01*
X143341444Y-156913999D01*
X143380486Y-156959056D01*
X143384951Y-156967820D01*
X143509890Y-157139786D01*
X143660213Y-157290109D01*
X143832179Y-157415048D01*
X143832181Y-157415049D01*
X143832184Y-157415051D01*
X144021588Y-157511557D01*
X144223757Y-157577246D01*
X144433713Y-157610500D01*
X144433714Y-157610500D01*
X144646286Y-157610500D01*
X144646287Y-157610500D01*
X144856243Y-157577246D01*
X145058412Y-157511557D01*
X145247816Y-157415051D01*
X145269789Y-157399086D01*
X145419786Y-157290109D01*
X145419788Y-157290106D01*
X145419792Y-157290104D01*
X145570104Y-157139792D01*
X145570106Y-157139788D01*
X145570109Y-157139786D01*
X145695048Y-156967820D01*
X145695047Y-156967820D01*
X145695051Y-156967816D01*
X145791557Y-156778412D01*
X145857246Y-156576243D01*
X145890500Y-156366287D01*
X145890500Y-156153713D01*
X145857246Y-155943757D01*
X145791557Y-155741588D01*
X145695051Y-155552184D01*
X145695049Y-155552181D01*
X145695048Y-155552179D01*
X145570109Y-155380213D01*
X145419786Y-155229890D01*
X145247820Y-155104951D01*
X145247115Y-155104591D01*
X145239054Y-155100485D01*
X145188259Y-155052512D01*
X145171463Y-154984692D01*
X145193999Y-154918556D01*
X145223721Y-154888780D01*
X145231049Y-154883593D01*
X145247816Y-154875051D01*
X145419792Y-154750104D01*
X145570104Y-154599792D01*
X145570106Y-154599788D01*
X145570109Y-154599786D01*
X145695048Y-154427820D01*
X145695047Y-154427820D01*
X145695051Y-154427816D01*
X145791557Y-154238412D01*
X145857246Y-154036243D01*
X145890500Y-153826287D01*
X145890500Y-153613713D01*
X145857246Y-153403757D01*
X145791557Y-153201588D01*
X145695051Y-153012184D01*
X145695049Y-153012181D01*
X145695048Y-153012179D01*
X145570109Y-152840213D01*
X145419786Y-152689890D01*
X145247820Y-152564951D01*
X145247115Y-152564591D01*
X145239054Y-152560485D01*
X145188259Y-152512512D01*
X145171463Y-152444692D01*
X145193999Y-152378556D01*
X145239054Y-152339515D01*
X145247816Y-152335051D01*
X145337209Y-152270104D01*
X145419786Y-152210109D01*
X145419788Y-152210106D01*
X145419792Y-152210104D01*
X145570104Y-152059792D01*
X145570106Y-152059788D01*
X145570109Y-152059786D01*
X145695048Y-151887820D01*
X145695047Y-151887820D01*
X145695051Y-151887816D01*
X145791557Y-151698412D01*
X145857246Y-151496243D01*
X145890500Y-151286287D01*
X145890500Y-151073713D01*
X145857246Y-150863757D01*
X145791557Y-150661588D01*
X145695051Y-150472184D01*
X145695049Y-150472181D01*
X145695048Y-150472179D01*
X145570109Y-150300213D01*
X145419786Y-150149890D01*
X145247820Y-150024951D01*
X145247115Y-150024591D01*
X145239054Y-150020485D01*
X145188259Y-149972512D01*
X145171463Y-149904692D01*
X145193999Y-149838556D01*
X145239054Y-149799515D01*
X145247816Y-149795051D01*
X145337209Y-149730104D01*
X145419786Y-149670109D01*
X145419788Y-149670106D01*
X145419792Y-149670104D01*
X145570104Y-149519792D01*
X145570106Y-149519788D01*
X145570109Y-149519786D01*
X145695048Y-149347820D01*
X145695047Y-149347820D01*
X145695051Y-149347816D01*
X145791557Y-149158412D01*
X145857246Y-148956243D01*
X145890500Y-148746287D01*
X145890500Y-148533713D01*
X145857246Y-148323757D01*
X145791557Y-148121588D01*
X145695051Y-147932184D01*
X145695049Y-147932181D01*
X145695048Y-147932179D01*
X145570109Y-147760213D01*
X145419786Y-147609890D01*
X145247820Y-147484951D01*
X145247115Y-147484591D01*
X145239054Y-147480485D01*
X145188259Y-147432512D01*
X145171463Y-147364692D01*
X145193999Y-147298556D01*
X145239054Y-147259515D01*
X145247816Y-147255051D01*
X145348663Y-147181782D01*
X145419786Y-147130109D01*
X145419788Y-147130106D01*
X145419792Y-147130104D01*
X145570104Y-146979792D01*
X145570106Y-146979788D01*
X145570109Y-146979786D01*
X145695048Y-146807820D01*
X145695047Y-146807820D01*
X145695051Y-146807816D01*
X145791557Y-146618412D01*
X145857246Y-146416243D01*
X145890500Y-146206287D01*
X145890500Y-145993713D01*
X145857246Y-145783757D01*
X145791557Y-145581588D01*
X145695051Y-145392184D01*
X145695049Y-145392181D01*
X145695048Y-145392179D01*
X145570109Y-145220213D01*
X145419786Y-145069890D01*
X145247820Y-144944951D01*
X145247115Y-144944591D01*
X145239054Y-144940485D01*
X145188259Y-144892512D01*
X145171463Y-144824692D01*
X145193999Y-144758556D01*
X145239054Y-144719515D01*
X145247816Y-144715051D01*
X145348934Y-144641585D01*
X145419786Y-144590109D01*
X145419788Y-144590106D01*
X145419792Y-144590104D01*
X145570104Y-144439792D01*
X145570106Y-144439788D01*
X145570109Y-144439786D01*
X145695048Y-144267820D01*
X145695047Y-144267820D01*
X145695051Y-144267816D01*
X145791557Y-144078412D01*
X145857246Y-143876243D01*
X145890500Y-143666287D01*
X145890500Y-143453713D01*
X145857246Y-143243757D01*
X145791557Y-143041588D01*
X145695051Y-142852184D01*
X145695049Y-142852181D01*
X145695048Y-142852179D01*
X145570109Y-142680213D01*
X145419786Y-142529890D01*
X145247820Y-142404951D01*
X145247115Y-142404591D01*
X145239054Y-142400485D01*
X145188259Y-142352512D01*
X145171463Y-142284692D01*
X145193999Y-142218556D01*
X145239054Y-142179515D01*
X145247816Y-142175051D01*
X145348934Y-142101585D01*
X145419786Y-142050109D01*
X145419788Y-142050106D01*
X145419792Y-142050104D01*
X145570104Y-141899792D01*
X145570106Y-141899788D01*
X145570109Y-141899786D01*
X145695048Y-141727820D01*
X145695047Y-141727820D01*
X145695051Y-141727816D01*
X145791557Y-141538412D01*
X145857246Y-141336243D01*
X145890500Y-141126287D01*
X145890500Y-140913713D01*
X145857246Y-140703757D01*
X145791557Y-140501588D01*
X145695051Y-140312184D01*
X145695049Y-140312181D01*
X145695048Y-140312179D01*
X145570109Y-140140213D01*
X145419786Y-139989890D01*
X145247820Y-139864951D01*
X145247115Y-139864591D01*
X145239054Y-139860485D01*
X145188259Y-139812512D01*
X145171463Y-139744692D01*
X145193999Y-139678556D01*
X145239054Y-139639515D01*
X145247816Y-139635051D01*
X145348934Y-139561585D01*
X145419786Y-139510109D01*
X145419788Y-139510106D01*
X145419792Y-139510104D01*
X145570104Y-139359792D01*
X145570106Y-139359788D01*
X145570109Y-139359786D01*
X145695048Y-139187820D01*
X145695047Y-139187820D01*
X145695051Y-139187816D01*
X145791557Y-138998412D01*
X145857246Y-138796243D01*
X145890500Y-138586287D01*
X145890500Y-138373713D01*
X145857246Y-138163757D01*
X145791557Y-137961588D01*
X145695051Y-137772184D01*
X145695049Y-137772181D01*
X145695048Y-137772179D01*
X145570109Y-137600213D01*
X145419786Y-137449890D01*
X145247820Y-137324951D01*
X145247115Y-137324591D01*
X145239054Y-137320485D01*
X145188259Y-137272512D01*
X145171463Y-137204692D01*
X145193999Y-137138556D01*
X145239054Y-137099515D01*
X145247816Y-137095051D01*
X145348934Y-137021585D01*
X145419786Y-136970109D01*
X145419788Y-136970106D01*
X145419792Y-136970104D01*
X145570104Y-136819792D01*
X145570106Y-136819788D01*
X145570109Y-136819786D01*
X145695048Y-136647820D01*
X145695047Y-136647820D01*
X145695051Y-136647816D01*
X145791557Y-136458412D01*
X145857246Y-136256243D01*
X145890500Y-136046287D01*
X145890500Y-135833713D01*
X145857246Y-135623757D01*
X145791557Y-135421588D01*
X145695051Y-135232184D01*
X145695049Y-135232181D01*
X145695048Y-135232179D01*
X145570109Y-135060213D01*
X145419786Y-134909890D01*
X145247820Y-134784951D01*
X145247115Y-134784591D01*
X145239054Y-134780485D01*
X145188259Y-134732512D01*
X145171463Y-134664692D01*
X145193999Y-134598556D01*
X145239054Y-134559515D01*
X145247816Y-134555051D01*
X145306541Y-134512385D01*
X145419786Y-134430109D01*
X145419788Y-134430106D01*
X145419792Y-134430104D01*
X145570104Y-134279792D01*
X145570106Y-134279788D01*
X145570109Y-134279786D01*
X145695048Y-134107820D01*
X145695047Y-134107820D01*
X145695051Y-134107816D01*
X145791557Y-133918412D01*
X145857246Y-133716243D01*
X145890500Y-133506287D01*
X145890500Y-133293713D01*
X145857246Y-133083757D01*
X145791557Y-132881588D01*
X145695051Y-132692184D01*
X145695049Y-132692181D01*
X145695048Y-132692179D01*
X145570109Y-132520213D01*
X145419786Y-132369890D01*
X145247820Y-132244951D01*
X145247115Y-132244591D01*
X145239054Y-132240485D01*
X145188259Y-132192512D01*
X145171463Y-132124692D01*
X145193999Y-132058556D01*
X145239054Y-132019515D01*
X145247816Y-132015051D01*
X145298334Y-131978348D01*
X145419786Y-131890109D01*
X145419788Y-131890106D01*
X145419792Y-131890104D01*
X145570104Y-131739792D01*
X145570106Y-131739788D01*
X145570109Y-131739786D01*
X145695048Y-131567820D01*
X145695047Y-131567820D01*
X145695051Y-131567816D01*
X145791557Y-131378412D01*
X145857246Y-131176243D01*
X145890500Y-130966287D01*
X145890500Y-130753713D01*
X145857246Y-130543757D01*
X145791557Y-130341588D01*
X145695051Y-130152184D01*
X145695049Y-130152181D01*
X145695048Y-130152179D01*
X145570109Y-129980213D01*
X145419786Y-129829890D01*
X145247820Y-129704951D01*
X145247115Y-129704591D01*
X145239054Y-129700485D01*
X145234578Y-129696257D01*
X145228665Y-129694543D01*
X145209479Y-129672553D01*
X145188259Y-129652512D01*
X145186778Y-129646534D01*
X145182731Y-129641895D01*
X145178479Y-129613023D01*
X145171463Y-129584692D01*
X145173449Y-129578863D01*
X145172552Y-129572771D01*
X145176045Y-129565053D01*
X172226200Y-129565053D01*
X172226200Y-129722746D01*
X172256961Y-129877389D01*
X172256964Y-129877401D01*
X172317302Y-130023072D01*
X172317307Y-130023081D01*
X172405302Y-130154774D01*
X172426180Y-130221451D01*
X172426200Y-130223665D01*
X172426200Y-138020030D01*
X172426199Y-138020048D01*
X172426199Y-138185754D01*
X172426198Y-138185754D01*
X172467124Y-138338489D01*
X172467125Y-138338490D01*
X172487461Y-138373712D01*
X172487462Y-138373713D01*
X172546177Y-138475412D01*
X172546181Y-138475417D01*
X172665049Y-138594285D01*
X172665055Y-138594290D01*
X173666241Y-139595476D01*
X173699726Y-139656799D01*
X173696492Y-139721473D01*
X173682753Y-139763757D01*
X173649500Y-139973713D01*
X173649500Y-140186286D01*
X173682753Y-140396239D01*
X173748444Y-140598414D01*
X173844951Y-140787820D01*
X173969890Y-140959786D01*
X174120213Y-141110109D01*
X174292179Y-141235048D01*
X174292181Y-141235049D01*
X174292184Y-141235051D01*
X174301493Y-141239794D01*
X174352290Y-141287766D01*
X174369087Y-141355587D01*
X174346552Y-141421722D01*
X174301505Y-141460760D01*
X174292446Y-141465376D01*
X174292440Y-141465380D01*
X174238282Y-141504727D01*
X174238282Y-141504728D01*
X174870591Y-142137037D01*
X174807007Y-142154075D01*
X174692993Y-142219901D01*
X174599901Y-142312993D01*
X174534075Y-142427007D01*
X174517037Y-142490591D01*
X173884728Y-141858282D01*
X173884727Y-141858282D01*
X173845380Y-141912439D01*
X173748904Y-142101782D01*
X173683242Y-142303869D01*
X173683242Y-142303872D01*
X173650000Y-142513753D01*
X173650000Y-142726246D01*
X173683242Y-142936127D01*
X173683242Y-142936130D01*
X173748904Y-143138217D01*
X173845375Y-143327550D01*
X173884728Y-143381716D01*
X174517037Y-142749408D01*
X174534075Y-142812993D01*
X174599901Y-142927007D01*
X174692993Y-143020099D01*
X174807007Y-143085925D01*
X174870590Y-143102962D01*
X174238282Y-143735269D01*
X174238282Y-143735270D01*
X174292449Y-143774624D01*
X174481782Y-143871095D01*
X174683870Y-143936757D01*
X174893754Y-143970000D01*
X175106246Y-143970000D01*
X175316127Y-143936757D01*
X175316130Y-143936757D01*
X175518217Y-143871095D01*
X175707554Y-143774622D01*
X175761716Y-143735270D01*
X175761717Y-143735270D01*
X175129408Y-143102962D01*
X175192993Y-143085925D01*
X175307007Y-143020099D01*
X175400099Y-142927007D01*
X175465925Y-142812993D01*
X175482962Y-142749408D01*
X176115270Y-143381717D01*
X176115270Y-143381716D01*
X176154622Y-143327554D01*
X176251095Y-143138217D01*
X176316757Y-142936130D01*
X176316757Y-142936127D01*
X176350000Y-142726246D01*
X176350000Y-142513753D01*
X176316757Y-142303872D01*
X176316757Y-142303869D01*
X176251095Y-142101782D01*
X176154624Y-141912449D01*
X176115270Y-141858282D01*
X176115269Y-141858282D01*
X175482962Y-142490590D01*
X175465925Y-142427007D01*
X175400099Y-142312993D01*
X175307007Y-142219901D01*
X175192993Y-142154075D01*
X175129409Y-142137037D01*
X175761716Y-141504728D01*
X175707547Y-141465373D01*
X175707547Y-141465372D01*
X175698500Y-141460763D01*
X175647706Y-141412788D01*
X175630912Y-141344966D01*
X175653451Y-141278832D01*
X175698508Y-141239793D01*
X175707816Y-141235051D01*
X175787007Y-141177515D01*
X175879786Y-141110109D01*
X175879788Y-141110106D01*
X175879792Y-141110104D01*
X176030104Y-140959792D01*
X176030106Y-140959788D01*
X176030109Y-140959786D01*
X176155048Y-140787820D01*
X176155047Y-140787820D01*
X176155051Y-140787816D01*
X176251557Y-140598412D01*
X176317246Y-140396243D01*
X176350500Y-140186287D01*
X176350500Y-139973713D01*
X176317246Y-139763757D01*
X176251557Y-139561588D01*
X176155051Y-139372184D01*
X176155049Y-139372181D01*
X176155048Y-139372179D01*
X176030109Y-139200213D01*
X175879786Y-139049890D01*
X175707820Y-138924951D01*
X175707115Y-138924591D01*
X175699054Y-138920485D01*
X175648259Y-138872512D01*
X175631463Y-138804692D01*
X175653999Y-138738556D01*
X175699054Y-138699515D01*
X175707816Y-138695051D01*
X175729789Y-138679086D01*
X175879786Y-138570109D01*
X175879788Y-138570106D01*
X175879792Y-138570104D01*
X176030104Y-138419792D01*
X176030106Y-138419788D01*
X176030109Y-138419786D01*
X176155048Y-138247820D01*
X176155047Y-138247820D01*
X176155051Y-138247816D01*
X176251557Y-138058412D01*
X176317246Y-137856243D01*
X176350500Y-137646287D01*
X176350500Y-137433713D01*
X176317246Y-137223757D01*
X176251557Y-137021588D01*
X176155051Y-136832184D01*
X176155049Y-136832181D01*
X176155048Y-136832179D01*
X176030109Y-136660213D01*
X175916569Y-136546673D01*
X175883084Y-136485350D01*
X175888068Y-136415658D01*
X175929940Y-136359725D01*
X175960915Y-136342810D01*
X176092331Y-136293796D01*
X176207546Y-136207546D01*
X176293796Y-136092331D01*
X176344091Y-135957483D01*
X176350500Y-135897873D01*
X176350499Y-134102135D01*
X183649500Y-134102135D01*
X183649500Y-135897870D01*
X183649501Y-135897876D01*
X183655908Y-135957483D01*
X183706202Y-136092328D01*
X183706206Y-136092335D01*
X183792452Y-136207544D01*
X183792455Y-136207547D01*
X183907664Y-136293793D01*
X183907671Y-136293797D01*
X184039082Y-136342810D01*
X184095016Y-136384681D01*
X184119433Y-136450145D01*
X184104582Y-136518418D01*
X184083431Y-136546673D01*
X183969889Y-136660215D01*
X183844951Y-136832179D01*
X183748444Y-137021585D01*
X183682753Y-137223760D01*
X183649500Y-137433713D01*
X183649500Y-137646286D01*
X183678942Y-137832179D01*
X183682754Y-137856243D01*
X183745452Y-138049208D01*
X183748444Y-138058414D01*
X183844951Y-138247820D01*
X183969890Y-138419786D01*
X184120213Y-138570109D01*
X184292182Y-138695050D01*
X184300946Y-138699516D01*
X184351742Y-138747491D01*
X184368536Y-138815312D01*
X184345998Y-138881447D01*
X184300946Y-138920484D01*
X184292182Y-138924949D01*
X184120213Y-139049890D01*
X183969890Y-139200213D01*
X183844951Y-139372179D01*
X183748444Y-139561585D01*
X183682753Y-139763760D01*
X183649500Y-139973713D01*
X183649500Y-140186286D01*
X183682753Y-140396239D01*
X183748444Y-140598414D01*
X183844951Y-140787820D01*
X183969890Y-140959786D01*
X184120213Y-141110109D01*
X184292182Y-141235050D01*
X184300946Y-141239516D01*
X184351742Y-141287491D01*
X184368536Y-141355312D01*
X184345998Y-141421447D01*
X184300946Y-141460484D01*
X184292182Y-141464949D01*
X184120213Y-141589890D01*
X183969890Y-141740213D01*
X183844951Y-141912179D01*
X183748444Y-142101585D01*
X183682753Y-142303760D01*
X183649500Y-142513713D01*
X183649500Y-142726286D01*
X183682753Y-142936239D01*
X183748444Y-143138414D01*
X183844951Y-143327820D01*
X183969890Y-143499786D01*
X184120213Y-143650109D01*
X184292182Y-143775050D01*
X184300946Y-143779516D01*
X184351742Y-143827491D01*
X184368536Y-143895312D01*
X184345998Y-143961447D01*
X184300946Y-144000484D01*
X184292182Y-144004949D01*
X184120213Y-144129890D01*
X183969890Y-144280213D01*
X183844951Y-144452179D01*
X183748444Y-144641585D01*
X183682753Y-144843760D01*
X183649500Y-145053713D01*
X183649500Y-145266286D01*
X183678942Y-145452179D01*
X183682754Y-145476243D01*
X183705873Y-145547397D01*
X183748444Y-145678414D01*
X183844951Y-145867820D01*
X183969890Y-146039786D01*
X184120213Y-146190109D01*
X184292179Y-146315048D01*
X184292181Y-146315049D01*
X184292184Y-146315051D01*
X184301493Y-146319794D01*
X184352290Y-146367766D01*
X184369087Y-146435587D01*
X184346552Y-146501722D01*
X184301505Y-146540760D01*
X184292446Y-146545376D01*
X184292440Y-146545380D01*
X184238282Y-146584727D01*
X184238282Y-146584728D01*
X184870591Y-147217037D01*
X184807007Y-147234075D01*
X184692993Y-147299901D01*
X184599901Y-147392993D01*
X184534075Y-147507007D01*
X184517037Y-147570590D01*
X183884728Y-146938282D01*
X183884727Y-146938282D01*
X183845380Y-146992439D01*
X183748904Y-147181782D01*
X183683242Y-147383869D01*
X183683242Y-147383872D01*
X183650000Y-147593753D01*
X183650000Y-147806246D01*
X183683242Y-148016127D01*
X183683242Y-148016130D01*
X183748904Y-148218217D01*
X183845375Y-148407550D01*
X183884728Y-148461716D01*
X184517037Y-147829408D01*
X184534075Y-147892993D01*
X184599901Y-148007007D01*
X184692993Y-148100099D01*
X184807007Y-148165925D01*
X184870590Y-148182962D01*
X184238282Y-148815269D01*
X184238282Y-148815270D01*
X184292449Y-148854624D01*
X184481782Y-148951095D01*
X184683870Y-149016757D01*
X184893754Y-149050000D01*
X185106246Y-149050000D01*
X185316127Y-149016757D01*
X185316130Y-149016757D01*
X185518217Y-148951095D01*
X185707554Y-148854622D01*
X185761716Y-148815270D01*
X185761717Y-148815270D01*
X185129408Y-148182962D01*
X185192993Y-148165925D01*
X185307007Y-148100099D01*
X185400099Y-148007007D01*
X185465925Y-147892993D01*
X185482962Y-147829408D01*
X186115270Y-148461717D01*
X186115270Y-148461716D01*
X186154622Y-148407554D01*
X186251095Y-148218217D01*
X186316757Y-148016130D01*
X186316757Y-148016127D01*
X186350000Y-147806246D01*
X186350000Y-147593753D01*
X186316757Y-147383872D01*
X186316757Y-147383869D01*
X186251095Y-147181782D01*
X186154624Y-146992449D01*
X186115270Y-146938282D01*
X186115269Y-146938282D01*
X185482962Y-147570590D01*
X185465925Y-147507007D01*
X185400099Y-147392993D01*
X185307007Y-147299901D01*
X185192993Y-147234075D01*
X185129409Y-147217037D01*
X185761716Y-146584728D01*
X185707547Y-146545373D01*
X185707547Y-146545372D01*
X185698500Y-146540763D01*
X185647706Y-146492788D01*
X185630912Y-146424966D01*
X185653451Y-146358832D01*
X185698508Y-146319793D01*
X185707816Y-146315051D01*
X185787007Y-146257515D01*
X185879786Y-146190109D01*
X185879788Y-146190106D01*
X185879792Y-146190104D01*
X186030104Y-146039792D01*
X186030106Y-146039788D01*
X186030109Y-146039786D01*
X186155048Y-145867820D01*
X186155047Y-145867820D01*
X186155051Y-145867816D01*
X186251557Y-145678412D01*
X186317246Y-145476243D01*
X186350500Y-145266287D01*
X186350500Y-145053713D01*
X186317246Y-144843757D01*
X186251557Y-144641588D01*
X186155051Y-144452184D01*
X186155049Y-144452181D01*
X186155048Y-144452179D01*
X186030109Y-144280213D01*
X185879786Y-144129890D01*
X185707820Y-144004951D01*
X185707115Y-144004591D01*
X185699054Y-144000485D01*
X185648259Y-143952512D01*
X185631463Y-143884692D01*
X185653999Y-143818556D01*
X185699054Y-143779515D01*
X185707816Y-143775051D01*
X185762572Y-143735269D01*
X185879786Y-143650109D01*
X185879788Y-143650106D01*
X185879792Y-143650104D01*
X186030104Y-143499792D01*
X186030106Y-143499788D01*
X186030109Y-143499786D01*
X186155048Y-143327820D01*
X186155047Y-143327820D01*
X186155051Y-143327816D01*
X186251557Y-143138412D01*
X186317246Y-142936243D01*
X186350500Y-142726287D01*
X186350500Y-142513713D01*
X186317246Y-142303757D01*
X186251557Y-142101588D01*
X186155051Y-141912184D01*
X186155049Y-141912181D01*
X186155048Y-141912179D01*
X186030109Y-141740213D01*
X185879786Y-141589890D01*
X185707820Y-141464951D01*
X185699600Y-141460763D01*
X185699054Y-141460485D01*
X185648259Y-141412512D01*
X185631463Y-141344692D01*
X185653999Y-141278556D01*
X185699054Y-141239515D01*
X185707816Y-141235051D01*
X185729789Y-141219086D01*
X185879786Y-141110109D01*
X185879788Y-141110106D01*
X185879792Y-141110104D01*
X186030104Y-140959792D01*
X186030106Y-140959788D01*
X186030109Y-140959786D01*
X186155048Y-140787820D01*
X186155047Y-140787820D01*
X186155051Y-140787816D01*
X186251557Y-140598412D01*
X186317246Y-140396243D01*
X186350500Y-140186287D01*
X186350500Y-139973713D01*
X186317246Y-139763757D01*
X186251557Y-139561588D01*
X186155051Y-139372184D01*
X186155049Y-139372181D01*
X186155048Y-139372179D01*
X186030109Y-139200213D01*
X185879786Y-139049890D01*
X185707820Y-138924951D01*
X185707115Y-138924591D01*
X185699054Y-138920485D01*
X185648259Y-138872512D01*
X185631463Y-138804692D01*
X185653999Y-138738556D01*
X185699054Y-138699515D01*
X185707816Y-138695051D01*
X185729789Y-138679086D01*
X185879786Y-138570109D01*
X185879788Y-138570106D01*
X185879792Y-138570104D01*
X186030104Y-138419792D01*
X186030106Y-138419788D01*
X186030109Y-138419786D01*
X186155048Y-138247820D01*
X186155047Y-138247820D01*
X186155051Y-138247816D01*
X186251557Y-138058412D01*
X186317246Y-137856243D01*
X186350500Y-137646287D01*
X186350500Y-137433713D01*
X186317246Y-137223757D01*
X186251557Y-137021588D01*
X186155051Y-136832184D01*
X186155049Y-136832181D01*
X186155048Y-136832179D01*
X186030109Y-136660213D01*
X185916569Y-136546673D01*
X185883084Y-136485350D01*
X185888068Y-136415658D01*
X185929940Y-136359725D01*
X185960915Y-136342810D01*
X186092331Y-136293796D01*
X186207546Y-136207546D01*
X186293796Y-136092331D01*
X186344091Y-135957483D01*
X186350500Y-135897873D01*
X186350499Y-135102135D01*
X190649500Y-135102135D01*
X190649500Y-136897870D01*
X190649501Y-136897876D01*
X190655908Y-136957483D01*
X190706202Y-137092328D01*
X190706206Y-137092335D01*
X190792452Y-137207544D01*
X190792455Y-137207547D01*
X190907664Y-137293793D01*
X190907671Y-137293797D01*
X191039082Y-137342810D01*
X191095016Y-137384681D01*
X191119433Y-137450145D01*
X191104582Y-137518418D01*
X191083431Y-137546673D01*
X190969889Y-137660215D01*
X190844951Y-137832179D01*
X190748444Y-138021585D01*
X190682753Y-138223760D01*
X190649500Y-138433713D01*
X190649500Y-138646286D01*
X190672508Y-138791557D01*
X190682754Y-138856243D01*
X190728948Y-138998414D01*
X190748444Y-139058414D01*
X190844951Y-139247820D01*
X190969890Y-139419786D01*
X191120213Y-139570109D01*
X191292182Y-139695050D01*
X191300946Y-139699516D01*
X191351742Y-139747491D01*
X191368536Y-139815312D01*
X191345998Y-139881447D01*
X191300946Y-139920484D01*
X191292182Y-139924949D01*
X191120213Y-140049890D01*
X190969890Y-140200213D01*
X190844951Y-140372179D01*
X190748444Y-140561585D01*
X190682753Y-140763760D01*
X190649500Y-140973713D01*
X190649500Y-141186286D01*
X190676314Y-141355587D01*
X190682754Y-141396243D01*
X190728948Y-141538414D01*
X190748444Y-141598414D01*
X190844951Y-141787820D01*
X190969890Y-141959786D01*
X191120213Y-142110109D01*
X191292182Y-142235050D01*
X191300946Y-142239516D01*
X191351742Y-142287491D01*
X191368536Y-142355312D01*
X191345998Y-142421447D01*
X191300946Y-142460484D01*
X191292182Y-142464949D01*
X191120213Y-142589890D01*
X190969890Y-142740213D01*
X190844951Y-142912179D01*
X190748444Y-143101585D01*
X190682753Y-143303760D01*
X190649500Y-143513713D01*
X190649500Y-143726286D01*
X190672508Y-143871557D01*
X190682754Y-143936243D01*
X190728948Y-144078414D01*
X190748444Y-144138414D01*
X190844951Y-144327820D01*
X190969890Y-144499786D01*
X191120213Y-144650109D01*
X191292182Y-144775050D01*
X191300946Y-144779516D01*
X191351742Y-144827491D01*
X191368536Y-144895312D01*
X191345998Y-144961447D01*
X191300946Y-145000484D01*
X191292182Y-145004949D01*
X191120213Y-145129890D01*
X190969890Y-145280213D01*
X190844951Y-145452179D01*
X190748444Y-145641585D01*
X190682753Y-145843760D01*
X190649500Y-146053713D01*
X190649500Y-146266286D01*
X190676314Y-146435587D01*
X190682754Y-146476243D01*
X190728948Y-146618414D01*
X190748444Y-146678414D01*
X190844951Y-146867820D01*
X190969890Y-147039786D01*
X191120213Y-147190109D01*
X191292182Y-147315050D01*
X191300946Y-147319516D01*
X191351742Y-147367491D01*
X191368536Y-147435312D01*
X191345998Y-147501447D01*
X191300946Y-147540484D01*
X191292182Y-147544949D01*
X191120213Y-147669890D01*
X190969890Y-147820213D01*
X190844951Y-147992179D01*
X190748444Y-148181585D01*
X190682753Y-148383760D01*
X190670406Y-148461716D01*
X190649500Y-148593713D01*
X190649500Y-148806287D01*
X190682754Y-149016243D01*
X190728948Y-149158414D01*
X190748444Y-149218414D01*
X190844951Y-149407820D01*
X190969890Y-149579786D01*
X191120213Y-149730109D01*
X191292182Y-149855050D01*
X191300946Y-149859516D01*
X191351742Y-149907491D01*
X191368536Y-149975312D01*
X191345998Y-150041447D01*
X191300946Y-150080484D01*
X191292182Y-150084949D01*
X191120213Y-150209890D01*
X190969890Y-150360213D01*
X190844951Y-150532179D01*
X190748444Y-150721585D01*
X190682753Y-150923760D01*
X190659003Y-151073713D01*
X190649500Y-151133713D01*
X190649500Y-151346287D01*
X190682754Y-151556243D01*
X190728948Y-151698414D01*
X190748444Y-151758414D01*
X190844951Y-151947820D01*
X190969890Y-152119786D01*
X191120213Y-152270109D01*
X191292179Y-152395048D01*
X191292181Y-152395049D01*
X191292184Y-152395051D01*
X191301493Y-152399794D01*
X191352290Y-152447766D01*
X191369087Y-152515587D01*
X191346552Y-152581722D01*
X191301505Y-152620760D01*
X191292446Y-152625376D01*
X191292440Y-152625380D01*
X191238282Y-152664727D01*
X191238282Y-152664728D01*
X191870591Y-153297037D01*
X191807007Y-153314075D01*
X191692993Y-153379901D01*
X191599901Y-153472993D01*
X191534075Y-153587007D01*
X191517037Y-153650591D01*
X190884728Y-153018282D01*
X190884727Y-153018282D01*
X190845380Y-153072439D01*
X190748904Y-153261782D01*
X190683242Y-153463869D01*
X190683242Y-153463872D01*
X190650000Y-153673753D01*
X190650000Y-153886246D01*
X190683242Y-154096127D01*
X190683242Y-154096130D01*
X190748904Y-154298217D01*
X190845375Y-154487550D01*
X190884728Y-154541716D01*
X191517037Y-153909408D01*
X191534075Y-153972993D01*
X191599901Y-154087007D01*
X191692993Y-154180099D01*
X191807007Y-154245925D01*
X191870590Y-154262962D01*
X191238282Y-154895269D01*
X191238282Y-154895270D01*
X191292449Y-154934624D01*
X191481782Y-155031095D01*
X191683870Y-155096757D01*
X191893754Y-155130000D01*
X192106246Y-155130000D01*
X192316127Y-155096757D01*
X192316130Y-155096757D01*
X192518217Y-155031095D01*
X192707554Y-154934622D01*
X192761716Y-154895270D01*
X192761717Y-154895270D01*
X192129408Y-154262962D01*
X192192993Y-154245925D01*
X192307007Y-154180099D01*
X192400099Y-154087007D01*
X192465925Y-153972993D01*
X192482962Y-153909408D01*
X193115270Y-154541717D01*
X193115270Y-154541716D01*
X193154622Y-154487554D01*
X193251095Y-154298217D01*
X193316757Y-154096130D01*
X193316757Y-154096127D01*
X193350000Y-153886246D01*
X193350000Y-153673753D01*
X193316757Y-153463872D01*
X193316757Y-153463869D01*
X193251095Y-153261782D01*
X193154624Y-153072449D01*
X193115270Y-153018282D01*
X193115269Y-153018282D01*
X192482962Y-153650590D01*
X192465925Y-153587007D01*
X192400099Y-153472993D01*
X192307007Y-153379901D01*
X192192993Y-153314075D01*
X192129409Y-153297037D01*
X192761716Y-152664728D01*
X192707547Y-152625373D01*
X192707547Y-152625372D01*
X192698500Y-152620763D01*
X192647706Y-152572788D01*
X192630912Y-152504966D01*
X192653451Y-152438832D01*
X192698508Y-152399793D01*
X192707816Y-152395051D01*
X192787007Y-152337515D01*
X192879786Y-152270109D01*
X192879788Y-152270106D01*
X192879792Y-152270104D01*
X193030104Y-152119792D01*
X193030106Y-152119788D01*
X193030109Y-152119786D01*
X193155048Y-151947820D01*
X193155047Y-151947820D01*
X193155051Y-151947816D01*
X193251557Y-151758412D01*
X193317246Y-151556243D01*
X193350500Y-151346287D01*
X193350500Y-151133713D01*
X193317246Y-150923757D01*
X193251557Y-150721588D01*
X193155051Y-150532184D01*
X193155049Y-150532181D01*
X193155048Y-150532179D01*
X193030109Y-150360213D01*
X192879786Y-150209890D01*
X192707820Y-150084951D01*
X192707115Y-150084591D01*
X192699054Y-150080485D01*
X192648259Y-150032512D01*
X192631463Y-149964692D01*
X192653999Y-149898556D01*
X192699054Y-149859515D01*
X192707816Y-149855051D01*
X192784257Y-149799514D01*
X192879786Y-149730109D01*
X192879788Y-149730106D01*
X192879792Y-149730104D01*
X193030104Y-149579792D01*
X193030106Y-149579788D01*
X193030109Y-149579786D01*
X193155048Y-149407820D01*
X193155047Y-149407820D01*
X193155051Y-149407816D01*
X193251557Y-149218412D01*
X193317246Y-149016243D01*
X193350500Y-148806287D01*
X193350500Y-148593713D01*
X193317246Y-148383757D01*
X193251557Y-148181588D01*
X193155051Y-147992184D01*
X193155049Y-147992181D01*
X193155048Y-147992179D01*
X193030109Y-147820213D01*
X192879786Y-147669890D01*
X192707820Y-147544951D01*
X192707115Y-147544591D01*
X192699054Y-147540485D01*
X192648259Y-147492512D01*
X192631463Y-147424692D01*
X192653999Y-147358556D01*
X192699054Y-147319515D01*
X192707816Y-147315051D01*
X192784257Y-147259514D01*
X192879786Y-147190109D01*
X192879788Y-147190106D01*
X192879792Y-147190104D01*
X193030104Y-147039792D01*
X193030106Y-147039788D01*
X193030109Y-147039786D01*
X193155048Y-146867820D01*
X193155047Y-146867820D01*
X193155051Y-146867816D01*
X193251557Y-146678412D01*
X193317246Y-146476243D01*
X193350500Y-146266287D01*
X193350500Y-146053713D01*
X193317246Y-145843757D01*
X193251557Y-145641588D01*
X193155051Y-145452184D01*
X193155049Y-145452181D01*
X193155048Y-145452179D01*
X193030109Y-145280213D01*
X192879786Y-145129890D01*
X192707820Y-145004951D01*
X192707115Y-145004591D01*
X192699054Y-145000485D01*
X192648259Y-144952512D01*
X192631463Y-144884692D01*
X192653999Y-144818556D01*
X192699054Y-144779515D01*
X192707816Y-144775051D01*
X192784257Y-144719514D01*
X192879786Y-144650109D01*
X192879788Y-144650106D01*
X192879792Y-144650104D01*
X193030104Y-144499792D01*
X193030106Y-144499788D01*
X193030109Y-144499786D01*
X193155048Y-144327820D01*
X193155047Y-144327820D01*
X193155051Y-144327816D01*
X193251557Y-144138412D01*
X193317246Y-143936243D01*
X193350500Y-143726287D01*
X193350500Y-143513713D01*
X193317246Y-143303757D01*
X193251557Y-143101588D01*
X193155051Y-142912184D01*
X193155049Y-142912181D01*
X193155048Y-142912179D01*
X193030109Y-142740213D01*
X192879786Y-142589890D01*
X192707820Y-142464951D01*
X192707115Y-142464591D01*
X192699054Y-142460485D01*
X192648259Y-142412512D01*
X192631463Y-142344692D01*
X192653999Y-142278556D01*
X192699054Y-142239515D01*
X192707816Y-142235051D01*
X192784257Y-142179514D01*
X192879786Y-142110109D01*
X192879788Y-142110106D01*
X192879792Y-142110104D01*
X193030104Y-141959792D01*
X193030106Y-141959788D01*
X193030109Y-141959786D01*
X193155048Y-141787820D01*
X193155047Y-141787820D01*
X193155051Y-141787816D01*
X193251557Y-141598412D01*
X193317246Y-141396243D01*
X193350500Y-141186287D01*
X193350500Y-140973713D01*
X193317246Y-140763757D01*
X193251557Y-140561588D01*
X193155051Y-140372184D01*
X193155049Y-140372181D01*
X193155048Y-140372179D01*
X193030109Y-140200213D01*
X192879786Y-140049890D01*
X192707820Y-139924951D01*
X192707115Y-139924591D01*
X192699054Y-139920485D01*
X192648259Y-139872512D01*
X192631463Y-139804692D01*
X192653999Y-139738556D01*
X192699054Y-139699515D01*
X192707816Y-139695051D01*
X192784257Y-139639514D01*
X192879786Y-139570109D01*
X192879788Y-139570106D01*
X192879792Y-139570104D01*
X193030104Y-139419792D01*
X193030106Y-139419788D01*
X193030109Y-139419786D01*
X193155048Y-139247820D01*
X193155047Y-139247820D01*
X193155051Y-139247816D01*
X193251557Y-139058412D01*
X193317246Y-138856243D01*
X193350500Y-138646287D01*
X193350500Y-138433713D01*
X193317246Y-138223757D01*
X193251557Y-138021588D01*
X193155051Y-137832184D01*
X193155049Y-137832181D01*
X193155048Y-137832179D01*
X193030109Y-137660213D01*
X192916569Y-137546673D01*
X192883084Y-137485350D01*
X192888068Y-137415658D01*
X192929940Y-137359725D01*
X192960915Y-137342810D01*
X193092331Y-137293796D01*
X193207546Y-137207546D01*
X193293796Y-137092331D01*
X193344091Y-136957483D01*
X193350500Y-136897873D01*
X193350499Y-135102128D01*
X193344091Y-135042517D01*
X193294624Y-134909890D01*
X193293797Y-134907671D01*
X193293793Y-134907664D01*
X193207547Y-134792455D01*
X193207544Y-134792452D01*
X193092335Y-134706206D01*
X193092328Y-134706202D01*
X192957482Y-134655908D01*
X192957483Y-134655908D01*
X192897883Y-134649501D01*
X192897881Y-134649500D01*
X192897873Y-134649500D01*
X192897864Y-134649500D01*
X191102129Y-134649500D01*
X191102123Y-134649501D01*
X191042516Y-134655908D01*
X190907671Y-134706202D01*
X190907664Y-134706206D01*
X190792455Y-134792452D01*
X190792452Y-134792455D01*
X190706206Y-134907664D01*
X190706202Y-134907671D01*
X190655908Y-135042517D01*
X190654006Y-135060213D01*
X190649501Y-135102123D01*
X190649500Y-135102135D01*
X186350499Y-135102135D01*
X186350499Y-134909896D01*
X186350499Y-134102129D01*
X186350498Y-134102123D01*
X186350497Y-134102116D01*
X186344091Y-134042517D01*
X186293796Y-133907669D01*
X186293795Y-133907668D01*
X186293793Y-133907664D01*
X186207547Y-133792455D01*
X186207544Y-133792452D01*
X186092335Y-133706206D01*
X186092328Y-133706202D01*
X185957482Y-133655908D01*
X185957483Y-133655908D01*
X185897883Y-133649501D01*
X185897881Y-133649500D01*
X185897873Y-133649500D01*
X185897864Y-133649500D01*
X184102129Y-133649500D01*
X184102123Y-133649501D01*
X184042516Y-133655908D01*
X183907671Y-133706202D01*
X183907664Y-133706206D01*
X183792455Y-133792452D01*
X183792452Y-133792455D01*
X183706206Y-133907664D01*
X183706202Y-133907671D01*
X183655908Y-134042517D01*
X183649501Y-134102116D01*
X183649501Y-134102123D01*
X183649500Y-134102135D01*
X176350499Y-134102135D01*
X176350499Y-134102128D01*
X176344091Y-134042517D01*
X176293796Y-133907669D01*
X176293795Y-133907668D01*
X176293793Y-133907664D01*
X176207547Y-133792456D01*
X176207548Y-133792456D01*
X176207546Y-133792454D01*
X176149126Y-133748721D01*
X176107257Y-133692789D01*
X176102273Y-133623097D01*
X176135756Y-133561777D01*
X177141806Y-132555728D01*
X177141811Y-132555724D01*
X177152014Y-132545520D01*
X177152016Y-132545520D01*
X177263820Y-132433716D01*
X177329621Y-132319744D01*
X177342877Y-132296785D01*
X177383801Y-132144057D01*
X177383801Y-131985943D01*
X177383801Y-131978348D01*
X177383800Y-131978330D01*
X177383800Y-131767965D01*
X177403485Y-131700926D01*
X177404698Y-131699074D01*
X177492690Y-131567385D01*
X177492690Y-131567384D01*
X177492694Y-131567379D01*
X177553037Y-131421697D01*
X177583800Y-131267042D01*
X177583800Y-131109358D01*
X177583800Y-131109355D01*
X177583799Y-131109353D01*
X177553038Y-130954710D01*
X177553037Y-130954703D01*
X177553035Y-130954698D01*
X177492697Y-130809027D01*
X177492690Y-130809014D01*
X177405089Y-130677911D01*
X177405086Y-130677907D01*
X177293592Y-130566413D01*
X177293588Y-130566410D01*
X177162485Y-130478809D01*
X177162472Y-130478802D01*
X177016801Y-130418464D01*
X177016791Y-130418461D01*
X176861449Y-130387561D01*
X176799538Y-130355176D01*
X176797960Y-130353625D01*
X176018819Y-129574484D01*
X175985334Y-129513161D01*
X175982500Y-129486803D01*
X175982500Y-106246565D01*
X176002185Y-106179526D01*
X176003398Y-106177674D01*
X176091390Y-106045985D01*
X176091390Y-106045984D01*
X176091394Y-106045979D01*
X176151737Y-105900297D01*
X176182500Y-105745642D01*
X176182500Y-105587958D01*
X176182500Y-105587955D01*
X176171583Y-105533073D01*
X176171583Y-105533072D01*
X176151738Y-105433310D01*
X176151737Y-105433303D01*
X176149129Y-105427007D01*
X176091397Y-105287627D01*
X176091390Y-105287614D01*
X176003398Y-105155925D01*
X175982520Y-105089247D01*
X175982500Y-105087034D01*
X175982500Y-97102135D01*
X190649500Y-97102135D01*
X190649500Y-98897870D01*
X190649501Y-98897876D01*
X190655908Y-98957483D01*
X190706202Y-99092328D01*
X190706206Y-99092335D01*
X190792452Y-99207544D01*
X190792455Y-99207547D01*
X190907664Y-99293793D01*
X190907671Y-99293797D01*
X191039082Y-99342810D01*
X191095016Y-99384681D01*
X191119433Y-99450145D01*
X191104582Y-99518418D01*
X191083431Y-99546673D01*
X190969889Y-99660215D01*
X190844951Y-99832179D01*
X190748444Y-100021585D01*
X190682753Y-100223760D01*
X190673185Y-100284172D01*
X190649500Y-100433713D01*
X190649500Y-100646287D01*
X190682754Y-100856243D01*
X190696281Y-100897876D01*
X190748444Y-101058414D01*
X190844951Y-101247820D01*
X190969890Y-101419786D01*
X191120213Y-101570109D01*
X191292182Y-101695050D01*
X191300946Y-101699516D01*
X191351742Y-101747491D01*
X191368536Y-101815312D01*
X191345998Y-101881447D01*
X191300946Y-101920484D01*
X191292182Y-101924949D01*
X191120213Y-102049890D01*
X190969890Y-102200213D01*
X190844951Y-102372179D01*
X190748444Y-102561585D01*
X190682753Y-102763760D01*
X190649500Y-102973713D01*
X190649500Y-103186286D01*
X190682753Y-103396239D01*
X190748444Y-103598414D01*
X190844951Y-103787820D01*
X190969890Y-103959786D01*
X191120213Y-104110109D01*
X191292179Y-104235048D01*
X191292181Y-104235049D01*
X191292184Y-104235051D01*
X191301493Y-104239794D01*
X191352290Y-104287766D01*
X191369087Y-104355587D01*
X191346552Y-104421722D01*
X191301505Y-104460760D01*
X191292446Y-104465376D01*
X191292440Y-104465380D01*
X191238282Y-104504727D01*
X191238282Y-104504728D01*
X191870591Y-105137037D01*
X191807007Y-105154075D01*
X191692993Y-105219901D01*
X191599901Y-105312993D01*
X191534075Y-105427007D01*
X191517037Y-105490591D01*
X190884728Y-104858282D01*
X190884727Y-104858282D01*
X190845380Y-104912439D01*
X190748904Y-105101782D01*
X190683242Y-105303869D01*
X190683242Y-105303872D01*
X190650000Y-105513753D01*
X190650000Y-105726246D01*
X190683242Y-105936127D01*
X190683242Y-105936130D01*
X190748904Y-106138217D01*
X190845375Y-106327550D01*
X190884728Y-106381716D01*
X191517037Y-105749408D01*
X191534075Y-105812993D01*
X191599901Y-105927007D01*
X191692993Y-106020099D01*
X191807007Y-106085925D01*
X191870590Y-106102962D01*
X191238282Y-106735269D01*
X191238282Y-106735270D01*
X191292449Y-106774624D01*
X191481782Y-106871095D01*
X191683870Y-106936757D01*
X191893754Y-106970000D01*
X192106246Y-106970000D01*
X192316127Y-106936757D01*
X192316130Y-106936757D01*
X192518217Y-106871095D01*
X192707554Y-106774622D01*
X192761716Y-106735270D01*
X192761717Y-106735270D01*
X192129408Y-106102962D01*
X192192993Y-106085925D01*
X192307007Y-106020099D01*
X192400099Y-105927007D01*
X192465925Y-105812993D01*
X192482962Y-105749408D01*
X193115270Y-106381717D01*
X193115270Y-106381716D01*
X193154622Y-106327554D01*
X193251095Y-106138217D01*
X193316757Y-105936130D01*
X193316757Y-105936127D01*
X193350000Y-105726246D01*
X193350000Y-105513753D01*
X193316757Y-105303872D01*
X193316757Y-105303869D01*
X193251095Y-105101782D01*
X193154624Y-104912449D01*
X193115270Y-104858282D01*
X193115269Y-104858282D01*
X192482962Y-105490590D01*
X192465925Y-105427007D01*
X192400099Y-105312993D01*
X192307007Y-105219901D01*
X192192993Y-105154075D01*
X192129409Y-105137037D01*
X192761716Y-104504728D01*
X192707547Y-104465373D01*
X192707547Y-104465372D01*
X192698500Y-104460763D01*
X192647706Y-104412788D01*
X192630912Y-104344966D01*
X192653451Y-104278832D01*
X192698508Y-104239793D01*
X192707816Y-104235051D01*
X192787007Y-104177515D01*
X192879786Y-104110109D01*
X192879788Y-104110106D01*
X192879792Y-104110104D01*
X193030104Y-103959792D01*
X193030106Y-103959788D01*
X193030109Y-103959786D01*
X193155048Y-103787820D01*
X193155047Y-103787820D01*
X193155051Y-103787816D01*
X193251557Y-103598412D01*
X193317246Y-103396243D01*
X193350500Y-103186287D01*
X193350500Y-102973713D01*
X193317246Y-102763757D01*
X193251557Y-102561588D01*
X193155051Y-102372184D01*
X193155049Y-102372181D01*
X193155048Y-102372179D01*
X193030109Y-102200213D01*
X192879786Y-102049890D01*
X192707820Y-101924951D01*
X192707115Y-101924591D01*
X192699054Y-101920485D01*
X192648259Y-101872512D01*
X192631463Y-101804692D01*
X192653999Y-101738556D01*
X192699054Y-101699515D01*
X192707816Y-101695051D01*
X192729789Y-101679086D01*
X192879786Y-101570109D01*
X192879788Y-101570106D01*
X192879792Y-101570104D01*
X193030104Y-101419792D01*
X193030106Y-101419788D01*
X193030109Y-101419786D01*
X193155048Y-101247820D01*
X193155047Y-101247820D01*
X193155051Y-101247816D01*
X193251557Y-101058412D01*
X193317246Y-100856243D01*
X193350500Y-100646287D01*
X193350500Y-100433713D01*
X193317246Y-100223757D01*
X193251557Y-100021588D01*
X193155051Y-99832184D01*
X193155049Y-99832181D01*
X193155048Y-99832179D01*
X193030109Y-99660213D01*
X192916569Y-99546673D01*
X192883084Y-99485350D01*
X192888068Y-99415658D01*
X192929940Y-99359725D01*
X192960915Y-99342810D01*
X193092331Y-99293796D01*
X193207546Y-99207546D01*
X193293796Y-99092331D01*
X193344091Y-98957483D01*
X193350500Y-98897873D01*
X193350499Y-97102128D01*
X193344091Y-97042517D01*
X193293796Y-96907669D01*
X193293795Y-96907668D01*
X193293793Y-96907664D01*
X193207547Y-96792455D01*
X193207544Y-96792452D01*
X193092335Y-96706206D01*
X193092328Y-96706202D01*
X192957482Y-96655908D01*
X192957483Y-96655908D01*
X192897883Y-96649501D01*
X192897881Y-96649500D01*
X192897873Y-96649500D01*
X192897864Y-96649500D01*
X191102129Y-96649500D01*
X191102123Y-96649501D01*
X191042516Y-96655908D01*
X190907671Y-96706202D01*
X190907664Y-96706206D01*
X190792455Y-96792452D01*
X190792452Y-96792455D01*
X190706206Y-96907664D01*
X190706202Y-96907671D01*
X190655908Y-97042517D01*
X190649501Y-97102116D01*
X190649501Y-97102123D01*
X190649500Y-97102135D01*
X175982500Y-97102135D01*
X175982500Y-96472565D01*
X176002185Y-96405526D01*
X176003398Y-96403674D01*
X176091390Y-96271985D01*
X176091390Y-96271984D01*
X176091394Y-96271979D01*
X176151737Y-96126297D01*
X176182500Y-95971642D01*
X176182500Y-95813958D01*
X176182500Y-95813955D01*
X176182499Y-95813953D01*
X176151738Y-95659310D01*
X176151737Y-95659303D01*
X176151735Y-95659298D01*
X176091397Y-95513627D01*
X176091390Y-95513614D01*
X176003789Y-95382511D01*
X176003786Y-95382507D01*
X175892292Y-95271013D01*
X175892288Y-95271010D01*
X175761185Y-95183409D01*
X175761172Y-95183402D01*
X175615501Y-95123064D01*
X175615489Y-95123061D01*
X175460845Y-95092300D01*
X175460842Y-95092300D01*
X175303158Y-95092300D01*
X175303155Y-95092300D01*
X175148510Y-95123061D01*
X175148498Y-95123064D01*
X175002827Y-95183402D01*
X175002814Y-95183409D01*
X174871711Y-95271010D01*
X174871707Y-95271013D01*
X174760213Y-95382507D01*
X174760210Y-95382511D01*
X174672609Y-95513614D01*
X174672602Y-95513627D01*
X174612264Y-95659298D01*
X174612261Y-95659310D01*
X174581500Y-95813953D01*
X174581500Y-95971646D01*
X174612261Y-96126289D01*
X174612264Y-96126301D01*
X174672602Y-96271972D01*
X174672609Y-96271985D01*
X174760602Y-96403674D01*
X174781480Y-96470351D01*
X174781500Y-96472565D01*
X174781500Y-105087034D01*
X174761815Y-105154073D01*
X174760602Y-105155925D01*
X174672609Y-105287614D01*
X174672602Y-105287627D01*
X174612264Y-105433298D01*
X174612261Y-105433310D01*
X174581500Y-105587953D01*
X174581500Y-105745646D01*
X174612261Y-105900289D01*
X174612264Y-105900301D01*
X174672602Y-106045972D01*
X174672609Y-106045985D01*
X174760602Y-106177674D01*
X174781480Y-106244351D01*
X174781500Y-106246565D01*
X174781500Y-129700230D01*
X174781499Y-129700248D01*
X174781499Y-129865954D01*
X174781498Y-129865954D01*
X174781499Y-129865957D01*
X174822423Y-130018685D01*
X174824956Y-130023072D01*
X174824961Y-130023080D01*
X174824961Y-130023081D01*
X174901477Y-130155612D01*
X174901481Y-130155617D01*
X175020349Y-130274485D01*
X175020355Y-130274490D01*
X175948725Y-131202860D01*
X175982210Y-131264183D01*
X175982661Y-131266349D01*
X176013561Y-131421691D01*
X176013564Y-131421701D01*
X176073902Y-131567372D01*
X176073909Y-131567385D01*
X176160675Y-131697238D01*
X176181553Y-131763915D01*
X176163069Y-131831295D01*
X176145254Y-131853810D01*
X174660481Y-133338583D01*
X174599158Y-133372068D01*
X174529466Y-133367084D01*
X174473533Y-133325212D01*
X174449116Y-133259748D01*
X174448800Y-133250902D01*
X174448800Y-131140265D01*
X174468485Y-131073226D01*
X174469698Y-131071374D01*
X174557690Y-130939685D01*
X174557690Y-130939684D01*
X174557694Y-130939679D01*
X174618037Y-130793997D01*
X174648800Y-130639342D01*
X174648800Y-130481658D01*
X174648800Y-130481655D01*
X174648799Y-130481653D01*
X174636230Y-130418464D01*
X174618037Y-130327003D01*
X174596286Y-130274490D01*
X174557697Y-130181327D01*
X174557690Y-130181314D01*
X174470089Y-130050211D01*
X174470086Y-130050207D01*
X174358592Y-129938713D01*
X174358588Y-129938710D01*
X174227485Y-129851109D01*
X174227472Y-129851102D01*
X174081801Y-129790764D01*
X174081791Y-129790761D01*
X173927008Y-129759972D01*
X173865097Y-129727587D01*
X173830523Y-129666871D01*
X173827200Y-129638355D01*
X173827200Y-129565055D01*
X173827199Y-129565053D01*
X173816877Y-129513161D01*
X173796437Y-129410403D01*
X173771461Y-129350104D01*
X173736097Y-129264727D01*
X173736090Y-129264714D01*
X173648489Y-129133611D01*
X173648486Y-129133607D01*
X173536992Y-129022113D01*
X173536988Y-129022110D01*
X173405885Y-128934509D01*
X173405872Y-128934502D01*
X173260201Y-128874164D01*
X173260189Y-128874161D01*
X173105545Y-128843400D01*
X173105542Y-128843400D01*
X172947858Y-128843400D01*
X172947855Y-128843400D01*
X172793210Y-128874161D01*
X172793198Y-128874164D01*
X172647527Y-128934502D01*
X172647514Y-128934509D01*
X172516411Y-129022110D01*
X172516407Y-129022113D01*
X172404913Y-129133607D01*
X172404910Y-129133611D01*
X172317309Y-129264714D01*
X172317302Y-129264727D01*
X172256964Y-129410398D01*
X172256961Y-129410410D01*
X172226200Y-129565053D01*
X145176045Y-129565053D01*
X145184585Y-129546182D01*
X145193999Y-129518556D01*
X145199467Y-129513299D01*
X145201360Y-129509117D01*
X145214785Y-129498573D01*
X145227955Y-129485914D01*
X145233342Y-129482425D01*
X145247816Y-129475051D01*
X145273084Y-129456693D01*
X145419786Y-129350109D01*
X145419788Y-129350106D01*
X145419792Y-129350104D01*
X145570104Y-129199792D01*
X145570106Y-129199788D01*
X145570109Y-129199786D01*
X145695048Y-129027820D01*
X145695047Y-129027820D01*
X145695051Y-129027816D01*
X145791557Y-128838412D01*
X145857246Y-128636243D01*
X145890500Y-128426287D01*
X145890500Y-128213713D01*
X145857246Y-128003757D01*
X145791557Y-127801588D01*
X145695051Y-127612184D01*
X145695049Y-127612181D01*
X145695048Y-127612179D01*
X145570109Y-127440213D01*
X145419786Y-127289890D01*
X145247820Y-127164951D01*
X145247115Y-127164591D01*
X145239054Y-127160485D01*
X145188259Y-127112512D01*
X145171463Y-127044692D01*
X145193999Y-126978556D01*
X145239054Y-126939515D01*
X145247816Y-126935051D01*
X145269789Y-126919086D01*
X145419786Y-126810109D01*
X145419788Y-126810106D01*
X145419792Y-126810104D01*
X145570104Y-126659792D01*
X145570106Y-126659788D01*
X145570109Y-126659786D01*
X145695048Y-126487820D01*
X145695047Y-126487820D01*
X145695051Y-126487816D01*
X145791557Y-126298412D01*
X145857246Y-126096243D01*
X145890500Y-125886287D01*
X145890500Y-125673713D01*
X145857246Y-125463757D01*
X145791557Y-125261588D01*
X145695051Y-125072184D01*
X145695049Y-125072181D01*
X145695048Y-125072179D01*
X145570109Y-124900213D01*
X145419786Y-124749890D01*
X145247820Y-124624951D01*
X145247115Y-124624591D01*
X145239054Y-124620485D01*
X145188259Y-124572512D01*
X145171463Y-124504692D01*
X145193999Y-124438556D01*
X145239054Y-124399515D01*
X145247816Y-124395051D01*
X145269789Y-124379086D01*
X145419786Y-124270109D01*
X145419788Y-124270106D01*
X145419792Y-124270104D01*
X145570104Y-124119792D01*
X145570106Y-124119788D01*
X145570109Y-124119786D01*
X145695048Y-123947820D01*
X145695047Y-123947820D01*
X145695051Y-123947816D01*
X145791557Y-123758412D01*
X145857246Y-123556243D01*
X145890500Y-123346287D01*
X145890500Y-123133713D01*
X145857246Y-122923757D01*
X145791557Y-122721588D01*
X145695051Y-122532184D01*
X145695049Y-122532181D01*
X145695048Y-122532179D01*
X145570109Y-122360213D01*
X145419786Y-122209890D01*
X145247820Y-122084951D01*
X145247115Y-122084591D01*
X145239054Y-122080485D01*
X145188259Y-122032512D01*
X145171463Y-121964692D01*
X145193999Y-121898556D01*
X145239054Y-121859515D01*
X145247816Y-121855051D01*
X145269789Y-121839086D01*
X145419786Y-121730109D01*
X145419788Y-121730106D01*
X145419792Y-121730104D01*
X145570104Y-121579792D01*
X145570106Y-121579788D01*
X145570109Y-121579786D01*
X145695048Y-121407820D01*
X145695047Y-121407820D01*
X145695051Y-121407816D01*
X145791557Y-121218412D01*
X145857246Y-121016243D01*
X145890500Y-120806287D01*
X145890500Y-120593713D01*
X145857246Y-120383757D01*
X145791557Y-120181588D01*
X145695051Y-119992184D01*
X145695049Y-119992181D01*
X145695048Y-119992179D01*
X145570109Y-119820213D01*
X145419786Y-119669890D01*
X145247820Y-119544951D01*
X145247115Y-119544591D01*
X145239054Y-119540485D01*
X145188259Y-119492512D01*
X145171463Y-119424692D01*
X145193999Y-119358556D01*
X145239054Y-119319515D01*
X145247816Y-119315051D01*
X145269789Y-119299086D01*
X145419786Y-119190109D01*
X145419788Y-119190106D01*
X145419792Y-119190104D01*
X145570104Y-119039792D01*
X145570106Y-119039788D01*
X145570109Y-119039786D01*
X145695048Y-118867820D01*
X145695047Y-118867820D01*
X145695051Y-118867816D01*
X145791557Y-118678412D01*
X145857246Y-118476243D01*
X145890500Y-118266287D01*
X145890500Y-118053713D01*
X145857246Y-117843757D01*
X145791557Y-117641588D01*
X145695051Y-117452184D01*
X145695049Y-117452181D01*
X145695048Y-117452179D01*
X145570109Y-117280213D01*
X145419786Y-117129890D01*
X145247820Y-117004951D01*
X145247115Y-117004591D01*
X145239054Y-117000485D01*
X145188259Y-116952512D01*
X145171463Y-116884692D01*
X145193999Y-116818556D01*
X145239054Y-116779515D01*
X145247816Y-116775051D01*
X145269789Y-116759086D01*
X145419786Y-116650109D01*
X145419788Y-116650106D01*
X145419792Y-116650104D01*
X145570104Y-116499792D01*
X145570106Y-116499788D01*
X145570109Y-116499786D01*
X145695048Y-116327820D01*
X145695047Y-116327820D01*
X145695051Y-116327816D01*
X145791557Y-116138412D01*
X145857246Y-115936243D01*
X145890500Y-115726287D01*
X145890500Y-115513713D01*
X145857246Y-115303757D01*
X145791557Y-115101588D01*
X145695051Y-114912184D01*
X145695049Y-114912181D01*
X145695048Y-114912179D01*
X145570109Y-114740213D01*
X145419786Y-114589890D01*
X145247820Y-114464951D01*
X145247115Y-114464591D01*
X145239054Y-114460485D01*
X145188259Y-114412512D01*
X145171463Y-114344692D01*
X145193999Y-114278556D01*
X145239054Y-114239515D01*
X145247816Y-114235051D01*
X145269789Y-114219086D01*
X145419786Y-114110109D01*
X145419788Y-114110106D01*
X145419792Y-114110104D01*
X145570104Y-113959792D01*
X145570106Y-113959788D01*
X145570109Y-113959786D01*
X145695048Y-113787820D01*
X145695047Y-113787820D01*
X145695051Y-113787816D01*
X145791557Y-113598412D01*
X145857246Y-113396243D01*
X145890500Y-113186287D01*
X145890500Y-112973713D01*
X145857246Y-112763757D01*
X145791557Y-112561588D01*
X145695051Y-112372184D01*
X145695049Y-112372181D01*
X145695048Y-112372179D01*
X145570109Y-112200213D01*
X145419786Y-112049890D01*
X145247817Y-111924949D01*
X145238504Y-111920204D01*
X145187707Y-111872230D01*
X145170912Y-111804409D01*
X145193449Y-111738274D01*
X145238507Y-111699232D01*
X145247555Y-111694622D01*
X145301716Y-111655270D01*
X145301717Y-111655270D01*
X144669409Y-111022962D01*
X144732993Y-111005925D01*
X144847007Y-110940099D01*
X144940099Y-110847007D01*
X145005925Y-110732993D01*
X145022962Y-110669408D01*
X145655270Y-111301717D01*
X145655270Y-111301716D01*
X145694622Y-111247554D01*
X145791095Y-111058217D01*
X145856757Y-110856130D01*
X145856757Y-110856127D01*
X145890000Y-110646246D01*
X145890000Y-110433753D01*
X145856757Y-110223872D01*
X145856757Y-110223869D01*
X145791095Y-110021782D01*
X145694624Y-109832449D01*
X145655270Y-109778282D01*
X145655269Y-109778282D01*
X145022962Y-110410590D01*
X145005925Y-110347007D01*
X144940099Y-110232993D01*
X144847007Y-110139901D01*
X144732993Y-110074075D01*
X144669407Y-110057036D01*
X145301716Y-109424728D01*
X145247550Y-109385375D01*
X145237954Y-109380486D01*
X145187157Y-109332512D01*
X145170361Y-109264692D01*
X145192897Y-109198556D01*
X145237954Y-109159514D01*
X145247554Y-109154622D01*
X145301716Y-109115270D01*
X145301717Y-109115270D01*
X144669409Y-108482962D01*
X144732993Y-108465925D01*
X144847007Y-108400099D01*
X144940099Y-108307007D01*
X145005925Y-108192993D01*
X145022962Y-108129408D01*
X145655270Y-108761717D01*
X145655270Y-108761716D01*
X145694622Y-108707554D01*
X145791095Y-108518217D01*
X145856757Y-108316130D01*
X145856757Y-108316127D01*
X145890000Y-108106246D01*
X145890000Y-107893753D01*
X145856757Y-107683872D01*
X145856757Y-107683869D01*
X145791095Y-107481782D01*
X145694624Y-107292449D01*
X145655270Y-107238282D01*
X145655269Y-107238282D01*
X145022962Y-107870590D01*
X145005925Y-107807007D01*
X144940099Y-107692993D01*
X144847007Y-107599901D01*
X144732993Y-107534075D01*
X144669407Y-107517036D01*
X145301716Y-106884728D01*
X145247550Y-106845375D01*
X145058217Y-106748904D01*
X144856129Y-106683242D01*
X144646246Y-106650000D01*
X144433754Y-106650000D01*
X144223872Y-106683242D01*
X144223865Y-106683243D01*
X144032817Y-106745318D01*
X143962976Y-106747313D01*
X143903144Y-106711232D01*
X143872316Y-106648531D01*
X143870500Y-106627387D01*
X143870500Y-100484765D01*
X143890185Y-100417726D01*
X143891398Y-100415874D01*
X143979390Y-100284185D01*
X143979390Y-100284184D01*
X143979394Y-100284179D01*
X144039737Y-100138497D01*
X144070500Y-99983842D01*
X144070500Y-99826158D01*
X144070500Y-99826155D01*
X144070499Y-99826153D01*
X144049974Y-99722968D01*
X144039737Y-99671503D01*
X144035061Y-99660213D01*
X143979397Y-99525827D01*
X143979390Y-99525814D01*
X143891789Y-99394711D01*
X143891786Y-99394707D01*
X143780292Y-99283213D01*
X143780288Y-99283210D01*
X143649185Y-99195609D01*
X143649172Y-99195602D01*
X143503501Y-99135264D01*
X143503489Y-99135261D01*
X143348845Y-99104500D01*
X143348842Y-99104500D01*
X143191158Y-99104500D01*
X143191155Y-99104500D01*
X143036510Y-99135261D01*
X143036498Y-99135264D01*
X142890827Y-99195602D01*
X142890814Y-99195609D01*
X142759711Y-99283210D01*
X142759707Y-99283213D01*
X142648213Y-99394707D01*
X142648210Y-99394711D01*
X142560609Y-99525814D01*
X142560602Y-99525827D01*
X142500264Y-99671498D01*
X142500261Y-99671510D01*
X142469500Y-99826153D01*
X142469500Y-99983846D01*
X142500261Y-100138489D01*
X142500264Y-100138501D01*
X142560602Y-100284172D01*
X142560609Y-100284185D01*
X142648602Y-100415874D01*
X142669480Y-100482551D01*
X142669500Y-100484765D01*
X142669500Y-106525500D01*
X142649815Y-106592539D01*
X142597011Y-106638294D01*
X142545500Y-106649500D01*
X141572800Y-106649500D01*
X141505761Y-106629815D01*
X141460006Y-106577011D01*
X141448800Y-106525500D01*
X141448800Y-99790007D01*
X141468485Y-99722968D01*
X141469698Y-99721116D01*
X141502844Y-99671510D01*
X141559994Y-99585979D01*
X141620337Y-99440297D01*
X141651100Y-99285642D01*
X141651100Y-99127958D01*
X141651100Y-99127955D01*
X141651099Y-99127953D01*
X141644013Y-99092328D01*
X141620337Y-98973303D01*
X141593149Y-98907664D01*
X141559997Y-98827627D01*
X141559990Y-98827614D01*
X141472389Y-98696511D01*
X141472386Y-98696507D01*
X141360892Y-98585013D01*
X141360888Y-98585010D01*
X141229785Y-98497409D01*
X141229772Y-98497402D01*
X141084101Y-98437064D01*
X141084091Y-98437061D01*
X140949208Y-98410231D01*
X140887297Y-98377846D01*
X140852723Y-98317130D01*
X140849400Y-98288614D01*
X140849400Y-96674765D01*
X140869085Y-96607726D01*
X140870298Y-96605874D01*
X140958290Y-96474185D01*
X140958290Y-96474184D01*
X140958294Y-96474179D01*
X141018637Y-96328497D01*
X141049400Y-96173842D01*
X141049400Y-96016158D01*
X141049400Y-96016155D01*
X141049399Y-96016153D01*
X141040546Y-95971646D01*
X141018637Y-95861503D01*
X141018635Y-95861498D01*
X140958297Y-95715827D01*
X140958290Y-95715814D01*
X140870689Y-95584711D01*
X140870686Y-95584707D01*
X140759192Y-95473213D01*
X140759188Y-95473210D01*
X140628085Y-95385609D01*
X140628072Y-95385602D01*
X140482401Y-95325264D01*
X140482389Y-95325261D01*
X140327745Y-95294500D01*
X140327742Y-95294500D01*
X140170058Y-95294500D01*
X140170055Y-95294500D01*
X140015410Y-95325261D01*
X140015398Y-95325264D01*
X139869727Y-95385602D01*
X139869714Y-95385609D01*
X139738611Y-95473210D01*
X139738607Y-95473213D01*
X139627113Y-95584707D01*
X139627110Y-95584711D01*
X139539509Y-95715814D01*
X139539502Y-95715827D01*
X139479164Y-95861498D01*
X139479161Y-95861510D01*
X139448400Y-96016153D01*
X100500500Y-96016153D01*
X100500500Y-80624500D01*
X100520185Y-80557461D01*
X100572989Y-80511706D01*
X100624500Y-80500500D01*
X199375500Y-80500500D01*
X199442539Y-80520185D01*
G37*
%TD.AperFunction*%
%TD*%
M02*
