%TF.GenerationSoftware,KiCad,Pcbnew,9.0.2*%
%TF.CreationDate,2026-04-04T22:46:44-05:00*%
%TF.ProjectId,cm4_carrier,636d345f-6361-4727-9269-65722e6b6963,rev?*%
%TF.SameCoordinates,Original*%
%TF.FileFunction,Soldermask,Bot*%
%TF.FilePolarity,Negative*%
%FSLAX46Y46*%
G04 Gerber Fmt 4.6, Leading zero omitted, Abs format (unit mm)*
G04 Created by KiCad (PCBNEW 9.0.2) date 2026-04-04 22:46:44*
%MOMM*%
%LPD*%
G01*
G04 APERTURE LIST*
%ADD10R,1.700000X1.700000*%
%ADD11C,1.700000*%
G04 APERTURE END LIST*
D10*
%TO.C,J2*%
X142000000Y-108000000D03*
D11*
X144540000Y-108000000D03*
X142000000Y-110540000D03*
X144540000Y-110540000D03*
X142000000Y-113080000D03*
X144540000Y-113080000D03*
X142000000Y-115620000D03*
X144540000Y-115620000D03*
X142000000Y-118160000D03*
X144540000Y-118160000D03*
X142000000Y-120700000D03*
X144540000Y-120700000D03*
X142000000Y-123240000D03*
X144540000Y-123240000D03*
X142000000Y-125780000D03*
X144540000Y-125780000D03*
X142000000Y-128320000D03*
X144540000Y-128320000D03*
X142000000Y-130860000D03*
X144540000Y-130860000D03*
X142000000Y-133400000D03*
X144540000Y-133400000D03*
X142000000Y-135940000D03*
X144540000Y-135940000D03*
X142000000Y-138480000D03*
X144540000Y-138480000D03*
X142000000Y-141020000D03*
X144540000Y-141020000D03*
X142000000Y-143560000D03*
X144540000Y-143560000D03*
X142000000Y-146100000D03*
X144540000Y-146100000D03*
X142000000Y-148640000D03*
X144540000Y-148640000D03*
X142000000Y-151180000D03*
X144540000Y-151180000D03*
X142000000Y-153720000D03*
X144540000Y-153720000D03*
X142000000Y-156260000D03*
X144540000Y-156260000D03*
%TD*%
D10*
%TO.C,J1*%
X103000000Y-100000000D03*
D11*
X103000000Y-102540000D03*
%TD*%
D10*
%TO.C,J5*%
X175000000Y-135000000D03*
D11*
X175000000Y-137540000D03*
X175000000Y-140080000D03*
X175000000Y-142620000D03*
%TD*%
D10*
%TO.C,J3*%
X192000000Y-98000000D03*
D11*
X192000000Y-100540000D03*
X192000000Y-103080000D03*
X192000000Y-105620000D03*
%TD*%
D10*
%TO.C,J7*%
X192000000Y-136000000D03*
D11*
X192000000Y-138540000D03*
X192000000Y-141080000D03*
X192000000Y-143620000D03*
X192000000Y-146160000D03*
X192000000Y-148700000D03*
X192000000Y-151240000D03*
X192000000Y-153780000D03*
%TD*%
D10*
%TO.C,J6*%
X185000000Y-135000000D03*
D11*
X185000000Y-137540000D03*
X185000000Y-140080000D03*
X185000000Y-142620000D03*
X185000000Y-145160000D03*
X185000000Y-147700000D03*
%TD*%
M02*
