%TF.GenerationSoftware,KiCad,Pcbnew,9.0.2*%
%TF.CreationDate,2026-04-04T22:46:44-05:00*%
%TF.ProjectId,cm4_carrier,636d345f-6361-4727-9269-65722e6b6963,rev?*%
%TF.SameCoordinates,Original*%
%TF.FileFunction,Copper,L1,Top*%
%TF.FilePolarity,Positive*%
%FSLAX46Y46*%
G04 Gerber Fmt 4.6, Leading zero omitted, Abs format (unit mm)*
G04 Created by KiCad (PCBNEW 9.0.2) date 2026-04-04 22:46:44*
%MOMM*%
%LPD*%
G01*
G04 APERTURE LIST*
G04 Aperture macros list*
%AMRoundRect*
0 Rectangle with rounded corners*
0 $1 Rounding radius*
0 $2 $3 $4 $5 $6 $7 $8 $9 X,Y pos of 4 corners*
0 Add a 4 corners polygon primitive as box body*
4,1,4,$2,$3,$4,$5,$6,$7,$8,$9,$2,$3,0*
0 Add four circle primitives for the rounded corners*
1,1,$1+$1,$2,$3*
1,1,$1+$1,$4,$5*
1,1,$1+$1,$6,$7*
1,1,$1+$1,$8,$9*
0 Add four rect primitives between the rounded corners*
20,1,$1+$1,$2,$3,$4,$5,0*
20,1,$1+$1,$4,$5,$6,$7,0*
20,1,$1+$1,$6,$7,$8,$9,0*
20,1,$1+$1,$8,$9,$2,$3,0*%
G04 Aperture macros list end*
%TA.AperFunction,SMDPad,CuDef*%
%ADD10RoundRect,0.140000X-0.140000X-0.170000X0.140000X-0.170000X0.140000X0.170000X-0.140000X0.170000X0*%
%TD*%
%TA.AperFunction,SMDPad,CuDef*%
%ADD11R,0.450000X1.380000*%
%TD*%
%TA.AperFunction,SMDPad,CuDef*%
%ADD12R,1.650000X1.300000*%
%TD*%
%TA.AperFunction,SMDPad,CuDef*%
%ADD13R,1.425000X1.550000*%
%TD*%
%TA.AperFunction,SMDPad,CuDef*%
%ADD14R,1.800000X1.900000*%
%TD*%
%TA.AperFunction,SMDPad,CuDef*%
%ADD15R,1.000000X1.900000*%
%TD*%
%TA.AperFunction,SMDPad,CuDef*%
%ADD16RoundRect,0.200000X0.275000X-0.200000X0.275000X0.200000X-0.275000X0.200000X-0.275000X-0.200000X0*%
%TD*%
%TA.AperFunction,ComponentPad*%
%ADD17R,1.700000X1.700000*%
%TD*%
%TA.AperFunction,ComponentPad*%
%ADD18C,1.700000*%
%TD*%
%TA.AperFunction,SMDPad,CuDef*%
%ADD19RoundRect,0.250000X-0.250000X-0.475000X0.250000X-0.475000X0.250000X0.475000X-0.250000X0.475000X0*%
%TD*%
%TA.AperFunction,SMDPad,CuDef*%
%ADD20RoundRect,0.150000X-0.825000X-0.150000X0.825000X-0.150000X0.825000X0.150000X-0.825000X0.150000X0*%
%TD*%
%TA.AperFunction,SMDPad,CuDef*%
%ADD21RoundRect,0.062500X-0.350000X-0.062500X0.350000X-0.062500X0.350000X0.062500X-0.350000X0.062500X0*%
%TD*%
%TA.AperFunction,SMDPad,CuDef*%
%ADD22RoundRect,0.062500X-0.062500X-0.350000X0.062500X-0.350000X0.062500X0.350000X-0.062500X0.350000X0*%
%TD*%
%TA.AperFunction,HeatsinkPad*%
%ADD23R,2.500000X2.500000*%
%TD*%
%TA.AperFunction,SMDPad,CuDef*%
%ADD24RoundRect,0.150000X-0.587500X-0.150000X0.587500X-0.150000X0.587500X0.150000X-0.587500X0.150000X0*%
%TD*%
%TA.AperFunction,SMDPad,CuDef*%
%ADD25RoundRect,0.250000X0.450000X-0.262500X0.450000X0.262500X-0.450000X0.262500X-0.450000X-0.262500X0*%
%TD*%
%TA.AperFunction,SMDPad,CuDef*%
%ADD26RoundRect,0.250000X-0.325000X-1.100000X0.325000X-1.100000X0.325000X1.100000X-0.325000X1.100000X0*%
%TD*%
%TA.AperFunction,SMDPad,CuDef*%
%ADD27RoundRect,0.250000X-0.312500X-1.450000X0.312500X-1.450000X0.312500X1.450000X-0.312500X1.450000X0*%
%TD*%
%TA.AperFunction,ViaPad*%
%ADD28C,0.600000*%
%TD*%
%TA.AperFunction,Conductor*%
%ADD29C,0.200000*%
%TD*%
G04 APERTURE END LIST*
D10*
%TO.P,C3,1*%
%TO.N,+3V3*%
X167520000Y-105000000D03*
%TO.P,C3,2*%
%TO.N,GND*%
X168480000Y-105000000D03*
%TD*%
D11*
%TO.P,J4,1,VBUS*%
%TO.N,+3V3*%
X106700000Y-146540000D03*
%TO.P,J4,2,D-*%
%TO.N,/USB_DM*%
X107350000Y-146540000D03*
%TO.P,J4,3,D+*%
%TO.N,/USB_DP*%
X108000000Y-146540000D03*
%TO.P,J4,4,ID*%
%TO.N,unconnected-(J4-ID-Pad4)*%
X108650000Y-146540000D03*
%TO.P,J4,5,GND*%
%TO.N,GND*%
X109300000Y-146540000D03*
D12*
%TO.P,J4,6,Shield*%
%TO.N,unconnected-(J4-Shield-Pad6)*%
X104625000Y-149200000D03*
D13*
%TO.N,unconnected-(J4-Shield-Pad6)_2*%
X105512500Y-146625000D03*
D14*
%TO.N,unconnected-(J4-Shield-Pad6)_4*%
X106850000Y-149200000D03*
D15*
%TO.N,unconnected-(J4-Shield-Pad6)_5*%
X109550000Y-149200000D03*
D13*
%TO.N,unconnected-(J4-Shield-Pad6)_1*%
X110487500Y-146625000D03*
D12*
%TO.N,unconnected-(J4-Shield-Pad6)_3*%
X111375000Y-149200000D03*
%TD*%
D16*
%TO.P,R5,1*%
%TO.N,+3V3*%
X172000000Y-130825000D03*
%TO.P,R5,2*%
%TO.N,/SCL*%
X172000000Y-129175000D03*
%TD*%
D10*
%TO.P,C5,1*%
%TO.N,+3V3*%
X129520000Y-90000000D03*
%TO.P,C5,2*%
%TO.N,GND*%
X130480000Y-90000000D03*
%TD*%
%TO.P,C4,1*%
%TO.N,+3V3*%
X127520000Y-135000000D03*
%TO.P,C4,2*%
%TO.N,GND*%
X128480000Y-135000000D03*
%TD*%
D16*
%TO.P,R3,1*%
%TO.N,/RS485_B*%
X176000000Y-90825000D03*
%TO.P,R3,2*%
%TO.N,GND*%
X176000000Y-89175000D03*
%TD*%
D17*
%TO.P,J2,1,Pin_1*%
%TO.N,+5V*%
X142000000Y-108000000D03*
D18*
%TO.P,J2,2,Pin_2*%
%TO.N,GND*%
X144540000Y-108000000D03*
%TO.P,J2,3,Pin_3*%
%TO.N,+5V*%
X142000000Y-110540000D03*
%TO.P,J2,4,Pin_4*%
%TO.N,GND*%
X144540000Y-110540000D03*
%TO.P,J2,5,Pin_5*%
%TO.N,+3V3*%
X142000000Y-113080000D03*
%TO.P,J2,6,Pin_6*%
%TO.N,unconnected-(J2-Pin_6-Pad6)*%
X144540000Y-113080000D03*
%TO.P,J2,7,Pin_7*%
%TO.N,/SDA*%
X142000000Y-115620000D03*
%TO.P,J2,8,Pin_8*%
%TO.N,unconnected-(J2-Pin_8-Pad8)*%
X144540000Y-115620000D03*
%TO.P,J2,9,Pin_9*%
%TO.N,/SCL*%
X142000000Y-118160000D03*
%TO.P,J2,10,Pin_10*%
%TO.N,unconnected-(J2-Pin_10-Pad10)*%
X144540000Y-118160000D03*
%TO.P,J2,11,Pin_11*%
%TO.N,/UART_TX*%
X142000000Y-120700000D03*
%TO.P,J2,12,Pin_12*%
%TO.N,unconnected-(J2-Pin_12-Pad12)*%
X144540000Y-120700000D03*
%TO.P,J2,13,Pin_13*%
%TO.N,/UART_RX*%
X142000000Y-123240000D03*
%TO.P,J2,14,Pin_14*%
%TO.N,unconnected-(J2-Pin_14-Pad14)*%
X144540000Y-123240000D03*
%TO.P,J2,15,Pin_15*%
%TO.N,/MOSI*%
X142000000Y-125780000D03*
%TO.P,J2,16,Pin_16*%
%TO.N,unconnected-(J2-Pin_16-Pad16)*%
X144540000Y-125780000D03*
%TO.P,J2,17,Pin_17*%
%TO.N,/MISO*%
X142000000Y-128320000D03*
%TO.P,J2,18,Pin_18*%
%TO.N,unconnected-(J2-Pin_18-Pad18)*%
X144540000Y-128320000D03*
%TO.P,J2,19,Pin_19*%
%TO.N,/SCK*%
X142000000Y-130860000D03*
%TO.P,J2,20,Pin_20*%
%TO.N,unconnected-(J2-Pin_20-Pad20)*%
X144540000Y-130860000D03*
%TO.P,J2,21,Pin_21*%
%TO.N,/SPI_CS0*%
X142000000Y-133400000D03*
%TO.P,J2,22,Pin_22*%
%TO.N,unconnected-(J2-Pin_22-Pad22)*%
X144540000Y-133400000D03*
%TO.P,J2,23,Pin_23*%
%TO.N,/RS485_TX*%
X142000000Y-135940000D03*
%TO.P,J2,24,Pin_24*%
%TO.N,unconnected-(J2-Pin_24-Pad24)*%
X144540000Y-135940000D03*
%TO.P,J2,25,Pin_25*%
%TO.N,/RS485_RX*%
X142000000Y-138480000D03*
%TO.P,J2,26,Pin_26*%
%TO.N,unconnected-(J2-Pin_26-Pad26)*%
X144540000Y-138480000D03*
%TO.P,J2,27,Pin_27*%
%TO.N,unconnected-(J2-Pin_27-Pad27)*%
X142000000Y-141020000D03*
%TO.P,J2,28,Pin_28*%
%TO.N,unconnected-(J2-Pin_28-Pad28)*%
X144540000Y-141020000D03*
%TO.P,J2,29,Pin_29*%
%TO.N,unconnected-(J2-Pin_29-Pad29)*%
X142000000Y-143560000D03*
%TO.P,J2,30,Pin_30*%
%TO.N,unconnected-(J2-Pin_30-Pad30)*%
X144540000Y-143560000D03*
%TO.P,J2,31,Pin_31*%
%TO.N,unconnected-(J2-Pin_31-Pad31)*%
X142000000Y-146100000D03*
%TO.P,J2,32,Pin_32*%
%TO.N,unconnected-(J2-Pin_32-Pad32)*%
X144540000Y-146100000D03*
%TO.P,J2,33,Pin_33*%
%TO.N,unconnected-(J2-Pin_33-Pad33)*%
X142000000Y-148640000D03*
%TO.P,J2,34,Pin_34*%
%TO.N,unconnected-(J2-Pin_34-Pad34)*%
X144540000Y-148640000D03*
%TO.P,J2,35,Pin_35*%
%TO.N,unconnected-(J2-Pin_35-Pad35)*%
X142000000Y-151180000D03*
%TO.P,J2,36,Pin_36*%
%TO.N,unconnected-(J2-Pin_36-Pad36)*%
X144540000Y-151180000D03*
%TO.P,J2,37,Pin_37*%
%TO.N,unconnected-(J2-Pin_37-Pad37)*%
X142000000Y-153720000D03*
%TO.P,J2,38,Pin_38*%
%TO.N,unconnected-(J2-Pin_38-Pad38)*%
X144540000Y-153720000D03*
%TO.P,J2,39,Pin_39*%
%TO.N,unconnected-(J2-Pin_39-Pad39)*%
X142000000Y-156260000D03*
%TO.P,J2,40,Pin_40*%
%TO.N,unconnected-(J2-Pin_40-Pad40)*%
X144540000Y-156260000D03*
%TD*%
D17*
%TO.P,J1,1,Pin_1*%
%TO.N,/5V_IN*%
X103000000Y-100000000D03*
D18*
%TO.P,J1,2,Pin_2*%
%TO.N,GND*%
X103000000Y-102540000D03*
%TD*%
D10*
%TO.P,C8,1*%
%TO.N,+3V3*%
X133520000Y-94000000D03*
%TO.P,C8,2*%
%TO.N,GND*%
X134480000Y-94000000D03*
%TD*%
D17*
%TO.P,J5,1,Pin_1*%
%TO.N,+3V3*%
X175000000Y-135000000D03*
D18*
%TO.P,J5,2,Pin_2*%
%TO.N,/SDA*%
X175000000Y-137540000D03*
%TO.P,J5,3,Pin_3*%
%TO.N,/SCL*%
X175000000Y-140080000D03*
%TO.P,J5,4,Pin_4*%
%TO.N,GND*%
X175000000Y-142620000D03*
%TD*%
D10*
%TO.P,C6,1*%
%TO.N,+3V3*%
X133520000Y-90000000D03*
%TO.P,C6,2*%
%TO.N,GND*%
X134480000Y-90000000D03*
%TD*%
D17*
%TO.P,J3,1,Pin_1*%
%TO.N,/RS485_A*%
X192000000Y-98000000D03*
D18*
%TO.P,J3,2,Pin_2*%
%TO.N,/RS485_B*%
X192000000Y-100540000D03*
%TO.P,J3,3,Pin_3*%
%TO.N,/RS485_DE*%
X192000000Y-103080000D03*
%TO.P,J3,4,Pin_4*%
%TO.N,GND*%
X192000000Y-105620000D03*
%TD*%
D19*
%TO.P,C2,1*%
%TO.N,+5V*%
X124050000Y-102000000D03*
%TO.P,C2,2*%
%TO.N,GND*%
X125950000Y-102000000D03*
%TD*%
D17*
%TO.P,J7,1,Pin_1*%
%TO.N,+3V3*%
X192000000Y-136000000D03*
D18*
%TO.P,J7,2,Pin_2*%
%TO.N,unconnected-(J7-Pin_2-Pad2)*%
X192000000Y-138540000D03*
%TO.P,J7,3,Pin_3*%
%TO.N,unconnected-(J7-Pin_3-Pad3)*%
X192000000Y-141080000D03*
%TO.P,J7,4,Pin_4*%
%TO.N,unconnected-(J7-Pin_4-Pad4)*%
X192000000Y-143620000D03*
%TO.P,J7,5,Pin_5*%
%TO.N,unconnected-(J7-Pin_5-Pad5)*%
X192000000Y-146160000D03*
%TO.P,J7,6,Pin_6*%
%TO.N,unconnected-(J7-Pin_6-Pad6)*%
X192000000Y-148700000D03*
%TO.P,J7,7,Pin_7*%
%TO.N,unconnected-(J7-Pin_7-Pad7)*%
X192000000Y-151240000D03*
%TO.P,J7,8,Pin_8*%
%TO.N,GND*%
X192000000Y-153780000D03*
%TD*%
D16*
%TO.P,R4,1*%
%TO.N,+3V3*%
X168000000Y-130825000D03*
%TO.P,R4,2*%
%TO.N,/SDA*%
X168000000Y-129175000D03*
%TD*%
%TO.P,R2,1*%
%TO.N,+3V3*%
X172000000Y-90825000D03*
%TO.P,R2,2*%
%TO.N,/RS485_A*%
X172000000Y-89175000D03*
%TD*%
D20*
%TO.P,U1,1,RO*%
%TO.N,/RS485_RX*%
X172525000Y-96095000D03*
%TO.P,U1,2,~{RE}*%
%TO.N,/RS485_DE*%
X172525000Y-97365000D03*
%TO.P,U1,3,DE*%
X172525000Y-98635000D03*
%TO.P,U1,4,DI*%
%TO.N,/RS485_TX*%
X172525000Y-99905000D03*
%TO.P,U1,5,GND*%
%TO.N,GND*%
X177475000Y-99905000D03*
%TO.P,U1,6,A*%
%TO.N,/RS485_A*%
X177475000Y-98635000D03*
%TO.P,U1,7,B*%
%TO.N,/RS485_B*%
X177475000Y-97365000D03*
%TO.P,U1,8,VCC*%
%TO.N,+3V3*%
X177475000Y-96095000D03*
%TD*%
D21*
%TO.P,U2,1,RS485/GPIO.1*%
%TO.N,unconnected-(U2-RS485{slash}GPIO.1-Pad1)*%
X116062500Y-134000000D03*
%TO.P,U2,2,CLK/GPIO.0*%
%TO.N,unconnected-(U2-CLK{slash}GPIO.0-Pad2)*%
X116062500Y-134500000D03*
%TO.P,U2,3,GND*%
%TO.N,GND*%
X116062500Y-135000000D03*
%TO.P,U2,4,D+*%
%TO.N,/USB_DP*%
X116062500Y-135500000D03*
%TO.P,U2,5,D-*%
%TO.N,/USB_DM*%
X116062500Y-136000000D03*
D22*
%TO.P,U2,6,VDD*%
%TO.N,+3V3*%
X117000000Y-136937500D03*
%TO.P,U2,7,VREGIN*%
%TO.N,unconnected-(U2-VREGIN-Pad7)*%
X117500000Y-136937500D03*
%TO.P,U2,8,VBUS*%
%TO.N,unconnected-(U2-VBUS-Pad8)*%
X118000000Y-136937500D03*
%TO.P,U2,9,~{RST}*%
%TO.N,unconnected-(U2-~{RST}-Pad9)*%
X118500000Y-136937500D03*
%TO.P,U2,10,NC*%
%TO.N,unconnected-(U2-NC-Pad10)*%
X119000000Y-136937500D03*
D21*
%TO.P,U2,11,~{SUSPEND}*%
%TO.N,unconnected-(U2-~{SUSPEND}-Pad11)*%
X119937500Y-136000000D03*
%TO.P,U2,12,GND*%
%TO.N,GND*%
X119937500Y-135500000D03*
%TO.P,U2,13,~{WAKEUP}*%
%TO.N,unconnected-(U2-~{WAKEUP}-Pad13)*%
X119937500Y-135000000D03*
%TO.P,U2,14,SUSPEND*%
%TO.N,unconnected-(U2-SUSPEND-Pad14)*%
X119937500Y-134500000D03*
%TO.P,U2,15,~{CTS}*%
%TO.N,unconnected-(U2-~{CTS}-Pad15)*%
X119937500Y-134000000D03*
D22*
%TO.P,U2,16,~{RTS}*%
%TO.N,unconnected-(U2-~{RTS}-Pad16)*%
X119000000Y-133062500D03*
%TO.P,U2,17,RXD*%
%TO.N,/UART_TX*%
X118500000Y-133062500D03*
%TO.P,U2,18,TXD*%
%TO.N,/UART_RX*%
X118000000Y-133062500D03*
%TO.P,U2,19,~{RXT}/GPIO.3*%
%TO.N,unconnected-(U2-~{RXT}{slash}GPIO.3-Pad19)*%
X117500000Y-133062500D03*
%TO.P,U2,20,~{TXT}/GPIO.2*%
%TO.N,unconnected-(U2-~{TXT}{slash}GPIO.2-Pad20)*%
X117000000Y-133062500D03*
D23*
%TO.P,U2,21,GND*%
%TO.N,GND*%
X118000000Y-135000000D03*
%TD*%
D17*
%TO.P,J6,1,Pin_1*%
%TO.N,+3V3*%
X185000000Y-135000000D03*
D18*
%TO.P,J6,2,Pin_2*%
%TO.N,/MOSI*%
X185000000Y-137540000D03*
%TO.P,J6,3,Pin_3*%
%TO.N,/MISO*%
X185000000Y-140080000D03*
%TO.P,J6,4,Pin_4*%
%TO.N,/SCK*%
X185000000Y-142620000D03*
%TO.P,J6,5,Pin_5*%
%TO.N,/SPI_CS0*%
X185000000Y-145160000D03*
%TO.P,J6,6,Pin_6*%
%TO.N,GND*%
X185000000Y-147700000D03*
%TD*%
D24*
%TO.P,Q1,1,G*%
%TO.N,GND*%
X114062500Y-99050000D03*
%TO.P,Q1,2,S*%
%TO.N,Net-(Q1-S)*%
X114062500Y-100950000D03*
%TO.P,Q1,3,D*%
%TO.N,+5V*%
X115937500Y-100000000D03*
%TD*%
D25*
%TO.P,R1,1*%
%TO.N,/RS485_A*%
X168000000Y-90912500D03*
%TO.P,R1,2*%
%TO.N,/RS485_B*%
X168000000Y-89087500D03*
%TD*%
D26*
%TO.P,C1,1*%
%TO.N,+5V*%
X123525000Y-92000000D03*
%TO.P,C1,2*%
%TO.N,GND*%
X126475000Y-92000000D03*
%TD*%
D10*
%TO.P,C7,1*%
%TO.N,+3V3*%
X129520000Y-94000000D03*
%TO.P,C7,2*%
%TO.N,GND*%
X130480000Y-94000000D03*
%TD*%
D27*
%TO.P,F1,1*%
%TO.N,/5V_IN*%
X112862500Y-92000000D03*
%TO.P,F1,2*%
%TO.N,Net-(Q1-S)*%
X117137500Y-92000000D03*
%TD*%
D28*
%TO.N,GND*%
X103000000Y-135000000D03*
%TO.N,+3V3*%
X175382000Y-95892800D03*
X176783300Y-131188200D03*
X140850600Y-99206800D03*
X141021700Y-132130000D03*
X175382000Y-105666800D03*
%TO.N,/RS485_TX*%
X143270000Y-99905000D03*
%TO.N,/RS485_RX*%
X140248900Y-96095000D03*
%TO.N,/SCL*%
X173026700Y-129643900D03*
%TO.N,/SDA*%
X173848300Y-130560500D03*
%TO.N,/USB_DP*%
X107267800Y-134133200D03*
X108000000Y-145313900D03*
%TD*%
D29*
%TO.N,+5V*%
X124050000Y-102000000D02*
X117937500Y-102000000D01*
X130050000Y-108000000D02*
X124050000Y-102000000D01*
X115937500Y-99587500D02*
X115937500Y-100000000D01*
X117937500Y-102000000D02*
X115937500Y-100000000D01*
X123525000Y-92000000D02*
X115937500Y-99587500D01*
X142000000Y-108000000D02*
X130050000Y-108000000D01*
%TO.N,GND*%
X183190000Y-105620000D02*
X177475000Y-99905000D01*
X177475000Y-99905000D02*
X173017200Y-104362800D01*
X118000000Y-135000000D02*
X116062500Y-135000000D01*
X126475000Y-101475000D02*
X125950000Y-102000000D01*
X134480000Y-94000000D02*
X134112700Y-94000000D01*
X133418300Y-88938300D02*
X129536700Y-88938300D01*
X126475000Y-92000000D02*
X126475000Y-101475000D01*
X148177200Y-104362800D02*
X144540000Y-108000000D01*
X125607300Y-135500000D02*
X126749000Y-134358300D01*
X134112700Y-93657200D02*
X133843300Y-93387800D01*
X118302100Y-135302000D02*
X118302000Y-135302000D01*
X118500100Y-135500000D02*
X119937500Y-135500000D01*
X127838300Y-134358300D02*
X128480000Y-135000000D01*
X112056100Y-101056400D02*
X114062500Y-99050000D01*
X118726100Y-109210000D02*
X143210000Y-109210000D01*
X175000000Y-142620000D02*
X179920000Y-142620000D01*
X112056100Y-102540000D02*
X118726100Y-109210000D01*
X134112700Y-94000000D02*
X134112700Y-93657200D01*
X131141500Y-90661500D02*
X131141500Y-93387800D01*
X131141500Y-93387800D02*
X131092200Y-93387800D01*
X119937500Y-135500000D02*
X125607300Y-135500000D01*
X112056100Y-102540000D02*
X112056100Y-101056400D01*
X133818500Y-90661500D02*
X131141500Y-90661500D01*
X131141500Y-90661500D02*
X130480000Y-90000000D01*
X103000000Y-102540000D02*
X112056100Y-102540000D01*
X179920000Y-142620000D02*
X185000000Y-147700000D01*
X168480000Y-105000000D02*
X168480000Y-104362800D01*
X134480000Y-90000000D02*
X133818500Y-90661500D01*
X118302100Y-135302000D02*
X118500100Y-135500000D01*
X129536700Y-88938300D02*
X126475000Y-92000000D01*
X118302000Y-135302000D02*
X118000000Y-135000000D01*
X192000000Y-153780000D02*
X185920000Y-147700000D01*
X109300000Y-146540000D02*
X109300000Y-143700000D01*
X133843300Y-93387800D02*
X131141500Y-93387800D01*
X134480000Y-90000000D02*
X133418300Y-88938300D01*
X174674300Y-87849300D02*
X136630700Y-87849300D01*
X144540000Y-108000000D02*
X138540000Y-102000000D01*
X176000000Y-89175000D02*
X174674300Y-87849300D01*
X116062500Y-135000000D02*
X103000000Y-135000000D01*
X109300000Y-143700000D02*
X117698000Y-135302000D01*
X143210000Y-109210000D02*
X144540000Y-110540000D01*
X136630700Y-87849300D02*
X134480000Y-90000000D01*
X138540000Y-102000000D02*
X125950000Y-102000000D01*
X131092200Y-93387800D02*
X130480000Y-94000000D01*
X126749000Y-134358300D02*
X127838300Y-134358300D01*
X185920000Y-147700000D02*
X185000000Y-147700000D01*
X168480000Y-104362800D02*
X148177200Y-104362800D01*
X192000000Y-105620000D02*
X183190000Y-105620000D01*
X117698000Y-135302000D02*
X118302100Y-135302000D01*
X173017200Y-104362800D02*
X168480000Y-104362800D01*
%TO.N,+3V3*%
X132860000Y-89340000D02*
X133520000Y-90000000D01*
X142000000Y-113080000D02*
X143270000Y-111810000D01*
X176783300Y-131188200D02*
X180036500Y-131188200D01*
X106906800Y-147738500D02*
X111365000Y-147738500D01*
X168000000Y-130825000D02*
X172000000Y-130825000D01*
X106700000Y-147531700D02*
X106906800Y-147738500D01*
X167520000Y-105000000D02*
X168186800Y-105666800D01*
X137530600Y-135621100D02*
X141021700Y-132130000D01*
X172363200Y-131188200D02*
X176783300Y-131188200D01*
X172000000Y-130825000D02*
X172363200Y-131188200D01*
X128141100Y-135621100D02*
X137530600Y-135621100D01*
X175382000Y-95892800D02*
X175382000Y-94207000D01*
X124845700Y-137674300D02*
X127520000Y-135000000D01*
X175382000Y-94207000D02*
X172000000Y-90825000D01*
X143270000Y-111810000D02*
X160710000Y-111810000D01*
X185000000Y-135000000D02*
X183848300Y-135000000D01*
X175382000Y-95892800D02*
X177272800Y-95892800D01*
X111365000Y-147738500D02*
X117273900Y-141829600D01*
X117000000Y-137400400D02*
X117273900Y-137674300D01*
X106700000Y-146540000D02*
X106700000Y-147531700D01*
X180036500Y-131188200D02*
X183848300Y-135000000D01*
X129520000Y-90000000D02*
X129520000Y-94000000D01*
X177272800Y-95892800D02*
X177475000Y-96095000D01*
X192000000Y-136000000D02*
X190848300Y-136000000D01*
X129520000Y-94000000D02*
X130181500Y-94661500D01*
X117273900Y-141829600D02*
X117273900Y-137674300D01*
X130181500Y-94661500D02*
X132858500Y-94661500D01*
X190848300Y-136000000D02*
X189848300Y-135000000D01*
X132858500Y-94661500D02*
X133520000Y-94000000D01*
X129520000Y-90000000D02*
X130180000Y-89340000D01*
X133520000Y-94000000D02*
X138726800Y-99206800D01*
X130180000Y-89340000D02*
X132860000Y-89340000D01*
X117000000Y-136937500D02*
X117000000Y-137400400D01*
X168186800Y-105666800D02*
X175382000Y-105666800D01*
X127520000Y-135000000D02*
X128141100Y-135621100D01*
X160710000Y-111810000D02*
X167520000Y-105000000D01*
X138726800Y-99206800D02*
X140850600Y-99206800D01*
X189848300Y-135000000D02*
X185000000Y-135000000D01*
X117273900Y-137674300D02*
X124845700Y-137674300D01*
%TO.N,/5V_IN*%
X112151700Y-92000000D02*
X104151700Y-100000000D01*
X112862500Y-92000000D02*
X112151700Y-92000000D01*
X103000000Y-100000000D02*
X104151700Y-100000000D01*
%TO.N,Net-(Q1-S)*%
X117137500Y-92000000D02*
X117137500Y-97412500D01*
X117137500Y-97412500D02*
X114062500Y-100487500D01*
X114062500Y-100487500D02*
X114062500Y-100950000D01*
%TO.N,/RS485_TX*%
X172525000Y-99905000D02*
X143270000Y-99905000D01*
%TO.N,/RS485_RX*%
X172525000Y-96095000D02*
X140248900Y-96095000D01*
%TO.N,/SCL*%
X173026700Y-129643900D02*
X172468900Y-129643900D01*
X172468900Y-129643900D02*
X172000000Y-129175000D01*
X143270000Y-119430000D02*
X162255000Y-119430000D01*
X162255000Y-119430000D02*
X172000000Y-129175000D01*
X142000000Y-118160000D02*
X143270000Y-119430000D01*
%TO.N,/SDA*%
X172548000Y-130122500D02*
X172986000Y-130560500D01*
X168000000Y-129175000D02*
X168947500Y-130122500D01*
X143270000Y-116890000D02*
X161149700Y-116890000D01*
X172986000Y-130560500D02*
X173848300Y-130560500D01*
X173848300Y-129588600D02*
X173848300Y-130560500D01*
X161149700Y-116890000D02*
X173848300Y-129588600D01*
X168947500Y-130122500D02*
X172548000Y-130122500D01*
X142000000Y-115620000D02*
X143270000Y-116890000D01*
%TO.N,/MOSI*%
X142000000Y-125780000D02*
X143274500Y-127054500D01*
X143274500Y-127054500D02*
X162431700Y-127054500D01*
X179340500Y-131880500D02*
X185000000Y-137540000D01*
X162431700Y-127054500D02*
X167257700Y-131880500D01*
X167257700Y-131880500D02*
X179340500Y-131880500D01*
%TO.N,/SPI_CS0*%
X146412400Y-134584900D02*
X143184900Y-134584900D01*
X185000000Y-145160000D02*
X181190000Y-141350000D01*
X143184900Y-134584900D02*
X142000000Y-133400000D01*
X153177500Y-141350000D02*
X146412400Y-134584900D01*
X181190000Y-141350000D02*
X153177500Y-141350000D01*
%TO.N,/UART_RX*%
X127310400Y-123240000D02*
X118000000Y-132550400D01*
X142000000Y-123240000D02*
X127310400Y-123240000D01*
X118000000Y-132550400D02*
X118000000Y-133062500D01*
%TO.N,/SCK*%
X166173900Y-132132700D02*
X166925100Y-132883900D01*
X142000000Y-130860000D02*
X143272700Y-132132700D01*
X175263900Y-132883900D02*
X185000000Y-142620000D01*
X143272700Y-132132700D02*
X166173900Y-132132700D01*
X166925100Y-132883900D02*
X175263900Y-132883900D01*
%TO.N,/MISO*%
X164199200Y-129590000D02*
X167091400Y-132482200D01*
X143270000Y-129590000D02*
X164199200Y-129590000D01*
X167091400Y-132482200D02*
X177402200Y-132482200D01*
X142000000Y-128320000D02*
X143270000Y-129590000D01*
X177402200Y-132482200D02*
X185000000Y-140080000D01*
%TO.N,/UART_TX*%
X143210100Y-121910100D02*
X143210100Y-123718300D01*
X126617500Y-124510000D02*
X118500000Y-132627500D01*
X143210100Y-123718300D02*
X142418400Y-124510000D01*
X142000000Y-120700000D02*
X143210100Y-121910100D01*
X142418400Y-124510000D02*
X126617500Y-124510000D01*
X118500000Y-132627500D02*
X118500000Y-133062500D01*
%TO.N,/RS485_A*%
X177475000Y-98635000D02*
X177098000Y-98635000D01*
X169375500Y-90912500D02*
X168000000Y-90912500D01*
X166945800Y-89858300D02*
X166945800Y-88604000D01*
X166945800Y-88604000D02*
X167283000Y-88266800D01*
X178110000Y-98000000D02*
X177475000Y-98635000D01*
X171091800Y-88266800D02*
X172000000Y-89175000D01*
X167283000Y-88266800D02*
X171091800Y-88266800D01*
X168000000Y-90912500D02*
X166945800Y-89858300D01*
X192000000Y-98000000D02*
X178110000Y-98000000D01*
X177098000Y-98635000D02*
X169375500Y-90912500D01*
%TO.N,/RS485_B*%
X192641300Y-96455900D02*
X193151700Y-96966300D01*
X193151700Y-96966300D02*
X193151700Y-99388300D01*
X178797500Y-93622500D02*
X178797500Y-96455900D01*
X176000000Y-90825000D02*
X175175000Y-90000000D01*
X178797500Y-96455900D02*
X192641300Y-96455900D01*
X178797500Y-96455900D02*
X177888400Y-97365000D01*
X175175000Y-90000000D02*
X168912500Y-90000000D01*
X176000000Y-90825000D02*
X178797500Y-93622500D01*
X168912500Y-90000000D02*
X168000000Y-89087500D01*
X193151700Y-99388300D02*
X192000000Y-100540000D01*
X177888400Y-97365000D02*
X177475000Y-97365000D01*
%TO.N,/RS485_DE*%
X172525000Y-98635000D02*
X172525000Y-97365000D01*
X172525000Y-98635000D02*
X173160000Y-99270000D01*
X188190000Y-99270000D02*
X192000000Y-103080000D01*
X173160000Y-99270000D02*
X188190000Y-99270000D01*
%TO.N,/USB_DP*%
X115178900Y-135670700D02*
X102789500Y-135670700D01*
X116062500Y-135500000D02*
X115349600Y-135500000D01*
X102353700Y-134678300D02*
X102898800Y-134133200D01*
X115349600Y-135500000D02*
X115178900Y-135670700D01*
X108000000Y-146540000D02*
X108000000Y-145313900D01*
X102353700Y-135234900D02*
X102353700Y-134678300D01*
X102898800Y-134133200D02*
X107267800Y-134133200D01*
X102789500Y-135670700D02*
X102353700Y-135234900D01*
%TO.N,/USB_DM*%
X116062500Y-136000000D02*
X107350000Y-144712500D01*
X107350000Y-144712500D02*
X107350000Y-146540000D01*
%TD*%
%TA.AperFunction,Conductor*%
%TO.N,GND*%
G36*
X116293834Y-136720414D02*
G01*
X116349767Y-136762286D01*
X116374184Y-136827750D01*
X116374500Y-136836596D01*
X116374500Y-137324403D01*
X116388988Y-137434463D01*
X116388991Y-137434472D01*
X116390060Y-137437052D01*
X116396931Y-137471595D01*
X116398438Y-137471397D01*
X116399498Y-137479454D01*
X116431855Y-137600208D01*
X116440423Y-137632185D01*
X116456605Y-137660213D01*
X116469358Y-137682300D01*
X116469359Y-137682304D01*
X116469360Y-137682304D01*
X116519479Y-137769114D01*
X116519481Y-137769117D01*
X116637081Y-137886717D01*
X116670566Y-137948040D01*
X116673400Y-137974398D01*
X116673400Y-141529502D01*
X116653715Y-141596541D01*
X116637081Y-141617183D01*
X111912180Y-146342084D01*
X111850857Y-146375569D01*
X111781165Y-146370585D01*
X111725232Y-146328713D01*
X111700815Y-146263249D01*
X111700499Y-146254403D01*
X111700499Y-145802129D01*
X111700498Y-145802123D01*
X111700497Y-145802116D01*
X111694091Y-145742517D01*
X111670181Y-145678412D01*
X111643797Y-145607671D01*
X111643793Y-145607664D01*
X111557547Y-145492455D01*
X111557544Y-145492452D01*
X111442335Y-145406206D01*
X111442328Y-145406202D01*
X111307482Y-145355908D01*
X111307483Y-145355908D01*
X111247883Y-145349501D01*
X111247881Y-145349500D01*
X111247873Y-145349500D01*
X111247864Y-145349500D01*
X109727129Y-145349500D01*
X109727125Y-145349501D01*
X109679160Y-145354657D01*
X109667517Y-145355909D01*
X109667516Y-145355909D01*
X109660904Y-145356620D01*
X109634393Y-145356619D01*
X109572842Y-145350000D01*
X109525000Y-145350000D01*
X109524948Y-145350051D01*
X109524125Y-145352853D01*
X109524855Y-145355872D01*
X109514344Y-145386162D01*
X109505315Y-145416914D01*
X109502662Y-145419829D01*
X109501951Y-145421881D01*
X109485227Y-145438993D01*
X109477576Y-145447405D01*
X109476436Y-145448299D01*
X109417454Y-145492454D01*
X109413539Y-145497682D01*
X109401576Y-145507076D01*
X109375756Y-145517389D01*
X109351358Y-145530712D01*
X109343762Y-145530168D01*
X109336690Y-145532994D01*
X109309395Y-145527711D01*
X109281666Y-145525728D01*
X109274131Y-145520885D01*
X109268094Y-145519717D01*
X109259411Y-145511425D01*
X109237319Y-145497227D01*
X109232548Y-145492456D01*
X109232546Y-145492455D01*
X109232546Y-145492454D01*
X109124687Y-145411711D01*
X109088888Y-145363888D01*
X109075000Y-145350000D01*
X109027165Y-145350000D01*
X108990598Y-145353931D01*
X108965416Y-145354066D01*
X108964676Y-145353994D01*
X108922873Y-145349500D01*
X108918178Y-145349500D01*
X108912229Y-145348925D01*
X108885128Y-145338039D01*
X108857120Y-145329815D01*
X108853097Y-145325173D01*
X108847394Y-145322882D01*
X108830480Y-145299071D01*
X108811365Y-145277011D01*
X108809257Y-145269194D01*
X108806932Y-145265920D01*
X108806631Y-145259451D01*
X108800756Y-145237656D01*
X108800499Y-145235051D01*
X108769738Y-145080410D01*
X108769737Y-145080403D01*
X108765385Y-145069896D01*
X108709397Y-144934727D01*
X108709390Y-144934714D01*
X108621789Y-144803611D01*
X108621786Y-144803607D01*
X108510292Y-144692113D01*
X108510288Y-144692110D01*
X108461677Y-144659629D01*
X108416872Y-144606017D01*
X108408165Y-144536692D01*
X108438320Y-144473664D01*
X108442868Y-144468865D01*
X116162821Y-136748913D01*
X116224142Y-136715430D01*
X116293834Y-136720414D01*
G37*
%TD.AperFunction*%
%TA.AperFunction,Conductor*%
G36*
X140693902Y-125130185D02*
G01*
X140739657Y-125182989D01*
X140749601Y-125252147D01*
X140744794Y-125272818D01*
X140682753Y-125463759D01*
X140649500Y-125673713D01*
X140649500Y-125886287D01*
X140682754Y-126096243D01*
X140746256Y-126291682D01*
X140748444Y-126298414D01*
X140844951Y-126487820D01*
X140969890Y-126659786D01*
X141120213Y-126810109D01*
X141292182Y-126935050D01*
X141300946Y-126939516D01*
X141351742Y-126987491D01*
X141368536Y-127055312D01*
X141345998Y-127121447D01*
X141300946Y-127160484D01*
X141292182Y-127164949D01*
X141120213Y-127289890D01*
X140969890Y-127440213D01*
X140844951Y-127612179D01*
X140748444Y-127801585D01*
X140682753Y-128003760D01*
X140649500Y-128213713D01*
X140649500Y-128426286D01*
X140682753Y-128636239D01*
X140682753Y-128636241D01*
X140682754Y-128636243D01*
X140698724Y-128685394D01*
X140748444Y-128838414D01*
X140844951Y-129027820D01*
X140969890Y-129199786D01*
X141120213Y-129350109D01*
X141292182Y-129475050D01*
X141300946Y-129479516D01*
X141351742Y-129527491D01*
X141368536Y-129595312D01*
X141345998Y-129661447D01*
X141300946Y-129700484D01*
X141292182Y-129704949D01*
X141120213Y-129829890D01*
X140969890Y-129980213D01*
X140844951Y-130152179D01*
X140748444Y-130341585D01*
X140682753Y-130543760D01*
X140649500Y-130753713D01*
X140649500Y-130966286D01*
X140682754Y-131176244D01*
X140712540Y-131267916D01*
X140714535Y-131337757D01*
X140678455Y-131397590D01*
X140647630Y-131417247D01*
X140647891Y-131417736D01*
X140642514Y-131420609D01*
X140511411Y-131508210D01*
X140511407Y-131508213D01*
X140399913Y-131619707D01*
X140399910Y-131619711D01*
X140312309Y-131750814D01*
X140312302Y-131750827D01*
X140251964Y-131896498D01*
X140251961Y-131896508D01*
X140221061Y-132051850D01*
X140188676Y-132113761D01*
X140187125Y-132115339D01*
X137318184Y-134984281D01*
X137256861Y-135017766D01*
X137230503Y-135020600D01*
X128551962Y-135020600D01*
X128532178Y-135019012D01*
X128404716Y-134998412D01*
X128381811Y-134987465D01*
X128357461Y-134980315D01*
X128350823Y-134972654D01*
X128341676Y-134968283D01*
X128328325Y-134946690D01*
X128311706Y-134927511D01*
X128309121Y-134915632D01*
X128304932Y-134908856D01*
X128305133Y-134897298D01*
X128300500Y-134876000D01*
X128300500Y-134765317D01*
X128300499Y-134765302D01*
X128299687Y-134754989D01*
X128297643Y-134729007D01*
X128297372Y-134728075D01*
X128252495Y-134573608D01*
X128252492Y-134573600D01*
X128247266Y-134564763D01*
X128230000Y-134501645D01*
X128230000Y-134195494D01*
X128730000Y-134195494D01*
X128730000Y-134750000D01*
X129258790Y-134750000D01*
X129257145Y-134729089D01*
X129212031Y-134573804D01*
X129129721Y-134434625D01*
X129129714Y-134434616D01*
X129015383Y-134320285D01*
X129015374Y-134320278D01*
X128876193Y-134237967D01*
X128876190Y-134237965D01*
X128730001Y-134195493D01*
X128730000Y-134195494D01*
X128230000Y-134195494D01*
X128229998Y-134195493D01*
X128083809Y-134237965D01*
X128083806Y-134237967D01*
X128063608Y-134249912D01*
X127995884Y-134267092D01*
X127937370Y-134249910D01*
X127916397Y-134237507D01*
X127916390Y-134237504D01*
X127760997Y-134192357D01*
X127760991Y-134192356D01*
X127724697Y-134189500D01*
X127724690Y-134189500D01*
X127315310Y-134189500D01*
X127315302Y-134189500D01*
X127279008Y-134192356D01*
X127279002Y-134192357D01*
X127123609Y-134237504D01*
X127123606Y-134237505D01*
X126984315Y-134319881D01*
X126984307Y-134319887D01*
X126869887Y-134434307D01*
X126869881Y-134434315D01*
X126787505Y-134573606D01*
X126787504Y-134573609D01*
X126742357Y-134729002D01*
X126742356Y-134729008D01*
X126739500Y-134765302D01*
X126739500Y-134879903D01*
X126719815Y-134946942D01*
X126703181Y-134967584D01*
X124633284Y-137037481D01*
X124571961Y-137070966D01*
X124545603Y-137073800D01*
X119749500Y-137073800D01*
X119740814Y-137071249D01*
X119731854Y-137072538D01*
X119707815Y-137061559D01*
X119682461Y-137054115D01*
X119676533Y-137047273D01*
X119668298Y-137043513D01*
X119654010Y-137021280D01*
X119636706Y-137001311D01*
X119634418Y-136990796D01*
X119630523Y-136984735D01*
X119625500Y-136949801D01*
X119625499Y-136749500D01*
X119645183Y-136682460D01*
X119697987Y-136636705D01*
X119749499Y-136625499D01*
X120324403Y-136625499D01*
X120434463Y-136611011D01*
X120434467Y-136611009D01*
X120434472Y-136611009D01*
X120571429Y-136554279D01*
X120689036Y-136464036D01*
X120779279Y-136346429D01*
X120836009Y-136209472D01*
X120850500Y-136099401D01*
X120850499Y-135900600D01*
X120850499Y-135900599D01*
X120850499Y-135900596D01*
X120836011Y-135790536D01*
X120833906Y-135782682D01*
X120837007Y-135781850D01*
X120831128Y-135727382D01*
X120834147Y-135717389D01*
X120833418Y-135717194D01*
X120835521Y-135709342D01*
X120846626Y-135625000D01*
X120818506Y-135625000D01*
X120814835Y-135623922D01*
X120811107Y-135624779D01*
X120781574Y-135614155D01*
X120751467Y-135605315D01*
X120747917Y-135602048D01*
X120745361Y-135601129D01*
X120720115Y-135576466D01*
X120719348Y-135575466D01*
X120694167Y-135510292D01*
X120708219Y-135441850D01*
X120719348Y-135424534D01*
X120720115Y-135423534D01*
X120741055Y-135408236D01*
X120757044Y-135391870D01*
X120766404Y-135389718D01*
X120776534Y-135382319D01*
X120818506Y-135375000D01*
X120846626Y-135375000D01*
X120835521Y-135290659D01*
X120833418Y-135282807D01*
X120837041Y-135281835D01*
X120830919Y-135229884D01*
X120834495Y-135217484D01*
X120833905Y-135217326D01*
X120836008Y-135209475D01*
X120836008Y-135209474D01*
X120836009Y-135209472D01*
X120850500Y-135099401D01*
X120850499Y-134900600D01*
X120850064Y-134897298D01*
X120844959Y-134858519D01*
X120836009Y-134790528D01*
X120836008Y-134790525D01*
X120833905Y-134782674D01*
X120837207Y-134781789D01*
X120831392Y-134728075D01*
X120834501Y-134717485D01*
X120833905Y-134717326D01*
X120836008Y-134709475D01*
X120836008Y-134709474D01*
X120836009Y-134709472D01*
X120850500Y-134599401D01*
X120850499Y-134400600D01*
X120836009Y-134290528D01*
X120836008Y-134290525D01*
X120833905Y-134282674D01*
X120837207Y-134281789D01*
X120831392Y-134228075D01*
X120834501Y-134217485D01*
X120833905Y-134217326D01*
X120836008Y-134209475D01*
X120836008Y-134209474D01*
X120836009Y-134209472D01*
X120850500Y-134099401D01*
X120850499Y-133900600D01*
X120850499Y-133900598D01*
X120850499Y-133900596D01*
X120836011Y-133790536D01*
X120836009Y-133790529D01*
X120836009Y-133790528D01*
X120779279Y-133653571D01*
X120689036Y-133535964D01*
X120571429Y-133445721D01*
X120571425Y-133445719D01*
X120434472Y-133388991D01*
X120434470Y-133388990D01*
X120324410Y-133374501D01*
X120324407Y-133374500D01*
X120324401Y-133374500D01*
X120324394Y-133374500D01*
X119749499Y-133374500D01*
X119682460Y-133354815D01*
X119636705Y-133302011D01*
X119625499Y-133250500D01*
X119625499Y-132675596D01*
X119611011Y-132565536D01*
X119611009Y-132565529D01*
X119611009Y-132565528D01*
X119591040Y-132517319D01*
X119584195Y-132500792D01*
X119576726Y-132431323D01*
X119608002Y-132368844D01*
X119611047Y-132365687D01*
X126829917Y-125146819D01*
X126891240Y-125113334D01*
X126917598Y-125110500D01*
X140626863Y-125110500D01*
X140693902Y-125130185D01*
G37*
%TD.AperFunction*%
%TA.AperFunction,Conductor*%
G36*
X118782845Y-133957826D02*
G01*
X118790528Y-133961009D01*
X118900599Y-133975500D01*
X118909137Y-133975499D01*
X118917685Y-133976696D01*
X118941955Y-133987669D01*
X118967513Y-133995167D01*
X118973298Y-134001840D01*
X118981350Y-134005481D01*
X118995836Y-134027837D01*
X119013281Y-134047959D01*
X119014540Y-134056702D01*
X119019345Y-134064117D01*
X119023902Y-134095370D01*
X119024235Y-134095349D01*
X119024500Y-134099399D01*
X119038989Y-134209468D01*
X119041094Y-134217322D01*
X119037814Y-134218200D01*
X119043581Y-134272073D01*
X119040517Y-134282522D01*
X119041095Y-134282677D01*
X119038990Y-134290529D01*
X119024500Y-134400598D01*
X119024500Y-134599403D01*
X119038989Y-134709468D01*
X119041094Y-134717322D01*
X119037814Y-134718200D01*
X119043581Y-134772073D01*
X119040517Y-134782522D01*
X119041095Y-134782677D01*
X119038990Y-134790529D01*
X119024500Y-134900598D01*
X119024500Y-135099403D01*
X119038989Y-135209468D01*
X119041094Y-135217322D01*
X119038010Y-135218148D01*
X119043849Y-135272737D01*
X119041014Y-135282653D01*
X119041582Y-135282806D01*
X119039478Y-135290658D01*
X119028373Y-135375000D01*
X119056494Y-135375000D01*
X119060164Y-135376077D01*
X119063893Y-135375221D01*
X119093425Y-135385844D01*
X119123533Y-135394685D01*
X119127082Y-135397951D01*
X119129639Y-135398871D01*
X119154885Y-135423534D01*
X119155652Y-135424534D01*
X119180833Y-135489708D01*
X119166781Y-135558150D01*
X119155652Y-135575466D01*
X119154885Y-135576466D01*
X119133944Y-135591763D01*
X119117956Y-135608130D01*
X119108595Y-135610281D01*
X119098466Y-135617681D01*
X119056494Y-135625000D01*
X119028374Y-135625000D01*
X119039478Y-135709346D01*
X119041582Y-135717197D01*
X119038666Y-135717978D01*
X119044614Y-135766674D01*
X119042413Y-135782264D01*
X119038991Y-135790528D01*
X119024500Y-135900599D01*
X119024500Y-135909203D01*
X119023283Y-135917827D01*
X119012304Y-135942034D01*
X119004815Y-135967539D01*
X118998096Y-135973360D01*
X118994424Y-135981458D01*
X118972098Y-135995888D01*
X118952011Y-136013294D01*
X118941694Y-136015539D01*
X118935744Y-136019386D01*
X118923882Y-136019416D01*
X118904610Y-136023612D01*
X118904651Y-136024235D01*
X118900600Y-136024500D01*
X118790531Y-136038989D01*
X118782678Y-136041094D01*
X118781802Y-136037824D01*
X118727853Y-136043567D01*
X118717477Y-136040518D01*
X118717323Y-136041095D01*
X118709470Y-136038990D01*
X118599401Y-136024500D01*
X118400596Y-136024500D01*
X118290531Y-136038989D01*
X118282678Y-136041094D01*
X118281802Y-136037824D01*
X118227853Y-136043567D01*
X118217477Y-136040518D01*
X118217323Y-136041095D01*
X118209470Y-136038990D01*
X118099401Y-136024500D01*
X117900596Y-136024500D01*
X117790531Y-136038989D01*
X117782678Y-136041094D01*
X117781802Y-136037824D01*
X117727853Y-136043567D01*
X117717477Y-136040518D01*
X117717323Y-136041095D01*
X117709470Y-136038990D01*
X117599401Y-136024500D01*
X117400596Y-136024500D01*
X117290531Y-136038989D01*
X117282678Y-136041094D01*
X117281884Y-136038133D01*
X117232814Y-136044364D01*
X117217152Y-136042172D01*
X117209472Y-136038991D01*
X117099401Y-136024500D01*
X117090868Y-136024500D01*
X117082314Y-136023303D01*
X117058028Y-136012322D01*
X117032460Y-136004815D01*
X117026686Y-135998151D01*
X117018649Y-135994518D01*
X117004153Y-135972147D01*
X116986705Y-135952011D01*
X116984481Y-135941788D01*
X116980654Y-135935882D01*
X116980609Y-135923990D01*
X116976393Y-135904609D01*
X116975765Y-135904651D01*
X116975499Y-135900603D01*
X116975499Y-135900600D01*
X116961009Y-135790528D01*
X116961008Y-135790525D01*
X116958905Y-135782674D01*
X116962207Y-135781789D01*
X116956392Y-135728075D01*
X116959501Y-135717485D01*
X116958905Y-135717326D01*
X116961008Y-135709475D01*
X116961008Y-135709474D01*
X116961009Y-135709472D01*
X116975500Y-135599401D01*
X116975499Y-135400600D01*
X116975499Y-135400596D01*
X116961011Y-135290536D01*
X116958906Y-135282682D01*
X116962007Y-135281850D01*
X116956128Y-135227382D01*
X116959147Y-135217389D01*
X116958418Y-135217194D01*
X116960521Y-135209342D01*
X116971626Y-135125000D01*
X116943506Y-135125000D01*
X116939835Y-135123922D01*
X116936107Y-135124779D01*
X116906574Y-135114155D01*
X116876467Y-135105315D01*
X116872917Y-135102048D01*
X116870361Y-135101129D01*
X116845115Y-135076466D01*
X116844348Y-135075466D01*
X116819167Y-135010292D01*
X116833219Y-134941850D01*
X116844348Y-134924534D01*
X116845115Y-134923534D01*
X116866055Y-134908236D01*
X116882044Y-134891870D01*
X116891404Y-134889718D01*
X116901534Y-134882319D01*
X116943506Y-134875000D01*
X116971626Y-134875000D01*
X116960521Y-134790659D01*
X116958418Y-134782807D01*
X116962041Y-134781835D01*
X116955919Y-134729884D01*
X116959495Y-134717484D01*
X116958905Y-134717326D01*
X116961008Y-134709475D01*
X116961008Y-134709474D01*
X116961009Y-134709472D01*
X116975500Y-134599401D01*
X116975499Y-134400600D01*
X116961009Y-134290528D01*
X116961008Y-134290525D01*
X116958905Y-134282674D01*
X116961908Y-134281869D01*
X116955635Y-134232814D01*
X116957826Y-134217155D01*
X116961009Y-134209472D01*
X116975500Y-134099401D01*
X116975499Y-134090866D01*
X116976697Y-134082313D01*
X116987676Y-134058029D01*
X116995185Y-134032460D01*
X117001849Y-134026685D01*
X117005483Y-134018649D01*
X117027850Y-134004154D01*
X117047989Y-133986705D01*
X117058212Y-133984481D01*
X117064118Y-133980654D01*
X117076009Y-133980609D01*
X117095390Y-133976393D01*
X117095349Y-133975765D01*
X117099396Y-133975499D01*
X117099400Y-133975499D01*
X117209472Y-133961009D01*
X117209475Y-133961007D01*
X117217326Y-133958905D01*
X117218210Y-133962207D01*
X117271925Y-133956392D01*
X117282514Y-133959501D01*
X117282674Y-133958905D01*
X117290524Y-133961008D01*
X117290526Y-133961008D01*
X117290528Y-133961009D01*
X117400599Y-133975500D01*
X117599400Y-133975499D01*
X117599401Y-133975499D01*
X117616087Y-133973302D01*
X117709472Y-133961009D01*
X117709475Y-133961007D01*
X117717326Y-133958905D01*
X117718210Y-133962207D01*
X117771925Y-133956392D01*
X117782514Y-133959501D01*
X117782674Y-133958905D01*
X117790524Y-133961008D01*
X117790526Y-133961008D01*
X117790528Y-133961009D01*
X117900599Y-133975500D01*
X118099400Y-133975499D01*
X118099401Y-133975499D01*
X118116087Y-133973302D01*
X118209472Y-133961009D01*
X118209475Y-133961007D01*
X118217326Y-133958905D01*
X118218210Y-133962207D01*
X118271925Y-133956392D01*
X118282514Y-133959501D01*
X118282674Y-133958905D01*
X118290524Y-133961008D01*
X118290526Y-133961008D01*
X118290528Y-133961009D01*
X118400599Y-133975500D01*
X118599400Y-133975499D01*
X118599401Y-133975499D01*
X118616087Y-133973302D01*
X118709472Y-133961009D01*
X118709475Y-133961007D01*
X118717326Y-133958905D01*
X118718179Y-133962091D01*
X118731891Y-133955767D01*
X118767185Y-133955635D01*
X118782845Y-133957826D01*
G37*
%TD.AperFunction*%
%TA.AperFunction,Conductor*%
G36*
X106755073Y-134753385D02*
G01*
X106756925Y-134754598D01*
X106889374Y-134843098D01*
X106934179Y-134896710D01*
X106942886Y-134966035D01*
X106912731Y-135029063D01*
X106853288Y-135065782D01*
X106820483Y-135070200D01*
X103110397Y-135070200D01*
X103043358Y-135050515D01*
X102997603Y-134997711D01*
X102987659Y-134928553D01*
X103016684Y-134864997D01*
X103022716Y-134858519D01*
X103111216Y-134770019D01*
X103172539Y-134736534D01*
X103198897Y-134733700D01*
X106688034Y-134733700D01*
X106755073Y-134753385D01*
G37*
%TD.AperFunction*%
%TA.AperFunction,Conductor*%
G36*
X144074075Y-108192993D02*
G01*
X144139901Y-108307007D01*
X144232993Y-108400099D01*
X144347007Y-108465925D01*
X144410591Y-108482962D01*
X143809971Y-109083581D01*
X143888711Y-109200895D01*
X143909727Y-109267529D01*
X143891383Y-109334947D01*
X143842051Y-109380483D01*
X143832440Y-109385380D01*
X143778282Y-109424727D01*
X143778282Y-109424728D01*
X144410591Y-110057037D01*
X144347007Y-110074075D01*
X144232993Y-110139901D01*
X144139901Y-110232993D01*
X144074075Y-110347007D01*
X144057037Y-110410591D01*
X143424728Y-109778282D01*
X143424727Y-109778282D01*
X143385380Y-109832440D01*
X143385376Y-109832446D01*
X143380760Y-109841505D01*
X143332781Y-109892297D01*
X143264959Y-109909087D01*
X143198826Y-109886543D01*
X143159794Y-109841493D01*
X143155051Y-109832184D01*
X143155049Y-109832181D01*
X143155048Y-109832179D01*
X143030109Y-109660213D01*
X142916569Y-109546673D01*
X142883084Y-109485350D01*
X142888068Y-109415658D01*
X142929940Y-109359725D01*
X142960915Y-109342810D01*
X143092331Y-109293796D01*
X143207546Y-109207546D01*
X143293796Y-109092331D01*
X143344091Y-108957483D01*
X143350500Y-108897873D01*
X143350499Y-108873979D01*
X143353330Y-108860963D01*
X143363940Y-108841525D01*
X143370179Y-108820275D01*
X143386803Y-108799643D01*
X143386808Y-108799636D01*
X143386811Y-108799634D01*
X143386818Y-108799626D01*
X144057037Y-108129408D01*
X144074075Y-108192993D01*
G37*
%TD.AperFunction*%
%TA.AperFunction,Conductor*%
G36*
X199442539Y-80520185D02*
G01*
X199488294Y-80572989D01*
X199499500Y-80624500D01*
X199499500Y-159375500D01*
X199479815Y-159442539D01*
X199427011Y-159488294D01*
X199375500Y-159499500D01*
X100624500Y-159499500D01*
X100557461Y-159479815D01*
X100511706Y-159427011D01*
X100500500Y-159375500D01*
X100500500Y-135313954D01*
X101753198Y-135313954D01*
X101794123Y-135466685D01*
X101802111Y-135480520D01*
X101802112Y-135480522D01*
X101873177Y-135603612D01*
X101873181Y-135603617D01*
X101992049Y-135722485D01*
X101992055Y-135722490D01*
X102304639Y-136035074D01*
X102304649Y-136035085D01*
X102420785Y-136151221D01*
X102450873Y-136168592D01*
X102480963Y-136185964D01*
X102557715Y-136230277D01*
X102710442Y-136271200D01*
X102710443Y-136271200D01*
X114642702Y-136271200D01*
X114709741Y-136290885D01*
X114755496Y-136343689D01*
X114765440Y-136412847D01*
X114736415Y-136476403D01*
X114730383Y-136482881D01*
X106869481Y-144343782D01*
X106869479Y-144343784D01*
X106847828Y-144381286D01*
X106838676Y-144397139D01*
X106790423Y-144480715D01*
X106749499Y-144633443D01*
X106749499Y-144633445D01*
X106749499Y-144801546D01*
X106749500Y-144801559D01*
X106749500Y-145225500D01*
X106729815Y-145292539D01*
X106677011Y-145338294D01*
X106625501Y-145349500D01*
X106427130Y-145349500D01*
X106427120Y-145349501D01*
X106363248Y-145356367D01*
X106336742Y-145356367D01*
X106332483Y-145355909D01*
X106272873Y-145349500D01*
X106272865Y-145349500D01*
X104752129Y-145349500D01*
X104752123Y-145349501D01*
X104692516Y-145355908D01*
X104557671Y-145406202D01*
X104557664Y-145406206D01*
X104442455Y-145492452D01*
X104442452Y-145492455D01*
X104356206Y-145607664D01*
X104356202Y-145607671D01*
X104305908Y-145742517D01*
X104299501Y-145802116D01*
X104299501Y-145802123D01*
X104299500Y-145802135D01*
X104299500Y-147447870D01*
X104299501Y-147447876D01*
X104305908Y-147507483D01*
X104356202Y-147642328D01*
X104356206Y-147642335D01*
X104442452Y-147757544D01*
X104442455Y-147757547D01*
X104534208Y-147826234D01*
X104576079Y-147882168D01*
X104581063Y-147951859D01*
X104547577Y-148013182D01*
X104486254Y-148046666D01*
X104459897Y-148049500D01*
X103752129Y-148049500D01*
X103752123Y-148049501D01*
X103692516Y-148055908D01*
X103557671Y-148106202D01*
X103557664Y-148106206D01*
X103442455Y-148192452D01*
X103442452Y-148192455D01*
X103356206Y-148307664D01*
X103356202Y-148307671D01*
X103305908Y-148442517D01*
X103299501Y-148502116D01*
X103299501Y-148502123D01*
X103299500Y-148502135D01*
X103299500Y-149897870D01*
X103299501Y-149897876D01*
X103305908Y-149957483D01*
X103356202Y-150092328D01*
X103356206Y-150092335D01*
X103442452Y-150207544D01*
X103442455Y-150207547D01*
X103557664Y-150293793D01*
X103557671Y-150293797D01*
X103692517Y-150344091D01*
X103692516Y-150344091D01*
X103699444Y-150344835D01*
X103752127Y-150350500D01*
X105412819Y-150350499D01*
X105479858Y-150370184D01*
X105512085Y-150400188D01*
X105592452Y-150507544D01*
X105592455Y-150507547D01*
X105707664Y-150593793D01*
X105707671Y-150593797D01*
X105842517Y-150644091D01*
X105842516Y-150644091D01*
X105849444Y-150644835D01*
X105902127Y-150650500D01*
X107797872Y-150650499D01*
X107857483Y-150644091D01*
X107992331Y-150593796D01*
X108107546Y-150507546D01*
X108193796Y-150392331D01*
X108244091Y-150257483D01*
X108250500Y-150197873D01*
X108250499Y-148462999D01*
X108253049Y-148454314D01*
X108251761Y-148445353D01*
X108262739Y-148421312D01*
X108270184Y-148395961D01*
X108277024Y-148390033D01*
X108280786Y-148381797D01*
X108303018Y-148367509D01*
X108322987Y-148350206D01*
X108333502Y-148347918D01*
X108339564Y-148344023D01*
X108374499Y-148339000D01*
X108425500Y-148339000D01*
X108492539Y-148358685D01*
X108538294Y-148411489D01*
X108549500Y-148463000D01*
X108549500Y-150197870D01*
X108549501Y-150197876D01*
X108555908Y-150257483D01*
X108606202Y-150392328D01*
X108606206Y-150392335D01*
X108692452Y-150507544D01*
X108692455Y-150507547D01*
X108807664Y-150593793D01*
X108807671Y-150593797D01*
X108942517Y-150644091D01*
X108942516Y-150644091D01*
X108949444Y-150644835D01*
X109002127Y-150650500D01*
X110097872Y-150650499D01*
X110157483Y-150644091D01*
X110292331Y-150593796D01*
X110407546Y-150507546D01*
X110487915Y-150400185D01*
X110543847Y-150358317D01*
X110587180Y-150350499D01*
X112247871Y-150350499D01*
X112247872Y-150350499D01*
X112307483Y-150344091D01*
X112442331Y-150293796D01*
X112557546Y-150207546D01*
X112643796Y-150092331D01*
X112694091Y-149957483D01*
X112700500Y-149897873D01*
X112700499Y-148502128D01*
X112694091Y-148442517D01*
X112682518Y-148411489D01*
X112643797Y-148307671D01*
X112643793Y-148307664D01*
X112557547Y-148192455D01*
X112557544Y-148192452D01*
X112442335Y-148106206D01*
X112442328Y-148106202D01*
X112307482Y-148055908D01*
X112307483Y-148055908D01*
X112247883Y-148049501D01*
X112247881Y-148049500D01*
X112247873Y-148049500D01*
X112247865Y-148049500D01*
X112202596Y-148049500D01*
X112135557Y-148029815D01*
X112089802Y-147977011D01*
X112079858Y-147907853D01*
X112108883Y-147844297D01*
X112114915Y-147837819D01*
X113334322Y-146618412D01*
X117754420Y-142198316D01*
X117833477Y-142061384D01*
X117874401Y-141908657D01*
X117874401Y-141750542D01*
X117874401Y-141742947D01*
X117874400Y-141742929D01*
X117874400Y-138398800D01*
X117894085Y-138331761D01*
X117946889Y-138286006D01*
X117998400Y-138274800D01*
X124759031Y-138274800D01*
X124759047Y-138274801D01*
X124766643Y-138274801D01*
X124924754Y-138274801D01*
X124924757Y-138274801D01*
X125077485Y-138233877D01*
X125156660Y-138188165D01*
X125214416Y-138154820D01*
X125326220Y-138043016D01*
X125326220Y-138043014D01*
X125336424Y-138032811D01*
X125336427Y-138032806D01*
X127432322Y-135936912D01*
X127440263Y-135932576D01*
X127445689Y-135925329D01*
X127470448Y-135916094D01*
X127493641Y-135903430D01*
X127502670Y-135904075D01*
X127511153Y-135900912D01*
X127536973Y-135906528D01*
X127563333Y-135908414D01*
X127572386Y-135914232D01*
X127579426Y-135915764D01*
X127607680Y-135936915D01*
X127656239Y-135985474D01*
X127656249Y-135985485D01*
X127660579Y-135989815D01*
X127660580Y-135989816D01*
X127772384Y-136101620D01*
X127858293Y-136151219D01*
X127909315Y-136180677D01*
X128062043Y-136221601D01*
X128062046Y-136221601D01*
X128227753Y-136221601D01*
X128227769Y-136221600D01*
X137443931Y-136221600D01*
X137443947Y-136221601D01*
X137451543Y-136221601D01*
X137609654Y-136221601D01*
X137609657Y-136221601D01*
X137762385Y-136180677D01*
X137813407Y-136151219D01*
X137899316Y-136101620D01*
X138011120Y-135989816D01*
X138011120Y-135989814D01*
X138021324Y-135979611D01*
X138021327Y-135979606D01*
X140456245Y-133544689D01*
X140517566Y-133511206D01*
X140587258Y-133516190D01*
X140643191Y-133558062D01*
X140666397Y-133612973D01*
X140682753Y-133716240D01*
X140682754Y-133716243D01*
X140744952Y-133907669D01*
X140748444Y-133918414D01*
X140844951Y-134107820D01*
X140969890Y-134279786D01*
X141120213Y-134430109D01*
X141292182Y-134555050D01*
X141300946Y-134559516D01*
X141351742Y-134607491D01*
X141368536Y-134675312D01*
X141345998Y-134741447D01*
X141300946Y-134780484D01*
X141292182Y-134784949D01*
X141120213Y-134909890D01*
X140969890Y-135060213D01*
X140844951Y-135232179D01*
X140748444Y-135421585D01*
X140682753Y-135623760D01*
X140656340Y-135790525D01*
X140649500Y-135833713D01*
X140649500Y-136046287D01*
X140658264Y-136101618D01*
X140671622Y-136185963D01*
X140682754Y-136256243D01*
X140734551Y-136415658D01*
X140748444Y-136458414D01*
X140844951Y-136647820D01*
X140969890Y-136819786D01*
X141120213Y-136970109D01*
X141292182Y-137095050D01*
X141300946Y-137099516D01*
X141351742Y-137147491D01*
X141368536Y-137215312D01*
X141345998Y-137281447D01*
X141300946Y-137320484D01*
X141292182Y-137324949D01*
X141120213Y-137449890D01*
X140969890Y-137600213D01*
X140844951Y-137772179D01*
X140748444Y-137961585D01*
X140682753Y-138163760D01*
X140649500Y-138373713D01*
X140649500Y-138586286D01*
X140682011Y-138791557D01*
X140682754Y-138796243D01*
X140724573Y-138924949D01*
X140748444Y-138998414D01*
X140844951Y-139187820D01*
X140969890Y-139359786D01*
X141120213Y-139510109D01*
X141292182Y-139635050D01*
X141300946Y-139639516D01*
X141351742Y-139687491D01*
X141368536Y-139755312D01*
X141345998Y-139821447D01*
X141300946Y-139860484D01*
X141292182Y-139864949D01*
X141120213Y-139989890D01*
X140969890Y-140140213D01*
X140844951Y-140312179D01*
X140748444Y-140501585D01*
X140682753Y-140703760D01*
X140649500Y-140913713D01*
X140649500Y-141126286D01*
X140682011Y-141331557D01*
X140682754Y-141336243D01*
X140724573Y-141464949D01*
X140748444Y-141538414D01*
X140844951Y-141727820D01*
X140969890Y-141899786D01*
X141120213Y-142050109D01*
X141292182Y-142175050D01*
X141300946Y-142179516D01*
X141351742Y-142227491D01*
X141368536Y-142295312D01*
X141345998Y-142361447D01*
X141300946Y-142400484D01*
X141292182Y-142404949D01*
X141120213Y-142529890D01*
X140969890Y-142680213D01*
X140844951Y-142852179D01*
X140748444Y-143041585D01*
X140682753Y-143243760D01*
X140660903Y-143381716D01*
X140649500Y-143453713D01*
X140649500Y-143666287D01*
X140659003Y-143726286D01*
X140682753Y-143876239D01*
X140682753Y-143876241D01*
X140682754Y-143876243D01*
X140724573Y-144004949D01*
X140748444Y-144078414D01*
X140844951Y-144267820D01*
X140969890Y-144439786D01*
X141120213Y-144590109D01*
X141292182Y-144715050D01*
X141300946Y-144719516D01*
X141351742Y-144767491D01*
X141368536Y-144835312D01*
X141345998Y-144901447D01*
X141300946Y-144940484D01*
X141292182Y-144944949D01*
X141120213Y-145069890D01*
X140969890Y-145220213D01*
X140844951Y-145392179D01*
X140748444Y-145581585D01*
X140682753Y-145783760D01*
X140649500Y-145993713D01*
X140649500Y-146206286D01*
X140682011Y-146411557D01*
X140682754Y-146416243D01*
X140737498Y-146584728D01*
X140748444Y-146618414D01*
X140844951Y-146807820D01*
X140969890Y-146979786D01*
X141120213Y-147130109D01*
X141292182Y-147255050D01*
X141300946Y-147259516D01*
X141351742Y-147307491D01*
X141368536Y-147375312D01*
X141345998Y-147441447D01*
X141300946Y-147480484D01*
X141292182Y-147484949D01*
X141120213Y-147609890D01*
X140969890Y-147760213D01*
X140844951Y-147932179D01*
X140748444Y-148121585D01*
X140682753Y-148323760D01*
X140654503Y-148502123D01*
X140649500Y-148533713D01*
X140649500Y-148746287D01*
X140659003Y-148806286D01*
X140682753Y-148956239D01*
X140682753Y-148956241D01*
X140682754Y-148956243D01*
X140702416Y-149016757D01*
X140748444Y-149158414D01*
X140844951Y-149347820D01*
X140969890Y-149519786D01*
X141120213Y-149670109D01*
X141292182Y-149795050D01*
X141300946Y-149799516D01*
X141351742Y-149847491D01*
X141368536Y-149915312D01*
X141345998Y-149981447D01*
X141300946Y-150020484D01*
X141292182Y-150024949D01*
X141120213Y-150149890D01*
X140969890Y-150300213D01*
X140844951Y-150472179D01*
X140748444Y-150661585D01*
X140682753Y-150863760D01*
X140673250Y-150923760D01*
X140649500Y-151073713D01*
X140649500Y-151286287D01*
X140682754Y-151496243D01*
X140702249Y-151556243D01*
X140748444Y-151698414D01*
X140844951Y-151887820D01*
X140969890Y-152059786D01*
X141120213Y-152210109D01*
X141292182Y-152335050D01*
X141300946Y-152339516D01*
X141351742Y-152387491D01*
X141368536Y-152455312D01*
X141345998Y-152521447D01*
X141300946Y-152560484D01*
X141292182Y-152564949D01*
X141120213Y-152689890D01*
X140969890Y-152840213D01*
X140844951Y-153012179D01*
X140748444Y-153201585D01*
X140682753Y-153403760D01*
X140671788Y-153472993D01*
X140649500Y-153613713D01*
X140649500Y-153826287D01*
X140682754Y-154036243D01*
X140714372Y-154133554D01*
X140748444Y-154238414D01*
X140844951Y-154427820D01*
X140969890Y-154599786D01*
X141120213Y-154750109D01*
X141292182Y-154875050D01*
X141300946Y-154879516D01*
X141351742Y-154927491D01*
X141368536Y-154995312D01*
X141345998Y-155061447D01*
X141300946Y-155100484D01*
X141292182Y-155104949D01*
X141120213Y-155229890D01*
X140969890Y-155380213D01*
X140844951Y-155552179D01*
X140748444Y-155741585D01*
X140682753Y-155943760D01*
X140649500Y-156153713D01*
X140649500Y-156366286D01*
X140682753Y-156576239D01*
X140748444Y-156778414D01*
X140844951Y-156967820D01*
X140969890Y-157139786D01*
X141120213Y-157290109D01*
X141292179Y-157415048D01*
X141292181Y-157415049D01*
X141292184Y-157415051D01*
X141481588Y-157511557D01*
X141683757Y-157577246D01*
X141893713Y-157610500D01*
X141893714Y-157610500D01*
X142106286Y-157610500D01*
X142106287Y-157610500D01*
X142316243Y-157577246D01*
X142518412Y-157511557D01*
X142707816Y-157415051D01*
X142729789Y-157399086D01*
X142879786Y-157290109D01*
X142879788Y-157290106D01*
X142879792Y-157290104D01*
X143030104Y-157139792D01*
X143030106Y-157139788D01*
X143030109Y-157139786D01*
X143155048Y-156967820D01*
X143155047Y-156967820D01*
X143155051Y-156967816D01*
X143159514Y-156959054D01*
X143207488Y-156908259D01*
X143275308Y-156891463D01*
X143341444Y-156913999D01*
X143380486Y-156959056D01*
X143384951Y-156967820D01*
X143509890Y-157139786D01*
X143660213Y-157290109D01*
X143832179Y-157415048D01*
X143832181Y-157415049D01*
X143832184Y-157415051D01*
X144021588Y-157511557D01*
X144223757Y-157577246D01*
X144433713Y-157610500D01*
X144433714Y-157610500D01*
X144646286Y-157610500D01*
X144646287Y-157610500D01*
X144856243Y-157577246D01*
X145058412Y-157511557D01*
X145247816Y-157415051D01*
X145269789Y-157399086D01*
X145419786Y-157290109D01*
X145419788Y-157290106D01*
X145419792Y-157290104D01*
X145570104Y-157139792D01*
X145570106Y-157139788D01*
X145570109Y-157139786D01*
X145695048Y-156967820D01*
X145695047Y-156967820D01*
X145695051Y-156967816D01*
X145791557Y-156778412D01*
X145857246Y-156576243D01*
X145890500Y-156366287D01*
X145890500Y-156153713D01*
X145857246Y-155943757D01*
X145791557Y-155741588D01*
X145695051Y-155552184D01*
X145695049Y-155552181D01*
X145695048Y-155552179D01*
X145570109Y-155380213D01*
X145419786Y-155229890D01*
X145247820Y-155104951D01*
X145247115Y-155104591D01*
X145239054Y-155100485D01*
X145188259Y-155052512D01*
X145171463Y-154984692D01*
X145193999Y-154918556D01*
X145223721Y-154888780D01*
X145231049Y-154883593D01*
X145247816Y-154875051D01*
X145419792Y-154750104D01*
X145570104Y-154599792D01*
X145570106Y-154599788D01*
X145570109Y-154599786D01*
X145695048Y-154427820D01*
X145695047Y-154427820D01*
X145695051Y-154427816D01*
X145791557Y-154238412D01*
X145857246Y-154036243D01*
X145890500Y-153826287D01*
X145890500Y-153613713D01*
X145857246Y-153403757D01*
X145791557Y-153201588D01*
X145695051Y-153012184D01*
X145695049Y-153012181D01*
X145695048Y-153012179D01*
X145570109Y-152840213D01*
X145419786Y-152689890D01*
X145247820Y-152564951D01*
X145247115Y-152564591D01*
X145239054Y-152560485D01*
X145188259Y-152512512D01*
X145171463Y-152444692D01*
X145193999Y-152378556D01*
X145239054Y-152339515D01*
X145247816Y-152335051D01*
X145337209Y-152270104D01*
X145419786Y-152210109D01*
X145419788Y-152210106D01*
X145419792Y-152210104D01*
X145570104Y-152059792D01*
X145570106Y-152059788D01*
X145570109Y-152059786D01*
X145695048Y-151887820D01*
X145695047Y-151887820D01*
X145695051Y-151887816D01*
X145791557Y-151698412D01*
X145857246Y-151496243D01*
X145890500Y-151286287D01*
X145890500Y-151073713D01*
X145857246Y-150863757D01*
X145791557Y-150661588D01*
X145695051Y-150472184D01*
X145695049Y-150472181D01*
X145695048Y-150472179D01*
X145570109Y-150300213D01*
X145419786Y-150149890D01*
X145247820Y-150024951D01*
X145247115Y-150024591D01*
X145239054Y-150020485D01*
X145188259Y-149972512D01*
X145171463Y-149904692D01*
X145193999Y-149838556D01*
X145239054Y-149799515D01*
X145247816Y-149795051D01*
X145337209Y-149730104D01*
X145419786Y-149670109D01*
X145419788Y-149670106D01*
X145419792Y-149670104D01*
X145570104Y-149519792D01*
X145570106Y-149519788D01*
X145570109Y-149519786D01*
X145695048Y-149347820D01*
X145695047Y-149347820D01*
X145695051Y-149347816D01*
X145791557Y-149158412D01*
X145857246Y-148956243D01*
X145890500Y-148746287D01*
X145890500Y-148533713D01*
X145857246Y-148323757D01*
X145791557Y-148121588D01*
X145695051Y-147932184D01*
X145695049Y-147932181D01*
X145695048Y-147932179D01*
X145570109Y-147760213D01*
X145419786Y-147609890D01*
X145247820Y-147484951D01*
X145247115Y-147484591D01*
X145239054Y-147480485D01*
X145188259Y-147432512D01*
X145171463Y-147364692D01*
X145193999Y-147298556D01*
X145239054Y-147259515D01*
X145247816Y-147255051D01*
X145348663Y-147181782D01*
X145419786Y-147130109D01*
X145419788Y-147130106D01*
X145419792Y-147130104D01*
X145570104Y-146979792D01*
X145570106Y-146979788D01*
X145570109Y-146979786D01*
X145695048Y-146807820D01*
X145695047Y-146807820D01*
X145695051Y-146807816D01*
X145791557Y-146618412D01*
X145857246Y-146416243D01*
X145890500Y-146206287D01*
X145890500Y-145993713D01*
X145857246Y-145783757D01*
X145791557Y-145581588D01*
X145695051Y-145392184D01*
X145695049Y-145392181D01*
X145695048Y-145392179D01*
X145570109Y-145220213D01*
X145419786Y-145069890D01*
X145247820Y-144944951D01*
X145247115Y-144944591D01*
X145239054Y-144940485D01*
X145188259Y-144892512D01*
X145171463Y-144824692D01*
X145193999Y-144758556D01*
X145239054Y-144719515D01*
X145247816Y-144715051D01*
X145302287Y-144675476D01*
X145419786Y-144590109D01*
X145419788Y-144590106D01*
X145419792Y-144590104D01*
X145570104Y-144439792D01*
X145570106Y-144439788D01*
X145570109Y-144439786D01*
X145695048Y-144267820D01*
X145695047Y-144267820D01*
X145695051Y-144267816D01*
X145791557Y-144078412D01*
X145857246Y-143876243D01*
X145890500Y-143666287D01*
X145890500Y-143453713D01*
X145857246Y-143243757D01*
X145791557Y-143041588D01*
X145695051Y-142852184D01*
X145695049Y-142852181D01*
X145695048Y-142852179D01*
X145570109Y-142680213D01*
X145419786Y-142529890D01*
X145247820Y-142404951D01*
X145247115Y-142404591D01*
X145239054Y-142400485D01*
X145188259Y-142352512D01*
X145171463Y-142284692D01*
X145193999Y-142218556D01*
X145239054Y-142179515D01*
X145247816Y-142175051D01*
X145348934Y-142101585D01*
X145419786Y-142050109D01*
X145419788Y-142050106D01*
X145419792Y-142050104D01*
X145570104Y-141899792D01*
X145570106Y-141899788D01*
X145570109Y-141899786D01*
X145695048Y-141727820D01*
X145695047Y-141727820D01*
X145695051Y-141727816D01*
X145791557Y-141538412D01*
X145857246Y-141336243D01*
X145890500Y-141126287D01*
X145890500Y-140913713D01*
X145857246Y-140703757D01*
X145791557Y-140501588D01*
X145695051Y-140312184D01*
X145695049Y-140312181D01*
X145695048Y-140312179D01*
X145570109Y-140140213D01*
X145419786Y-139989890D01*
X145247820Y-139864951D01*
X145247115Y-139864591D01*
X145239054Y-139860485D01*
X145188259Y-139812512D01*
X145171463Y-139744692D01*
X145193999Y-139678556D01*
X145239054Y-139639515D01*
X145247816Y-139635051D01*
X145348934Y-139561585D01*
X145419786Y-139510109D01*
X145419788Y-139510106D01*
X145419792Y-139510104D01*
X145570104Y-139359792D01*
X145570106Y-139359788D01*
X145570109Y-139359786D01*
X145695048Y-139187820D01*
X145695047Y-139187820D01*
X145695051Y-139187816D01*
X145791557Y-138998412D01*
X145857246Y-138796243D01*
X145890500Y-138586287D01*
X145890500Y-138373713D01*
X145857246Y-138163757D01*
X145791557Y-137961588D01*
X145695051Y-137772184D01*
X145695049Y-137772181D01*
X145695048Y-137772179D01*
X145570109Y-137600213D01*
X145419786Y-137449890D01*
X145247820Y-137324951D01*
X145246744Y-137324403D01*
X145239054Y-137320485D01*
X145188259Y-137272512D01*
X145171463Y-137204692D01*
X145193999Y-137138556D01*
X145239054Y-137099515D01*
X145247816Y-137095051D01*
X145313577Y-137047273D01*
X145419786Y-136970109D01*
X145419788Y-136970106D01*
X145419792Y-136970104D01*
X145570104Y-136819792D01*
X145570106Y-136819788D01*
X145570109Y-136819786D01*
X145695048Y-136647820D01*
X145695047Y-136647820D01*
X145695051Y-136647816D01*
X145791557Y-136458412D01*
X145857246Y-136256243D01*
X145890500Y-136046287D01*
X145890500Y-135833713D01*
X145857246Y-135623757D01*
X145791557Y-135421588D01*
X145763077Y-135365694D01*
X145762569Y-135362989D01*
X145760769Y-135360911D01*
X145756160Y-135328861D01*
X145750182Y-135297026D01*
X145751216Y-135294476D01*
X145750825Y-135291753D01*
X145764280Y-135262289D01*
X145776458Y-135232286D01*
X145778706Y-135230700D01*
X145779850Y-135228197D01*
X145807094Y-135210687D01*
X145833564Y-135192028D01*
X145837022Y-135191454D01*
X145838628Y-135190423D01*
X145873563Y-135185400D01*
X146112303Y-135185400D01*
X146179342Y-135205085D01*
X146199984Y-135221719D01*
X152692639Y-141714374D01*
X152692649Y-141714385D01*
X152696979Y-141718715D01*
X152696980Y-141718716D01*
X152808784Y-141830520D01*
X152895595Y-141880639D01*
X152895597Y-141880641D01*
X152933651Y-141902611D01*
X152945715Y-141909577D01*
X153098443Y-141950500D01*
X173627388Y-141950500D01*
X173694427Y-141970185D01*
X173740182Y-142022989D01*
X173750126Y-142092147D01*
X173745319Y-142112818D01*
X173683242Y-142303869D01*
X173683242Y-142303872D01*
X173650000Y-142513753D01*
X173650000Y-142726246D01*
X173683242Y-142936127D01*
X173683242Y-142936130D01*
X173748904Y-143138217D01*
X173845375Y-143327550D01*
X173884728Y-143381716D01*
X174517036Y-142749407D01*
X174534075Y-142812993D01*
X174599901Y-142927007D01*
X174692993Y-143020099D01*
X174807007Y-143085925D01*
X174870590Y-143102962D01*
X174238282Y-143735269D01*
X174238282Y-143735270D01*
X174292449Y-143774624D01*
X174481782Y-143871095D01*
X174683870Y-143936757D01*
X174893754Y-143970000D01*
X175106246Y-143970000D01*
X175316127Y-143936757D01*
X175316130Y-143936757D01*
X175518217Y-143871095D01*
X175707554Y-143774622D01*
X175761716Y-143735270D01*
X175761717Y-143735270D01*
X175129408Y-143102962D01*
X175192993Y-143085925D01*
X175307007Y-143020099D01*
X175400099Y-142927007D01*
X175465925Y-142812993D01*
X175482962Y-142749409D01*
X176115270Y-143381717D01*
X176115270Y-143381716D01*
X176154622Y-143327554D01*
X176251095Y-143138217D01*
X176316757Y-142936130D01*
X176316757Y-142936127D01*
X176350000Y-142726246D01*
X176350000Y-142513753D01*
X176316757Y-142303872D01*
X176316757Y-142303869D01*
X176254681Y-142112818D01*
X176252686Y-142042977D01*
X176288766Y-141983144D01*
X176351467Y-141952316D01*
X176372612Y-141950500D01*
X180889903Y-141950500D01*
X180956942Y-141970185D01*
X180977584Y-141986819D01*
X183666241Y-144675476D01*
X183699726Y-144736799D01*
X183696492Y-144801473D01*
X183682753Y-144843757D01*
X183657223Y-145004951D01*
X183649500Y-145053713D01*
X183649500Y-145266287D01*
X183651199Y-145277011D01*
X183678942Y-145452179D01*
X183682754Y-145476243D01*
X183725455Y-145607664D01*
X183748444Y-145678414D01*
X183844951Y-145867820D01*
X183969890Y-146039786D01*
X184120213Y-146190109D01*
X184292179Y-146315048D01*
X184292181Y-146315049D01*
X184292184Y-146315051D01*
X184301493Y-146319794D01*
X184352290Y-146367766D01*
X184369087Y-146435587D01*
X184346552Y-146501722D01*
X184301505Y-146540760D01*
X184292446Y-146545376D01*
X184292440Y-146545380D01*
X184238282Y-146584727D01*
X184238282Y-146584728D01*
X184870591Y-147217037D01*
X184807007Y-147234075D01*
X184692993Y-147299901D01*
X184599901Y-147392993D01*
X184534075Y-147507007D01*
X184517037Y-147570590D01*
X183884728Y-146938282D01*
X183884727Y-146938282D01*
X183845380Y-146992439D01*
X183748904Y-147181782D01*
X183683242Y-147383869D01*
X183683242Y-147383872D01*
X183650000Y-147593753D01*
X183650000Y-147806246D01*
X183683242Y-148016127D01*
X183683242Y-148016130D01*
X183748904Y-148218217D01*
X183845375Y-148407550D01*
X183884728Y-148461716D01*
X184517037Y-147829408D01*
X184534075Y-147892993D01*
X184599901Y-148007007D01*
X184692993Y-148100099D01*
X184807007Y-148165925D01*
X184870590Y-148182962D01*
X184238282Y-148815269D01*
X184238282Y-148815270D01*
X184292449Y-148854624D01*
X184481782Y-148951095D01*
X184683870Y-149016757D01*
X184893754Y-149050000D01*
X185106246Y-149050000D01*
X185316127Y-149016757D01*
X185316130Y-149016757D01*
X185518217Y-148951095D01*
X185707554Y-148854622D01*
X185761716Y-148815270D01*
X185761717Y-148815270D01*
X185129408Y-148182962D01*
X185192993Y-148165925D01*
X185307007Y-148100099D01*
X185400099Y-148007007D01*
X185465925Y-147892993D01*
X185482962Y-147829408D01*
X186115270Y-148461717D01*
X186115270Y-148461716D01*
X186154622Y-148407554D01*
X186251095Y-148218217D01*
X186316757Y-148016130D01*
X186316757Y-148016127D01*
X186350000Y-147806246D01*
X186350000Y-147593753D01*
X186316757Y-147383872D01*
X186316757Y-147383869D01*
X186251095Y-147181782D01*
X186154624Y-146992449D01*
X186115270Y-146938282D01*
X186115269Y-146938282D01*
X185482962Y-147570590D01*
X185465925Y-147507007D01*
X185400099Y-147392993D01*
X185307007Y-147299901D01*
X185192993Y-147234075D01*
X185129409Y-147217037D01*
X185761716Y-146584728D01*
X185707547Y-146545373D01*
X185707547Y-146545372D01*
X185698500Y-146540763D01*
X185647706Y-146492788D01*
X185630912Y-146424966D01*
X185653451Y-146358832D01*
X185698508Y-146319793D01*
X185707816Y-146315051D01*
X185791291Y-146254403D01*
X185879786Y-146190109D01*
X185879788Y-146190106D01*
X185879792Y-146190104D01*
X186030104Y-146039792D01*
X186030106Y-146039788D01*
X186030109Y-146039786D01*
X186155048Y-145867820D01*
X186155047Y-145867820D01*
X186155051Y-145867816D01*
X186251557Y-145678412D01*
X186317246Y-145476243D01*
X186350500Y-145266287D01*
X186350500Y-145053713D01*
X186317246Y-144843757D01*
X186251557Y-144641588D01*
X186155051Y-144452184D01*
X186155049Y-144452181D01*
X186155048Y-144452179D01*
X186030109Y-144280213D01*
X185879786Y-144129890D01*
X185707820Y-144004951D01*
X185707115Y-144004591D01*
X185699054Y-144000485D01*
X185648259Y-143952512D01*
X185631463Y-143884692D01*
X185653999Y-143818556D01*
X185699054Y-143779515D01*
X185707816Y-143775051D01*
X185762572Y-143735269D01*
X185879786Y-143650109D01*
X185879788Y-143650106D01*
X185879792Y-143650104D01*
X186030104Y-143499792D01*
X186030106Y-143499788D01*
X186030109Y-143499786D01*
X186155048Y-143327820D01*
X186155047Y-143327820D01*
X186155051Y-143327816D01*
X186251557Y-143138412D01*
X186317246Y-142936243D01*
X186350500Y-142726287D01*
X186350500Y-142513713D01*
X186317246Y-142303757D01*
X186251557Y-142101588D01*
X186155051Y-141912184D01*
X186155049Y-141912181D01*
X186155048Y-141912179D01*
X186030109Y-141740213D01*
X185879786Y-141589890D01*
X185707820Y-141464951D01*
X185707115Y-141464591D01*
X185699054Y-141460485D01*
X185648259Y-141412512D01*
X185631463Y-141344692D01*
X185653999Y-141278556D01*
X185699054Y-141239515D01*
X185707816Y-141235051D01*
X185729789Y-141219086D01*
X185879786Y-141110109D01*
X185879788Y-141110106D01*
X185879792Y-141110104D01*
X186030104Y-140959792D01*
X186030106Y-140959788D01*
X186030109Y-140959786D01*
X186155048Y-140787820D01*
X186155047Y-140787820D01*
X186155051Y-140787816D01*
X186251557Y-140598412D01*
X186317246Y-140396243D01*
X186350500Y-140186287D01*
X186350500Y-139973713D01*
X186317246Y-139763757D01*
X186251557Y-139561588D01*
X186155051Y-139372184D01*
X186155049Y-139372181D01*
X186155048Y-139372179D01*
X186030109Y-139200213D01*
X185879786Y-139049890D01*
X185707820Y-138924951D01*
X185707115Y-138924591D01*
X185699054Y-138920485D01*
X185648259Y-138872512D01*
X185631463Y-138804692D01*
X185653999Y-138738556D01*
X185699054Y-138699515D01*
X185707816Y-138695051D01*
X185729789Y-138679086D01*
X185879786Y-138570109D01*
X185879788Y-138570106D01*
X185879792Y-138570104D01*
X186030104Y-138419792D01*
X186030106Y-138419788D01*
X186030109Y-138419786D01*
X186155048Y-138247820D01*
X186155047Y-138247820D01*
X186155051Y-138247816D01*
X186251557Y-138058412D01*
X186317246Y-137856243D01*
X186350500Y-137646287D01*
X186350500Y-137433713D01*
X186317246Y-137223757D01*
X186251557Y-137021588D01*
X186155051Y-136832184D01*
X186155049Y-136832181D01*
X186155048Y-136832179D01*
X186030109Y-136660213D01*
X185916569Y-136546673D01*
X185883084Y-136485350D01*
X185888068Y-136415658D01*
X185929940Y-136359725D01*
X185960915Y-136342810D01*
X186092331Y-136293796D01*
X186207546Y-136207546D01*
X186293796Y-136092331D01*
X186344091Y-135957483D01*
X186350500Y-135897873D01*
X186350500Y-135724500D01*
X186370185Y-135657461D01*
X186422989Y-135611706D01*
X186474500Y-135600500D01*
X189548203Y-135600500D01*
X189615242Y-135620185D01*
X189635883Y-135636818D01*
X190479584Y-136480520D01*
X190479586Y-136480521D01*
X190479590Y-136480524D01*
X190587499Y-136542825D01*
X190635715Y-136593391D01*
X190649500Y-136650212D01*
X190649500Y-136897869D01*
X190649501Y-136897876D01*
X190655908Y-136957483D01*
X190706202Y-137092328D01*
X190706206Y-137092335D01*
X190792452Y-137207544D01*
X190792455Y-137207547D01*
X190907664Y-137293793D01*
X190907671Y-137293797D01*
X191039082Y-137342810D01*
X191095016Y-137384681D01*
X191119433Y-137450145D01*
X191104582Y-137518418D01*
X191083431Y-137546673D01*
X190969889Y-137660215D01*
X190844951Y-137832179D01*
X190748444Y-138021585D01*
X190682753Y-138223760D01*
X190649500Y-138433713D01*
X190649500Y-138646286D01*
X190672508Y-138791557D01*
X190682754Y-138856243D01*
X190728948Y-138998414D01*
X190748444Y-139058414D01*
X190844951Y-139247820D01*
X190969890Y-139419786D01*
X191120213Y-139570109D01*
X191292182Y-139695050D01*
X191300946Y-139699516D01*
X191351742Y-139747491D01*
X191368536Y-139815312D01*
X191345998Y-139881447D01*
X191300946Y-139920484D01*
X191292182Y-139924949D01*
X191120213Y-140049890D01*
X190969890Y-140200213D01*
X190844951Y-140372179D01*
X190748444Y-140561585D01*
X190682753Y-140763760D01*
X190649500Y-140973713D01*
X190649500Y-141186286D01*
X190672508Y-141331557D01*
X190682754Y-141396243D01*
X190742741Y-141580864D01*
X190748444Y-141598414D01*
X190844951Y-141787820D01*
X190969890Y-141959786D01*
X191120213Y-142110109D01*
X191292182Y-142235050D01*
X191300946Y-142239516D01*
X191351742Y-142287491D01*
X191368536Y-142355312D01*
X191345998Y-142421447D01*
X191300946Y-142460484D01*
X191292182Y-142464949D01*
X191120213Y-142589890D01*
X190969890Y-142740213D01*
X190844951Y-142912179D01*
X190748444Y-143101585D01*
X190682753Y-143303760D01*
X190649500Y-143513713D01*
X190649500Y-143726286D01*
X190672508Y-143871557D01*
X190682754Y-143936243D01*
X190728948Y-144078414D01*
X190748444Y-144138414D01*
X190844951Y-144327820D01*
X190969890Y-144499786D01*
X191120213Y-144650109D01*
X191292182Y-144775050D01*
X191300946Y-144779516D01*
X191351742Y-144827491D01*
X191368536Y-144895312D01*
X191345998Y-144961447D01*
X191300946Y-145000484D01*
X191292182Y-145004949D01*
X191120213Y-145129890D01*
X190969890Y-145280213D01*
X190844951Y-145452179D01*
X190748444Y-145641585D01*
X190682753Y-145843760D01*
X190649500Y-146053713D01*
X190649500Y-146266286D01*
X190676314Y-146435587D01*
X190682754Y-146476243D01*
X190728948Y-146618414D01*
X190748444Y-146678414D01*
X190844951Y-146867820D01*
X190969890Y-147039786D01*
X191120213Y-147190109D01*
X191292182Y-147315050D01*
X191300946Y-147319516D01*
X191351742Y-147367491D01*
X191368536Y-147435312D01*
X191345998Y-147501447D01*
X191300946Y-147540484D01*
X191292182Y-147544949D01*
X191120213Y-147669890D01*
X190969890Y-147820213D01*
X190844951Y-147992179D01*
X190748444Y-148181585D01*
X190682753Y-148383760D01*
X190659003Y-148533713D01*
X190649500Y-148593713D01*
X190649500Y-148806287D01*
X190682754Y-149016243D01*
X190728948Y-149158414D01*
X190748444Y-149218414D01*
X190844951Y-149407820D01*
X190969890Y-149579786D01*
X191120213Y-149730109D01*
X191292182Y-149855050D01*
X191300946Y-149859516D01*
X191351742Y-149907491D01*
X191368536Y-149975312D01*
X191345998Y-150041447D01*
X191300946Y-150080484D01*
X191292182Y-150084949D01*
X191120213Y-150209890D01*
X190969890Y-150360213D01*
X190844951Y-150532179D01*
X190748444Y-150721585D01*
X190682753Y-150923760D01*
X190659003Y-151073713D01*
X190649500Y-151133713D01*
X190649500Y-151346287D01*
X190682754Y-151556243D01*
X190728948Y-151698414D01*
X190748444Y-151758414D01*
X190844951Y-151947820D01*
X190969890Y-152119786D01*
X191120213Y-152270109D01*
X191292179Y-152395048D01*
X191292181Y-152395049D01*
X191292184Y-152395051D01*
X191301493Y-152399794D01*
X191352290Y-152447766D01*
X191369087Y-152515587D01*
X191346552Y-152581722D01*
X191301505Y-152620760D01*
X191292446Y-152625376D01*
X191292440Y-152625380D01*
X191238282Y-152664727D01*
X191238282Y-152664728D01*
X191870591Y-153297037D01*
X191807007Y-153314075D01*
X191692993Y-153379901D01*
X191599901Y-153472993D01*
X191534075Y-153587007D01*
X191517037Y-153650591D01*
X190884728Y-153018282D01*
X190884727Y-153018282D01*
X190845380Y-153072439D01*
X190748904Y-153261782D01*
X190683242Y-153463869D01*
X190683242Y-153463872D01*
X190650000Y-153673753D01*
X190650000Y-153886246D01*
X190683242Y-154096127D01*
X190683242Y-154096130D01*
X190748904Y-154298217D01*
X190845375Y-154487550D01*
X190884728Y-154541716D01*
X191517037Y-153909408D01*
X191534075Y-153972993D01*
X191599901Y-154087007D01*
X191692993Y-154180099D01*
X191807007Y-154245925D01*
X191870590Y-154262962D01*
X191238282Y-154895269D01*
X191238282Y-154895270D01*
X191292449Y-154934624D01*
X191481782Y-155031095D01*
X191683870Y-155096757D01*
X191893754Y-155130000D01*
X192106246Y-155130000D01*
X192316127Y-155096757D01*
X192316130Y-155096757D01*
X192518217Y-155031095D01*
X192707554Y-154934622D01*
X192761716Y-154895270D01*
X192761717Y-154895270D01*
X192129408Y-154262962D01*
X192192993Y-154245925D01*
X192307007Y-154180099D01*
X192400099Y-154087007D01*
X192465925Y-153972993D01*
X192482962Y-153909408D01*
X193115270Y-154541717D01*
X193115270Y-154541716D01*
X193154622Y-154487554D01*
X193251095Y-154298217D01*
X193316757Y-154096130D01*
X193316757Y-154096127D01*
X193350000Y-153886246D01*
X193350000Y-153673753D01*
X193316757Y-153463872D01*
X193316757Y-153463869D01*
X193251095Y-153261782D01*
X193154624Y-153072449D01*
X193115270Y-153018282D01*
X193115269Y-153018282D01*
X192482962Y-153650590D01*
X192465925Y-153587007D01*
X192400099Y-153472993D01*
X192307007Y-153379901D01*
X192192993Y-153314075D01*
X192129409Y-153297037D01*
X192761716Y-152664728D01*
X192707547Y-152625373D01*
X192707547Y-152625372D01*
X192698500Y-152620763D01*
X192647706Y-152572788D01*
X192630912Y-152504966D01*
X192653451Y-152438832D01*
X192698508Y-152399793D01*
X192707816Y-152395051D01*
X192787007Y-152337515D01*
X192879786Y-152270109D01*
X192879788Y-152270106D01*
X192879792Y-152270104D01*
X193030104Y-152119792D01*
X193030106Y-152119788D01*
X193030109Y-152119786D01*
X193155048Y-151947820D01*
X193155047Y-151947820D01*
X193155051Y-151947816D01*
X193251557Y-151758412D01*
X193317246Y-151556243D01*
X193350500Y-151346287D01*
X193350500Y-151133713D01*
X193317246Y-150923757D01*
X193251557Y-150721588D01*
X193155051Y-150532184D01*
X193155049Y-150532181D01*
X193155048Y-150532179D01*
X193030109Y-150360213D01*
X192879786Y-150209890D01*
X192707820Y-150084951D01*
X192707115Y-150084591D01*
X192699054Y-150080485D01*
X192648259Y-150032512D01*
X192631463Y-149964692D01*
X192653999Y-149898556D01*
X192699054Y-149859515D01*
X192707816Y-149855051D01*
X192784257Y-149799514D01*
X192879786Y-149730109D01*
X192879788Y-149730106D01*
X192879792Y-149730104D01*
X193030104Y-149579792D01*
X193030106Y-149579788D01*
X193030109Y-149579786D01*
X193155048Y-149407820D01*
X193155047Y-149407820D01*
X193155051Y-149407816D01*
X193251557Y-149218412D01*
X193317246Y-149016243D01*
X193350500Y-148806287D01*
X193350500Y-148593713D01*
X193317246Y-148383757D01*
X193251557Y-148181588D01*
X193155051Y-147992184D01*
X193155049Y-147992181D01*
X193155048Y-147992179D01*
X193030109Y-147820213D01*
X192879786Y-147669890D01*
X192707820Y-147544951D01*
X192707115Y-147544591D01*
X192699054Y-147540485D01*
X192648259Y-147492512D01*
X192631463Y-147424692D01*
X192653999Y-147358556D01*
X192699054Y-147319515D01*
X192707816Y-147315051D01*
X192784257Y-147259514D01*
X192879786Y-147190109D01*
X192879788Y-147190106D01*
X192879792Y-147190104D01*
X193030104Y-147039792D01*
X193030106Y-147039788D01*
X193030109Y-147039786D01*
X193155048Y-146867820D01*
X193155047Y-146867820D01*
X193155051Y-146867816D01*
X193251557Y-146678412D01*
X193317246Y-146476243D01*
X193350500Y-146266287D01*
X193350500Y-146053713D01*
X193317246Y-145843757D01*
X193251557Y-145641588D01*
X193155051Y-145452184D01*
X193155049Y-145452181D01*
X193155048Y-145452179D01*
X193030109Y-145280213D01*
X192879786Y-145129890D01*
X192707820Y-145004951D01*
X192707115Y-145004591D01*
X192699054Y-145000485D01*
X192648259Y-144952512D01*
X192631463Y-144884692D01*
X192653999Y-144818556D01*
X192699054Y-144779515D01*
X192707816Y-144775051D01*
X192784257Y-144719514D01*
X192879786Y-144650109D01*
X192879788Y-144650106D01*
X192879792Y-144650104D01*
X193030104Y-144499792D01*
X193030106Y-144499788D01*
X193030109Y-144499786D01*
X193155048Y-144327820D01*
X193155047Y-144327820D01*
X193155051Y-144327816D01*
X193251557Y-144138412D01*
X193317246Y-143936243D01*
X193350500Y-143726287D01*
X193350500Y-143513713D01*
X193317246Y-143303757D01*
X193251557Y-143101588D01*
X193155051Y-142912184D01*
X193155049Y-142912181D01*
X193155048Y-142912179D01*
X193030109Y-142740213D01*
X192879786Y-142589890D01*
X192707820Y-142464951D01*
X192707115Y-142464591D01*
X192699054Y-142460485D01*
X192648259Y-142412512D01*
X192631463Y-142344692D01*
X192653999Y-142278556D01*
X192699054Y-142239515D01*
X192707816Y-142235051D01*
X192730520Y-142218556D01*
X192879786Y-142110109D01*
X192879788Y-142110106D01*
X192879792Y-142110104D01*
X193030104Y-141959792D01*
X193030106Y-141959788D01*
X193030109Y-141959786D01*
X193155048Y-141787820D01*
X193155047Y-141787820D01*
X193155051Y-141787816D01*
X193251557Y-141598412D01*
X193317246Y-141396243D01*
X193350500Y-141186287D01*
X193350500Y-140973713D01*
X193317246Y-140763757D01*
X193251557Y-140561588D01*
X193155051Y-140372184D01*
X193155049Y-140372181D01*
X193155048Y-140372179D01*
X193030109Y-140200213D01*
X192879786Y-140049890D01*
X192707820Y-139924951D01*
X192707115Y-139924591D01*
X192699054Y-139920485D01*
X192648259Y-139872512D01*
X192631463Y-139804692D01*
X192653999Y-139738556D01*
X192699054Y-139699515D01*
X192707816Y-139695051D01*
X192784257Y-139639514D01*
X192879786Y-139570109D01*
X192879788Y-139570106D01*
X192879792Y-139570104D01*
X193030104Y-139419792D01*
X193030106Y-139419788D01*
X193030109Y-139419786D01*
X193155048Y-139247820D01*
X193155047Y-139247820D01*
X193155051Y-139247816D01*
X193251557Y-139058412D01*
X193317246Y-138856243D01*
X193350500Y-138646287D01*
X193350500Y-138433713D01*
X193317246Y-138223757D01*
X193251557Y-138021588D01*
X193155051Y-137832184D01*
X193155049Y-137832181D01*
X193155048Y-137832179D01*
X193030109Y-137660213D01*
X192916569Y-137546673D01*
X192883084Y-137485350D01*
X192888068Y-137415658D01*
X192929940Y-137359725D01*
X192960915Y-137342810D01*
X193092331Y-137293796D01*
X193207546Y-137207546D01*
X193293796Y-137092331D01*
X193344091Y-136957483D01*
X193350500Y-136897873D01*
X193350499Y-135102128D01*
X193344091Y-135042517D01*
X193339950Y-135031415D01*
X193293797Y-134907671D01*
X193293793Y-134907664D01*
X193207547Y-134792455D01*
X193207544Y-134792452D01*
X193092335Y-134706206D01*
X193092328Y-134706202D01*
X192957482Y-134655908D01*
X192957483Y-134655908D01*
X192897883Y-134649501D01*
X192897881Y-134649500D01*
X192897873Y-134649500D01*
X192897864Y-134649500D01*
X191102129Y-134649500D01*
X191102123Y-134649501D01*
X191042516Y-134655908D01*
X190907671Y-134706202D01*
X190907664Y-134706206D01*
X190792455Y-134792452D01*
X190748722Y-134850871D01*
X190692787Y-134892742D01*
X190623095Y-134897725D01*
X190561775Y-134864240D01*
X190335890Y-134638355D01*
X190335888Y-134638352D01*
X190217017Y-134519481D01*
X190217016Y-134519480D01*
X190120983Y-134464036D01*
X190120982Y-134464035D01*
X190080083Y-134440422D01*
X190024181Y-134425443D01*
X189927357Y-134399499D01*
X189769243Y-134399499D01*
X189761647Y-134399499D01*
X189761631Y-134399500D01*
X186474499Y-134399500D01*
X186407460Y-134379815D01*
X186361705Y-134327011D01*
X186350499Y-134275500D01*
X186350499Y-134102129D01*
X186350498Y-134102123D01*
X186350497Y-134102116D01*
X186344091Y-134042517D01*
X186330277Y-134005481D01*
X186293797Y-133907671D01*
X186293793Y-133907664D01*
X186207547Y-133792455D01*
X186207544Y-133792452D01*
X186092335Y-133706206D01*
X186092328Y-133706202D01*
X185957482Y-133655908D01*
X185957483Y-133655908D01*
X185897883Y-133649501D01*
X185897881Y-133649500D01*
X185897873Y-133649500D01*
X185897864Y-133649500D01*
X184102129Y-133649500D01*
X184102123Y-133649501D01*
X184042516Y-133655908D01*
X183907671Y-133706202D01*
X183907664Y-133706206D01*
X183792455Y-133792452D01*
X183748722Y-133850871D01*
X183692787Y-133892742D01*
X183623095Y-133897725D01*
X183561775Y-133864240D01*
X180524090Y-130826555D01*
X180524088Y-130826552D01*
X180405217Y-130707681D01*
X180405216Y-130707680D01*
X180318404Y-130657560D01*
X180318404Y-130657559D01*
X180318400Y-130657558D01*
X180268285Y-130628623D01*
X180115557Y-130587699D01*
X179957443Y-130587699D01*
X179949847Y-130587699D01*
X179949831Y-130587700D01*
X177363066Y-130587700D01*
X177296027Y-130568015D01*
X177294175Y-130566802D01*
X177162485Y-130478809D01*
X177162472Y-130478802D01*
X177016801Y-130418464D01*
X177016789Y-130418461D01*
X176862145Y-130387700D01*
X176862142Y-130387700D01*
X176704458Y-130387700D01*
X176704455Y-130387700D01*
X176549810Y-130418461D01*
X176549798Y-130418464D01*
X176404127Y-130478802D01*
X176404114Y-130478809D01*
X176272425Y-130566802D01*
X176205747Y-130587680D01*
X176203534Y-130587700D01*
X174771632Y-130587700D01*
X174704593Y-130568015D01*
X174658838Y-130515211D01*
X174651305Y-130487370D01*
X174649989Y-130487632D01*
X174620938Y-130341588D01*
X174618037Y-130327003D01*
X174569650Y-130210185D01*
X174557697Y-130181327D01*
X174557690Y-130181314D01*
X174469698Y-130049625D01*
X174448820Y-129982947D01*
X174448800Y-129980734D01*
X174448800Y-129509541D01*
X174448797Y-129509524D01*
X174448630Y-129508911D01*
X174433959Y-129454156D01*
X174407877Y-129356816D01*
X174361369Y-129276261D01*
X174328824Y-129219890D01*
X174328821Y-129219886D01*
X174328820Y-129219884D01*
X174217016Y-129108080D01*
X174217015Y-129108079D01*
X174212685Y-129103749D01*
X174212674Y-129103739D01*
X161637290Y-116528355D01*
X161637288Y-116528352D01*
X161518417Y-116409481D01*
X161518416Y-116409480D01*
X161431604Y-116359360D01*
X161431604Y-116359359D01*
X161431600Y-116359358D01*
X161381485Y-116330423D01*
X161228757Y-116289499D01*
X161070643Y-116289499D01*
X161063047Y-116289499D01*
X161063031Y-116289500D01*
X145913137Y-116289500D01*
X145846098Y-116269815D01*
X145800343Y-116217011D01*
X145790399Y-116147853D01*
X145795206Y-116127182D01*
X145802733Y-116104015D01*
X145857246Y-115936243D01*
X145890500Y-115726287D01*
X145890500Y-115513713D01*
X145857246Y-115303757D01*
X145791557Y-115101588D01*
X145695051Y-114912184D01*
X145695049Y-114912181D01*
X145695048Y-114912179D01*
X145570109Y-114740213D01*
X145419786Y-114589890D01*
X145247820Y-114464951D01*
X145247115Y-114464591D01*
X145239054Y-114460485D01*
X145188259Y-114412512D01*
X145171463Y-114344692D01*
X145193999Y-114278556D01*
X145239054Y-114239515D01*
X145247816Y-114235051D01*
X145269789Y-114219086D01*
X145419786Y-114110109D01*
X145419788Y-114110106D01*
X145419792Y-114110104D01*
X145570104Y-113959792D01*
X145570106Y-113959788D01*
X145570109Y-113959786D01*
X145695048Y-113787820D01*
X145695047Y-113787820D01*
X145695051Y-113787816D01*
X145791557Y-113598412D01*
X145857246Y-113396243D01*
X145890500Y-113186287D01*
X145890500Y-112973713D01*
X145857246Y-112763757D01*
X145795206Y-112572818D01*
X145793211Y-112502977D01*
X145829291Y-112443144D01*
X145891992Y-112412316D01*
X145913137Y-112410500D01*
X160623331Y-112410500D01*
X160623347Y-112410501D01*
X160630943Y-112410501D01*
X160789054Y-112410501D01*
X160789057Y-112410501D01*
X160941785Y-112369577D01*
X160991904Y-112340639D01*
X161078716Y-112290520D01*
X161190520Y-112178716D01*
X161190520Y-112178714D01*
X161200728Y-112168507D01*
X161200730Y-112168504D01*
X167432318Y-105936916D01*
X167493641Y-105903431D01*
X167563333Y-105908415D01*
X167607680Y-105936916D01*
X167818084Y-106147320D01*
X167818086Y-106147321D01*
X167818090Y-106147324D01*
X167955009Y-106226373D01*
X167955016Y-106226377D01*
X168107743Y-106267301D01*
X168107745Y-106267301D01*
X168273454Y-106267301D01*
X168273470Y-106267300D01*
X174802234Y-106267300D01*
X174869273Y-106286985D01*
X174871125Y-106288198D01*
X175002814Y-106376190D01*
X175002827Y-106376197D01*
X175148498Y-106436535D01*
X175148503Y-106436537D01*
X175303153Y-106467299D01*
X175303156Y-106467300D01*
X175303158Y-106467300D01*
X175460844Y-106467300D01*
X175460845Y-106467299D01*
X175615497Y-106436537D01*
X175761179Y-106376194D01*
X175892289Y-106288589D01*
X176003789Y-106177089D01*
X176091394Y-106045979D01*
X176151737Y-105900297D01*
X176182500Y-105745642D01*
X176182500Y-105587958D01*
X176182500Y-105587955D01*
X176171583Y-105533073D01*
X176171583Y-105533072D01*
X176151738Y-105433310D01*
X176151737Y-105433303D01*
X176149129Y-105427007D01*
X176091397Y-105287627D01*
X176091390Y-105287614D01*
X176003789Y-105156511D01*
X176003786Y-105156507D01*
X175892292Y-105045013D01*
X175892288Y-105045010D01*
X175761185Y-104957409D01*
X175761172Y-104957402D01*
X175615501Y-104897064D01*
X175615489Y-104897061D01*
X175460845Y-104866300D01*
X175460842Y-104866300D01*
X175303158Y-104866300D01*
X175303155Y-104866300D01*
X175148510Y-104897061D01*
X175148498Y-104897064D01*
X175002827Y-104957402D01*
X175002814Y-104957409D01*
X174871125Y-105045402D01*
X174804447Y-105066280D01*
X174802234Y-105066300D01*
X168597662Y-105066300D01*
X168553324Y-105058102D01*
X168380162Y-104991802D01*
X168369872Y-104983959D01*
X168357461Y-104980315D01*
X168342620Y-104963188D01*
X168324593Y-104949448D01*
X168320176Y-104937286D01*
X168311706Y-104927511D01*
X168304354Y-104893715D01*
X168300744Y-104883775D01*
X168301482Y-104880516D01*
X168300500Y-104876000D01*
X168300500Y-104765317D01*
X168300499Y-104765302D01*
X168297643Y-104729008D01*
X168297642Y-104729002D01*
X168252495Y-104573608D01*
X168252492Y-104573600D01*
X168247266Y-104564763D01*
X168230000Y-104501645D01*
X168230000Y-104195494D01*
X168730000Y-104195494D01*
X168730000Y-104750000D01*
X169258790Y-104750000D01*
X169257145Y-104729089D01*
X169212031Y-104573804D01*
X169129721Y-104434625D01*
X169129714Y-104434616D01*
X169015383Y-104320285D01*
X169015374Y-104320278D01*
X168876193Y-104237967D01*
X168876190Y-104237965D01*
X168730001Y-104195493D01*
X168730000Y-104195494D01*
X168230000Y-104195494D01*
X168229998Y-104195493D01*
X168083809Y-104237965D01*
X168083806Y-104237967D01*
X168063608Y-104249912D01*
X167995884Y-104267092D01*
X167937370Y-104249910D01*
X167916397Y-104237507D01*
X167916390Y-104237504D01*
X167760997Y-104192357D01*
X167760991Y-104192356D01*
X167724697Y-104189500D01*
X167724690Y-104189500D01*
X167315310Y-104189500D01*
X167315302Y-104189500D01*
X167279008Y-104192356D01*
X167279002Y-104192357D01*
X167123609Y-104237504D01*
X167123606Y-104237505D01*
X166984315Y-104319881D01*
X166984307Y-104319887D01*
X166869887Y-104434307D01*
X166869881Y-104434315D01*
X166787505Y-104573606D01*
X166787504Y-104573609D01*
X166742357Y-104729002D01*
X166742356Y-104729008D01*
X166739500Y-104765302D01*
X166739500Y-104879903D01*
X166719815Y-104946942D01*
X166703181Y-104967584D01*
X160497584Y-111173181D01*
X160436261Y-111206666D01*
X160409903Y-111209500D01*
X145912612Y-111209500D01*
X145845573Y-111189815D01*
X145799818Y-111137011D01*
X145789874Y-111067853D01*
X145794681Y-111047182D01*
X145856757Y-110856130D01*
X145856757Y-110856127D01*
X145890000Y-110646246D01*
X145890000Y-110433753D01*
X145856757Y-110223872D01*
X145856757Y-110223869D01*
X145791095Y-110021782D01*
X145694624Y-109832449D01*
X145655270Y-109778282D01*
X145655269Y-109778282D01*
X145022962Y-110410589D01*
X145005925Y-110347007D01*
X144940099Y-110232993D01*
X144847007Y-110139901D01*
X144732993Y-110074075D01*
X144669409Y-110057037D01*
X145301716Y-109424728D01*
X145247550Y-109385375D01*
X145237954Y-109380486D01*
X145187157Y-109332512D01*
X145170361Y-109264692D01*
X145192897Y-109198556D01*
X145237954Y-109159514D01*
X145247554Y-109154622D01*
X145301716Y-109115270D01*
X145301717Y-109115270D01*
X144669408Y-108482962D01*
X144732993Y-108465925D01*
X144847007Y-108400099D01*
X144940099Y-108307007D01*
X145005925Y-108192993D01*
X145022962Y-108129408D01*
X145655270Y-108761717D01*
X145655270Y-108761716D01*
X145694622Y-108707554D01*
X145791095Y-108518217D01*
X145856757Y-108316130D01*
X145856757Y-108316127D01*
X145890000Y-108106246D01*
X145890000Y-107893753D01*
X145856757Y-107683872D01*
X145856757Y-107683869D01*
X145791095Y-107481782D01*
X145694624Y-107292449D01*
X145655270Y-107238282D01*
X145655269Y-107238282D01*
X145022962Y-107870590D01*
X145005925Y-107807007D01*
X144940099Y-107692993D01*
X144847007Y-107599901D01*
X144732993Y-107534075D01*
X144669409Y-107517037D01*
X145301716Y-106884728D01*
X145247550Y-106845375D01*
X145058217Y-106748904D01*
X144856129Y-106683242D01*
X144646246Y-106650000D01*
X144433754Y-106650000D01*
X144223872Y-106683242D01*
X144223869Y-106683242D01*
X144021782Y-106748904D01*
X143832439Y-106845380D01*
X143778282Y-106884727D01*
X143778282Y-106884728D01*
X144410591Y-107517037D01*
X144347007Y-107534075D01*
X144232993Y-107599901D01*
X144139901Y-107692993D01*
X144074075Y-107807007D01*
X144057037Y-107870591D01*
X143386818Y-107200372D01*
X143353333Y-107139049D01*
X143353330Y-107139036D01*
X143350499Y-107126015D01*
X143350499Y-107102128D01*
X143344091Y-107042517D01*
X143304645Y-106936757D01*
X143293798Y-106907673D01*
X143293793Y-106907664D01*
X143207547Y-106792455D01*
X143207544Y-106792452D01*
X143092335Y-106706206D01*
X143092328Y-106706202D01*
X142957482Y-106655908D01*
X142957483Y-106655908D01*
X142897883Y-106649501D01*
X142897881Y-106649500D01*
X142897873Y-106649500D01*
X142897864Y-106649500D01*
X141102129Y-106649500D01*
X141102123Y-106649501D01*
X141042516Y-106655908D01*
X140907671Y-106706202D01*
X140907664Y-106706206D01*
X140792455Y-106792452D01*
X140792452Y-106792455D01*
X140706206Y-106907664D01*
X140706202Y-106907671D01*
X140655908Y-107042517D01*
X140649501Y-107102116D01*
X140649500Y-107102135D01*
X140649500Y-107275500D01*
X140629815Y-107342539D01*
X140577011Y-107388294D01*
X140525500Y-107399500D01*
X130350097Y-107399500D01*
X130283058Y-107379815D01*
X130262416Y-107363181D01*
X126315367Y-103416132D01*
X126281882Y-103354809D01*
X126286866Y-103285117D01*
X126328738Y-103229184D01*
X126364044Y-103210745D01*
X126519119Y-103159358D01*
X126519124Y-103159356D01*
X126668345Y-103067315D01*
X126792315Y-102943345D01*
X126884356Y-102794124D01*
X126884358Y-102794119D01*
X126939505Y-102627697D01*
X126939506Y-102627690D01*
X126949999Y-102524986D01*
X126950000Y-102524973D01*
X126950000Y-102250000D01*
X126074000Y-102250000D01*
X126006961Y-102230315D01*
X125961206Y-102177511D01*
X125950000Y-102126000D01*
X125950000Y-102000000D01*
X125824000Y-102000000D01*
X125756961Y-101980315D01*
X125711206Y-101927511D01*
X125700000Y-101876000D01*
X125700000Y-101750000D01*
X126200000Y-101750000D01*
X126949999Y-101750000D01*
X126949999Y-101475028D01*
X126949998Y-101475013D01*
X126939505Y-101372302D01*
X126884358Y-101205880D01*
X126884356Y-101205875D01*
X126792315Y-101056654D01*
X126668345Y-100932684D01*
X126519124Y-100840643D01*
X126519119Y-100840641D01*
X126352697Y-100785494D01*
X126352690Y-100785493D01*
X126249986Y-100775000D01*
X126200000Y-100775000D01*
X126200000Y-101750000D01*
X125700000Y-101750000D01*
X125700000Y-100775000D01*
X125699999Y-100774999D01*
X125650029Y-100775000D01*
X125650011Y-100775001D01*
X125547302Y-100785494D01*
X125380880Y-100840641D01*
X125380875Y-100840643D01*
X125231654Y-100932684D01*
X125107683Y-101056655D01*
X125107679Y-101056660D01*
X125105826Y-101059665D01*
X125104018Y-101061290D01*
X125103202Y-101062323D01*
X125103025Y-101062183D01*
X125053874Y-101106385D01*
X124984911Y-101117601D01*
X124920831Y-101089752D01*
X124894753Y-101059653D01*
X124893989Y-101058414D01*
X124892712Y-101056344D01*
X124768656Y-100932288D01*
X124675888Y-100875069D01*
X124619336Y-100840187D01*
X124619331Y-100840185D01*
X124609173Y-100836819D01*
X124452797Y-100785001D01*
X124452795Y-100785000D01*
X124350010Y-100774500D01*
X123749998Y-100774500D01*
X123749980Y-100774501D01*
X123647203Y-100785000D01*
X123647200Y-100785001D01*
X123480668Y-100840185D01*
X123480663Y-100840187D01*
X123331342Y-100932289D01*
X123207289Y-101056342D01*
X123115187Y-101205663D01*
X123115185Y-101205668D01*
X123079121Y-101314504D01*
X123039348Y-101371949D01*
X122974833Y-101398772D01*
X122961415Y-101399500D01*
X118237597Y-101399500D01*
X118170558Y-101379815D01*
X118149916Y-101363181D01*
X117194444Y-100407709D01*
X117160959Y-100346386D01*
X117163049Y-100285433D01*
X117172598Y-100252569D01*
X117175500Y-100215694D01*
X117175500Y-99784306D01*
X117172598Y-99747431D01*
X117163782Y-99717088D01*
X117126745Y-99589606D01*
X117126744Y-99589603D01*
X117126744Y-99589602D01*
X117048568Y-99457414D01*
X117031386Y-99389691D01*
X117053546Y-99323428D01*
X117067614Y-99306619D01*
X122631201Y-93743032D01*
X122692522Y-93709549D01*
X122762214Y-93714533D01*
X122783976Y-93725176D01*
X122880659Y-93784810D01*
X122880660Y-93784810D01*
X122880666Y-93784814D01*
X123047203Y-93839999D01*
X123149991Y-93850500D01*
X123900008Y-93850499D01*
X123900016Y-93850498D01*
X123900019Y-93850498D01*
X123956302Y-93844748D01*
X124002797Y-93839999D01*
X124169334Y-93784814D01*
X124318656Y-93692712D01*
X124442712Y-93568656D01*
X124534814Y-93419334D01*
X124589999Y-93252797D01*
X124600500Y-93150009D01*
X124600500Y-93149986D01*
X125400001Y-93149986D01*
X125410494Y-93252697D01*
X125465641Y-93419119D01*
X125465643Y-93419124D01*
X125557684Y-93568345D01*
X125681654Y-93692315D01*
X125830875Y-93784356D01*
X125830880Y-93784358D01*
X125997302Y-93839505D01*
X125997309Y-93839506D01*
X126100019Y-93849999D01*
X126224999Y-93849999D01*
X126725000Y-93849999D01*
X126849972Y-93849999D01*
X126849986Y-93849998D01*
X126952697Y-93839505D01*
X127119119Y-93784358D01*
X127119124Y-93784356D01*
X127268345Y-93692315D01*
X127392315Y-93568345D01*
X127484356Y-93419124D01*
X127484358Y-93419119D01*
X127539505Y-93252697D01*
X127539506Y-93252690D01*
X127549999Y-93149986D01*
X127550000Y-93149973D01*
X127550000Y-92250000D01*
X126725000Y-92250000D01*
X126725000Y-93849999D01*
X126224999Y-93849999D01*
X126225000Y-93849998D01*
X126225000Y-92250000D01*
X125400001Y-92250000D01*
X125400001Y-93149986D01*
X124600500Y-93149986D01*
X124600499Y-91925500D01*
X124600499Y-90850013D01*
X125400000Y-90850013D01*
X125400000Y-91750000D01*
X126225000Y-91750000D01*
X126725000Y-91750000D01*
X127549999Y-91750000D01*
X127549999Y-90850028D01*
X127549998Y-90850013D01*
X127539505Y-90747302D01*
X127484358Y-90580880D01*
X127484356Y-90580875D01*
X127392315Y-90431654D01*
X127268345Y-90307684D01*
X127119124Y-90215643D01*
X127119119Y-90215641D01*
X126952697Y-90160494D01*
X126952690Y-90160493D01*
X126849986Y-90150000D01*
X126725000Y-90150000D01*
X126725000Y-91750000D01*
X126225000Y-91750000D01*
X126225000Y-90150000D01*
X126100027Y-90150000D01*
X126100012Y-90150001D01*
X125997302Y-90160494D01*
X125830880Y-90215641D01*
X125830875Y-90215643D01*
X125681654Y-90307684D01*
X125557684Y-90431654D01*
X125465643Y-90580875D01*
X125465641Y-90580880D01*
X125410494Y-90747302D01*
X125410493Y-90747309D01*
X125400000Y-90850013D01*
X124600499Y-90850013D01*
X124600499Y-90849998D01*
X124600498Y-90849981D01*
X124589999Y-90747203D01*
X124589998Y-90747200D01*
X124567767Y-90680112D01*
X124534814Y-90580666D01*
X124442712Y-90431344D01*
X124318656Y-90307288D01*
X124200942Y-90234682D01*
X124169336Y-90215187D01*
X124169331Y-90215185D01*
X124167862Y-90214698D01*
X124002797Y-90160001D01*
X124002795Y-90160000D01*
X123900010Y-90149500D01*
X123149998Y-90149500D01*
X123149980Y-90149501D01*
X123047203Y-90160000D01*
X123047200Y-90160001D01*
X122880668Y-90215185D01*
X122880663Y-90215187D01*
X122731342Y-90307289D01*
X122607289Y-90431342D01*
X122515187Y-90580663D01*
X122515185Y-90580668D01*
X122489739Y-90657461D01*
X122460001Y-90747203D01*
X122460001Y-90747204D01*
X122460000Y-90747204D01*
X122449500Y-90849983D01*
X122449500Y-92174902D01*
X122429815Y-92241941D01*
X122413181Y-92262583D01*
X117949681Y-96726083D01*
X117888358Y-96759568D01*
X117818666Y-96754584D01*
X117762733Y-96712712D01*
X117738316Y-96647248D01*
X117738000Y-96638402D01*
X117738000Y-94223347D01*
X117757685Y-94156308D01*
X117796901Y-94117810D01*
X117918656Y-94042712D01*
X118042712Y-93918656D01*
X118134814Y-93769334D01*
X118189999Y-93602797D01*
X118200500Y-93500009D01*
X118200499Y-90499992D01*
X118200331Y-90498352D01*
X118189999Y-90397203D01*
X118189998Y-90397200D01*
X118134814Y-90230666D01*
X118042712Y-90081344D01*
X117918656Y-89957288D01*
X117774566Y-89868413D01*
X117769338Y-89865188D01*
X117769335Y-89865186D01*
X117769334Y-89865186D01*
X117602797Y-89810001D01*
X117602795Y-89810000D01*
X117500010Y-89799500D01*
X116774998Y-89799500D01*
X116774980Y-89799501D01*
X116672203Y-89810000D01*
X116672200Y-89810001D01*
X116505668Y-89865185D01*
X116505663Y-89865187D01*
X116356342Y-89957289D01*
X116232289Y-90081342D01*
X116140187Y-90230663D01*
X116140185Y-90230668D01*
X116114796Y-90307288D01*
X116085001Y-90397203D01*
X116085001Y-90397204D01*
X116085000Y-90397204D01*
X116074500Y-90499983D01*
X116074500Y-93500001D01*
X116074501Y-93500018D01*
X116085000Y-93602796D01*
X116085001Y-93602799D01*
X116140185Y-93769331D01*
X116140187Y-93769336D01*
X116149733Y-93784812D01*
X116232288Y-93918656D01*
X116356344Y-94042712D01*
X116478097Y-94117809D01*
X116524821Y-94169755D01*
X116537000Y-94223347D01*
X116537000Y-97112401D01*
X116517315Y-97179440D01*
X116500681Y-97200082D01*
X115272682Y-98428080D01*
X115211359Y-98461565D01*
X115141667Y-98456581D01*
X115097320Y-98428080D01*
X115051561Y-98382321D01*
X115051552Y-98382314D01*
X114910196Y-98298717D01*
X114910193Y-98298716D01*
X114752495Y-98252900D01*
X114752489Y-98252899D01*
X114715649Y-98250000D01*
X114312500Y-98250000D01*
X114312500Y-98926000D01*
X114292815Y-98993039D01*
X114240011Y-99038794D01*
X114188500Y-99050000D01*
X114062500Y-99050000D01*
X114062500Y-99176000D01*
X114042815Y-99243039D01*
X113990011Y-99288794D01*
X113938500Y-99300000D01*
X112827705Y-99300000D01*
X112827704Y-99300001D01*
X112827899Y-99302486D01*
X112873718Y-99460198D01*
X112957314Y-99601552D01*
X112957321Y-99601561D01*
X113073438Y-99717678D01*
X113073447Y-99717685D01*
X113214803Y-99801282D01*
X113214806Y-99801283D01*
X113372504Y-99847099D01*
X113372510Y-99847100D01*
X113409350Y-99849999D01*
X113409366Y-99850000D01*
X113551402Y-99850000D01*
X113572647Y-99856238D01*
X113594736Y-99857818D01*
X113605519Y-99865890D01*
X113618441Y-99869685D01*
X113632940Y-99886418D01*
X113650669Y-99899690D01*
X113655376Y-99912310D01*
X113664196Y-99922489D01*
X113667347Y-99944406D01*
X113675086Y-99965154D01*
X113672223Y-99978314D01*
X113674140Y-99991647D01*
X113664940Y-100011790D01*
X113660234Y-100033427D01*
X113646965Y-100051152D01*
X113645115Y-100055203D01*
X113639083Y-100061681D01*
X113587583Y-100113181D01*
X113526260Y-100146666D01*
X113499902Y-100149500D01*
X113409298Y-100149500D01*
X113372432Y-100152401D01*
X113372426Y-100152402D01*
X113214606Y-100198254D01*
X113214603Y-100198255D01*
X113073137Y-100281917D01*
X113073129Y-100281923D01*
X112956923Y-100398129D01*
X112956917Y-100398137D01*
X112873255Y-100539603D01*
X112873254Y-100539606D01*
X112827402Y-100697426D01*
X112827401Y-100697432D01*
X112824500Y-100734298D01*
X112824500Y-101165701D01*
X112827401Y-101202567D01*
X112827402Y-101202573D01*
X112873254Y-101360393D01*
X112873255Y-101360396D01*
X112873256Y-101360398D01*
X112880296Y-101372302D01*
X112956917Y-101501862D01*
X112956923Y-101501870D01*
X113073129Y-101618076D01*
X113073133Y-101618079D01*
X113073135Y-101618081D01*
X113214602Y-101701744D01*
X113256224Y-101713836D01*
X113372426Y-101747597D01*
X113372429Y-101747597D01*
X113372431Y-101747598D01*
X113409306Y-101750500D01*
X113409314Y-101750500D01*
X114715686Y-101750500D01*
X114715694Y-101750500D01*
X114752569Y-101747598D01*
X114752571Y-101747597D01*
X114752573Y-101747597D01*
X114794191Y-101735505D01*
X114910398Y-101701744D01*
X115051865Y-101618081D01*
X115168081Y-101501865D01*
X115251744Y-101360398D01*
X115297598Y-101202569D01*
X115300500Y-101165694D01*
X115300500Y-100924500D01*
X115320185Y-100857461D01*
X115372989Y-100811706D01*
X115424500Y-100800500D01*
X115837403Y-100800500D01*
X115904442Y-100820185D01*
X115925084Y-100836819D01*
X117452639Y-102364374D01*
X117452649Y-102364385D01*
X117456979Y-102368715D01*
X117456980Y-102368716D01*
X117568784Y-102480520D01*
X117645840Y-102525008D01*
X117705715Y-102559577D01*
X117858443Y-102600500D01*
X122961415Y-102600500D01*
X123028454Y-102620185D01*
X123074209Y-102672989D01*
X123079118Y-102685489D01*
X123115186Y-102794334D01*
X123207288Y-102943656D01*
X123331344Y-103067712D01*
X123480666Y-103159814D01*
X123647203Y-103214999D01*
X123749991Y-103225500D01*
X124350008Y-103225499D01*
X124360576Y-103224419D01*
X124429268Y-103237187D01*
X124460861Y-103260096D01*
X129565139Y-108364374D01*
X129565149Y-108364385D01*
X129569479Y-108368715D01*
X129569480Y-108368716D01*
X129681284Y-108480520D01*
X129681286Y-108480521D01*
X129681290Y-108480524D01*
X129818209Y-108559573D01*
X129818216Y-108559577D01*
X129930019Y-108589534D01*
X129970942Y-108600500D01*
X129970943Y-108600500D01*
X140525501Y-108600500D01*
X140592540Y-108620185D01*
X140638295Y-108672989D01*
X140649501Y-108724500D01*
X140649501Y-108897876D01*
X140655908Y-108957483D01*
X140706202Y-109092328D01*
X140706206Y-109092335D01*
X140792452Y-109207544D01*
X140792455Y-109207547D01*
X140907664Y-109293793D01*
X140907671Y-109293797D01*
X141039082Y-109342810D01*
X141095016Y-109384681D01*
X141119433Y-109450145D01*
X141104582Y-109518418D01*
X141083431Y-109546673D01*
X140969889Y-109660215D01*
X140844951Y-109832179D01*
X140748444Y-110021585D01*
X140682753Y-110223760D01*
X140649500Y-110433713D01*
X140649500Y-110646286D01*
X140682753Y-110856239D01*
X140748444Y-111058414D01*
X140844951Y-111247820D01*
X140969890Y-111419786D01*
X141120213Y-111570109D01*
X141292182Y-111695050D01*
X141300946Y-111699516D01*
X141351742Y-111747491D01*
X141368536Y-111815312D01*
X141345998Y-111881447D01*
X141300946Y-111920484D01*
X141292182Y-111924949D01*
X141120213Y-112049890D01*
X140969890Y-112200213D01*
X140844951Y-112372179D01*
X140748444Y-112561585D01*
X140682753Y-112763760D01*
X140649500Y-112973713D01*
X140649500Y-113186286D01*
X140682753Y-113396239D01*
X140748444Y-113598414D01*
X140844951Y-113787820D01*
X140969890Y-113959786D01*
X141120213Y-114110109D01*
X141292182Y-114235050D01*
X141300946Y-114239516D01*
X141351742Y-114287491D01*
X141368536Y-114355312D01*
X141345998Y-114421447D01*
X141300946Y-114460484D01*
X141292182Y-114464949D01*
X141120213Y-114589890D01*
X140969890Y-114740213D01*
X140844951Y-114912179D01*
X140748444Y-115101585D01*
X140682753Y-115303760D01*
X140649500Y-115513713D01*
X140649500Y-115726286D01*
X140682753Y-115936239D01*
X140748444Y-116138414D01*
X140844951Y-116327820D01*
X140969890Y-116499786D01*
X141120213Y-116650109D01*
X141292182Y-116775050D01*
X141300946Y-116779516D01*
X141351742Y-116827491D01*
X141368536Y-116895312D01*
X141345998Y-116961447D01*
X141300946Y-117000484D01*
X141292182Y-117004949D01*
X141120213Y-117129890D01*
X140969890Y-117280213D01*
X140844951Y-117452179D01*
X140748444Y-117641585D01*
X140682753Y-117843760D01*
X140649500Y-118053713D01*
X140649500Y-118266286D01*
X140682753Y-118476239D01*
X140748444Y-118678414D01*
X140844951Y-118867820D01*
X140969890Y-119039786D01*
X141120213Y-119190109D01*
X141292182Y-119315050D01*
X141300946Y-119319516D01*
X141351742Y-119367491D01*
X141368536Y-119435312D01*
X141345998Y-119501447D01*
X141300946Y-119540484D01*
X141292182Y-119544949D01*
X141120213Y-119669890D01*
X140969890Y-119820213D01*
X140844951Y-119992179D01*
X140748444Y-120181585D01*
X140682753Y-120383760D01*
X140649500Y-120593713D01*
X140649500Y-120806286D01*
X140682753Y-121016239D01*
X140748444Y-121218414D01*
X140844951Y-121407820D01*
X140969890Y-121579786D01*
X141120213Y-121730109D01*
X141292182Y-121855050D01*
X141300946Y-121859516D01*
X141351742Y-121907491D01*
X141368536Y-121975312D01*
X141345998Y-122041447D01*
X141300946Y-122080484D01*
X141292182Y-122084949D01*
X141120213Y-122209890D01*
X140969890Y-122360213D01*
X140844948Y-122532184D01*
X140844947Y-122532185D01*
X140824765Y-122571795D01*
X140776791Y-122622591D01*
X140714281Y-122639500D01*
X127397069Y-122639500D01*
X127397053Y-122639499D01*
X127389457Y-122639499D01*
X127231343Y-122639499D01*
X127123987Y-122668265D01*
X127078610Y-122680424D01*
X127078609Y-122680425D01*
X127028496Y-122709359D01*
X127028495Y-122709360D01*
X126985089Y-122734420D01*
X126941685Y-122759479D01*
X126941682Y-122759481D01*
X117631286Y-132069878D01*
X117631284Y-132069880D01*
X117587979Y-132113183D01*
X117586920Y-132113761D01*
X117526657Y-132146667D01*
X117500301Y-132149500D01*
X117400597Y-132149500D01*
X117290531Y-132163989D01*
X117282678Y-132166094D01*
X117281802Y-132162824D01*
X117227853Y-132168567D01*
X117217477Y-132165518D01*
X117217323Y-132166095D01*
X117209470Y-132163990D01*
X117099401Y-132149500D01*
X116900596Y-132149500D01*
X116790536Y-132163988D01*
X116790527Y-132163991D01*
X116653574Y-132220719D01*
X116535964Y-132310964D01*
X116445719Y-132428574D01*
X116388991Y-132565527D01*
X116388990Y-132565529D01*
X116380324Y-132631358D01*
X116374501Y-132675596D01*
X116374500Y-132675605D01*
X116374500Y-133250500D01*
X116354815Y-133317539D01*
X116302011Y-133363294D01*
X116250500Y-133374500D01*
X115675596Y-133374500D01*
X115565536Y-133388988D01*
X115565527Y-133388991D01*
X115428574Y-133445719D01*
X115428571Y-133445720D01*
X115428571Y-133445721D01*
X115310964Y-133535964D01*
X115221406Y-133652679D01*
X115220719Y-133653574D01*
X115163991Y-133790527D01*
X115163990Y-133790529D01*
X115149500Y-133900598D01*
X115149500Y-134099403D01*
X115163989Y-134209468D01*
X115166094Y-134217322D01*
X115162814Y-134218200D01*
X115168581Y-134272073D01*
X115165517Y-134282522D01*
X115166095Y-134282677D01*
X115163990Y-134290529D01*
X115149500Y-134400598D01*
X115149500Y-134599403D01*
X115163989Y-134709468D01*
X115166094Y-134717322D01*
X115163201Y-134718097D01*
X115169385Y-134769537D01*
X115154574Y-134865657D01*
X115140295Y-134896106D01*
X115126692Y-134926856D01*
X115125349Y-134927978D01*
X115124909Y-134928917D01*
X115122154Y-134930648D01*
X115094025Y-134954157D01*
X115076921Y-134964033D01*
X115076916Y-134964036D01*
X114980887Y-135019477D01*
X114980882Y-135019481D01*
X114966483Y-135033881D01*
X114905160Y-135067366D01*
X114878802Y-135070200D01*
X107715117Y-135070200D01*
X107648078Y-135050515D01*
X107602323Y-134997711D01*
X107592379Y-134928553D01*
X107621404Y-134864997D01*
X107646226Y-134843098D01*
X107736651Y-134782677D01*
X107778089Y-134754989D01*
X107889589Y-134643489D01*
X107977194Y-134512379D01*
X108037537Y-134366697D01*
X108068300Y-134212042D01*
X108068300Y-134054358D01*
X108068300Y-134054355D01*
X108068299Y-134054353D01*
X108062795Y-134026685D01*
X108037537Y-133899703D01*
X107993114Y-133792455D01*
X107977197Y-133754027D01*
X107977190Y-133754014D01*
X107889589Y-133622911D01*
X107889586Y-133622907D01*
X107778092Y-133511413D01*
X107778088Y-133511410D01*
X107646985Y-133423809D01*
X107646972Y-133423802D01*
X107501301Y-133363464D01*
X107501289Y-133363461D01*
X107346645Y-133332700D01*
X107346642Y-133332700D01*
X107188958Y-133332700D01*
X107188955Y-133332700D01*
X107034310Y-133363461D01*
X107034298Y-133363464D01*
X106888627Y-133423802D01*
X106888614Y-133423809D01*
X106756925Y-133511802D01*
X106690247Y-133532680D01*
X106688034Y-133532700D01*
X102985469Y-133532700D01*
X102985453Y-133532699D01*
X102977857Y-133532699D01*
X102819743Y-133532699D01*
X102725089Y-133558062D01*
X102667010Y-133573624D01*
X102667009Y-133573625D01*
X102616896Y-133602559D01*
X102616895Y-133602560D01*
X102598859Y-133612973D01*
X102530085Y-133652679D01*
X102530082Y-133652681D01*
X101873181Y-134309582D01*
X101873177Y-134309587D01*
X101827335Y-134388990D01*
X101827335Y-134388991D01*
X101794123Y-134446514D01*
X101794123Y-134446515D01*
X101753199Y-134599243D01*
X101753199Y-134757357D01*
X101753199Y-134757359D01*
X101753200Y-134767353D01*
X101753200Y-135148230D01*
X101753199Y-135148248D01*
X101753199Y-135313954D01*
X101753198Y-135313954D01*
X100500500Y-135313954D01*
X100500500Y-99102135D01*
X101649500Y-99102135D01*
X101649500Y-100897870D01*
X101649501Y-100897876D01*
X101655908Y-100957483D01*
X101706202Y-101092328D01*
X101706206Y-101092335D01*
X101792452Y-101207544D01*
X101792455Y-101207547D01*
X101907664Y-101293793D01*
X101907671Y-101293797D01*
X101952618Y-101310561D01*
X102042517Y-101344091D01*
X102102127Y-101350500D01*
X102112685Y-101350499D01*
X102179723Y-101370179D01*
X102200372Y-101386818D01*
X102870591Y-102057037D01*
X102807007Y-102074075D01*
X102692993Y-102139901D01*
X102599901Y-102232993D01*
X102534075Y-102347007D01*
X102517037Y-102410591D01*
X101884728Y-101778282D01*
X101884727Y-101778282D01*
X101845380Y-101832439D01*
X101748904Y-102021782D01*
X101683242Y-102223869D01*
X101683242Y-102223872D01*
X101650000Y-102433753D01*
X101650000Y-102646246D01*
X101683242Y-102856127D01*
X101683242Y-102856130D01*
X101748904Y-103058217D01*
X101845375Y-103247550D01*
X101884728Y-103301716D01*
X102517037Y-102669408D01*
X102534075Y-102732993D01*
X102599901Y-102847007D01*
X102692993Y-102940099D01*
X102807007Y-103005925D01*
X102870590Y-103022962D01*
X102238282Y-103655269D01*
X102238282Y-103655270D01*
X102292449Y-103694624D01*
X102481782Y-103791095D01*
X102683870Y-103856757D01*
X102893754Y-103890000D01*
X103106246Y-103890000D01*
X103316127Y-103856757D01*
X103316130Y-103856757D01*
X103518217Y-103791095D01*
X103707554Y-103694622D01*
X103761716Y-103655270D01*
X103761717Y-103655270D01*
X103129408Y-103022962D01*
X103192993Y-103005925D01*
X103307007Y-102940099D01*
X103400099Y-102847007D01*
X103465925Y-102732993D01*
X103482962Y-102669409D01*
X104115270Y-103301717D01*
X104115270Y-103301716D01*
X104154622Y-103247554D01*
X104251095Y-103058217D01*
X104316757Y-102856130D01*
X104316757Y-102856127D01*
X104350000Y-102646246D01*
X104350000Y-102433753D01*
X104316757Y-102223872D01*
X104316757Y-102223869D01*
X104251095Y-102021782D01*
X104154624Y-101832449D01*
X104115270Y-101778282D01*
X104115269Y-101778282D01*
X103482962Y-102410590D01*
X103465925Y-102347007D01*
X103400099Y-102232993D01*
X103307007Y-102139901D01*
X103192993Y-102074075D01*
X103129409Y-102057037D01*
X103799627Y-101386818D01*
X103860950Y-101353333D01*
X103887307Y-101350499D01*
X103897872Y-101350499D01*
X103957483Y-101344091D01*
X104092331Y-101293796D01*
X104207546Y-101207546D01*
X104293796Y-101092331D01*
X104344091Y-100957483D01*
X104350500Y-100897873D01*
X104350499Y-100650211D01*
X104370183Y-100583173D01*
X104412497Y-100542826D01*
X104440275Y-100526789D01*
X104520416Y-100480520D01*
X104632220Y-100368716D01*
X104632220Y-100368714D01*
X104642424Y-100358511D01*
X104642428Y-100358506D01*
X106200936Y-98799998D01*
X112827704Y-98799998D01*
X112827705Y-98800000D01*
X113812500Y-98800000D01*
X113812500Y-98250000D01*
X113409350Y-98250000D01*
X113372510Y-98252899D01*
X113372504Y-98252900D01*
X113214806Y-98298716D01*
X113214803Y-98298717D01*
X113073447Y-98382314D01*
X113073438Y-98382321D01*
X112957321Y-98498438D01*
X112957314Y-98498447D01*
X112873718Y-98639801D01*
X112827899Y-98797513D01*
X112827704Y-98799998D01*
X106200936Y-98799998D01*
X111587821Y-93413112D01*
X111649142Y-93379629D01*
X111718834Y-93384613D01*
X111774767Y-93426485D01*
X111799184Y-93491949D01*
X111799407Y-93498155D01*
X111799501Y-93500019D01*
X111810000Y-93602796D01*
X111810001Y-93602799D01*
X111865185Y-93769331D01*
X111865187Y-93769336D01*
X111874733Y-93784812D01*
X111957288Y-93918656D01*
X112081344Y-94042712D01*
X112230666Y-94134814D01*
X112397203Y-94189999D01*
X112499991Y-94200500D01*
X113225008Y-94200499D01*
X113225016Y-94200498D01*
X113225019Y-94200498D01*
X113281302Y-94194748D01*
X113327797Y-94189999D01*
X113494334Y-94134814D01*
X113643656Y-94042712D01*
X113767712Y-93918656D01*
X113859814Y-93769334D01*
X113914999Y-93602797D01*
X113925500Y-93500009D01*
X113925499Y-90499992D01*
X113925331Y-90498352D01*
X113914999Y-90397203D01*
X113914998Y-90397200D01*
X113859814Y-90230666D01*
X113767712Y-90081344D01*
X113643656Y-89957288D01*
X113550888Y-89900069D01*
X113494336Y-89865187D01*
X113494331Y-89865185D01*
X113492862Y-89864698D01*
X113327797Y-89810001D01*
X113327795Y-89810000D01*
X113225010Y-89799500D01*
X112499998Y-89799500D01*
X112499980Y-89799501D01*
X112397203Y-89810000D01*
X112397200Y-89810001D01*
X112230668Y-89865185D01*
X112230663Y-89865187D01*
X112081342Y-89957289D01*
X111957289Y-90081342D01*
X111865187Y-90230663D01*
X111865185Y-90230668D01*
X111839796Y-90307288D01*
X111810001Y-90397203D01*
X111810001Y-90397204D01*
X111810000Y-90397204D01*
X111799500Y-90499983D01*
X111799500Y-91451601D01*
X111790856Y-91481037D01*
X111784333Y-91511027D01*
X111780577Y-91516044D01*
X111779815Y-91518640D01*
X111763182Y-91539282D01*
X111671180Y-91631284D01*
X111671179Y-91631284D01*
X111671178Y-91631285D01*
X111671178Y-91631286D01*
X104438223Y-98864240D01*
X104376900Y-98897725D01*
X104307208Y-98892741D01*
X104251277Y-98850872D01*
X104207546Y-98792454D01*
X104207544Y-98792452D01*
X104207543Y-98792451D01*
X104092335Y-98706206D01*
X104092328Y-98706202D01*
X103957482Y-98655908D01*
X103957483Y-98655908D01*
X103897883Y-98649501D01*
X103897881Y-98649500D01*
X103897873Y-98649500D01*
X103897864Y-98649500D01*
X102102129Y-98649500D01*
X102102123Y-98649501D01*
X102042516Y-98655908D01*
X101907671Y-98706202D01*
X101907664Y-98706206D01*
X101792455Y-98792452D01*
X101792452Y-98792455D01*
X101706206Y-98907664D01*
X101706202Y-98907671D01*
X101655908Y-99042517D01*
X101649501Y-99102116D01*
X101649500Y-99102135D01*
X100500500Y-99102135D01*
X100500500Y-89765302D01*
X128739500Y-89765302D01*
X128739500Y-90234697D01*
X128742356Y-90270991D01*
X128742357Y-90270997D01*
X128787504Y-90426390D01*
X128787505Y-90426393D01*
X128831030Y-90499991D01*
X128869883Y-90565687D01*
X128883180Y-90578984D01*
X128916666Y-90640305D01*
X128919500Y-90666666D01*
X128919500Y-93333333D01*
X128899815Y-93400372D01*
X128883181Y-93421014D01*
X128869887Y-93434307D01*
X128869881Y-93434315D01*
X128787505Y-93573606D01*
X128787504Y-93573609D01*
X128742357Y-93729002D01*
X128742356Y-93729008D01*
X128739500Y-93765302D01*
X128739500Y-94234697D01*
X128742356Y-94270991D01*
X128742357Y-94270997D01*
X128787504Y-94426390D01*
X128787505Y-94426393D01*
X128869881Y-94565684D01*
X128869887Y-94565692D01*
X128984307Y-94680112D01*
X128984311Y-94680115D01*
X128984313Y-94680117D01*
X129123605Y-94762494D01*
X129164587Y-94774400D01*
X129279002Y-94807642D01*
X129279005Y-94807642D01*
X129279007Y-94807643D01*
X129315310Y-94810500D01*
X129429903Y-94810500D01*
X129496942Y-94830185D01*
X129517584Y-94846819D01*
X129696639Y-95025874D01*
X129696649Y-95025885D01*
X129700979Y-95030215D01*
X129700980Y-95030216D01*
X129812784Y-95142020D01*
X129899595Y-95192139D01*
X129899597Y-95192141D01*
X129937170Y-95213834D01*
X129949715Y-95221077D01*
X130102442Y-95262000D01*
X130102443Y-95262000D01*
X132771831Y-95262000D01*
X132771847Y-95262001D01*
X132779443Y-95262001D01*
X132937554Y-95262001D01*
X132937557Y-95262001D01*
X133090285Y-95221077D01*
X133140404Y-95192139D01*
X133227216Y-95142020D01*
X133339020Y-95030216D01*
X133339020Y-95030214D01*
X133349228Y-95020007D01*
X133349229Y-95020004D01*
X133432321Y-94936913D01*
X133493641Y-94903430D01*
X133563333Y-94908414D01*
X133607680Y-94936915D01*
X138241939Y-99571174D01*
X138241949Y-99571185D01*
X138246279Y-99575515D01*
X138246280Y-99575516D01*
X138358084Y-99687320D01*
X138444895Y-99737439D01*
X138444897Y-99737441D01*
X138478790Y-99757009D01*
X138495015Y-99766377D01*
X138647743Y-99807300D01*
X138805857Y-99807300D01*
X140270834Y-99807300D01*
X140337873Y-99826985D01*
X140339725Y-99828198D01*
X140471414Y-99916190D01*
X140471427Y-99916197D01*
X140617098Y-99976535D01*
X140617103Y-99976537D01*
X140770139Y-100006978D01*
X140771753Y-100007299D01*
X140771756Y-100007300D01*
X140771758Y-100007300D01*
X140929444Y-100007300D01*
X140929445Y-100007299D01*
X141084097Y-99976537D01*
X141202578Y-99927461D01*
X141229772Y-99916197D01*
X141229772Y-99916196D01*
X141229779Y-99916194D01*
X141360889Y-99828589D01*
X141472389Y-99717089D01*
X141559994Y-99585979D01*
X141620337Y-99440297D01*
X141651100Y-99285642D01*
X141651100Y-99127958D01*
X141651100Y-99127955D01*
X141651099Y-99127953D01*
X141634678Y-99045400D01*
X141620337Y-98973303D01*
X141590506Y-98901284D01*
X141559997Y-98827627D01*
X141559990Y-98827614D01*
X141472389Y-98696511D01*
X141472386Y-98696507D01*
X141360892Y-98585013D01*
X141360888Y-98585010D01*
X141229785Y-98497409D01*
X141229772Y-98497402D01*
X141084101Y-98437064D01*
X141084089Y-98437061D01*
X140929445Y-98406300D01*
X140929442Y-98406300D01*
X140771758Y-98406300D01*
X140771755Y-98406300D01*
X140617110Y-98437061D01*
X140617098Y-98437064D01*
X140471427Y-98497402D01*
X140471414Y-98497409D01*
X140339725Y-98585402D01*
X140273047Y-98606280D01*
X140270834Y-98606300D01*
X139026897Y-98606300D01*
X138959858Y-98586615D01*
X138939216Y-98569981D01*
X136385388Y-96016153D01*
X139448400Y-96016153D01*
X139448400Y-96173846D01*
X139479161Y-96328489D01*
X139479164Y-96328501D01*
X139539502Y-96474172D01*
X139539509Y-96474185D01*
X139627110Y-96605288D01*
X139627113Y-96605292D01*
X139738607Y-96716786D01*
X139738611Y-96716789D01*
X139869714Y-96804390D01*
X139869727Y-96804397D01*
X139948794Y-96837147D01*
X140015403Y-96864737D01*
X140128548Y-96887243D01*
X140170053Y-96895499D01*
X140170056Y-96895500D01*
X140170058Y-96895500D01*
X140327744Y-96895500D01*
X140327745Y-96895499D01*
X140482397Y-96864737D01*
X140606976Y-96813135D01*
X140628072Y-96804397D01*
X140628072Y-96804396D01*
X140628079Y-96804394D01*
X140732662Y-96734514D01*
X140759775Y-96716398D01*
X140826453Y-96695520D01*
X140828666Y-96695500D01*
X171034093Y-96695500D01*
X171101132Y-96715185D01*
X171146887Y-96767989D01*
X171156831Y-96837147D01*
X171140825Y-96882620D01*
X171098257Y-96954599D01*
X171098254Y-96954606D01*
X171052402Y-97112426D01*
X171052401Y-97112432D01*
X171049500Y-97149298D01*
X171049500Y-97580701D01*
X171052401Y-97617567D01*
X171052402Y-97617573D01*
X171098254Y-97775393D01*
X171098255Y-97775396D01*
X171181917Y-97916862D01*
X171186702Y-97923031D01*
X171184256Y-97924927D01*
X171210857Y-97973642D01*
X171205873Y-98043334D01*
X171185069Y-98075703D01*
X171186702Y-98076969D01*
X171181917Y-98083137D01*
X171098255Y-98224603D01*
X171098254Y-98224606D01*
X171052402Y-98382426D01*
X171052401Y-98382432D01*
X171049500Y-98419298D01*
X171049500Y-98850701D01*
X171052401Y-98887567D01*
X171052402Y-98887573D01*
X171098254Y-99045393D01*
X171098257Y-99045400D01*
X171140825Y-99117380D01*
X171158008Y-99185104D01*
X171135848Y-99251366D01*
X171081381Y-99295129D01*
X171034093Y-99304500D01*
X143849766Y-99304500D01*
X143782727Y-99284815D01*
X143780875Y-99283602D01*
X143649185Y-99195609D01*
X143649172Y-99195602D01*
X143503501Y-99135264D01*
X143503489Y-99135261D01*
X143348845Y-99104500D01*
X143348842Y-99104500D01*
X143191158Y-99104500D01*
X143191155Y-99104500D01*
X143036510Y-99135261D01*
X143036498Y-99135264D01*
X142890827Y-99195602D01*
X142890814Y-99195609D01*
X142759711Y-99283210D01*
X142759707Y-99283213D01*
X142648213Y-99394707D01*
X142648210Y-99394711D01*
X142560609Y-99525814D01*
X142560602Y-99525827D01*
X142500264Y-99671498D01*
X142500261Y-99671510D01*
X142469500Y-99826153D01*
X142469500Y-99983846D01*
X142500261Y-100138489D01*
X142500264Y-100138501D01*
X142560602Y-100284172D01*
X142560609Y-100284185D01*
X142648210Y-100415288D01*
X142648213Y-100415292D01*
X142759709Y-100526788D01*
X142890814Y-100614390D01*
X142890827Y-100614397D01*
X142993066Y-100656745D01*
X143036503Y-100674737D01*
X143131816Y-100693696D01*
X143191153Y-100705499D01*
X143191156Y-100705500D01*
X143191158Y-100705500D01*
X143348844Y-100705500D01*
X143348845Y-100705499D01*
X143503497Y-100674737D01*
X143649179Y-100614394D01*
X143649185Y-100614390D01*
X143780875Y-100526398D01*
X143847553Y-100505520D01*
X143849766Y-100505500D01*
X171179192Y-100505500D01*
X171246231Y-100525185D01*
X171266874Y-100541820D01*
X171298129Y-100573076D01*
X171298133Y-100573079D01*
X171298135Y-100573081D01*
X171439602Y-100656744D01*
X171480352Y-100668583D01*
X171597426Y-100702597D01*
X171597429Y-100702597D01*
X171597431Y-100702598D01*
X171634306Y-100705500D01*
X171634314Y-100705500D01*
X173415686Y-100705500D01*
X173415694Y-100705500D01*
X173452569Y-100702598D01*
X173452571Y-100702597D01*
X173452573Y-100702597D01*
X173494191Y-100690505D01*
X173610398Y-100656744D01*
X173751865Y-100573081D01*
X173868081Y-100456865D01*
X173951744Y-100315398D01*
X173997598Y-100157569D01*
X173997800Y-100155001D01*
X176002704Y-100155001D01*
X176002899Y-100157486D01*
X176048718Y-100315198D01*
X176132314Y-100456552D01*
X176132321Y-100456561D01*
X176248438Y-100572678D01*
X176248447Y-100572685D01*
X176389803Y-100656282D01*
X176389806Y-100656283D01*
X176547504Y-100702099D01*
X176547510Y-100702100D01*
X176584350Y-100704999D01*
X176584366Y-100705000D01*
X177225000Y-100705000D01*
X177725000Y-100705000D01*
X178365634Y-100705000D01*
X178365649Y-100704999D01*
X178402489Y-100702100D01*
X178402495Y-100702099D01*
X178560193Y-100656283D01*
X178560196Y-100656282D01*
X178701552Y-100572685D01*
X178701561Y-100572678D01*
X178817678Y-100456561D01*
X178817685Y-100456552D01*
X178901281Y-100315198D01*
X178947100Y-100157486D01*
X178947295Y-100155001D01*
X178947295Y-100155000D01*
X177725000Y-100155000D01*
X177725000Y-100705000D01*
X177225000Y-100705000D01*
X177225000Y-100155000D01*
X176002705Y-100155000D01*
X176002704Y-100155001D01*
X173997800Y-100155001D01*
X174000500Y-100120694D01*
X174000500Y-99994500D01*
X174020185Y-99927461D01*
X174072989Y-99881706D01*
X174124500Y-99870500D01*
X187889903Y-99870500D01*
X187956942Y-99890185D01*
X187977584Y-99906819D01*
X190666241Y-102595476D01*
X190699726Y-102656799D01*
X190696492Y-102721473D01*
X190682753Y-102763757D01*
X190654260Y-102943657D01*
X190649500Y-102973713D01*
X190649500Y-103186287D01*
X190682754Y-103396243D01*
X190689216Y-103416132D01*
X190748444Y-103598414D01*
X190844951Y-103787820D01*
X190969890Y-103959786D01*
X191120213Y-104110109D01*
X191292179Y-104235048D01*
X191292181Y-104235049D01*
X191292184Y-104235051D01*
X191301493Y-104239794D01*
X191352290Y-104287766D01*
X191369087Y-104355587D01*
X191346552Y-104421722D01*
X191301505Y-104460760D01*
X191292446Y-104465376D01*
X191292440Y-104465380D01*
X191238282Y-104504727D01*
X191238282Y-104504728D01*
X191870591Y-105137037D01*
X191807007Y-105154075D01*
X191692993Y-105219901D01*
X191599901Y-105312993D01*
X191534075Y-105427007D01*
X191517037Y-105490591D01*
X190884728Y-104858282D01*
X190884727Y-104858282D01*
X190845380Y-104912439D01*
X190748904Y-105101782D01*
X190683242Y-105303869D01*
X190683242Y-105303872D01*
X190650000Y-105513753D01*
X190650000Y-105726246D01*
X190683242Y-105936127D01*
X190683242Y-105936130D01*
X190748904Y-106138217D01*
X190845375Y-106327550D01*
X190884728Y-106381716D01*
X191517037Y-105749408D01*
X191534075Y-105812993D01*
X191599901Y-105927007D01*
X191692993Y-106020099D01*
X191807007Y-106085925D01*
X191870590Y-106102962D01*
X191238282Y-106735269D01*
X191238282Y-106735270D01*
X191292449Y-106774624D01*
X191481782Y-106871095D01*
X191683870Y-106936757D01*
X191893754Y-106970000D01*
X192106246Y-106970000D01*
X192316127Y-106936757D01*
X192316130Y-106936757D01*
X192518217Y-106871095D01*
X192707554Y-106774622D01*
X192761716Y-106735270D01*
X192761717Y-106735270D01*
X192129408Y-106102962D01*
X192192993Y-106085925D01*
X192307007Y-106020099D01*
X192400099Y-105927007D01*
X192465925Y-105812993D01*
X192482962Y-105749408D01*
X193115270Y-106381717D01*
X193115270Y-106381716D01*
X193154622Y-106327554D01*
X193251095Y-106138217D01*
X193316757Y-105936130D01*
X193316757Y-105936127D01*
X193350000Y-105726246D01*
X193350000Y-105513753D01*
X193316757Y-105303872D01*
X193316757Y-105303869D01*
X193251095Y-105101782D01*
X193154624Y-104912449D01*
X193115270Y-104858282D01*
X193115269Y-104858282D01*
X192482962Y-105490590D01*
X192465925Y-105427007D01*
X192400099Y-105312993D01*
X192307007Y-105219901D01*
X192192993Y-105154075D01*
X192129409Y-105137037D01*
X192761716Y-104504728D01*
X192707547Y-104465373D01*
X192707547Y-104465372D01*
X192698500Y-104460763D01*
X192647706Y-104412788D01*
X192630912Y-104344966D01*
X192653451Y-104278832D01*
X192698508Y-104239793D01*
X192707816Y-104235051D01*
X192787007Y-104177515D01*
X192879786Y-104110109D01*
X192879788Y-104110106D01*
X192879792Y-104110104D01*
X193030104Y-103959792D01*
X193030106Y-103959788D01*
X193030109Y-103959786D01*
X193155048Y-103787820D01*
X193155047Y-103787820D01*
X193155051Y-103787816D01*
X193251557Y-103598412D01*
X193317246Y-103396243D01*
X193350500Y-103186287D01*
X193350500Y-102973713D01*
X193317246Y-102763757D01*
X193251557Y-102561588D01*
X193155051Y-102372184D01*
X193155049Y-102372181D01*
X193155048Y-102372179D01*
X193030109Y-102200213D01*
X192879786Y-102049890D01*
X192707820Y-101924951D01*
X192707115Y-101924591D01*
X192699054Y-101920485D01*
X192648259Y-101872512D01*
X192631463Y-101804692D01*
X192653999Y-101738556D01*
X192699054Y-101699515D01*
X192707816Y-101695051D01*
X192729789Y-101679086D01*
X192879786Y-101570109D01*
X192879788Y-101570106D01*
X192879792Y-101570104D01*
X193030104Y-101419792D01*
X193030106Y-101419788D01*
X193030109Y-101419786D01*
X193155048Y-101247820D01*
X193155047Y-101247820D01*
X193155051Y-101247816D01*
X193251557Y-101058412D01*
X193317246Y-100856243D01*
X193350500Y-100646287D01*
X193350500Y-100433713D01*
X193317246Y-100223757D01*
X193303506Y-100181473D01*
X193301512Y-100111635D01*
X193333753Y-100055480D01*
X193632220Y-99757016D01*
X193711277Y-99620084D01*
X193752201Y-99467357D01*
X193752201Y-99309242D01*
X193752201Y-99301647D01*
X193752200Y-99301629D01*
X193752200Y-97055360D01*
X193752201Y-97055347D01*
X193752201Y-96887244D01*
X193750962Y-96882620D01*
X193711277Y-96734516D01*
X193706408Y-96726083D01*
X193632224Y-96597590D01*
X193632218Y-96597582D01*
X193010017Y-95975381D01*
X193010012Y-95975377D01*
X192888557Y-95905256D01*
X192888557Y-95905255D01*
X192888554Y-95905254D01*
X192873085Y-95896323D01*
X192720357Y-95855399D01*
X192562243Y-95855399D01*
X192554647Y-95855399D01*
X192554631Y-95855400D01*
X179522000Y-95855400D01*
X179454961Y-95835715D01*
X179409206Y-95782911D01*
X179398000Y-95731400D01*
X179398000Y-93543443D01*
X179391579Y-93519481D01*
X179370396Y-93440423D01*
X179357077Y-93390716D01*
X179353601Y-93384696D01*
X179278024Y-93253790D01*
X179278021Y-93253786D01*
X179278020Y-93253784D01*
X179166216Y-93141980D01*
X179166215Y-93141979D01*
X179161885Y-93137649D01*
X179161874Y-93137639D01*
X177011819Y-90987584D01*
X176978334Y-90926261D01*
X176975500Y-90899903D01*
X176975500Y-90568386D01*
X176975255Y-90565687D01*
X176969086Y-90497804D01*
X176918478Y-90335394D01*
X176830472Y-90189815D01*
X176830470Y-90189813D01*
X176830469Y-90189811D01*
X176727984Y-90087326D01*
X176694499Y-90026003D01*
X176699483Y-89956311D01*
X176727985Y-89911963D01*
X176830071Y-89809878D01*
X176830072Y-89809877D01*
X176918019Y-89664395D01*
X176968590Y-89502106D01*
X176975000Y-89431572D01*
X176975000Y-89425000D01*
X175365553Y-89425000D01*
X175333460Y-89420775D01*
X175290828Y-89409352D01*
X175254057Y-89399499D01*
X175095943Y-89399499D01*
X175088347Y-89399499D01*
X175088331Y-89399500D01*
X173099500Y-89399500D01*
X173032461Y-89379815D01*
X172986706Y-89327011D01*
X172975500Y-89275500D01*
X172975500Y-88918427D01*
X175025000Y-88918427D01*
X175025000Y-88925000D01*
X175750000Y-88925000D01*
X176250000Y-88925000D01*
X176974999Y-88925000D01*
X176974999Y-88918417D01*
X176968591Y-88847897D01*
X176968590Y-88847892D01*
X176918018Y-88685603D01*
X176830072Y-88540122D01*
X176709877Y-88419927D01*
X176564395Y-88331980D01*
X176564396Y-88331980D01*
X176402105Y-88281409D01*
X176402106Y-88281409D01*
X176331572Y-88275000D01*
X176250000Y-88275000D01*
X176250000Y-88925000D01*
X175750000Y-88925000D01*
X175750000Y-88275000D01*
X175749999Y-88274999D01*
X175668417Y-88275000D01*
X175597897Y-88281408D01*
X175597892Y-88281409D01*
X175435603Y-88331981D01*
X175290122Y-88419927D01*
X175169927Y-88540122D01*
X175081980Y-88685604D01*
X175031409Y-88847893D01*
X175025000Y-88918427D01*
X172975500Y-88918427D01*
X172975500Y-88918386D01*
X172974158Y-88903619D01*
X172969086Y-88847804D01*
X172918478Y-88685394D01*
X172830472Y-88539815D01*
X172830470Y-88539813D01*
X172830469Y-88539811D01*
X172710188Y-88419530D01*
X172564606Y-88331522D01*
X172402196Y-88280914D01*
X172402194Y-88280913D01*
X172402192Y-88280913D01*
X172352778Y-88276423D01*
X172331616Y-88274500D01*
X172331613Y-88274500D01*
X172000097Y-88274500D01*
X171933058Y-88254815D01*
X171912416Y-88238181D01*
X171579390Y-87905155D01*
X171579388Y-87905152D01*
X171460517Y-87786281D01*
X171460516Y-87786280D01*
X171373704Y-87736160D01*
X171373704Y-87736159D01*
X171373700Y-87736158D01*
X171323585Y-87707223D01*
X171170857Y-87666299D01*
X171012743Y-87666299D01*
X171005147Y-87666299D01*
X171005131Y-87666300D01*
X167369669Y-87666300D01*
X167369653Y-87666299D01*
X167362057Y-87666299D01*
X167203943Y-87666299D01*
X167096587Y-87695065D01*
X167051210Y-87707224D01*
X167051209Y-87707225D01*
X167001096Y-87736159D01*
X167001095Y-87736160D01*
X166957689Y-87761220D01*
X166914285Y-87786279D01*
X166914282Y-87786281D01*
X166465279Y-88235284D01*
X166463607Y-88238181D01*
X166442639Y-88274500D01*
X166386223Y-88372215D01*
X166345299Y-88524943D01*
X166345299Y-88524945D01*
X166345299Y-88693046D01*
X166345300Y-88693059D01*
X166345300Y-89771630D01*
X166345299Y-89771648D01*
X166345299Y-89937354D01*
X166345298Y-89937354D01*
X166350640Y-89957289D01*
X166386223Y-90090085D01*
X166405804Y-90124000D01*
X166415158Y-90140200D01*
X166415159Y-90140204D01*
X166415160Y-90140204D01*
X166458449Y-90215185D01*
X166465279Y-90227014D01*
X166465281Y-90227017D01*
X166584149Y-90345885D01*
X166584155Y-90345890D01*
X166763181Y-90524916D01*
X166796666Y-90586239D01*
X166799500Y-90612597D01*
X166799500Y-91225001D01*
X166799501Y-91225019D01*
X166810000Y-91327796D01*
X166810001Y-91327799D01*
X166853870Y-91460185D01*
X166865186Y-91494334D01*
X166957288Y-91643656D01*
X167081344Y-91767712D01*
X167230666Y-91859814D01*
X167397203Y-91914999D01*
X167499991Y-91925500D01*
X168500008Y-91925499D01*
X168500016Y-91925498D01*
X168500019Y-91925498D01*
X168556302Y-91919748D01*
X168602797Y-91914999D01*
X168769334Y-91859814D01*
X168918656Y-91767712D01*
X169042712Y-91643656D01*
X169042715Y-91643650D01*
X169047193Y-91637989D01*
X169048343Y-91638898D01*
X169094218Y-91597619D01*
X169163179Y-91586382D01*
X169227266Y-91614213D01*
X169235513Y-91621748D01*
X172696584Y-95082819D01*
X172730069Y-95144142D01*
X172725085Y-95213834D01*
X172683213Y-95269767D01*
X172617749Y-95294184D01*
X172608903Y-95294500D01*
X171634298Y-95294500D01*
X171597432Y-95297401D01*
X171597426Y-95297402D01*
X171439606Y-95343254D01*
X171439603Y-95343255D01*
X171298137Y-95426917D01*
X171298129Y-95426923D01*
X171266874Y-95458180D01*
X171205552Y-95491666D01*
X171179192Y-95494500D01*
X140828666Y-95494500D01*
X140761627Y-95474815D01*
X140759775Y-95473602D01*
X140628085Y-95385609D01*
X140628072Y-95385602D01*
X140482401Y-95325264D01*
X140482389Y-95325261D01*
X140327745Y-95294500D01*
X140327742Y-95294500D01*
X140170058Y-95294500D01*
X140170055Y-95294500D01*
X140015410Y-95325261D01*
X140015398Y-95325264D01*
X139869727Y-95385602D01*
X139869714Y-95385609D01*
X139738611Y-95473210D01*
X139738607Y-95473213D01*
X139627113Y-95584707D01*
X139627110Y-95584711D01*
X139539509Y-95715814D01*
X139539502Y-95715827D01*
X139479164Y-95861498D01*
X139479161Y-95861510D01*
X139448400Y-96016153D01*
X136385388Y-96016153D01*
X135119847Y-94750612D01*
X135086362Y-94689289D01*
X135091346Y-94619597D01*
X135119850Y-94575247D01*
X135129715Y-94565382D01*
X135129721Y-94565374D01*
X135212031Y-94426195D01*
X135212033Y-94426190D01*
X135257144Y-94270918D01*
X135257145Y-94270912D01*
X135258790Y-94250000D01*
X134670597Y-94250000D01*
X134641156Y-94241355D01*
X134611170Y-94234832D01*
X134606154Y-94231077D01*
X134603558Y-94230315D01*
X134582916Y-94213681D01*
X134516319Y-94147084D01*
X134482834Y-94085761D01*
X134480000Y-94059403D01*
X134480000Y-94000000D01*
X134424500Y-94000000D01*
X134357461Y-93980315D01*
X134311706Y-93927511D01*
X134300500Y-93876000D01*
X134300500Y-93765317D01*
X134300499Y-93765302D01*
X134297643Y-93729008D01*
X134297642Y-93729002D01*
X134252495Y-93573608D01*
X134252492Y-93573600D01*
X134247266Y-93564763D01*
X134230000Y-93501645D01*
X134230000Y-93195494D01*
X134730000Y-93195494D01*
X134730000Y-93750000D01*
X135258790Y-93750000D01*
X135257145Y-93729089D01*
X135212031Y-93573804D01*
X135129721Y-93434625D01*
X135129714Y-93434616D01*
X135015383Y-93320285D01*
X135015374Y-93320278D01*
X134876193Y-93237967D01*
X134876190Y-93237965D01*
X134730001Y-93195493D01*
X134730000Y-93195494D01*
X134230000Y-93195494D01*
X134229998Y-93195493D01*
X134083809Y-93237965D01*
X134083806Y-93237967D01*
X134063608Y-93249912D01*
X133995884Y-93267092D01*
X133937370Y-93249910D01*
X133916397Y-93237507D01*
X133916390Y-93237504D01*
X133760997Y-93192357D01*
X133760991Y-93192356D01*
X133724697Y-93189500D01*
X133724690Y-93189500D01*
X133315310Y-93189500D01*
X133315302Y-93189500D01*
X133279008Y-93192356D01*
X133279002Y-93192357D01*
X133123609Y-93237504D01*
X133123606Y-93237505D01*
X132984315Y-93319881D01*
X132984307Y-93319887D01*
X132869887Y-93434307D01*
X132869881Y-93434315D01*
X132787505Y-93573606D01*
X132787504Y-93573609D01*
X132742357Y-93729002D01*
X132742356Y-93729008D01*
X132739500Y-93765302D01*
X132739500Y-93879903D01*
X132730855Y-93909343D01*
X132724332Y-93939330D01*
X132720577Y-93944345D01*
X132719815Y-93946942D01*
X132703181Y-93967584D01*
X132646084Y-94024681D01*
X132584761Y-94058166D01*
X132558403Y-94061000D01*
X130592362Y-94061000D01*
X130525323Y-94041315D01*
X130504681Y-94024681D01*
X130480000Y-94000000D01*
X130424500Y-94000000D01*
X130357461Y-93980315D01*
X130311706Y-93927511D01*
X130300500Y-93876000D01*
X130300500Y-93765317D01*
X130300499Y-93765302D01*
X130297643Y-93729008D01*
X130297642Y-93729002D01*
X130252495Y-93573608D01*
X130252492Y-93573600D01*
X130247266Y-93564763D01*
X130230000Y-93501645D01*
X130230000Y-93200721D01*
X130221982Y-93195494D01*
X130730000Y-93195494D01*
X130730000Y-93750000D01*
X131258790Y-93750000D01*
X131257145Y-93729089D01*
X131212031Y-93573804D01*
X131129721Y-93434625D01*
X131129714Y-93434616D01*
X131015383Y-93320285D01*
X131015374Y-93320278D01*
X130876193Y-93237967D01*
X130876190Y-93237965D01*
X130730001Y-93195493D01*
X130730000Y-93195494D01*
X130221982Y-93195494D01*
X130176783Y-93166030D01*
X130165336Y-93152645D01*
X130150551Y-93143082D01*
X130143102Y-93126645D01*
X130131373Y-93112930D01*
X130128980Y-93095482D01*
X130121711Y-93079442D01*
X130120500Y-93062153D01*
X130120500Y-90937845D01*
X130140185Y-90870806D01*
X130192989Y-90825051D01*
X130204919Y-90823335D01*
X130230000Y-90804504D01*
X130230000Y-90804503D01*
X130730000Y-90804503D01*
X130876195Y-90762031D01*
X131015374Y-90679721D01*
X131015383Y-90679714D01*
X131129714Y-90565383D01*
X131129721Y-90565374D01*
X131212031Y-90426195D01*
X131212033Y-90426190D01*
X131257144Y-90270918D01*
X131257145Y-90270912D01*
X131258790Y-90250000D01*
X130730000Y-90250000D01*
X130730000Y-90804503D01*
X130230000Y-90804503D01*
X130230000Y-90498352D01*
X130247267Y-90435233D01*
X130252494Y-90426395D01*
X130297643Y-90270993D01*
X130300500Y-90234690D01*
X130300500Y-90124000D01*
X130320185Y-90056961D01*
X130372989Y-90011206D01*
X130424500Y-90000000D01*
X130480000Y-90000000D01*
X130503181Y-89976819D01*
X130564504Y-89943334D01*
X130590862Y-89940500D01*
X132559903Y-89940500D01*
X132589343Y-89949144D01*
X132619330Y-89955668D01*
X132624345Y-89959422D01*
X132626942Y-89960185D01*
X132647584Y-89976819D01*
X132703181Y-90032416D01*
X132736666Y-90093739D01*
X132739500Y-90120097D01*
X132739500Y-90234697D01*
X132742356Y-90270991D01*
X132742357Y-90270997D01*
X132787504Y-90426390D01*
X132787505Y-90426393D01*
X132869881Y-90565684D01*
X132869887Y-90565692D01*
X132984307Y-90680112D01*
X132984311Y-90680115D01*
X132984313Y-90680117D01*
X133123605Y-90762494D01*
X133164587Y-90774400D01*
X133279002Y-90807642D01*
X133279005Y-90807642D01*
X133279007Y-90807643D01*
X133315310Y-90810500D01*
X133315318Y-90810500D01*
X133724682Y-90810500D01*
X133724690Y-90810500D01*
X133760993Y-90807643D01*
X133760995Y-90807642D01*
X133760997Y-90807642D01*
X133801975Y-90795736D01*
X133916395Y-90762494D01*
X133937369Y-90750089D01*
X134005088Y-90732906D01*
X134063613Y-90750090D01*
X134083803Y-90762031D01*
X134230000Y-90804504D01*
X134230000Y-90804503D01*
X134730000Y-90804503D01*
X134876195Y-90762031D01*
X135015374Y-90679721D01*
X135015383Y-90679714D01*
X135129714Y-90565383D01*
X135129721Y-90565374D01*
X135212031Y-90426195D01*
X135212033Y-90426190D01*
X135257144Y-90270918D01*
X135257145Y-90270912D01*
X135258790Y-90250000D01*
X134730000Y-90250000D01*
X134730000Y-90804503D01*
X134230000Y-90804503D01*
X134230000Y-90498352D01*
X134247267Y-90435233D01*
X134252494Y-90426395D01*
X134297643Y-90270993D01*
X134300500Y-90234690D01*
X134300500Y-89765310D01*
X134297643Y-89729007D01*
X134278871Y-89664395D01*
X134252495Y-89573608D01*
X134252492Y-89573600D01*
X134247266Y-89564763D01*
X134230000Y-89501645D01*
X134230000Y-89195494D01*
X134730000Y-89195494D01*
X134730000Y-89750000D01*
X135258790Y-89750000D01*
X135257145Y-89729089D01*
X135212031Y-89573804D01*
X135129721Y-89434625D01*
X135129714Y-89434616D01*
X135015383Y-89320285D01*
X135015374Y-89320278D01*
X134876193Y-89237967D01*
X134876190Y-89237965D01*
X134730001Y-89195493D01*
X134730000Y-89195494D01*
X134230000Y-89195494D01*
X134229998Y-89195493D01*
X134083809Y-89237965D01*
X134083806Y-89237967D01*
X134063608Y-89249912D01*
X133995884Y-89267092D01*
X133937370Y-89249910D01*
X133916397Y-89237507D01*
X133916390Y-89237504D01*
X133760997Y-89192357D01*
X133760991Y-89192356D01*
X133724697Y-89189500D01*
X133724690Y-89189500D01*
X133610097Y-89189500D01*
X133580656Y-89180855D01*
X133550670Y-89174332D01*
X133545654Y-89170577D01*
X133543058Y-89169815D01*
X133522416Y-89153181D01*
X133347590Y-88978355D01*
X133347588Y-88978352D01*
X133228717Y-88859481D01*
X133228716Y-88859480D01*
X133136577Y-88806284D01*
X133091785Y-88780423D01*
X132939057Y-88739499D01*
X132780943Y-88739499D01*
X132773347Y-88739499D01*
X132773331Y-88739500D01*
X130266669Y-88739500D01*
X130266653Y-88739499D01*
X130259057Y-88739499D01*
X130100943Y-88739499D01*
X129986397Y-88770192D01*
X129948214Y-88780423D01*
X129903423Y-88806284D01*
X129903422Y-88806284D01*
X129811287Y-88859477D01*
X129811282Y-88859481D01*
X129752380Y-88918384D01*
X129699480Y-88971284D01*
X129699478Y-88971286D01*
X129597026Y-89073739D01*
X129517584Y-89153181D01*
X129456261Y-89186666D01*
X129429903Y-89189500D01*
X129315302Y-89189500D01*
X129279008Y-89192356D01*
X129279002Y-89192357D01*
X129123609Y-89237504D01*
X129123606Y-89237505D01*
X128984315Y-89319881D01*
X128984307Y-89319887D01*
X128869887Y-89434307D01*
X128869881Y-89434315D01*
X128787505Y-89573606D01*
X128787504Y-89573609D01*
X128742357Y-89729002D01*
X128742356Y-89729008D01*
X128739500Y-89765302D01*
X100500500Y-89765302D01*
X100500500Y-80624500D01*
X100520185Y-80557461D01*
X100572989Y-80511706D01*
X100624500Y-80500500D01*
X199375500Y-80500500D01*
X199442539Y-80520185D01*
G37*
%TD.AperFunction*%
%TD*%
M02*
