%TF.GenerationSoftware,KiCad,Pcbnew,9.0.2*%
%TF.CreationDate,2026-04-04T21:19:19-05:00*%
%TF.ProjectId,cm4_carrier,636d345f-6361-4727-9269-65722e6b6963,rev?*%
%TF.SameCoordinates,Original*%
%TF.FileFunction,Legend,Top*%
%TF.FilePolarity,Positive*%
%FSLAX46Y46*%
G04 Gerber Fmt 4.6, Leading zero omitted, Abs format (unit mm)*
G04 Created by KiCad (PCBNEW 9.0.2) date 2026-04-04 21:19:19*
%MOMM*%
%LPD*%
G01*
G04 APERTURE LIST*
%ADD10C,0.150000*%
%ADD11C,0.120000*%
G04 APERTURE END LIST*
D10*
X184666666Y-132074819D02*
X184666666Y-132789104D01*
X184666666Y-132789104D02*
X184619047Y-132931961D01*
X184619047Y-132931961D02*
X184523809Y-133027200D01*
X184523809Y-133027200D02*
X184380952Y-133074819D01*
X184380952Y-133074819D02*
X184285714Y-133074819D01*
X185571428Y-132074819D02*
X185380952Y-132074819D01*
X185380952Y-132074819D02*
X185285714Y-132122438D01*
X185285714Y-132122438D02*
X185238095Y-132170057D01*
X185238095Y-132170057D02*
X185142857Y-132312914D01*
X185142857Y-132312914D02*
X185095238Y-132503390D01*
X185095238Y-132503390D02*
X185095238Y-132884342D01*
X185095238Y-132884342D02*
X185142857Y-132979580D01*
X185142857Y-132979580D02*
X185190476Y-133027200D01*
X185190476Y-133027200D02*
X185285714Y-133074819D01*
X185285714Y-133074819D02*
X185476190Y-133074819D01*
X185476190Y-133074819D02*
X185571428Y-133027200D01*
X185571428Y-133027200D02*
X185619047Y-132979580D01*
X185619047Y-132979580D02*
X185666666Y-132884342D01*
X185666666Y-132884342D02*
X185666666Y-132646247D01*
X185666666Y-132646247D02*
X185619047Y-132551009D01*
X185619047Y-132551009D02*
X185571428Y-132503390D01*
X185571428Y-132503390D02*
X185476190Y-132455771D01*
X185476190Y-132455771D02*
X185285714Y-132455771D01*
X185285714Y-132455771D02*
X185190476Y-132503390D01*
X185190476Y-132503390D02*
X185142857Y-132551009D01*
X185142857Y-132551009D02*
X185095238Y-132646247D01*
X127833333Y-134199580D02*
X127785714Y-134247200D01*
X127785714Y-134247200D02*
X127642857Y-134294819D01*
X127642857Y-134294819D02*
X127547619Y-134294819D01*
X127547619Y-134294819D02*
X127404762Y-134247200D01*
X127404762Y-134247200D02*
X127309524Y-134151961D01*
X127309524Y-134151961D02*
X127261905Y-134056723D01*
X127261905Y-134056723D02*
X127214286Y-133866247D01*
X127214286Y-133866247D02*
X127214286Y-133723390D01*
X127214286Y-133723390D02*
X127261905Y-133532914D01*
X127261905Y-133532914D02*
X127309524Y-133437676D01*
X127309524Y-133437676D02*
X127404762Y-133342438D01*
X127404762Y-133342438D02*
X127547619Y-133294819D01*
X127547619Y-133294819D02*
X127642857Y-133294819D01*
X127642857Y-133294819D02*
X127785714Y-133342438D01*
X127785714Y-133342438D02*
X127833333Y-133390057D01*
X128690476Y-133628152D02*
X128690476Y-134294819D01*
X128452381Y-133247200D02*
X128214286Y-133961485D01*
X128214286Y-133961485D02*
X128833333Y-133961485D01*
X99154819Y-135333333D02*
X99869104Y-135333333D01*
X99869104Y-135333333D02*
X100011961Y-135380952D01*
X100011961Y-135380952D02*
X100107200Y-135476190D01*
X100107200Y-135476190D02*
X100154819Y-135619047D01*
X100154819Y-135619047D02*
X100154819Y-135714285D01*
X99488152Y-134428571D02*
X100154819Y-134428571D01*
X99107200Y-134666666D02*
X99821485Y-134904761D01*
X99821485Y-134904761D02*
X99821485Y-134285714D01*
X166804819Y-90166666D02*
X166328628Y-90499999D01*
X166804819Y-90738094D02*
X165804819Y-90738094D01*
X165804819Y-90738094D02*
X165804819Y-90357142D01*
X165804819Y-90357142D02*
X165852438Y-90261904D01*
X165852438Y-90261904D02*
X165900057Y-90214285D01*
X165900057Y-90214285D02*
X165995295Y-90166666D01*
X165995295Y-90166666D02*
X166138152Y-90166666D01*
X166138152Y-90166666D02*
X166233390Y-90214285D01*
X166233390Y-90214285D02*
X166281009Y-90261904D01*
X166281009Y-90261904D02*
X166328628Y-90357142D01*
X166328628Y-90357142D02*
X166328628Y-90738094D01*
X166804819Y-89214285D02*
X166804819Y-89785713D01*
X166804819Y-89499999D02*
X165804819Y-89499999D01*
X165804819Y-89499999D02*
X165947676Y-89595237D01*
X165947676Y-89595237D02*
X166042914Y-89690475D01*
X166042914Y-89690475D02*
X166090533Y-89785713D01*
X124833333Y-100679580D02*
X124785714Y-100727200D01*
X124785714Y-100727200D02*
X124642857Y-100774819D01*
X124642857Y-100774819D02*
X124547619Y-100774819D01*
X124547619Y-100774819D02*
X124404762Y-100727200D01*
X124404762Y-100727200D02*
X124309524Y-100631961D01*
X124309524Y-100631961D02*
X124261905Y-100536723D01*
X124261905Y-100536723D02*
X124214286Y-100346247D01*
X124214286Y-100346247D02*
X124214286Y-100203390D01*
X124214286Y-100203390D02*
X124261905Y-100012914D01*
X124261905Y-100012914D02*
X124309524Y-99917676D01*
X124309524Y-99917676D02*
X124404762Y-99822438D01*
X124404762Y-99822438D02*
X124547619Y-99774819D01*
X124547619Y-99774819D02*
X124642857Y-99774819D01*
X124642857Y-99774819D02*
X124785714Y-99822438D01*
X124785714Y-99822438D02*
X124833333Y-99870057D01*
X125214286Y-99870057D02*
X125261905Y-99822438D01*
X125261905Y-99822438D02*
X125357143Y-99774819D01*
X125357143Y-99774819D02*
X125595238Y-99774819D01*
X125595238Y-99774819D02*
X125690476Y-99822438D01*
X125690476Y-99822438D02*
X125738095Y-99870057D01*
X125738095Y-99870057D02*
X125785714Y-99965295D01*
X125785714Y-99965295D02*
X125785714Y-100060533D01*
X125785714Y-100060533D02*
X125738095Y-100203390D01*
X125738095Y-100203390D02*
X125166667Y-100774819D01*
X125166667Y-100774819D02*
X125785714Y-100774819D01*
X174238095Y-94054819D02*
X174238095Y-94864342D01*
X174238095Y-94864342D02*
X174285714Y-94959580D01*
X174285714Y-94959580D02*
X174333333Y-95007200D01*
X174333333Y-95007200D02*
X174428571Y-95054819D01*
X174428571Y-95054819D02*
X174619047Y-95054819D01*
X174619047Y-95054819D02*
X174714285Y-95007200D01*
X174714285Y-95007200D02*
X174761904Y-94959580D01*
X174761904Y-94959580D02*
X174809523Y-94864342D01*
X174809523Y-94864342D02*
X174809523Y-94054819D01*
X175809523Y-95054819D02*
X175238095Y-95054819D01*
X175523809Y-95054819D02*
X175523809Y-94054819D01*
X175523809Y-94054819D02*
X175428571Y-94197676D01*
X175428571Y-94197676D02*
X175333333Y-94292914D01*
X175333333Y-94292914D02*
X175238095Y-94340533D01*
X141833333Y-87199580D02*
X141785714Y-87247200D01*
X141785714Y-87247200D02*
X141642857Y-87294819D01*
X141642857Y-87294819D02*
X141547619Y-87294819D01*
X141547619Y-87294819D02*
X141404762Y-87247200D01*
X141404762Y-87247200D02*
X141309524Y-87151961D01*
X141309524Y-87151961D02*
X141261905Y-87056723D01*
X141261905Y-87056723D02*
X141214286Y-86866247D01*
X141214286Y-86866247D02*
X141214286Y-86723390D01*
X141214286Y-86723390D02*
X141261905Y-86532914D01*
X141261905Y-86532914D02*
X141309524Y-86437676D01*
X141309524Y-86437676D02*
X141404762Y-86342438D01*
X141404762Y-86342438D02*
X141547619Y-86294819D01*
X141547619Y-86294819D02*
X141642857Y-86294819D01*
X141642857Y-86294819D02*
X141785714Y-86342438D01*
X141785714Y-86342438D02*
X141833333Y-86390057D01*
X142690476Y-86294819D02*
X142500000Y-86294819D01*
X142500000Y-86294819D02*
X142404762Y-86342438D01*
X142404762Y-86342438D02*
X142357143Y-86390057D01*
X142357143Y-86390057D02*
X142261905Y-86532914D01*
X142261905Y-86532914D02*
X142214286Y-86723390D01*
X142214286Y-86723390D02*
X142214286Y-87104342D01*
X142214286Y-87104342D02*
X142261905Y-87199580D01*
X142261905Y-87199580D02*
X142309524Y-87247200D01*
X142309524Y-87247200D02*
X142404762Y-87294819D01*
X142404762Y-87294819D02*
X142595238Y-87294819D01*
X142595238Y-87294819D02*
X142690476Y-87247200D01*
X142690476Y-87247200D02*
X142738095Y-87199580D01*
X142738095Y-87199580D02*
X142785714Y-87104342D01*
X142785714Y-87104342D02*
X142785714Y-86866247D01*
X142785714Y-86866247D02*
X142738095Y-86771009D01*
X142738095Y-86771009D02*
X142690476Y-86723390D01*
X142690476Y-86723390D02*
X142595238Y-86675771D01*
X142595238Y-86675771D02*
X142404762Y-86675771D01*
X142404762Y-86675771D02*
X142309524Y-86723390D01*
X142309524Y-86723390D02*
X142261905Y-86771009D01*
X142261905Y-86771009D02*
X142214286Y-86866247D01*
X117238095Y-131154819D02*
X117238095Y-131964342D01*
X117238095Y-131964342D02*
X117285714Y-132059580D01*
X117285714Y-132059580D02*
X117333333Y-132107200D01*
X117333333Y-132107200D02*
X117428571Y-132154819D01*
X117428571Y-132154819D02*
X117619047Y-132154819D01*
X117619047Y-132154819D02*
X117714285Y-132107200D01*
X117714285Y-132107200D02*
X117761904Y-132059580D01*
X117761904Y-132059580D02*
X117809523Y-131964342D01*
X117809523Y-131964342D02*
X117809523Y-131154819D01*
X118238095Y-131250057D02*
X118285714Y-131202438D01*
X118285714Y-131202438D02*
X118380952Y-131154819D01*
X118380952Y-131154819D02*
X118619047Y-131154819D01*
X118619047Y-131154819D02*
X118714285Y-131202438D01*
X118714285Y-131202438D02*
X118761904Y-131250057D01*
X118761904Y-131250057D02*
X118809523Y-131345295D01*
X118809523Y-131345295D02*
X118809523Y-131440533D01*
X118809523Y-131440533D02*
X118761904Y-131583390D01*
X118761904Y-131583390D02*
X118190476Y-132154819D01*
X118190476Y-132154819D02*
X118809523Y-132154819D01*
X191666666Y-95074819D02*
X191666666Y-95789104D01*
X191666666Y-95789104D02*
X191619047Y-95931961D01*
X191619047Y-95931961D02*
X191523809Y-96027200D01*
X191523809Y-96027200D02*
X191380952Y-96074819D01*
X191380952Y-96074819D02*
X191285714Y-96074819D01*
X192047619Y-95074819D02*
X192666666Y-95074819D01*
X192666666Y-95074819D02*
X192333333Y-95455771D01*
X192333333Y-95455771D02*
X192476190Y-95455771D01*
X192476190Y-95455771D02*
X192571428Y-95503390D01*
X192571428Y-95503390D02*
X192619047Y-95551009D01*
X192619047Y-95551009D02*
X192666666Y-95646247D01*
X192666666Y-95646247D02*
X192666666Y-95884342D01*
X192666666Y-95884342D02*
X192619047Y-95979580D01*
X192619047Y-95979580D02*
X192571428Y-96027200D01*
X192571428Y-96027200D02*
X192476190Y-96074819D01*
X192476190Y-96074819D02*
X192190476Y-96074819D01*
X192190476Y-96074819D02*
X192095238Y-96027200D01*
X192095238Y-96027200D02*
X192047619Y-95979580D01*
X155833333Y-87199580D02*
X155785714Y-87247200D01*
X155785714Y-87247200D02*
X155642857Y-87294819D01*
X155642857Y-87294819D02*
X155547619Y-87294819D01*
X155547619Y-87294819D02*
X155404762Y-87247200D01*
X155404762Y-87247200D02*
X155309524Y-87151961D01*
X155309524Y-87151961D02*
X155261905Y-87056723D01*
X155261905Y-87056723D02*
X155214286Y-86866247D01*
X155214286Y-86866247D02*
X155214286Y-86723390D01*
X155214286Y-86723390D02*
X155261905Y-86532914D01*
X155261905Y-86532914D02*
X155309524Y-86437676D01*
X155309524Y-86437676D02*
X155404762Y-86342438D01*
X155404762Y-86342438D02*
X155547619Y-86294819D01*
X155547619Y-86294819D02*
X155642857Y-86294819D01*
X155642857Y-86294819D02*
X155785714Y-86342438D01*
X155785714Y-86342438D02*
X155833333Y-86390057D01*
X156404762Y-86723390D02*
X156309524Y-86675771D01*
X156309524Y-86675771D02*
X156261905Y-86628152D01*
X156261905Y-86628152D02*
X156214286Y-86532914D01*
X156214286Y-86532914D02*
X156214286Y-86485295D01*
X156214286Y-86485295D02*
X156261905Y-86390057D01*
X156261905Y-86390057D02*
X156309524Y-86342438D01*
X156309524Y-86342438D02*
X156404762Y-86294819D01*
X156404762Y-86294819D02*
X156595238Y-86294819D01*
X156595238Y-86294819D02*
X156690476Y-86342438D01*
X156690476Y-86342438D02*
X156738095Y-86390057D01*
X156738095Y-86390057D02*
X156785714Y-86485295D01*
X156785714Y-86485295D02*
X156785714Y-86532914D01*
X156785714Y-86532914D02*
X156738095Y-86628152D01*
X156738095Y-86628152D02*
X156690476Y-86675771D01*
X156690476Y-86675771D02*
X156595238Y-86723390D01*
X156595238Y-86723390D02*
X156404762Y-86723390D01*
X156404762Y-86723390D02*
X156309524Y-86771009D01*
X156309524Y-86771009D02*
X156261905Y-86818628D01*
X156261905Y-86818628D02*
X156214286Y-86913866D01*
X156214286Y-86913866D02*
X156214286Y-87104342D01*
X156214286Y-87104342D02*
X156261905Y-87199580D01*
X156261905Y-87199580D02*
X156309524Y-87247200D01*
X156309524Y-87247200D02*
X156404762Y-87294819D01*
X156404762Y-87294819D02*
X156595238Y-87294819D01*
X156595238Y-87294819D02*
X156690476Y-87247200D01*
X156690476Y-87247200D02*
X156738095Y-87199580D01*
X156738095Y-87199580D02*
X156785714Y-87104342D01*
X156785714Y-87104342D02*
X156785714Y-86913866D01*
X156785714Y-86913866D02*
X156738095Y-86818628D01*
X156738095Y-86818628D02*
X156690476Y-86771009D01*
X156690476Y-86771009D02*
X156595238Y-86723390D01*
X175024819Y-90166666D02*
X174548628Y-90499999D01*
X175024819Y-90738094D02*
X174024819Y-90738094D01*
X174024819Y-90738094D02*
X174024819Y-90357142D01*
X174024819Y-90357142D02*
X174072438Y-90261904D01*
X174072438Y-90261904D02*
X174120057Y-90214285D01*
X174120057Y-90214285D02*
X174215295Y-90166666D01*
X174215295Y-90166666D02*
X174358152Y-90166666D01*
X174358152Y-90166666D02*
X174453390Y-90214285D01*
X174453390Y-90214285D02*
X174501009Y-90261904D01*
X174501009Y-90261904D02*
X174548628Y-90357142D01*
X174548628Y-90357142D02*
X174548628Y-90738094D01*
X174024819Y-89833332D02*
X174024819Y-89214285D01*
X174024819Y-89214285D02*
X174405771Y-89547618D01*
X174405771Y-89547618D02*
X174405771Y-89404761D01*
X174405771Y-89404761D02*
X174453390Y-89309523D01*
X174453390Y-89309523D02*
X174501009Y-89261904D01*
X174501009Y-89261904D02*
X174596247Y-89214285D01*
X174596247Y-89214285D02*
X174834342Y-89214285D01*
X174834342Y-89214285D02*
X174929580Y-89261904D01*
X174929580Y-89261904D02*
X174977200Y-89309523D01*
X174977200Y-89309523D02*
X175024819Y-89404761D01*
X175024819Y-89404761D02*
X175024819Y-89690475D01*
X175024819Y-89690475D02*
X174977200Y-89785713D01*
X174977200Y-89785713D02*
X174929580Y-89833332D01*
X142936666Y-105074819D02*
X142936666Y-105789104D01*
X142936666Y-105789104D02*
X142889047Y-105931961D01*
X142889047Y-105931961D02*
X142793809Y-106027200D01*
X142793809Y-106027200D02*
X142650952Y-106074819D01*
X142650952Y-106074819D02*
X142555714Y-106074819D01*
X143365238Y-105170057D02*
X143412857Y-105122438D01*
X143412857Y-105122438D02*
X143508095Y-105074819D01*
X143508095Y-105074819D02*
X143746190Y-105074819D01*
X143746190Y-105074819D02*
X143841428Y-105122438D01*
X143841428Y-105122438D02*
X143889047Y-105170057D01*
X143889047Y-105170057D02*
X143936666Y-105265295D01*
X143936666Y-105265295D02*
X143936666Y-105360533D01*
X143936666Y-105360533D02*
X143889047Y-105503390D01*
X143889047Y-105503390D02*
X143317619Y-106074819D01*
X143317619Y-106074819D02*
X143936666Y-106074819D01*
X114666666Y-89281009D02*
X114333333Y-89281009D01*
X114333333Y-89804819D02*
X114333333Y-88804819D01*
X114333333Y-88804819D02*
X114809523Y-88804819D01*
X115714285Y-89804819D02*
X115142857Y-89804819D01*
X115428571Y-89804819D02*
X115428571Y-88804819D01*
X115428571Y-88804819D02*
X115333333Y-88947676D01*
X115333333Y-88947676D02*
X115238095Y-89042914D01*
X115238095Y-89042914D02*
X115142857Y-89090533D01*
X148833333Y-87199580D02*
X148785714Y-87247200D01*
X148785714Y-87247200D02*
X148642857Y-87294819D01*
X148642857Y-87294819D02*
X148547619Y-87294819D01*
X148547619Y-87294819D02*
X148404762Y-87247200D01*
X148404762Y-87247200D02*
X148309524Y-87151961D01*
X148309524Y-87151961D02*
X148261905Y-87056723D01*
X148261905Y-87056723D02*
X148214286Y-86866247D01*
X148214286Y-86866247D02*
X148214286Y-86723390D01*
X148214286Y-86723390D02*
X148261905Y-86532914D01*
X148261905Y-86532914D02*
X148309524Y-86437676D01*
X148309524Y-86437676D02*
X148404762Y-86342438D01*
X148404762Y-86342438D02*
X148547619Y-86294819D01*
X148547619Y-86294819D02*
X148642857Y-86294819D01*
X148642857Y-86294819D02*
X148785714Y-86342438D01*
X148785714Y-86342438D02*
X148833333Y-86390057D01*
X149166667Y-86294819D02*
X149833333Y-86294819D01*
X149833333Y-86294819D02*
X149404762Y-87294819D01*
X174666666Y-132074819D02*
X174666666Y-132789104D01*
X174666666Y-132789104D02*
X174619047Y-132931961D01*
X174619047Y-132931961D02*
X174523809Y-133027200D01*
X174523809Y-133027200D02*
X174380952Y-133074819D01*
X174380952Y-133074819D02*
X174285714Y-133074819D01*
X175619047Y-132074819D02*
X175142857Y-132074819D01*
X175142857Y-132074819D02*
X175095238Y-132551009D01*
X175095238Y-132551009D02*
X175142857Y-132503390D01*
X175142857Y-132503390D02*
X175238095Y-132455771D01*
X175238095Y-132455771D02*
X175476190Y-132455771D01*
X175476190Y-132455771D02*
X175571428Y-132503390D01*
X175571428Y-132503390D02*
X175619047Y-132551009D01*
X175619047Y-132551009D02*
X175666666Y-132646247D01*
X175666666Y-132646247D02*
X175666666Y-132884342D01*
X175666666Y-132884342D02*
X175619047Y-132979580D01*
X175619047Y-132979580D02*
X175571428Y-133027200D01*
X175571428Y-133027200D02*
X175476190Y-133074819D01*
X175476190Y-133074819D02*
X175238095Y-133074819D01*
X175238095Y-133074819D02*
X175142857Y-133027200D01*
X175142857Y-133027200D02*
X175095238Y-132979580D01*
X102666666Y-97074819D02*
X102666666Y-97789104D01*
X102666666Y-97789104D02*
X102619047Y-97931961D01*
X102619047Y-97931961D02*
X102523809Y-98027200D01*
X102523809Y-98027200D02*
X102380952Y-98074819D01*
X102380952Y-98074819D02*
X102285714Y-98074819D01*
X103666666Y-98074819D02*
X103095238Y-98074819D01*
X103380952Y-98074819D02*
X103380952Y-97074819D01*
X103380952Y-97074819D02*
X103285714Y-97217676D01*
X103285714Y-97217676D02*
X103190476Y-97312914D01*
X103190476Y-97312914D02*
X103095238Y-97360533D01*
X124833333Y-90059580D02*
X124785714Y-90107200D01*
X124785714Y-90107200D02*
X124642857Y-90154819D01*
X124642857Y-90154819D02*
X124547619Y-90154819D01*
X124547619Y-90154819D02*
X124404762Y-90107200D01*
X124404762Y-90107200D02*
X124309524Y-90011961D01*
X124309524Y-90011961D02*
X124261905Y-89916723D01*
X124261905Y-89916723D02*
X124214286Y-89726247D01*
X124214286Y-89726247D02*
X124214286Y-89583390D01*
X124214286Y-89583390D02*
X124261905Y-89392914D01*
X124261905Y-89392914D02*
X124309524Y-89297676D01*
X124309524Y-89297676D02*
X124404762Y-89202438D01*
X124404762Y-89202438D02*
X124547619Y-89154819D01*
X124547619Y-89154819D02*
X124642857Y-89154819D01*
X124642857Y-89154819D02*
X124785714Y-89202438D01*
X124785714Y-89202438D02*
X124833333Y-89250057D01*
X125785714Y-90154819D02*
X125214286Y-90154819D01*
X125500000Y-90154819D02*
X125500000Y-89154819D01*
X125500000Y-89154819D02*
X125404762Y-89297676D01*
X125404762Y-89297676D02*
X125309524Y-89392914D01*
X125309524Y-89392914D02*
X125214286Y-89440533D01*
X167833333Y-104199580D02*
X167785714Y-104247200D01*
X167785714Y-104247200D02*
X167642857Y-104294819D01*
X167642857Y-104294819D02*
X167547619Y-104294819D01*
X167547619Y-104294819D02*
X167404762Y-104247200D01*
X167404762Y-104247200D02*
X167309524Y-104151961D01*
X167309524Y-104151961D02*
X167261905Y-104056723D01*
X167261905Y-104056723D02*
X167214286Y-103866247D01*
X167214286Y-103866247D02*
X167214286Y-103723390D01*
X167214286Y-103723390D02*
X167261905Y-103532914D01*
X167261905Y-103532914D02*
X167309524Y-103437676D01*
X167309524Y-103437676D02*
X167404762Y-103342438D01*
X167404762Y-103342438D02*
X167547619Y-103294819D01*
X167547619Y-103294819D02*
X167642857Y-103294819D01*
X167642857Y-103294819D02*
X167785714Y-103342438D01*
X167785714Y-103342438D02*
X167833333Y-103390057D01*
X168166667Y-103294819D02*
X168785714Y-103294819D01*
X168785714Y-103294819D02*
X168452381Y-103675771D01*
X168452381Y-103675771D02*
X168595238Y-103675771D01*
X168595238Y-103675771D02*
X168690476Y-103723390D01*
X168690476Y-103723390D02*
X168738095Y-103771009D01*
X168738095Y-103771009D02*
X168785714Y-103866247D01*
X168785714Y-103866247D02*
X168785714Y-104104342D01*
X168785714Y-104104342D02*
X168738095Y-104199580D01*
X168738095Y-104199580D02*
X168690476Y-104247200D01*
X168690476Y-104247200D02*
X168595238Y-104294819D01*
X168595238Y-104294819D02*
X168309524Y-104294819D01*
X168309524Y-104294819D02*
X168214286Y-104247200D01*
X168214286Y-104247200D02*
X168166667Y-104199580D01*
X191666666Y-133074819D02*
X191666666Y-133789104D01*
X191666666Y-133789104D02*
X191619047Y-133931961D01*
X191619047Y-133931961D02*
X191523809Y-134027200D01*
X191523809Y-134027200D02*
X191380952Y-134074819D01*
X191380952Y-134074819D02*
X191285714Y-134074819D01*
X192047619Y-133074819D02*
X192714285Y-133074819D01*
X192714285Y-133074819D02*
X192285714Y-134074819D01*
X171024819Y-90166666D02*
X170548628Y-90499999D01*
X171024819Y-90738094D02*
X170024819Y-90738094D01*
X170024819Y-90738094D02*
X170024819Y-90357142D01*
X170024819Y-90357142D02*
X170072438Y-90261904D01*
X170072438Y-90261904D02*
X170120057Y-90214285D01*
X170120057Y-90214285D02*
X170215295Y-90166666D01*
X170215295Y-90166666D02*
X170358152Y-90166666D01*
X170358152Y-90166666D02*
X170453390Y-90214285D01*
X170453390Y-90214285D02*
X170501009Y-90261904D01*
X170501009Y-90261904D02*
X170548628Y-90357142D01*
X170548628Y-90357142D02*
X170548628Y-90738094D01*
X170120057Y-89785713D02*
X170072438Y-89738094D01*
X170072438Y-89738094D02*
X170024819Y-89642856D01*
X170024819Y-89642856D02*
X170024819Y-89404761D01*
X170024819Y-89404761D02*
X170072438Y-89309523D01*
X170072438Y-89309523D02*
X170120057Y-89261904D01*
X170120057Y-89261904D02*
X170215295Y-89214285D01*
X170215295Y-89214285D02*
X170310533Y-89214285D01*
X170310533Y-89214285D02*
X170453390Y-89261904D01*
X170453390Y-89261904D02*
X171024819Y-89833332D01*
X171024819Y-89833332D02*
X171024819Y-89214285D01*
X134833333Y-87199580D02*
X134785714Y-87247200D01*
X134785714Y-87247200D02*
X134642857Y-87294819D01*
X134642857Y-87294819D02*
X134547619Y-87294819D01*
X134547619Y-87294819D02*
X134404762Y-87247200D01*
X134404762Y-87247200D02*
X134309524Y-87151961D01*
X134309524Y-87151961D02*
X134261905Y-87056723D01*
X134261905Y-87056723D02*
X134214286Y-86866247D01*
X134214286Y-86866247D02*
X134214286Y-86723390D01*
X134214286Y-86723390D02*
X134261905Y-86532914D01*
X134261905Y-86532914D02*
X134309524Y-86437676D01*
X134309524Y-86437676D02*
X134404762Y-86342438D01*
X134404762Y-86342438D02*
X134547619Y-86294819D01*
X134547619Y-86294819D02*
X134642857Y-86294819D01*
X134642857Y-86294819D02*
X134785714Y-86342438D01*
X134785714Y-86342438D02*
X134833333Y-86390057D01*
X135738095Y-86294819D02*
X135261905Y-86294819D01*
X135261905Y-86294819D02*
X135214286Y-86771009D01*
X135214286Y-86771009D02*
X135261905Y-86723390D01*
X135261905Y-86723390D02*
X135357143Y-86675771D01*
X135357143Y-86675771D02*
X135595238Y-86675771D01*
X135595238Y-86675771D02*
X135690476Y-86723390D01*
X135690476Y-86723390D02*
X135738095Y-86771009D01*
X135738095Y-86771009D02*
X135785714Y-86866247D01*
X135785714Y-86866247D02*
X135785714Y-87104342D01*
X135785714Y-87104342D02*
X135738095Y-87199580D01*
X135738095Y-87199580D02*
X135690476Y-87247200D01*
X135690476Y-87247200D02*
X135595238Y-87294819D01*
X135595238Y-87294819D02*
X135357143Y-87294819D01*
X135357143Y-87294819D02*
X135261905Y-87247200D01*
X135261905Y-87247200D02*
X135214286Y-87199580D01*
X167024819Y-130166666D02*
X166548628Y-130499999D01*
X167024819Y-130738094D02*
X166024819Y-130738094D01*
X166024819Y-130738094D02*
X166024819Y-130357142D01*
X166024819Y-130357142D02*
X166072438Y-130261904D01*
X166072438Y-130261904D02*
X166120057Y-130214285D01*
X166120057Y-130214285D02*
X166215295Y-130166666D01*
X166215295Y-130166666D02*
X166358152Y-130166666D01*
X166358152Y-130166666D02*
X166453390Y-130214285D01*
X166453390Y-130214285D02*
X166501009Y-130261904D01*
X166501009Y-130261904D02*
X166548628Y-130357142D01*
X166548628Y-130357142D02*
X166548628Y-130738094D01*
X166358152Y-129309523D02*
X167024819Y-129309523D01*
X165977200Y-129547618D02*
X166691485Y-129785713D01*
X166691485Y-129785713D02*
X166691485Y-129166666D01*
X171024819Y-130166666D02*
X170548628Y-130499999D01*
X171024819Y-130738094D02*
X170024819Y-130738094D01*
X170024819Y-130738094D02*
X170024819Y-130357142D01*
X170024819Y-130357142D02*
X170072438Y-130261904D01*
X170072438Y-130261904D02*
X170120057Y-130214285D01*
X170120057Y-130214285D02*
X170215295Y-130166666D01*
X170215295Y-130166666D02*
X170358152Y-130166666D01*
X170358152Y-130166666D02*
X170453390Y-130214285D01*
X170453390Y-130214285D02*
X170501009Y-130261904D01*
X170501009Y-130261904D02*
X170548628Y-130357142D01*
X170548628Y-130357142D02*
X170548628Y-130738094D01*
X170024819Y-129261904D02*
X170024819Y-129738094D01*
X170024819Y-129738094D02*
X170501009Y-129785713D01*
X170501009Y-129785713D02*
X170453390Y-129738094D01*
X170453390Y-129738094D02*
X170405771Y-129642856D01*
X170405771Y-129642856D02*
X170405771Y-129404761D01*
X170405771Y-129404761D02*
X170453390Y-129309523D01*
X170453390Y-129309523D02*
X170501009Y-129261904D01*
X170501009Y-129261904D02*
X170596247Y-129214285D01*
X170596247Y-129214285D02*
X170834342Y-129214285D01*
X170834342Y-129214285D02*
X170929580Y-129261904D01*
X170929580Y-129261904D02*
X170977200Y-129309523D01*
X170977200Y-129309523D02*
X171024819Y-129404761D01*
X171024819Y-129404761D02*
X171024819Y-129642856D01*
X171024819Y-129642856D02*
X170977200Y-129738094D01*
X170977200Y-129738094D02*
X170929580Y-129785713D01*
X114904761Y-100150057D02*
X114809523Y-100102438D01*
X114809523Y-100102438D02*
X114714285Y-100007200D01*
X114714285Y-100007200D02*
X114571428Y-99864342D01*
X114571428Y-99864342D02*
X114476190Y-99816723D01*
X114476190Y-99816723D02*
X114380952Y-99816723D01*
X114428571Y-100054819D02*
X114333333Y-100007200D01*
X114333333Y-100007200D02*
X114238095Y-99911961D01*
X114238095Y-99911961D02*
X114190476Y-99721485D01*
X114190476Y-99721485D02*
X114190476Y-99388152D01*
X114190476Y-99388152D02*
X114238095Y-99197676D01*
X114238095Y-99197676D02*
X114333333Y-99102438D01*
X114333333Y-99102438D02*
X114428571Y-99054819D01*
X114428571Y-99054819D02*
X114619047Y-99054819D01*
X114619047Y-99054819D02*
X114714285Y-99102438D01*
X114714285Y-99102438D02*
X114809523Y-99197676D01*
X114809523Y-99197676D02*
X114857142Y-99388152D01*
X114857142Y-99388152D02*
X114857142Y-99721485D01*
X114857142Y-99721485D02*
X114809523Y-99911961D01*
X114809523Y-99911961D02*
X114714285Y-100007200D01*
X114714285Y-100007200D02*
X114619047Y-100054819D01*
X114619047Y-100054819D02*
X114428571Y-100054819D01*
X115809523Y-100054819D02*
X115238095Y-100054819D01*
X115523809Y-100054819D02*
X115523809Y-99054819D01*
X115523809Y-99054819D02*
X115428571Y-99197676D01*
X115428571Y-99197676D02*
X115333333Y-99292914D01*
X115333333Y-99292914D02*
X115238095Y-99340533D01*
D11*
%TO.C,J6*%
X183620000Y-133620000D02*
X185000000Y-133620000D01*
X183620000Y-135000000D02*
X183620000Y-133620000D01*
X183620000Y-136270000D02*
X183620000Y-149080000D01*
X183620000Y-136270000D02*
X186380000Y-136270000D01*
X183620000Y-149080000D02*
X186380000Y-149080000D01*
X186380000Y-136270000D02*
X186380000Y-149080000D01*
%TO.C,C4*%
X127892164Y-134640000D02*
X128107836Y-134640000D01*
X127892164Y-135360000D02*
X128107836Y-135360000D01*
%TO.C,J4*%
X101290000Y-131190000D02*
X101290000Y-131570000D01*
X101290000Y-131190000D02*
X103060000Y-131190000D01*
X101290000Y-138810000D02*
X101290000Y-138430000D01*
X103060000Y-138810000D02*
X101290000Y-138810000D01*
X105340000Y-131190000D02*
X105600000Y-131190000D01*
X105600000Y-138810000D02*
X105340000Y-138810000D01*
%TO.C,R1*%
X167265000Y-90227064D02*
X167265000Y-89772936D01*
X168735000Y-90227064D02*
X168735000Y-89772936D01*
%TO.C,C2*%
X124738748Y-101265000D02*
X125261252Y-101265000D01*
X124738748Y-102735000D02*
X125261252Y-102735000D01*
%TO.C,U1*%
X172940000Y-95440000D02*
X177060000Y-95440000D01*
X172940000Y-95535000D02*
X172940000Y-95440000D01*
X172940000Y-100560000D02*
X172940000Y-100465000D01*
X177060000Y-95440000D02*
X177060000Y-95535000D01*
X177060000Y-100465000D02*
X177060000Y-100560000D01*
X177060000Y-100560000D02*
X172940000Y-100560000D01*
X172400000Y-95530000D02*
X172160000Y-95200000D01*
X172640000Y-95200000D01*
X172400000Y-95530000D01*
G36*
X172400000Y-95530000D02*
G01*
X172160000Y-95200000D01*
X172640000Y-95200000D01*
X172400000Y-95530000D01*
G37*
%TO.C,C6*%
X141892164Y-87640000D02*
X142107836Y-87640000D01*
X141892164Y-88360000D02*
X142107836Y-88360000D01*
%TO.C,U2*%
X115890000Y-132890000D02*
X116615000Y-132890000D01*
X115890000Y-133615000D02*
X115890000Y-132890000D01*
X115890000Y-137110000D02*
X115890000Y-136385000D01*
X116615000Y-137110000D02*
X115890000Y-137110000D01*
X119385000Y-132890000D02*
X120110000Y-132890000D01*
X120110000Y-132890000D02*
X120110000Y-133615000D01*
X120110000Y-136385000D02*
X120110000Y-137110000D01*
X120110000Y-137110000D02*
X119385000Y-137110000D01*
X115390000Y-134000000D02*
X115060000Y-134240000D01*
X115060000Y-133760000D01*
X115390000Y-134000000D01*
G36*
X115390000Y-134000000D02*
G01*
X115060000Y-134240000D01*
X115060000Y-133760000D01*
X115390000Y-134000000D01*
G37*
%TO.C,J3*%
X190620000Y-96620000D02*
X192000000Y-96620000D01*
X190620000Y-98000000D02*
X190620000Y-96620000D01*
X190620000Y-99270000D02*
X190620000Y-107000000D01*
X190620000Y-99270000D02*
X193380000Y-99270000D01*
X190620000Y-107000000D02*
X193380000Y-107000000D01*
X193380000Y-99270000D02*
X193380000Y-107000000D01*
%TO.C,C8*%
X155892164Y-87640000D02*
X156107836Y-87640000D01*
X155892164Y-88360000D02*
X156107836Y-88360000D01*
%TO.C,R3*%
X175477500Y-90237258D02*
X175477500Y-89762742D01*
X176522500Y-90237258D02*
X176522500Y-89762742D01*
%TO.C,J2*%
X140620000Y-106620000D02*
X142000000Y-106620000D01*
X140620000Y-108000000D02*
X140620000Y-106620000D01*
X140620000Y-109270000D02*
X140620000Y-157640000D01*
X140620000Y-109270000D02*
X143270000Y-109270000D01*
X140620000Y-157640000D02*
X145920000Y-157640000D01*
X143270000Y-106620000D02*
X145920000Y-106620000D01*
X143270000Y-109270000D02*
X143270000Y-106620000D01*
X145920000Y-106620000D02*
X145920000Y-157640000D01*
%TO.C,F1*%
X113613748Y-90290000D02*
X116386252Y-90290000D01*
X113613748Y-93710000D02*
X116386252Y-93710000D01*
%TO.C,C7*%
X148892164Y-87640000D02*
X149107836Y-87640000D01*
X148892164Y-88360000D02*
X149107836Y-88360000D01*
%TO.C,J5*%
X173620000Y-133620000D02*
X175000000Y-133620000D01*
X173620000Y-135000000D02*
X173620000Y-133620000D01*
X173620000Y-136270000D02*
X173620000Y-144000000D01*
X173620000Y-136270000D02*
X176380000Y-136270000D01*
X173620000Y-144000000D02*
X176380000Y-144000000D01*
X176380000Y-136270000D02*
X176380000Y-144000000D01*
%TO.C,J1*%
X101620000Y-98620000D02*
X103000000Y-98620000D01*
X101620000Y-100000000D02*
X101620000Y-98620000D01*
X101620000Y-101270000D02*
X101620000Y-103920000D01*
X101620000Y-101270000D02*
X104380000Y-101270000D01*
X101620000Y-103920000D02*
X104380000Y-103920000D01*
X104380000Y-101270000D02*
X104380000Y-103920000D01*
%TO.C,C1*%
X124288748Y-90640000D02*
X125711252Y-90640000D01*
X124288748Y-93360000D02*
X125711252Y-93360000D01*
%TO.C,C3*%
X167892164Y-104640000D02*
X168107836Y-104640000D01*
X167892164Y-105360000D02*
X168107836Y-105360000D01*
%TO.C,J7*%
X190620000Y-134620000D02*
X192000000Y-134620000D01*
X190620000Y-136000000D02*
X190620000Y-134620000D01*
X190620000Y-137270000D02*
X190620000Y-155160000D01*
X190620000Y-137270000D02*
X193380000Y-137270000D01*
X190620000Y-155160000D02*
X193380000Y-155160000D01*
X193380000Y-137270000D02*
X193380000Y-155160000D01*
%TO.C,R2*%
X171477500Y-90237258D02*
X171477500Y-89762742D01*
X172522500Y-90237258D02*
X172522500Y-89762742D01*
%TO.C,C5*%
X134892164Y-87640000D02*
X135107836Y-87640000D01*
X134892164Y-88360000D02*
X135107836Y-88360000D01*
%TO.C,R4*%
X167477500Y-130237258D02*
X167477500Y-129762742D01*
X168522500Y-130237258D02*
X168522500Y-129762742D01*
%TO.C,R5*%
X171477500Y-130237258D02*
X171477500Y-129762742D01*
X172522500Y-130237258D02*
X172522500Y-129762742D01*
%TO.C,Q1*%
X114240000Y-100440000D02*
X115760000Y-100440000D01*
X114240000Y-100490000D02*
X114240000Y-100440000D01*
X114240000Y-102390000D02*
X114240000Y-101610000D01*
X114240000Y-103560000D02*
X114240000Y-103510000D01*
X115760000Y-100440000D02*
X115760000Y-101440000D01*
X115760000Y-102560000D02*
X115760000Y-103560000D01*
X115760000Y-103560000D02*
X114240000Y-103560000D01*
X113940000Y-101950000D02*
X113460000Y-101950000D01*
X113700000Y-101620000D01*
X113940000Y-101950000D01*
G36*
X113940000Y-101950000D02*
G01*
X113460000Y-101950000D01*
X113700000Y-101620000D01*
X113940000Y-101950000D01*
G37*
%TD*%
M02*
