%TF.GenerationSoftware,KiCad,Pcbnew,9.0.2*%
%TF.CreationDate,2026-04-04T22:46:44-05:00*%
%TF.ProjectId,cm4_carrier,636d345f-6361-4727-9269-65722e6b6963,rev?*%
%TF.SameCoordinates,Original*%
%TF.FileFunction,Legend,Top*%
%TF.FilePolarity,Positive*%
%FSLAX46Y46*%
G04 Gerber Fmt 4.6, Leading zero omitted, Abs format (unit mm)*
G04 Created by KiCad (PCBNEW 9.0.2) date 2026-04-04 22:46:44*
%MOMM*%
%LPD*%
G01*
G04 APERTURE LIST*
%ADD10C,0.150000*%
%ADD11C,0.120000*%
G04 APERTURE END LIST*
D10*
X167833333Y-104199580D02*
X167785714Y-104247200D01*
X167785714Y-104247200D02*
X167642857Y-104294819D01*
X167642857Y-104294819D02*
X167547619Y-104294819D01*
X167547619Y-104294819D02*
X167404762Y-104247200D01*
X167404762Y-104247200D02*
X167309524Y-104151961D01*
X167309524Y-104151961D02*
X167261905Y-104056723D01*
X167261905Y-104056723D02*
X167214286Y-103866247D01*
X167214286Y-103866247D02*
X167214286Y-103723390D01*
X167214286Y-103723390D02*
X167261905Y-103532914D01*
X167261905Y-103532914D02*
X167309524Y-103437676D01*
X167309524Y-103437676D02*
X167404762Y-103342438D01*
X167404762Y-103342438D02*
X167547619Y-103294819D01*
X167547619Y-103294819D02*
X167642857Y-103294819D01*
X167642857Y-103294819D02*
X167785714Y-103342438D01*
X167785714Y-103342438D02*
X167833333Y-103390057D01*
X168166667Y-103294819D02*
X168785714Y-103294819D01*
X168785714Y-103294819D02*
X168452381Y-103675771D01*
X168452381Y-103675771D02*
X168595238Y-103675771D01*
X168595238Y-103675771D02*
X168690476Y-103723390D01*
X168690476Y-103723390D02*
X168738095Y-103771009D01*
X168738095Y-103771009D02*
X168785714Y-103866247D01*
X168785714Y-103866247D02*
X168785714Y-104104342D01*
X168785714Y-104104342D02*
X168738095Y-104199580D01*
X168738095Y-104199580D02*
X168690476Y-104247200D01*
X168690476Y-104247200D02*
X168595238Y-104294819D01*
X168595238Y-104294819D02*
X168309524Y-104294819D01*
X168309524Y-104294819D02*
X168214286Y-104247200D01*
X168214286Y-104247200D02*
X168166667Y-104199580D01*
X107666666Y-144154819D02*
X107666666Y-144869104D01*
X107666666Y-144869104D02*
X107619047Y-145011961D01*
X107619047Y-145011961D02*
X107523809Y-145107200D01*
X107523809Y-145107200D02*
X107380952Y-145154819D01*
X107380952Y-145154819D02*
X107285714Y-145154819D01*
X108571428Y-144488152D02*
X108571428Y-145154819D01*
X108333333Y-144107200D02*
X108095238Y-144821485D01*
X108095238Y-144821485D02*
X108714285Y-144821485D01*
X171024819Y-130166666D02*
X170548628Y-130499999D01*
X171024819Y-130738094D02*
X170024819Y-130738094D01*
X170024819Y-130738094D02*
X170024819Y-130357142D01*
X170024819Y-130357142D02*
X170072438Y-130261904D01*
X170072438Y-130261904D02*
X170120057Y-130214285D01*
X170120057Y-130214285D02*
X170215295Y-130166666D01*
X170215295Y-130166666D02*
X170358152Y-130166666D01*
X170358152Y-130166666D02*
X170453390Y-130214285D01*
X170453390Y-130214285D02*
X170501009Y-130261904D01*
X170501009Y-130261904D02*
X170548628Y-130357142D01*
X170548628Y-130357142D02*
X170548628Y-130738094D01*
X170024819Y-129261904D02*
X170024819Y-129738094D01*
X170024819Y-129738094D02*
X170501009Y-129785713D01*
X170501009Y-129785713D02*
X170453390Y-129738094D01*
X170453390Y-129738094D02*
X170405771Y-129642856D01*
X170405771Y-129642856D02*
X170405771Y-129404761D01*
X170405771Y-129404761D02*
X170453390Y-129309523D01*
X170453390Y-129309523D02*
X170501009Y-129261904D01*
X170501009Y-129261904D02*
X170596247Y-129214285D01*
X170596247Y-129214285D02*
X170834342Y-129214285D01*
X170834342Y-129214285D02*
X170929580Y-129261904D01*
X170929580Y-129261904D02*
X170977200Y-129309523D01*
X170977200Y-129309523D02*
X171024819Y-129404761D01*
X171024819Y-129404761D02*
X171024819Y-129642856D01*
X171024819Y-129642856D02*
X170977200Y-129738094D01*
X170977200Y-129738094D02*
X170929580Y-129785713D01*
X129833333Y-89199580D02*
X129785714Y-89247200D01*
X129785714Y-89247200D02*
X129642857Y-89294819D01*
X129642857Y-89294819D02*
X129547619Y-89294819D01*
X129547619Y-89294819D02*
X129404762Y-89247200D01*
X129404762Y-89247200D02*
X129309524Y-89151961D01*
X129309524Y-89151961D02*
X129261905Y-89056723D01*
X129261905Y-89056723D02*
X129214286Y-88866247D01*
X129214286Y-88866247D02*
X129214286Y-88723390D01*
X129214286Y-88723390D02*
X129261905Y-88532914D01*
X129261905Y-88532914D02*
X129309524Y-88437676D01*
X129309524Y-88437676D02*
X129404762Y-88342438D01*
X129404762Y-88342438D02*
X129547619Y-88294819D01*
X129547619Y-88294819D02*
X129642857Y-88294819D01*
X129642857Y-88294819D02*
X129785714Y-88342438D01*
X129785714Y-88342438D02*
X129833333Y-88390057D01*
X130738095Y-88294819D02*
X130261905Y-88294819D01*
X130261905Y-88294819D02*
X130214286Y-88771009D01*
X130214286Y-88771009D02*
X130261905Y-88723390D01*
X130261905Y-88723390D02*
X130357143Y-88675771D01*
X130357143Y-88675771D02*
X130595238Y-88675771D01*
X130595238Y-88675771D02*
X130690476Y-88723390D01*
X130690476Y-88723390D02*
X130738095Y-88771009D01*
X130738095Y-88771009D02*
X130785714Y-88866247D01*
X130785714Y-88866247D02*
X130785714Y-89104342D01*
X130785714Y-89104342D02*
X130738095Y-89199580D01*
X130738095Y-89199580D02*
X130690476Y-89247200D01*
X130690476Y-89247200D02*
X130595238Y-89294819D01*
X130595238Y-89294819D02*
X130357143Y-89294819D01*
X130357143Y-89294819D02*
X130261905Y-89247200D01*
X130261905Y-89247200D02*
X130214286Y-89199580D01*
X127833333Y-134199580D02*
X127785714Y-134247200D01*
X127785714Y-134247200D02*
X127642857Y-134294819D01*
X127642857Y-134294819D02*
X127547619Y-134294819D01*
X127547619Y-134294819D02*
X127404762Y-134247200D01*
X127404762Y-134247200D02*
X127309524Y-134151961D01*
X127309524Y-134151961D02*
X127261905Y-134056723D01*
X127261905Y-134056723D02*
X127214286Y-133866247D01*
X127214286Y-133866247D02*
X127214286Y-133723390D01*
X127214286Y-133723390D02*
X127261905Y-133532914D01*
X127261905Y-133532914D02*
X127309524Y-133437676D01*
X127309524Y-133437676D02*
X127404762Y-133342438D01*
X127404762Y-133342438D02*
X127547619Y-133294819D01*
X127547619Y-133294819D02*
X127642857Y-133294819D01*
X127642857Y-133294819D02*
X127785714Y-133342438D01*
X127785714Y-133342438D02*
X127833333Y-133390057D01*
X128690476Y-133628152D02*
X128690476Y-134294819D01*
X128452381Y-133247200D02*
X128214286Y-133961485D01*
X128214286Y-133961485D02*
X128833333Y-133961485D01*
X175024819Y-90166666D02*
X174548628Y-90499999D01*
X175024819Y-90738094D02*
X174024819Y-90738094D01*
X174024819Y-90738094D02*
X174024819Y-90357142D01*
X174024819Y-90357142D02*
X174072438Y-90261904D01*
X174072438Y-90261904D02*
X174120057Y-90214285D01*
X174120057Y-90214285D02*
X174215295Y-90166666D01*
X174215295Y-90166666D02*
X174358152Y-90166666D01*
X174358152Y-90166666D02*
X174453390Y-90214285D01*
X174453390Y-90214285D02*
X174501009Y-90261904D01*
X174501009Y-90261904D02*
X174548628Y-90357142D01*
X174548628Y-90357142D02*
X174548628Y-90738094D01*
X174024819Y-89833332D02*
X174024819Y-89214285D01*
X174024819Y-89214285D02*
X174405771Y-89547618D01*
X174405771Y-89547618D02*
X174405771Y-89404761D01*
X174405771Y-89404761D02*
X174453390Y-89309523D01*
X174453390Y-89309523D02*
X174501009Y-89261904D01*
X174501009Y-89261904D02*
X174596247Y-89214285D01*
X174596247Y-89214285D02*
X174834342Y-89214285D01*
X174834342Y-89214285D02*
X174929580Y-89261904D01*
X174929580Y-89261904D02*
X174977200Y-89309523D01*
X174977200Y-89309523D02*
X175024819Y-89404761D01*
X175024819Y-89404761D02*
X175024819Y-89690475D01*
X175024819Y-89690475D02*
X174977200Y-89785713D01*
X174977200Y-89785713D02*
X174929580Y-89833332D01*
X142936666Y-105074819D02*
X142936666Y-105789104D01*
X142936666Y-105789104D02*
X142889047Y-105931961D01*
X142889047Y-105931961D02*
X142793809Y-106027200D01*
X142793809Y-106027200D02*
X142650952Y-106074819D01*
X142650952Y-106074819D02*
X142555714Y-106074819D01*
X143365238Y-105170057D02*
X143412857Y-105122438D01*
X143412857Y-105122438D02*
X143508095Y-105074819D01*
X143508095Y-105074819D02*
X143746190Y-105074819D01*
X143746190Y-105074819D02*
X143841428Y-105122438D01*
X143841428Y-105122438D02*
X143889047Y-105170057D01*
X143889047Y-105170057D02*
X143936666Y-105265295D01*
X143936666Y-105265295D02*
X143936666Y-105360533D01*
X143936666Y-105360533D02*
X143889047Y-105503390D01*
X143889047Y-105503390D02*
X143317619Y-106074819D01*
X143317619Y-106074819D02*
X143936666Y-106074819D01*
X102666666Y-97074819D02*
X102666666Y-97789104D01*
X102666666Y-97789104D02*
X102619047Y-97931961D01*
X102619047Y-97931961D02*
X102523809Y-98027200D01*
X102523809Y-98027200D02*
X102380952Y-98074819D01*
X102380952Y-98074819D02*
X102285714Y-98074819D01*
X103666666Y-98074819D02*
X103095238Y-98074819D01*
X103380952Y-98074819D02*
X103380952Y-97074819D01*
X103380952Y-97074819D02*
X103285714Y-97217676D01*
X103285714Y-97217676D02*
X103190476Y-97312914D01*
X103190476Y-97312914D02*
X103095238Y-97360533D01*
X133833333Y-93199580D02*
X133785714Y-93247200D01*
X133785714Y-93247200D02*
X133642857Y-93294819D01*
X133642857Y-93294819D02*
X133547619Y-93294819D01*
X133547619Y-93294819D02*
X133404762Y-93247200D01*
X133404762Y-93247200D02*
X133309524Y-93151961D01*
X133309524Y-93151961D02*
X133261905Y-93056723D01*
X133261905Y-93056723D02*
X133214286Y-92866247D01*
X133214286Y-92866247D02*
X133214286Y-92723390D01*
X133214286Y-92723390D02*
X133261905Y-92532914D01*
X133261905Y-92532914D02*
X133309524Y-92437676D01*
X133309524Y-92437676D02*
X133404762Y-92342438D01*
X133404762Y-92342438D02*
X133547619Y-92294819D01*
X133547619Y-92294819D02*
X133642857Y-92294819D01*
X133642857Y-92294819D02*
X133785714Y-92342438D01*
X133785714Y-92342438D02*
X133833333Y-92390057D01*
X134404762Y-92723390D02*
X134309524Y-92675771D01*
X134309524Y-92675771D02*
X134261905Y-92628152D01*
X134261905Y-92628152D02*
X134214286Y-92532914D01*
X134214286Y-92532914D02*
X134214286Y-92485295D01*
X134214286Y-92485295D02*
X134261905Y-92390057D01*
X134261905Y-92390057D02*
X134309524Y-92342438D01*
X134309524Y-92342438D02*
X134404762Y-92294819D01*
X134404762Y-92294819D02*
X134595238Y-92294819D01*
X134595238Y-92294819D02*
X134690476Y-92342438D01*
X134690476Y-92342438D02*
X134738095Y-92390057D01*
X134738095Y-92390057D02*
X134785714Y-92485295D01*
X134785714Y-92485295D02*
X134785714Y-92532914D01*
X134785714Y-92532914D02*
X134738095Y-92628152D01*
X134738095Y-92628152D02*
X134690476Y-92675771D01*
X134690476Y-92675771D02*
X134595238Y-92723390D01*
X134595238Y-92723390D02*
X134404762Y-92723390D01*
X134404762Y-92723390D02*
X134309524Y-92771009D01*
X134309524Y-92771009D02*
X134261905Y-92818628D01*
X134261905Y-92818628D02*
X134214286Y-92913866D01*
X134214286Y-92913866D02*
X134214286Y-93104342D01*
X134214286Y-93104342D02*
X134261905Y-93199580D01*
X134261905Y-93199580D02*
X134309524Y-93247200D01*
X134309524Y-93247200D02*
X134404762Y-93294819D01*
X134404762Y-93294819D02*
X134595238Y-93294819D01*
X134595238Y-93294819D02*
X134690476Y-93247200D01*
X134690476Y-93247200D02*
X134738095Y-93199580D01*
X134738095Y-93199580D02*
X134785714Y-93104342D01*
X134785714Y-93104342D02*
X134785714Y-92913866D01*
X134785714Y-92913866D02*
X134738095Y-92818628D01*
X134738095Y-92818628D02*
X134690476Y-92771009D01*
X134690476Y-92771009D02*
X134595238Y-92723390D01*
X174666666Y-132074819D02*
X174666666Y-132789104D01*
X174666666Y-132789104D02*
X174619047Y-132931961D01*
X174619047Y-132931961D02*
X174523809Y-133027200D01*
X174523809Y-133027200D02*
X174380952Y-133074819D01*
X174380952Y-133074819D02*
X174285714Y-133074819D01*
X175619047Y-132074819D02*
X175142857Y-132074819D01*
X175142857Y-132074819D02*
X175095238Y-132551009D01*
X175095238Y-132551009D02*
X175142857Y-132503390D01*
X175142857Y-132503390D02*
X175238095Y-132455771D01*
X175238095Y-132455771D02*
X175476190Y-132455771D01*
X175476190Y-132455771D02*
X175571428Y-132503390D01*
X175571428Y-132503390D02*
X175619047Y-132551009D01*
X175619047Y-132551009D02*
X175666666Y-132646247D01*
X175666666Y-132646247D02*
X175666666Y-132884342D01*
X175666666Y-132884342D02*
X175619047Y-132979580D01*
X175619047Y-132979580D02*
X175571428Y-133027200D01*
X175571428Y-133027200D02*
X175476190Y-133074819D01*
X175476190Y-133074819D02*
X175238095Y-133074819D01*
X175238095Y-133074819D02*
X175142857Y-133027200D01*
X175142857Y-133027200D02*
X175095238Y-132979580D01*
X133833333Y-89199580D02*
X133785714Y-89247200D01*
X133785714Y-89247200D02*
X133642857Y-89294819D01*
X133642857Y-89294819D02*
X133547619Y-89294819D01*
X133547619Y-89294819D02*
X133404762Y-89247200D01*
X133404762Y-89247200D02*
X133309524Y-89151961D01*
X133309524Y-89151961D02*
X133261905Y-89056723D01*
X133261905Y-89056723D02*
X133214286Y-88866247D01*
X133214286Y-88866247D02*
X133214286Y-88723390D01*
X133214286Y-88723390D02*
X133261905Y-88532914D01*
X133261905Y-88532914D02*
X133309524Y-88437676D01*
X133309524Y-88437676D02*
X133404762Y-88342438D01*
X133404762Y-88342438D02*
X133547619Y-88294819D01*
X133547619Y-88294819D02*
X133642857Y-88294819D01*
X133642857Y-88294819D02*
X133785714Y-88342438D01*
X133785714Y-88342438D02*
X133833333Y-88390057D01*
X134690476Y-88294819D02*
X134500000Y-88294819D01*
X134500000Y-88294819D02*
X134404762Y-88342438D01*
X134404762Y-88342438D02*
X134357143Y-88390057D01*
X134357143Y-88390057D02*
X134261905Y-88532914D01*
X134261905Y-88532914D02*
X134214286Y-88723390D01*
X134214286Y-88723390D02*
X134214286Y-89104342D01*
X134214286Y-89104342D02*
X134261905Y-89199580D01*
X134261905Y-89199580D02*
X134309524Y-89247200D01*
X134309524Y-89247200D02*
X134404762Y-89294819D01*
X134404762Y-89294819D02*
X134595238Y-89294819D01*
X134595238Y-89294819D02*
X134690476Y-89247200D01*
X134690476Y-89247200D02*
X134738095Y-89199580D01*
X134738095Y-89199580D02*
X134785714Y-89104342D01*
X134785714Y-89104342D02*
X134785714Y-88866247D01*
X134785714Y-88866247D02*
X134738095Y-88771009D01*
X134738095Y-88771009D02*
X134690476Y-88723390D01*
X134690476Y-88723390D02*
X134595238Y-88675771D01*
X134595238Y-88675771D02*
X134404762Y-88675771D01*
X134404762Y-88675771D02*
X134309524Y-88723390D01*
X134309524Y-88723390D02*
X134261905Y-88771009D01*
X134261905Y-88771009D02*
X134214286Y-88866247D01*
X191666666Y-95074819D02*
X191666666Y-95789104D01*
X191666666Y-95789104D02*
X191619047Y-95931961D01*
X191619047Y-95931961D02*
X191523809Y-96027200D01*
X191523809Y-96027200D02*
X191380952Y-96074819D01*
X191380952Y-96074819D02*
X191285714Y-96074819D01*
X192047619Y-95074819D02*
X192666666Y-95074819D01*
X192666666Y-95074819D02*
X192333333Y-95455771D01*
X192333333Y-95455771D02*
X192476190Y-95455771D01*
X192476190Y-95455771D02*
X192571428Y-95503390D01*
X192571428Y-95503390D02*
X192619047Y-95551009D01*
X192619047Y-95551009D02*
X192666666Y-95646247D01*
X192666666Y-95646247D02*
X192666666Y-95884342D01*
X192666666Y-95884342D02*
X192619047Y-95979580D01*
X192619047Y-95979580D02*
X192571428Y-96027200D01*
X192571428Y-96027200D02*
X192476190Y-96074819D01*
X192476190Y-96074819D02*
X192190476Y-96074819D01*
X192190476Y-96074819D02*
X192095238Y-96027200D01*
X192095238Y-96027200D02*
X192047619Y-95979580D01*
X124833333Y-100679580D02*
X124785714Y-100727200D01*
X124785714Y-100727200D02*
X124642857Y-100774819D01*
X124642857Y-100774819D02*
X124547619Y-100774819D01*
X124547619Y-100774819D02*
X124404762Y-100727200D01*
X124404762Y-100727200D02*
X124309524Y-100631961D01*
X124309524Y-100631961D02*
X124261905Y-100536723D01*
X124261905Y-100536723D02*
X124214286Y-100346247D01*
X124214286Y-100346247D02*
X124214286Y-100203390D01*
X124214286Y-100203390D02*
X124261905Y-100012914D01*
X124261905Y-100012914D02*
X124309524Y-99917676D01*
X124309524Y-99917676D02*
X124404762Y-99822438D01*
X124404762Y-99822438D02*
X124547619Y-99774819D01*
X124547619Y-99774819D02*
X124642857Y-99774819D01*
X124642857Y-99774819D02*
X124785714Y-99822438D01*
X124785714Y-99822438D02*
X124833333Y-99870057D01*
X125214286Y-99870057D02*
X125261905Y-99822438D01*
X125261905Y-99822438D02*
X125357143Y-99774819D01*
X125357143Y-99774819D02*
X125595238Y-99774819D01*
X125595238Y-99774819D02*
X125690476Y-99822438D01*
X125690476Y-99822438D02*
X125738095Y-99870057D01*
X125738095Y-99870057D02*
X125785714Y-99965295D01*
X125785714Y-99965295D02*
X125785714Y-100060533D01*
X125785714Y-100060533D02*
X125738095Y-100203390D01*
X125738095Y-100203390D02*
X125166667Y-100774819D01*
X125166667Y-100774819D02*
X125785714Y-100774819D01*
X191666666Y-133074819D02*
X191666666Y-133789104D01*
X191666666Y-133789104D02*
X191619047Y-133931961D01*
X191619047Y-133931961D02*
X191523809Y-134027200D01*
X191523809Y-134027200D02*
X191380952Y-134074819D01*
X191380952Y-134074819D02*
X191285714Y-134074819D01*
X192047619Y-133074819D02*
X192714285Y-133074819D01*
X192714285Y-133074819D02*
X192285714Y-134074819D01*
X167024819Y-130166666D02*
X166548628Y-130499999D01*
X167024819Y-130738094D02*
X166024819Y-130738094D01*
X166024819Y-130738094D02*
X166024819Y-130357142D01*
X166024819Y-130357142D02*
X166072438Y-130261904D01*
X166072438Y-130261904D02*
X166120057Y-130214285D01*
X166120057Y-130214285D02*
X166215295Y-130166666D01*
X166215295Y-130166666D02*
X166358152Y-130166666D01*
X166358152Y-130166666D02*
X166453390Y-130214285D01*
X166453390Y-130214285D02*
X166501009Y-130261904D01*
X166501009Y-130261904D02*
X166548628Y-130357142D01*
X166548628Y-130357142D02*
X166548628Y-130738094D01*
X166358152Y-129309523D02*
X167024819Y-129309523D01*
X165977200Y-129547618D02*
X166691485Y-129785713D01*
X166691485Y-129785713D02*
X166691485Y-129166666D01*
X171024819Y-90166666D02*
X170548628Y-90499999D01*
X171024819Y-90738094D02*
X170024819Y-90738094D01*
X170024819Y-90738094D02*
X170024819Y-90357142D01*
X170024819Y-90357142D02*
X170072438Y-90261904D01*
X170072438Y-90261904D02*
X170120057Y-90214285D01*
X170120057Y-90214285D02*
X170215295Y-90166666D01*
X170215295Y-90166666D02*
X170358152Y-90166666D01*
X170358152Y-90166666D02*
X170453390Y-90214285D01*
X170453390Y-90214285D02*
X170501009Y-90261904D01*
X170501009Y-90261904D02*
X170548628Y-90357142D01*
X170548628Y-90357142D02*
X170548628Y-90738094D01*
X170120057Y-89785713D02*
X170072438Y-89738094D01*
X170072438Y-89738094D02*
X170024819Y-89642856D01*
X170024819Y-89642856D02*
X170024819Y-89404761D01*
X170024819Y-89404761D02*
X170072438Y-89309523D01*
X170072438Y-89309523D02*
X170120057Y-89261904D01*
X170120057Y-89261904D02*
X170215295Y-89214285D01*
X170215295Y-89214285D02*
X170310533Y-89214285D01*
X170310533Y-89214285D02*
X170453390Y-89261904D01*
X170453390Y-89261904D02*
X171024819Y-89833332D01*
X171024819Y-89833332D02*
X171024819Y-89214285D01*
X174238095Y-94054819D02*
X174238095Y-94864342D01*
X174238095Y-94864342D02*
X174285714Y-94959580D01*
X174285714Y-94959580D02*
X174333333Y-95007200D01*
X174333333Y-95007200D02*
X174428571Y-95054819D01*
X174428571Y-95054819D02*
X174619047Y-95054819D01*
X174619047Y-95054819D02*
X174714285Y-95007200D01*
X174714285Y-95007200D02*
X174761904Y-94959580D01*
X174761904Y-94959580D02*
X174809523Y-94864342D01*
X174809523Y-94864342D02*
X174809523Y-94054819D01*
X175809523Y-95054819D02*
X175238095Y-95054819D01*
X175523809Y-95054819D02*
X175523809Y-94054819D01*
X175523809Y-94054819D02*
X175428571Y-94197676D01*
X175428571Y-94197676D02*
X175333333Y-94292914D01*
X175333333Y-94292914D02*
X175238095Y-94340533D01*
X117238095Y-131154819D02*
X117238095Y-131964342D01*
X117238095Y-131964342D02*
X117285714Y-132059580D01*
X117285714Y-132059580D02*
X117333333Y-132107200D01*
X117333333Y-132107200D02*
X117428571Y-132154819D01*
X117428571Y-132154819D02*
X117619047Y-132154819D01*
X117619047Y-132154819D02*
X117714285Y-132107200D01*
X117714285Y-132107200D02*
X117761904Y-132059580D01*
X117761904Y-132059580D02*
X117809523Y-131964342D01*
X117809523Y-131964342D02*
X117809523Y-131154819D01*
X118238095Y-131250057D02*
X118285714Y-131202438D01*
X118285714Y-131202438D02*
X118380952Y-131154819D01*
X118380952Y-131154819D02*
X118619047Y-131154819D01*
X118619047Y-131154819D02*
X118714285Y-131202438D01*
X118714285Y-131202438D02*
X118761904Y-131250057D01*
X118761904Y-131250057D02*
X118809523Y-131345295D01*
X118809523Y-131345295D02*
X118809523Y-131440533D01*
X118809523Y-131440533D02*
X118761904Y-131583390D01*
X118761904Y-131583390D02*
X118190476Y-132154819D01*
X118190476Y-132154819D02*
X118809523Y-132154819D01*
X184666666Y-132074819D02*
X184666666Y-132789104D01*
X184666666Y-132789104D02*
X184619047Y-132931961D01*
X184619047Y-132931961D02*
X184523809Y-133027200D01*
X184523809Y-133027200D02*
X184380952Y-133074819D01*
X184380952Y-133074819D02*
X184285714Y-133074819D01*
X185571428Y-132074819D02*
X185380952Y-132074819D01*
X185380952Y-132074819D02*
X185285714Y-132122438D01*
X185285714Y-132122438D02*
X185238095Y-132170057D01*
X185238095Y-132170057D02*
X185142857Y-132312914D01*
X185142857Y-132312914D02*
X185095238Y-132503390D01*
X185095238Y-132503390D02*
X185095238Y-132884342D01*
X185095238Y-132884342D02*
X185142857Y-132979580D01*
X185142857Y-132979580D02*
X185190476Y-133027200D01*
X185190476Y-133027200D02*
X185285714Y-133074819D01*
X185285714Y-133074819D02*
X185476190Y-133074819D01*
X185476190Y-133074819D02*
X185571428Y-133027200D01*
X185571428Y-133027200D02*
X185619047Y-132979580D01*
X185619047Y-132979580D02*
X185666666Y-132884342D01*
X185666666Y-132884342D02*
X185666666Y-132646247D01*
X185666666Y-132646247D02*
X185619047Y-132551009D01*
X185619047Y-132551009D02*
X185571428Y-132503390D01*
X185571428Y-132503390D02*
X185476190Y-132455771D01*
X185476190Y-132455771D02*
X185285714Y-132455771D01*
X185285714Y-132455771D02*
X185190476Y-132503390D01*
X185190476Y-132503390D02*
X185142857Y-132551009D01*
X185142857Y-132551009D02*
X185095238Y-132646247D01*
X114904761Y-98150057D02*
X114809523Y-98102438D01*
X114809523Y-98102438D02*
X114714285Y-98007200D01*
X114714285Y-98007200D02*
X114571428Y-97864342D01*
X114571428Y-97864342D02*
X114476190Y-97816723D01*
X114476190Y-97816723D02*
X114380952Y-97816723D01*
X114428571Y-98054819D02*
X114333333Y-98007200D01*
X114333333Y-98007200D02*
X114238095Y-97911961D01*
X114238095Y-97911961D02*
X114190476Y-97721485D01*
X114190476Y-97721485D02*
X114190476Y-97388152D01*
X114190476Y-97388152D02*
X114238095Y-97197676D01*
X114238095Y-97197676D02*
X114333333Y-97102438D01*
X114333333Y-97102438D02*
X114428571Y-97054819D01*
X114428571Y-97054819D02*
X114619047Y-97054819D01*
X114619047Y-97054819D02*
X114714285Y-97102438D01*
X114714285Y-97102438D02*
X114809523Y-97197676D01*
X114809523Y-97197676D02*
X114857142Y-97388152D01*
X114857142Y-97388152D02*
X114857142Y-97721485D01*
X114857142Y-97721485D02*
X114809523Y-97911961D01*
X114809523Y-97911961D02*
X114714285Y-98007200D01*
X114714285Y-98007200D02*
X114619047Y-98054819D01*
X114619047Y-98054819D02*
X114428571Y-98054819D01*
X115809523Y-98054819D02*
X115238095Y-98054819D01*
X115523809Y-98054819D02*
X115523809Y-97054819D01*
X115523809Y-97054819D02*
X115428571Y-97197676D01*
X115428571Y-97197676D02*
X115333333Y-97292914D01*
X115333333Y-97292914D02*
X115238095Y-97340533D01*
X166804819Y-90166666D02*
X166328628Y-90499999D01*
X166804819Y-90738094D02*
X165804819Y-90738094D01*
X165804819Y-90738094D02*
X165804819Y-90357142D01*
X165804819Y-90357142D02*
X165852438Y-90261904D01*
X165852438Y-90261904D02*
X165900057Y-90214285D01*
X165900057Y-90214285D02*
X165995295Y-90166666D01*
X165995295Y-90166666D02*
X166138152Y-90166666D01*
X166138152Y-90166666D02*
X166233390Y-90214285D01*
X166233390Y-90214285D02*
X166281009Y-90261904D01*
X166281009Y-90261904D02*
X166328628Y-90357142D01*
X166328628Y-90357142D02*
X166328628Y-90738094D01*
X166804819Y-89214285D02*
X166804819Y-89785713D01*
X166804819Y-89499999D02*
X165804819Y-89499999D01*
X165804819Y-89499999D02*
X165947676Y-89595237D01*
X165947676Y-89595237D02*
X166042914Y-89690475D01*
X166042914Y-89690475D02*
X166090533Y-89785713D01*
X124833333Y-90059580D02*
X124785714Y-90107200D01*
X124785714Y-90107200D02*
X124642857Y-90154819D01*
X124642857Y-90154819D02*
X124547619Y-90154819D01*
X124547619Y-90154819D02*
X124404762Y-90107200D01*
X124404762Y-90107200D02*
X124309524Y-90011961D01*
X124309524Y-90011961D02*
X124261905Y-89916723D01*
X124261905Y-89916723D02*
X124214286Y-89726247D01*
X124214286Y-89726247D02*
X124214286Y-89583390D01*
X124214286Y-89583390D02*
X124261905Y-89392914D01*
X124261905Y-89392914D02*
X124309524Y-89297676D01*
X124309524Y-89297676D02*
X124404762Y-89202438D01*
X124404762Y-89202438D02*
X124547619Y-89154819D01*
X124547619Y-89154819D02*
X124642857Y-89154819D01*
X124642857Y-89154819D02*
X124785714Y-89202438D01*
X124785714Y-89202438D02*
X124833333Y-89250057D01*
X125785714Y-90154819D02*
X125214286Y-90154819D01*
X125500000Y-90154819D02*
X125500000Y-89154819D01*
X125500000Y-89154819D02*
X125404762Y-89297676D01*
X125404762Y-89297676D02*
X125309524Y-89392914D01*
X125309524Y-89392914D02*
X125214286Y-89440533D01*
X129833333Y-93199580D02*
X129785714Y-93247200D01*
X129785714Y-93247200D02*
X129642857Y-93294819D01*
X129642857Y-93294819D02*
X129547619Y-93294819D01*
X129547619Y-93294819D02*
X129404762Y-93247200D01*
X129404762Y-93247200D02*
X129309524Y-93151961D01*
X129309524Y-93151961D02*
X129261905Y-93056723D01*
X129261905Y-93056723D02*
X129214286Y-92866247D01*
X129214286Y-92866247D02*
X129214286Y-92723390D01*
X129214286Y-92723390D02*
X129261905Y-92532914D01*
X129261905Y-92532914D02*
X129309524Y-92437676D01*
X129309524Y-92437676D02*
X129404762Y-92342438D01*
X129404762Y-92342438D02*
X129547619Y-92294819D01*
X129547619Y-92294819D02*
X129642857Y-92294819D01*
X129642857Y-92294819D02*
X129785714Y-92342438D01*
X129785714Y-92342438D02*
X129833333Y-92390057D01*
X130166667Y-92294819D02*
X130833333Y-92294819D01*
X130833333Y-92294819D02*
X130404762Y-93294819D01*
X114666666Y-89281009D02*
X114333333Y-89281009D01*
X114333333Y-89804819D02*
X114333333Y-88804819D01*
X114333333Y-88804819D02*
X114809523Y-88804819D01*
X115714285Y-89804819D02*
X115142857Y-89804819D01*
X115428571Y-89804819D02*
X115428571Y-88804819D01*
X115428571Y-88804819D02*
X115333333Y-88947676D01*
X115333333Y-88947676D02*
X115238095Y-89042914D01*
X115238095Y-89042914D02*
X115142857Y-89090533D01*
D11*
%TO.C,C3*%
X167892164Y-104640000D02*
X168107836Y-104640000D01*
X167892164Y-105360000D02*
X168107836Y-105360000D01*
%TO.C,J4*%
X104190000Y-146290000D02*
X104570000Y-146290000D01*
X104190000Y-148060000D02*
X104190000Y-146290000D01*
X104190000Y-150600000D02*
X104190000Y-150340000D01*
X111810000Y-146290000D02*
X111430000Y-146290000D01*
X111810000Y-146290000D02*
X111810000Y-148060000D01*
X111810000Y-150340000D02*
X111810000Y-150600000D01*
%TO.C,R5*%
X171477500Y-130237258D02*
X171477500Y-129762742D01*
X172522500Y-130237258D02*
X172522500Y-129762742D01*
%TO.C,C5*%
X129892164Y-89640000D02*
X130107836Y-89640000D01*
X129892164Y-90360000D02*
X130107836Y-90360000D01*
%TO.C,C4*%
X127892164Y-134640000D02*
X128107836Y-134640000D01*
X127892164Y-135360000D02*
X128107836Y-135360000D01*
%TO.C,R3*%
X175477500Y-90237258D02*
X175477500Y-89762742D01*
X176522500Y-90237258D02*
X176522500Y-89762742D01*
%TO.C,J2*%
X140620000Y-106620000D02*
X142000000Y-106620000D01*
X140620000Y-108000000D02*
X140620000Y-106620000D01*
X140620000Y-109270000D02*
X140620000Y-157640000D01*
X140620000Y-109270000D02*
X143270000Y-109270000D01*
X140620000Y-157640000D02*
X145920000Y-157640000D01*
X143270000Y-106620000D02*
X145920000Y-106620000D01*
X143270000Y-109270000D02*
X143270000Y-106620000D01*
X145920000Y-106620000D02*
X145920000Y-157640000D01*
%TO.C,J1*%
X101620000Y-98620000D02*
X103000000Y-98620000D01*
X101620000Y-100000000D02*
X101620000Y-98620000D01*
X101620000Y-101270000D02*
X101620000Y-103920000D01*
X101620000Y-101270000D02*
X104380000Y-101270000D01*
X101620000Y-103920000D02*
X104380000Y-103920000D01*
X104380000Y-101270000D02*
X104380000Y-103920000D01*
%TO.C,C8*%
X133892164Y-93640000D02*
X134107836Y-93640000D01*
X133892164Y-94360000D02*
X134107836Y-94360000D01*
%TO.C,J5*%
X173620000Y-133620000D02*
X175000000Y-133620000D01*
X173620000Y-135000000D02*
X173620000Y-133620000D01*
X173620000Y-136270000D02*
X173620000Y-144000000D01*
X173620000Y-136270000D02*
X176380000Y-136270000D01*
X173620000Y-144000000D02*
X176380000Y-144000000D01*
X176380000Y-136270000D02*
X176380000Y-144000000D01*
%TO.C,C6*%
X133892164Y-89640000D02*
X134107836Y-89640000D01*
X133892164Y-90360000D02*
X134107836Y-90360000D01*
%TO.C,J3*%
X190620000Y-96620000D02*
X192000000Y-96620000D01*
X190620000Y-98000000D02*
X190620000Y-96620000D01*
X190620000Y-99270000D02*
X190620000Y-107000000D01*
X190620000Y-99270000D02*
X193380000Y-99270000D01*
X190620000Y-107000000D02*
X193380000Y-107000000D01*
X193380000Y-99270000D02*
X193380000Y-107000000D01*
%TO.C,C2*%
X124738748Y-101265000D02*
X125261252Y-101265000D01*
X124738748Y-102735000D02*
X125261252Y-102735000D01*
%TO.C,J7*%
X190620000Y-134620000D02*
X192000000Y-134620000D01*
X190620000Y-136000000D02*
X190620000Y-134620000D01*
X190620000Y-137270000D02*
X190620000Y-155160000D01*
X190620000Y-137270000D02*
X193380000Y-137270000D01*
X190620000Y-155160000D02*
X193380000Y-155160000D01*
X193380000Y-137270000D02*
X193380000Y-155160000D01*
%TO.C,R4*%
X167477500Y-130237258D02*
X167477500Y-129762742D01*
X168522500Y-130237258D02*
X168522500Y-129762742D01*
%TO.C,R2*%
X171477500Y-90237258D02*
X171477500Y-89762742D01*
X172522500Y-90237258D02*
X172522500Y-89762742D01*
%TO.C,U1*%
X172940000Y-95440000D02*
X177060000Y-95440000D01*
X172940000Y-95535000D02*
X172940000Y-95440000D01*
X172940000Y-100560000D02*
X172940000Y-100465000D01*
X177060000Y-95440000D02*
X177060000Y-95535000D01*
X177060000Y-100465000D02*
X177060000Y-100560000D01*
X177060000Y-100560000D02*
X172940000Y-100560000D01*
X172400000Y-95530000D02*
X172160000Y-95200000D01*
X172640000Y-95200000D01*
X172400000Y-95530000D01*
G36*
X172400000Y-95530000D02*
G01*
X172160000Y-95200000D01*
X172640000Y-95200000D01*
X172400000Y-95530000D01*
G37*
%TO.C,U2*%
X115890000Y-132890000D02*
X116615000Y-132890000D01*
X115890000Y-133615000D02*
X115890000Y-132890000D01*
X115890000Y-137110000D02*
X115890000Y-136385000D01*
X116615000Y-137110000D02*
X115890000Y-137110000D01*
X119385000Y-132890000D02*
X120110000Y-132890000D01*
X120110000Y-132890000D02*
X120110000Y-133615000D01*
X120110000Y-136385000D02*
X120110000Y-137110000D01*
X120110000Y-137110000D02*
X119385000Y-137110000D01*
X115390000Y-134000000D02*
X115060000Y-134240000D01*
X115060000Y-133760000D01*
X115390000Y-134000000D01*
G36*
X115390000Y-134000000D02*
G01*
X115060000Y-134240000D01*
X115060000Y-133760000D01*
X115390000Y-134000000D01*
G37*
%TO.C,J6*%
X183620000Y-133620000D02*
X185000000Y-133620000D01*
X183620000Y-135000000D02*
X183620000Y-133620000D01*
X183620000Y-136270000D02*
X183620000Y-149080000D01*
X183620000Y-136270000D02*
X186380000Y-136270000D01*
X183620000Y-149080000D02*
X186380000Y-149080000D01*
X186380000Y-136270000D02*
X186380000Y-149080000D01*
%TO.C,Q1*%
X114240000Y-98440000D02*
X115760000Y-98440000D01*
X114240000Y-98490000D02*
X114240000Y-98440000D01*
X114240000Y-100390000D02*
X114240000Y-99610000D01*
X114240000Y-101560000D02*
X114240000Y-101510000D01*
X115760000Y-98440000D02*
X115760000Y-99440000D01*
X115760000Y-100560000D02*
X115760000Y-101560000D01*
X115760000Y-101560000D02*
X114240000Y-101560000D01*
X113940000Y-99950000D02*
X113460000Y-99950000D01*
X113700000Y-99620000D01*
X113940000Y-99950000D01*
G36*
X113940000Y-99950000D02*
G01*
X113460000Y-99950000D01*
X113700000Y-99620000D01*
X113940000Y-99950000D01*
G37*
%TO.C,R1*%
X167265000Y-90227064D02*
X167265000Y-89772936D01*
X168735000Y-90227064D02*
X168735000Y-89772936D01*
%TO.C,C1*%
X124288748Y-90640000D02*
X125711252Y-90640000D01*
X124288748Y-93360000D02*
X125711252Y-93360000D01*
%TO.C,C7*%
X129892164Y-93640000D02*
X130107836Y-93640000D01*
X129892164Y-94360000D02*
X130107836Y-94360000D01*
%TO.C,F1*%
X113613748Y-90290000D02*
X116386252Y-90290000D01*
X113613748Y-93710000D02*
X116386252Y-93710000D01*
%TD*%
M02*
