%TF.GenerationSoftware,KiCad,Pcbnew,9.0.2*%
%TF.CreationDate,2026-03-22T21:43:22-05:00*%
%TF.ProjectId,buck_converter,6275636b-5f63-46f6-9e76-65727465722e,rev?*%
%TF.SameCoordinates,Original*%
%TF.FileFunction,Legend,Top*%
%TF.FilePolarity,Positive*%
%FSLAX46Y46*%
G04 Gerber Fmt 4.6, Leading zero omitted, Abs format (unit mm)*
G04 Created by KiCad (PCBNEW 9.0.2) date 2026-03-22 21:43:22*
%MOMM*%
%LPD*%
G01*
G04 APERTURE LIST*
%ADD10C,0.150000*%
%ADD11C,0.120000*%
G04 APERTURE END LIST*
D10*
X438883333Y235830419D02*
X438835714Y235782800D01*
X438835714Y235782800D02*
X438692857Y235735180D01*
X438692857Y235735180D02*
X438597619Y235735180D01*
X438597619Y235735180D02*
X438454762Y235782800D01*
X438454762Y235782800D02*
X438359524Y235878038D01*
X438359524Y235878038D02*
X438311905Y235973276D01*
X438311905Y235973276D02*
X438264286Y236163752D01*
X438264286Y236163752D02*
X438264286Y236306609D01*
X438264286Y236306609D02*
X438311905Y236497085D01*
X438311905Y236497085D02*
X438359524Y236592323D01*
X438359524Y236592323D02*
X438454762Y236687561D01*
X438454762Y236687561D02*
X438597619Y236735180D01*
X438597619Y236735180D02*
X438692857Y236735180D01*
X438692857Y236735180D02*
X438835714Y236687561D01*
X438835714Y236687561D02*
X438883333Y236639942D01*
X439835714Y235735180D02*
X439264286Y235735180D01*
X439550000Y235735180D02*
X439550000Y236735180D01*
X439550000Y236735180D02*
X439454762Y236592323D01*
X439454762Y236592323D02*
X439359524Y236497085D01*
X439359524Y236497085D02*
X439264286Y236449466D01*
X433574761Y231429942D02*
X433479523Y231477561D01*
X433479523Y231477561D02*
X433384285Y231572800D01*
X433384285Y231572800D02*
X433241428Y231715657D01*
X433241428Y231715657D02*
X433146190Y231763276D01*
X433146190Y231763276D02*
X433050952Y231763276D01*
X433098571Y231525180D02*
X433003333Y231572800D01*
X433003333Y231572800D02*
X432908095Y231668038D01*
X432908095Y231668038D02*
X432860476Y231858514D01*
X432860476Y231858514D02*
X432860476Y232191847D01*
X432860476Y232191847D02*
X432908095Y232382323D01*
X432908095Y232382323D02*
X433003333Y232477561D01*
X433003333Y232477561D02*
X433098571Y232525180D01*
X433098571Y232525180D02*
X433289047Y232525180D01*
X433289047Y232525180D02*
X433384285Y232477561D01*
X433384285Y232477561D02*
X433479523Y232382323D01*
X433479523Y232382323D02*
X433527142Y232191847D01*
X433527142Y232191847D02*
X433527142Y231858514D01*
X433527142Y231858514D02*
X433479523Y231668038D01*
X433479523Y231668038D02*
X433384285Y231572800D01*
X433384285Y231572800D02*
X433289047Y231525180D01*
X433289047Y231525180D02*
X433098571Y231525180D01*
X434479523Y231525180D02*
X433908095Y231525180D01*
X434193809Y231525180D02*
X434193809Y232525180D01*
X434193809Y232525180D02*
X434098571Y232382323D01*
X434098571Y232382323D02*
X434003333Y232287085D01*
X434003333Y232287085D02*
X433908095Y232239466D01*
X433396905Y239235180D02*
X433396905Y240235180D01*
X433396905Y240235180D02*
X433635000Y240235180D01*
X433635000Y240235180D02*
X433777857Y240187561D01*
X433777857Y240187561D02*
X433873095Y240092323D01*
X433873095Y240092323D02*
X433920714Y239997085D01*
X433920714Y239997085D02*
X433968333Y239806609D01*
X433968333Y239806609D02*
X433968333Y239663752D01*
X433968333Y239663752D02*
X433920714Y239473276D01*
X433920714Y239473276D02*
X433873095Y239378038D01*
X433873095Y239378038D02*
X433777857Y239282800D01*
X433777857Y239282800D02*
X433635000Y239235180D01*
X433635000Y239235180D02*
X433396905Y239235180D01*
X434920714Y239235180D02*
X434349286Y239235180D01*
X434635000Y239235180D02*
X434635000Y240235180D01*
X434635000Y240235180D02*
X434539762Y240092323D01*
X434539762Y240092323D02*
X434444524Y239997085D01*
X434444524Y239997085D02*
X434349286Y239949466D01*
X433853333Y235735180D02*
X433377143Y235735180D01*
X433377143Y235735180D02*
X433377143Y236735180D01*
X434710476Y235735180D02*
X434139048Y235735180D01*
X434424762Y235735180D02*
X434424762Y236735180D01*
X434424762Y236735180D02*
X434329524Y236592323D01*
X434329524Y236592323D02*
X434234286Y236497085D01*
X434234286Y236497085D02*
X434139048Y236449466D01*
X438883333Y232820419D02*
X438835714Y232772800D01*
X438835714Y232772800D02*
X438692857Y232725180D01*
X438692857Y232725180D02*
X438597619Y232725180D01*
X438597619Y232725180D02*
X438454762Y232772800D01*
X438454762Y232772800D02*
X438359524Y232868038D01*
X438359524Y232868038D02*
X438311905Y232963276D01*
X438311905Y232963276D02*
X438264286Y233153752D01*
X438264286Y233153752D02*
X438264286Y233296609D01*
X438264286Y233296609D02*
X438311905Y233487085D01*
X438311905Y233487085D02*
X438359524Y233582323D01*
X438359524Y233582323D02*
X438454762Y233677561D01*
X438454762Y233677561D02*
X438597619Y233725180D01*
X438597619Y233725180D02*
X438692857Y233725180D01*
X438692857Y233725180D02*
X438835714Y233677561D01*
X438835714Y233677561D02*
X438883333Y233629942D01*
X439264286Y233629942D02*
X439311905Y233677561D01*
X439311905Y233677561D02*
X439407143Y233725180D01*
X439407143Y233725180D02*
X439645238Y233725180D01*
X439645238Y233725180D02*
X439740476Y233677561D01*
X439740476Y233677561D02*
X439788095Y233629942D01*
X439788095Y233629942D02*
X439835714Y233534704D01*
X439835714Y233534704D02*
X439835714Y233439466D01*
X439835714Y233439466D02*
X439788095Y233296609D01*
X439788095Y233296609D02*
X439216667Y232725180D01*
X439216667Y232725180D02*
X439835714Y232725180D01*
D11*
%TO.C,C1*%
X438788748Y235245000D02*
X439311252Y235245000D01*
X438788748Y233775000D02*
X439311252Y233775000D01*
%TO.C,Q1*%
X432910000Y231140000D02*
X434430000Y231140000D01*
X432910000Y231090000D02*
X432910000Y231140000D01*
X432910000Y229190000D02*
X432910000Y229970000D01*
X432910000Y228020000D02*
X432910000Y228070000D01*
X434430000Y231140000D02*
X434430000Y230140000D01*
X434430000Y229020000D02*
X434430000Y228020000D01*
X434430000Y228020000D02*
X432910000Y228020000D01*
X432610000Y229630000D02*
X432130000Y229630000D01*
X432370000Y229960000D01*
X432610000Y229630000D01*
G36*
X432610000Y229630000D02*
G01*
X432130000Y229630000D01*
X432370000Y229960000D01*
X432610000Y229630000D01*
G37*
%TO.C,D1*%
X431775000Y238690000D02*
X431775000Y236690000D01*
X431775000Y238690000D02*
X435785000Y238690000D01*
X431775000Y236690000D02*
X435785000Y236690000D01*
%TO.C,L1*%
X433417936Y235270000D02*
X434622064Y235270000D01*
X433417936Y232550000D02*
X434622064Y232550000D01*
%TO.C,C2*%
X438788748Y232235000D02*
X439311252Y232235000D01*
X438788748Y230765000D02*
X439311252Y230765000D01*
%TD*%
M02*
