%TF.GenerationSoftware,KiCad,Pcbnew,9.0.2*%
%TF.CreationDate,2026-03-22T21:43:22-05:00*%
%TF.ProjectId,buck_converter,6275636b-5f63-46f6-9e76-65727465722e,rev?*%
%TF.SameCoordinates,Original*%
%TF.FileFunction,AssemblyDrawing,Top*%
%FSLAX46Y46*%
G04 Gerber Fmt 4.6, Leading zero omitted, Abs format (unit mm)*
G04 Created by KiCad (PCBNEW 9.0.2) date 2026-03-22 21:43:22*
%MOMM*%
%LPD*%
G01*
G04 APERTURE LIST*
%ADD10C,0.150000*%
%ADD11C,0.080000*%
%ADD12C,0.110000*%
%ADD13C,0.120000*%
%ADD14C,0.100000*%
G04 APERTURE END LIST*
D10*
X437978571Y232375180D02*
X437407143Y232375180D01*
X437692857Y232375180D02*
X437692857Y233375180D01*
X437692857Y233375180D02*
X437597619Y233232323D01*
X437597619Y233232323D02*
X437502381Y233137085D01*
X437502381Y233137085D02*
X437407143Y233089466D01*
X438597619Y233375180D02*
X438692857Y233375180D01*
X438692857Y233375180D02*
X438788095Y233327561D01*
X438788095Y233327561D02*
X438835714Y233279942D01*
X438835714Y233279942D02*
X438883333Y233184704D01*
X438883333Y233184704D02*
X438930952Y232994228D01*
X438930952Y232994228D02*
X438930952Y232756133D01*
X438930952Y232756133D02*
X438883333Y232565657D01*
X438883333Y232565657D02*
X438835714Y232470419D01*
X438835714Y232470419D02*
X438788095Y232422800D01*
X438788095Y232422800D02*
X438692857Y232375180D01*
X438692857Y232375180D02*
X438597619Y232375180D01*
X438597619Y232375180D02*
X438502381Y232422800D01*
X438502381Y232422800D02*
X438454762Y232470419D01*
X438454762Y232470419D02*
X438407143Y232565657D01*
X438407143Y232565657D02*
X438359524Y232756133D01*
X438359524Y232756133D02*
X438359524Y232994228D01*
X438359524Y232994228D02*
X438407143Y233184704D01*
X438407143Y233184704D02*
X438454762Y233279942D01*
X438454762Y233279942D02*
X438502381Y233327561D01*
X438502381Y233327561D02*
X438597619Y233375180D01*
X439788095Y233041847D02*
X439788095Y232375180D01*
X439359524Y233041847D02*
X439359524Y232518038D01*
X439359524Y232518038D02*
X439407143Y232422800D01*
X439407143Y232422800D02*
X439502381Y232375180D01*
X439502381Y232375180D02*
X439645238Y232375180D01*
X439645238Y232375180D02*
X439740476Y232422800D01*
X439740476Y232422800D02*
X439788095Y232470419D01*
X440597619Y232898990D02*
X440264286Y232898990D01*
X440264286Y232375180D02*
X440264286Y233375180D01*
X440264286Y233375180D02*
X440740476Y233375180D01*
D11*
X438966666Y234330469D02*
X438942857Y234306660D01*
X438942857Y234306660D02*
X438871428Y234282850D01*
X438871428Y234282850D02*
X438823809Y234282850D01*
X438823809Y234282850D02*
X438752381Y234306660D01*
X438752381Y234306660D02*
X438704762Y234354279D01*
X438704762Y234354279D02*
X438680952Y234401898D01*
X438680952Y234401898D02*
X438657143Y234497136D01*
X438657143Y234497136D02*
X438657143Y234568564D01*
X438657143Y234568564D02*
X438680952Y234663802D01*
X438680952Y234663802D02*
X438704762Y234711421D01*
X438704762Y234711421D02*
X438752381Y234759040D01*
X438752381Y234759040D02*
X438823809Y234782850D01*
X438823809Y234782850D02*
X438871428Y234782850D01*
X438871428Y234782850D02*
X438942857Y234759040D01*
X438942857Y234759040D02*
X438966666Y234735231D01*
X439442857Y234282850D02*
X439157143Y234282850D01*
X439300000Y234282850D02*
X439300000Y234782850D01*
X439300000Y234782850D02*
X439252381Y234711421D01*
X439252381Y234711421D02*
X439204762Y234663802D01*
X439204762Y234663802D02*
X439157143Y234639993D01*
D10*
X430955714Y227629942D02*
X431003333Y227677561D01*
X431003333Y227677561D02*
X431098571Y227725180D01*
X431098571Y227725180D02*
X431336666Y227725180D01*
X431336666Y227725180D02*
X431431904Y227677561D01*
X431431904Y227677561D02*
X431479523Y227629942D01*
X431479523Y227629942D02*
X431527142Y227534704D01*
X431527142Y227534704D02*
X431527142Y227439466D01*
X431527142Y227439466D02*
X431479523Y227296609D01*
X431479523Y227296609D02*
X430908095Y226725180D01*
X430908095Y226725180D02*
X431527142Y226725180D01*
X431955714Y226725180D02*
X431955714Y227725180D01*
X431955714Y227725180D02*
X432527142Y226725180D01*
X432527142Y226725180D02*
X432527142Y227725180D01*
X432908095Y227725180D02*
X433574761Y227725180D01*
X433574761Y227725180D02*
X433146190Y226725180D01*
X434146190Y227725180D02*
X434241428Y227725180D01*
X434241428Y227725180D02*
X434336666Y227677561D01*
X434336666Y227677561D02*
X434384285Y227629942D01*
X434384285Y227629942D02*
X434431904Y227534704D01*
X434431904Y227534704D02*
X434479523Y227344228D01*
X434479523Y227344228D02*
X434479523Y227106133D01*
X434479523Y227106133D02*
X434431904Y226915657D01*
X434431904Y226915657D02*
X434384285Y226820419D01*
X434384285Y226820419D02*
X434336666Y226772800D01*
X434336666Y226772800D02*
X434241428Y226725180D01*
X434241428Y226725180D02*
X434146190Y226725180D01*
X434146190Y226725180D02*
X434050952Y226772800D01*
X434050952Y226772800D02*
X434003333Y226820419D01*
X434003333Y226820419D02*
X433955714Y226915657D01*
X433955714Y226915657D02*
X433908095Y227106133D01*
X433908095Y227106133D02*
X433908095Y227344228D01*
X433908095Y227344228D02*
X433955714Y227534704D01*
X433955714Y227534704D02*
X434003333Y227629942D01*
X434003333Y227629942D02*
X434050952Y227677561D01*
X434050952Y227677561D02*
X434146190Y227725180D01*
X435098571Y227725180D02*
X435193809Y227725180D01*
X435193809Y227725180D02*
X435289047Y227677561D01*
X435289047Y227677561D02*
X435336666Y227629942D01*
X435336666Y227629942D02*
X435384285Y227534704D01*
X435384285Y227534704D02*
X435431904Y227344228D01*
X435431904Y227344228D02*
X435431904Y227106133D01*
X435431904Y227106133D02*
X435384285Y226915657D01*
X435384285Y226915657D02*
X435336666Y226820419D01*
X435336666Y226820419D02*
X435289047Y226772800D01*
X435289047Y226772800D02*
X435193809Y226725180D01*
X435193809Y226725180D02*
X435098571Y226725180D01*
X435098571Y226725180D02*
X435003333Y226772800D01*
X435003333Y226772800D02*
X434955714Y226820419D01*
X434955714Y226820419D02*
X434908095Y226915657D01*
X434908095Y226915657D02*
X434860476Y227106133D01*
X434860476Y227106133D02*
X434860476Y227344228D01*
X434860476Y227344228D02*
X434908095Y227534704D01*
X434908095Y227534704D02*
X434955714Y227629942D01*
X434955714Y227629942D02*
X435003333Y227677561D01*
X435003333Y227677561D02*
X435098571Y227725180D01*
X435812857Y227629942D02*
X435860476Y227677561D01*
X435860476Y227677561D02*
X435955714Y227725180D01*
X435955714Y227725180D02*
X436193809Y227725180D01*
X436193809Y227725180D02*
X436289047Y227677561D01*
X436289047Y227677561D02*
X436336666Y227629942D01*
X436336666Y227629942D02*
X436384285Y227534704D01*
X436384285Y227534704D02*
X436384285Y227439466D01*
X436384285Y227439466D02*
X436336666Y227296609D01*
X436336666Y227296609D02*
X435765238Y226725180D01*
X435765238Y226725180D02*
X436384285Y226725180D01*
D12*
X434065937Y229511428D02*
X434031651Y229442857D01*
X434031651Y229442857D02*
X433963080Y229374285D01*
X433963080Y229374285D02*
X433860222Y229271428D01*
X433860222Y229271428D02*
X433825937Y229202857D01*
X433825937Y229202857D02*
X433825937Y229134285D01*
X433997365Y229168571D02*
X433963080Y229100000D01*
X433963080Y229100000D02*
X433894508Y229031428D01*
X433894508Y229031428D02*
X433757365Y228997142D01*
X433757365Y228997142D02*
X433517365Y228997142D01*
X433517365Y228997142D02*
X433380222Y229031428D01*
X433380222Y229031428D02*
X433311651Y229100000D01*
X433311651Y229100000D02*
X433277365Y229168571D01*
X433277365Y229168571D02*
X433277365Y229305714D01*
X433277365Y229305714D02*
X433311651Y229374285D01*
X433311651Y229374285D02*
X433380222Y229442857D01*
X433380222Y229442857D02*
X433517365Y229477142D01*
X433517365Y229477142D02*
X433757365Y229477142D01*
X433757365Y229477142D02*
X433894508Y229442857D01*
X433894508Y229442857D02*
X433963080Y229374285D01*
X433963080Y229374285D02*
X433997365Y229305714D01*
X433997365Y229305714D02*
X433997365Y229168571D01*
X433997365Y230162857D02*
X433997365Y229751428D01*
X433997365Y229957143D02*
X433277365Y229957143D01*
X433277365Y229957143D02*
X433380222Y229888571D01*
X433380222Y229888571D02*
X433448794Y229820000D01*
X433448794Y229820000D02*
X433483080Y229751428D01*
D10*
X432420714Y235182800D02*
X432563571Y235135180D01*
X432563571Y235135180D02*
X432801666Y235135180D01*
X432801666Y235135180D02*
X432896904Y235182800D01*
X432896904Y235182800D02*
X432944523Y235230419D01*
X432944523Y235230419D02*
X432992142Y235325657D01*
X432992142Y235325657D02*
X432992142Y235420895D01*
X432992142Y235420895D02*
X432944523Y235516133D01*
X432944523Y235516133D02*
X432896904Y235563752D01*
X432896904Y235563752D02*
X432801666Y235611371D01*
X432801666Y235611371D02*
X432611190Y235658990D01*
X432611190Y235658990D02*
X432515952Y235706609D01*
X432515952Y235706609D02*
X432468333Y235754228D01*
X432468333Y235754228D02*
X432420714Y235849466D01*
X432420714Y235849466D02*
X432420714Y235944704D01*
X432420714Y235944704D02*
X432468333Y236039942D01*
X432468333Y236039942D02*
X432515952Y236087561D01*
X432515952Y236087561D02*
X432611190Y236135180D01*
X432611190Y236135180D02*
X432849285Y236135180D01*
X432849285Y236135180D02*
X432992142Y236087561D01*
X433373095Y235182800D02*
X433515952Y235135180D01*
X433515952Y235135180D02*
X433754047Y235135180D01*
X433754047Y235135180D02*
X433849285Y235182800D01*
X433849285Y235182800D02*
X433896904Y235230419D01*
X433896904Y235230419D02*
X433944523Y235325657D01*
X433944523Y235325657D02*
X433944523Y235420895D01*
X433944523Y235420895D02*
X433896904Y235516133D01*
X433896904Y235516133D02*
X433849285Y235563752D01*
X433849285Y235563752D02*
X433754047Y235611371D01*
X433754047Y235611371D02*
X433563571Y235658990D01*
X433563571Y235658990D02*
X433468333Y235706609D01*
X433468333Y235706609D02*
X433420714Y235754228D01*
X433420714Y235754228D02*
X433373095Y235849466D01*
X433373095Y235849466D02*
X433373095Y235944704D01*
X433373095Y235944704D02*
X433420714Y236039942D01*
X433420714Y236039942D02*
X433468333Y236087561D01*
X433468333Y236087561D02*
X433563571Y236135180D01*
X433563571Y236135180D02*
X433801666Y236135180D01*
X433801666Y236135180D02*
X433944523Y236087561D01*
X434896904Y235135180D02*
X434325476Y235135180D01*
X434611190Y235135180D02*
X434611190Y236135180D01*
X434611190Y236135180D02*
X434515952Y235992323D01*
X434515952Y235992323D02*
X434420714Y235897085D01*
X434420714Y235897085D02*
X434325476Y235849466D01*
X435754047Y235801847D02*
X435754047Y235135180D01*
X435515952Y236182800D02*
X435277857Y235468514D01*
X435277857Y235468514D02*
X435896904Y235468514D01*
X433396905Y239235180D02*
X433396905Y240235180D01*
X433396905Y240235180D02*
X433635000Y240235180D01*
X433635000Y240235180D02*
X433777857Y240187561D01*
X433777857Y240187561D02*
X433873095Y240092323D01*
X433873095Y240092323D02*
X433920714Y239997085D01*
X433920714Y239997085D02*
X433968333Y239806609D01*
X433968333Y239806609D02*
X433968333Y239663752D01*
X433968333Y239663752D02*
X433920714Y239473276D01*
X433920714Y239473276D02*
X433873095Y239378038D01*
X433873095Y239378038D02*
X433777857Y239282800D01*
X433777857Y239282800D02*
X433635000Y239235180D01*
X433635000Y239235180D02*
X433396905Y239235180D01*
X434920714Y239235180D02*
X434349286Y239235180D01*
X434635000Y239235180D02*
X434635000Y240235180D01*
X434635000Y240235180D02*
X434539762Y240092323D01*
X434539762Y240092323D02*
X434444524Y239997085D01*
X434444524Y239997085D02*
X434349286Y239949466D01*
X432281905Y232079942D02*
X432329524Y232127561D01*
X432329524Y232127561D02*
X432424762Y232175180D01*
X432424762Y232175180D02*
X432662857Y232175180D01*
X432662857Y232175180D02*
X432758095Y232127561D01*
X432758095Y232127561D02*
X432805714Y232079942D01*
X432805714Y232079942D02*
X432853333Y231984704D01*
X432853333Y231984704D02*
X432853333Y231889466D01*
X432853333Y231889466D02*
X432805714Y231746609D01*
X432805714Y231746609D02*
X432234286Y231175180D01*
X432234286Y231175180D02*
X432853333Y231175180D01*
X433234286Y232079942D02*
X433281905Y232127561D01*
X433281905Y232127561D02*
X433377143Y232175180D01*
X433377143Y232175180D02*
X433615238Y232175180D01*
X433615238Y232175180D02*
X433710476Y232127561D01*
X433710476Y232127561D02*
X433758095Y232079942D01*
X433758095Y232079942D02*
X433805714Y231984704D01*
X433805714Y231984704D02*
X433805714Y231889466D01*
X433805714Y231889466D02*
X433758095Y231746609D01*
X433758095Y231746609D02*
X433186667Y231175180D01*
X433186667Y231175180D02*
X433805714Y231175180D01*
X434662857Y231841847D02*
X434662857Y231175180D01*
X434234286Y231841847D02*
X434234286Y231318038D01*
X434234286Y231318038D02*
X434281905Y231222800D01*
X434281905Y231222800D02*
X434377143Y231175180D01*
X434377143Y231175180D02*
X434520000Y231175180D01*
X434520000Y231175180D02*
X434615238Y231222800D01*
X434615238Y231222800D02*
X434662857Y231270419D01*
X435139048Y231175180D02*
X435139048Y232175180D01*
X435139048Y231698990D02*
X435710476Y231698990D01*
X435710476Y231175180D02*
X435710476Y232175180D01*
D13*
X433886666Y233546144D02*
X433505714Y233546144D01*
X433505714Y233546144D02*
X433505714Y234346144D01*
X434572380Y233546144D02*
X434115237Y233546144D01*
X434343809Y233546144D02*
X434343809Y234346144D01*
X434343809Y234346144D02*
X434267618Y234231859D01*
X434267618Y234231859D02*
X434191428Y234155668D01*
X434191428Y234155668D02*
X434115237Y234117573D01*
D10*
X437407143Y230269942D02*
X437454762Y230317561D01*
X437454762Y230317561D02*
X437550000Y230365180D01*
X437550000Y230365180D02*
X437788095Y230365180D01*
X437788095Y230365180D02*
X437883333Y230317561D01*
X437883333Y230317561D02*
X437930952Y230269942D01*
X437930952Y230269942D02*
X437978571Y230174704D01*
X437978571Y230174704D02*
X437978571Y230079466D01*
X437978571Y230079466D02*
X437930952Y229936609D01*
X437930952Y229936609D02*
X437359524Y229365180D01*
X437359524Y229365180D02*
X437978571Y229365180D01*
X438359524Y230269942D02*
X438407143Y230317561D01*
X438407143Y230317561D02*
X438502381Y230365180D01*
X438502381Y230365180D02*
X438740476Y230365180D01*
X438740476Y230365180D02*
X438835714Y230317561D01*
X438835714Y230317561D02*
X438883333Y230269942D01*
X438883333Y230269942D02*
X438930952Y230174704D01*
X438930952Y230174704D02*
X438930952Y230079466D01*
X438930952Y230079466D02*
X438883333Y229936609D01*
X438883333Y229936609D02*
X438311905Y229365180D01*
X438311905Y229365180D02*
X438930952Y229365180D01*
X439788095Y230031847D02*
X439788095Y229365180D01*
X439359524Y230031847D02*
X439359524Y229508038D01*
X439359524Y229508038D02*
X439407143Y229412800D01*
X439407143Y229412800D02*
X439502381Y229365180D01*
X439502381Y229365180D02*
X439645238Y229365180D01*
X439645238Y229365180D02*
X439740476Y229412800D01*
X439740476Y229412800D02*
X439788095Y229460419D01*
X440597619Y229888990D02*
X440264286Y229888990D01*
X440264286Y229365180D02*
X440264286Y230365180D01*
X440264286Y230365180D02*
X440740476Y230365180D01*
D11*
X438966666Y231320469D02*
X438942857Y231296660D01*
X438942857Y231296660D02*
X438871428Y231272850D01*
X438871428Y231272850D02*
X438823809Y231272850D01*
X438823809Y231272850D02*
X438752381Y231296660D01*
X438752381Y231296660D02*
X438704762Y231344279D01*
X438704762Y231344279D02*
X438680952Y231391898D01*
X438680952Y231391898D02*
X438657143Y231487136D01*
X438657143Y231487136D02*
X438657143Y231558564D01*
X438657143Y231558564D02*
X438680952Y231653802D01*
X438680952Y231653802D02*
X438704762Y231701421D01*
X438704762Y231701421D02*
X438752381Y231749040D01*
X438752381Y231749040D02*
X438823809Y231772850D01*
X438823809Y231772850D02*
X438871428Y231772850D01*
X438871428Y231772850D02*
X438942857Y231749040D01*
X438942857Y231749040D02*
X438966666Y231725231D01*
X439157143Y231725231D02*
X439180952Y231749040D01*
X439180952Y231749040D02*
X439228571Y231772850D01*
X439228571Y231772850D02*
X439347619Y231772850D01*
X439347619Y231772850D02*
X439395238Y231749040D01*
X439395238Y231749040D02*
X439419047Y231725231D01*
X439419047Y231725231D02*
X439442857Y231677612D01*
X439442857Y231677612D02*
X439442857Y231629993D01*
X439442857Y231629993D02*
X439419047Y231558564D01*
X439419047Y231558564D02*
X439133333Y231272850D01*
X439133333Y231272850D02*
X439442857Y231272850D01*
%TO.C,C1*%
D14*
X438050000Y235135000D02*
X440050000Y235135000D01*
X440050000Y233885000D01*
X438050000Y233885000D01*
X438050000Y235135000D01*
%TO.C,Q1*%
X434320000Y228130000D02*
X433020000Y228130000D01*
X433020000Y230705000D01*
X433345000Y231030000D01*
X434320000Y231030000D01*
X434320000Y228130000D01*
%TO.C,D1*%
X432735000Y238590000D02*
X435535000Y238590000D01*
X432735000Y236790000D02*
X432735000Y238590000D01*
X433385000Y237690000D02*
X433785000Y237690000D01*
X433785000Y237690000D02*
X433785000Y238240000D01*
X433785000Y237690000D02*
X433785000Y237140000D01*
X433785000Y237690000D02*
X434385000Y238090000D01*
X434385000Y238090000D02*
X434385000Y237290000D01*
X434385000Y237690000D02*
X434885000Y237690000D01*
X434385000Y237290000D02*
X433785000Y237690000D01*
X435535000Y238590000D02*
X435535000Y236790000D01*
X435535000Y236790000D02*
X432735000Y236790000D01*
%TO.C,L1*%
X432420000Y235160000D02*
X435620000Y235160000D01*
X435620000Y232660000D01*
X432420000Y232660000D01*
X432420000Y235160000D01*
%TO.C,C2*%
X438050000Y232125000D02*
X440050000Y232125000D01*
X440050000Y230875000D01*
X438050000Y230875000D01*
X438050000Y232125000D01*
%TD*%
M02*
