%TF.GenerationSoftware,KiCad,Pcbnew,9.0.2*%
%TF.CreationDate,2026-03-22T21:43:22-05:00*%
%TF.ProjectId,buck_converter,6275636b-5f63-46f6-9e76-65727465722e,rev?*%
%TF.SameCoordinates,Original*%
%TF.FileFunction,Other,User*%
%FSLAX46Y46*%
G04 Gerber Fmt 4.6, Leading zero omitted, Abs format (unit mm)*
G04 Created by KiCad (PCBNEW 9.0.2) date 2026-03-22 21:43:22*
%MOMM*%
%LPD*%
G01*
G04 APERTURE LIST*
%ADD10C,0.050000*%
G04 APERTURE END LIST*
%TO.C,C1*%
D10*
X437350000Y235490000D02*
X440750000Y235490000D01*
X440750000Y233530000D01*
X437350000Y233530000D01*
X437350000Y235490000D01*
%TO.C,Q1*%
X431740000Y231080000D02*
X432770000Y231080000D01*
X431740000Y229970000D02*
X431740000Y231080000D01*
X431740000Y229190000D02*
X432770000Y229190000D01*
X431740000Y228080000D02*
X431740000Y229190000D01*
X432770000Y231280000D02*
X434570000Y231280000D01*
X432770000Y231080000D02*
X432770000Y231280000D01*
X432770000Y229970000D02*
X431740000Y229970000D01*
X432770000Y229190000D02*
X432770000Y229970000D01*
X432770000Y228080000D02*
X431740000Y228080000D01*
X432770000Y227880000D02*
X432770000Y228080000D01*
X434570000Y231280000D02*
X434570000Y230130000D01*
X434570000Y230130000D02*
X435600000Y230130000D01*
X434570000Y229030000D02*
X434570000Y227880000D01*
X434570000Y227880000D02*
X432770000Y227880000D01*
X435600000Y230130000D02*
X435600000Y229030000D01*
X435600000Y229030000D02*
X434570000Y229030000D01*
%TO.C,D1*%
X431785000Y238840000D02*
X431785000Y236540000D01*
X431785000Y238840000D02*
X436485000Y238840000D01*
X436485000Y238840000D02*
X436485000Y236540000D01*
X436485000Y236540000D02*
X431785000Y236540000D01*
%TO.C,L1*%
X431740000Y235490000D02*
X436300000Y235490000D01*
X436300000Y232330000D01*
X431740000Y232330000D01*
X431740000Y235490000D01*
%TO.C,C2*%
X437350000Y232480000D02*
X440750000Y232480000D01*
X440750000Y230520000D01*
X437350000Y230520000D01*
X437350000Y232480000D01*
%TD*%
M02*
