<?xml version="1.0" standalone="no"?>
 <!DOCTYPE svg PUBLIC "-//W3C//DTD SVG 1.1//EN" 
 "http://www.w3.org/Graphics/SVG/1.1/DTD/svg11.dtd"> 
<svg
  xmlns:svg="http://www.w3.org/2000/svg"
  xmlns="http://www.w3.org/2000/svg"
  xmlns:xlink="http://www.w3.org/1999/xlink"
  version="1.1"
  width="297.0022mm" height="210.0072mm" viewBox="0.0000 0.0000 297.0022 210.0072">
<title>SVG Image created as buck_converter.svg date 2026/03/21 23:02:53 </title>
  <desc>Image generated by Eeschema-SVG </desc>
<g style="fill:#000000; fill-opacity:1.0000;stroke:#000000; stroke-opacity:1.0000;
stroke-linecap:round; stroke-linejoin:round;"
 transform="translate(0 0) scale(1 1)">
<path style="fill:none; 
stroke:#840000; stroke-width:0.1524; stroke-opacity:1; 
stroke-linecap:round; stroke-linejoin:round;fill:none"
d="M 24.6380,24.1300
25.4000,22.8600
" /> 
<path style="fill:none; 
stroke:#840000; stroke-width:0.1524; stroke-opacity:1; 
stroke-linecap:round; stroke-linejoin:round;fill:none"
d="M 25.4000,22.8600
26.1620,24.1300
" /> 
<path style="fill:none; 
stroke:#840000; stroke-width:0.1524; stroke-opacity:1; 
stroke-linecap:round; stroke-linejoin:round;fill:none"
d="M 25.4000,25.4000
25.4000,22.8600
" /> 
</g>
<g style="fill:none; 
stroke:#840000; stroke-width:0.1524; stroke-opacity:1; 
stroke-linecap:round; stroke-linejoin:round;">
<path d="M25.4000 25.4000
L25.4000 25.4000
" />
</g>
<g style="fill:none; 
stroke:#006464; stroke-width:0.1524; stroke-opacity:1; 
stroke-linecap:round; stroke-linejoin:round;">
<text x="25.4000" y="20.9550"
textLength="5.2832" font-size="1.6933" lengthAdjust="spacingAndGlyphs"
text-anchor="middle" opacity="0" stroke-opacity="0">+12V</text>
<g class="stroked-text"><desc>+12V</desc>
<path d="M23.1623 20.4157
L24.1300 20.4157
" />
<path d="M23.6461 20.8995
L23.6461 19.9319
" />
<path d="M25.4000 20.8995
L24.6743 20.8995
" />
<path d="M25.0371 20.8995
L25.0371 19.6295
" />
<path d="M25.0371 19.6295
L24.9162 19.8110
" />
<path d="M24.9162 19.8110
L24.7952 19.9319
" />
<path d="M24.7952 19.9319
L24.6743 19.9924
" />
<path d="M25.8838 19.7505
L25.9442 19.6900
" />
<path d="M25.9442 19.6900
L26.0652 19.6295
" />
<path d="M26.0652 19.6295
L26.3676 19.6295
" />
<path d="M26.3676 19.6295
L26.4885 19.6900
" />
<path d="M26.4885 19.6900
L26.5490 19.7505
" />
<path d="M26.5490 19.7505
L26.6095 19.8714
" />
<path d="M26.6095 19.8714
L26.6095 19.9924
" />
<path d="M26.6095 19.9924
L26.5490 20.1738
" />
<path d="M26.5490 20.1738
L25.8233 20.8995
" />
<path d="M25.8233 20.8995
L26.6095 20.8995
" />
<path d="M26.9723 19.6295
L27.3956 20.8995
" />
<path d="M27.3956 20.8995
L27.8190 19.6295
" />
</g><path style="fill:none; 
stroke:#840000; stroke-width:0.2540; stroke-opacity:1; 
stroke-linecap:round; stroke-linejoin:round;fill:none"
d="M 42.5450,40.0050
42.5450,39.3700
43.1800,39.3700
43.1800,41.9100
43.8150,41.9100
43.8150,41.2750
" /> 
<path style="fill:none; 
stroke:#840000; stroke-width:0.2540; stroke-opacity:1; 
stroke-linecap:round; stroke-linejoin:round;fill:none"
d="M 45.7200,39.3700
45.7200,41.9100
43.1800,40.6400
Z" /> 
<path style="fill:none; 
stroke:#840000; stroke-width:0.1524; stroke-opacity:1; 
stroke-linecap:round; stroke-linejoin:round;fill:none"
d="M 45.7200,40.6400
43.1800,40.6400
" /> 
</g>
<g style="fill:none; 
stroke:#840000; stroke-width:0.1524; stroke-opacity:1; 
stroke-linecap:round; stroke-linejoin:round;">
<path d="M43.1800 40.6400
L40.6400 40.6400
" />
<path d="M45.7200 40.6400
L48.2600 40.6400
" />
</g>
<g style="fill:none; 
stroke:#006464; stroke-width:0.1524; stroke-opacity:1; 
stroke-linecap:round; stroke-linejoin:round;">
<text x="45.8009" y="43.8150"
textLength="2.6827" font-size="1.6933" lengthAdjust="spacingAndGlyphs"
text-anchor="middle" opacity="0" stroke-opacity="0">D1</text>
<g class="stroked-text"><desc>D1</desc>
<path d="M44.8635 43.7595
L44.8635 42.4895
" />
<path d="M44.8635 42.4895
L45.1659 42.4895
" />
<path d="M45.1659 42.4895
L45.3473 42.5500
" />
<path d="M45.3473 42.5500
L45.4683 42.6710
" />
<path d="M45.4683 42.6710
L45.5288 42.7919
" />
<path d="M45.5288 42.7919
L45.5892 43.0338
" />
<path d="M45.5892 43.0338
L45.5892 43.2152
" />
<path d="M45.5892 43.2152
L45.5288 43.4571
" />
<path d="M45.5288 43.4571
L45.4683 43.5781
" />
<path d="M45.4683 43.5781
L45.3473 43.6991
" />
<path d="M45.3473 43.6991
L45.1659 43.7595
" />
<path d="M45.1659 43.7595
L44.8635 43.7595
" />
<path d="M46.7988 43.7595
L46.0731 43.7595
" />
<path d="M46.4359 43.7595
L46.4359 42.4895
" />
<path d="M46.4359 42.4895
L46.3150 42.6710
" />
<path d="M46.3150 42.6710
L46.1940 42.7919
" />
<path d="M46.1940 42.7919
L46.0731 42.8524
" />
</g><text x="46.9802" y="38.7350"
textLength="5.0412" font-size="1.6933" lengthAdjust="spacingAndGlyphs"
text-anchor="middle" opacity="0" stroke-opacity="0">SS14</text>
<g class="stroked-text"><desc>SS14</desc>
<path d="M44.8031 38.6191
L44.9845 38.6795
" />
<path d="M44.9845 38.6795
L45.2869 38.6795
" />
<path d="M45.2869 38.6795
L45.4078 38.6191
" />
<path d="M45.4078 38.6191
L45.4683 38.5586
" />
<path d="M45.4683 38.5586
L45.5288 38.4376
" />
<path d="M45.5288 38.4376
L45.5288 38.3167
" />
<path d="M45.5288 38.3167
L45.4683 38.1957
" />
<path d="M45.4683 38.1957
L45.4078 38.1352
" />
<path d="M45.4078 38.1352
L45.2869 38.0748
" />
<path d="M45.2869 38.0748
L45.0450 38.0143
" />
<path d="M45.0450 38.0143
L44.9240 37.9538
" />
<path d="M44.9240 37.9538
L44.8635 37.8933
" />
<path d="M44.8635 37.8933
L44.8031 37.7724
" />
<path d="M44.8031 37.7724
L44.8031 37.6514
" />
<path d="M44.8031 37.6514
L44.8635 37.5305
" />
<path d="M44.8635 37.5305
L44.9240 37.4700
" />
<path d="M44.9240 37.4700
L45.0450 37.4095
" />
<path d="M45.0450 37.4095
L45.3473 37.4095
" />
<path d="M45.3473 37.4095
L45.5288 37.4700
" />
<path d="M46.0126 38.6191
L46.1940 38.6795
" />
<path d="M46.1940 38.6795
L46.4964 38.6795
" />
<path d="M46.4964 38.6795
L46.6173 38.6191
" />
<path d="M46.6173 38.6191
L46.6778 38.5586
" />
<path d="M46.6778 38.5586
L46.7383 38.4376
" />
<path d="M46.7383 38.4376
L46.7383 38.3167
" />
<path d="M46.7383 38.3167
L46.6778 38.1957
" />
<path d="M46.6778 38.1957
L46.6173 38.1352
" />
<path d="M46.6173 38.1352
L46.4964 38.0748
" />
<path d="M46.4964 38.0748
L46.2545 38.0143
" />
<path d="M46.2545 38.0143
L46.1335 37.9538
" />
<path d="M46.1335 37.9538
L46.0730 37.8933
" />
<path d="M46.0730 37.8933
L46.0126 37.7724
" />
<path d="M46.0126 37.7724
L46.0126 37.6514
" />
<path d="M46.0126 37.6514
L46.0730 37.5305
" />
<path d="M46.0730 37.5305
L46.1335 37.4700
" />
<path d="M46.1335 37.4700
L46.2545 37.4095
" />
<path d="M46.2545 37.4095
L46.5568 37.4095
" />
<path d="M46.5568 37.4095
L46.7383 37.4700
" />
<path d="M47.9478 38.6795
L47.2221 38.6795
" />
<path d="M47.5849 38.6795
L47.5849 37.4095
" />
<path d="M47.5849 37.4095
L47.4640 37.5910
" />
<path d="M47.4640 37.5910
L47.3430 37.7119
" />
<path d="M47.3430 37.7119
L47.2221 37.7724
" />
<path d="M49.0363 37.8329
L49.0363 38.6795
" />
<path d="M48.7339 37.3491
L48.4316 38.2562
" />
<path d="M48.4316 38.2562
L49.2177 38.2562
" />
</g><path style="fill:none; 
stroke:#840000; stroke-width:0.5080; stroke-opacity:1; 
stroke-linecap:round; stroke-linejoin:round;fill:none"
d="M 23.3680,37.3380
27.4320,37.3380
" /> 
<path style="fill:none; 
stroke:#840000; stroke-width:0.5080; stroke-opacity:1; 
stroke-linecap:round; stroke-linejoin:round;fill:none"
d="M 23.3680,38.8620
27.4320,38.8620
" /> 
</g>
<g style="fill:none; 
stroke:#840000; stroke-width:0.1524; stroke-opacity:1; 
stroke-linecap:round; stroke-linejoin:round;">
<path d="M25.4000 37.0840
L25.4000 34.2900
" />
<path d="M25.4000 39.1160
L25.4000 41.9100
" />
</g>
<g style="fill:none; 
stroke:#006464; stroke-width:0.1524; stroke-opacity:1; 
stroke-linecap:round; stroke-linejoin:round;">
<text x="27.3859" y="41.2750"
textLength="2.6827" font-size="1.6933" lengthAdjust="spacingAndGlyphs"
text-anchor="middle" opacity="0" stroke-opacity="0">C1</text>
<g class="stroked-text"><desc>C1</desc>
<path d="M27.1742 41.0986
L27.1138 41.1591
" />
<path d="M27.1138 41.1591
L26.9323 41.2195
" />
<path d="M26.9323 41.2195
L26.8114 41.2195
" />
<path d="M26.8114 41.2195
L26.6300 41.1591
" />
<path d="M26.6300 41.1591
L26.5090 41.0381
" />
<path d="M26.5090 41.0381
L26.4485 40.9171
" />
<path d="M26.4485 40.9171
L26.3881 40.6752
" />
<path d="M26.3881 40.6752
L26.3881 40.4938
" />
<path d="M26.3881 40.4938
L26.4485 40.2519
" />
<path d="M26.4485 40.2519
L26.5090 40.1310
" />
<path d="M26.5090 40.1310
L26.6300 40.0100
" />
<path d="M26.6300 40.0100
L26.8114 39.9495
" />
<path d="M26.8114 39.9495
L26.9323 39.9495
" />
<path d="M26.9323 39.9495
L27.1138 40.0100
" />
<path d="M27.1138 40.0100
L27.1742 40.0705
" />
<path d="M28.3838 41.2195
L27.6581 41.2195
" />
<path d="M28.0209 41.2195
L28.0209 39.9495
" />
<path d="M28.0209 39.9495
L27.9000 40.1310
" />
<path d="M27.9000 40.1310
L27.7790 40.2519
" />
<path d="M27.7790 40.2519
L27.6581 40.3124
" />
</g><text x="28.4745" y="36.1950"
textLength="4.8598" font-size="1.6933" lengthAdjust="spacingAndGlyphs"
text-anchor="middle" opacity="0" stroke-opacity="0">10uF</text>
<g class="stroked-text"><desc>10uF</desc>
<path d="M27.1138 36.1395
L26.3881 36.1395
" />
<path d="M26.7509 36.1395
L26.7509 34.8695
" />
<path d="M26.7509 34.8695
L26.6300 35.0510
" />
<path d="M26.6300 35.0510
L26.5090 35.1719
" />
<path d="M26.5090 35.1719
L26.3881 35.2324
" />
<path d="M27.8999 34.8695
L28.0209 34.8695
" />
<path d="M28.0209 34.8695
L28.1418 34.9300
" />
<path d="M28.1418 34.9300
L28.2023 34.9905
" />
<path d="M28.2023 34.9905
L28.2628 35.1114
" />
<path d="M28.2628 35.1114
L28.3233 35.3533
" />
<path d="M28.3233 35.3533
L28.3233 35.6557
" />
<path d="M28.3233 35.6557
L28.2628 35.8976
" />
<path d="M28.2628 35.8976
L28.2023 36.0186
" />
<path d="M28.2023 36.0186
L28.1418 36.0791
" />
<path d="M28.1418 36.0791
L28.0209 36.1395
" />
<path d="M28.0209 36.1395
L27.8999 36.1395
" />
<path d="M27.8999 36.1395
L27.7790 36.0791
" />
<path d="M27.7790 36.0791
L27.7185 36.0186
" />
<path d="M27.7185 36.0186
L27.6580 35.8976
" />
<path d="M27.6580 35.8976
L27.5976 35.6557
" />
<path d="M27.5976 35.6557
L27.5976 35.3533
" />
<path d="M27.5976 35.3533
L27.6580 35.1114
" />
<path d="M27.6580 35.1114
L27.7185 34.9905
" />
<path d="M27.7185 34.9905
L27.7790 34.9300
" />
<path d="M27.7790 34.9300
L27.8999 34.8695
" />
<path d="M29.4118 35.2929
L29.4118 36.1395
" />
<path d="M28.8675 35.2929
L28.8675 35.9581
" />
<path d="M28.8675 35.9581
L28.9280 36.0791
" />
<path d="M28.9280 36.0791
L29.0490 36.1395
" />
<path d="M29.0490 36.1395
L29.2304 36.1395
" />
<path d="M29.2304 36.1395
L29.3513 36.0791
" />
<path d="M29.3513 36.0791
L29.4118 36.0186
" />
<path d="M30.4399 35.4743
L30.0165 35.4743
" />
<path d="M30.0165 36.1395
L30.0165 34.8695
" />
<path d="M30.0165 34.8695
L30.6213 34.8695
" />
</g><path style="fill:none; 
stroke:#840000; stroke-width:0.1524; stroke-opacity:1; 
stroke-linecap:round; stroke-linejoin:round;fill:none"
d="M 25.4000,50.8000
25.4000,52.0700
26.6700,52.0700
25.4000,53.3400
24.1300,52.0700
25.4000,52.0700
" /> 
</g>
<g style="fill:none; 
stroke:#840000; stroke-width:0.1524; stroke-opacity:1; 
stroke-linecap:round; stroke-linejoin:round;">
<path d="M25.4000 50.8000
L25.4000 50.8000
" />
</g>
<g style="fill:none; 
stroke:#006464; stroke-width:0.1524; stroke-opacity:1; 
stroke-linecap:round; stroke-linejoin:round;">
<text x="25.4000" y="56.5150"
textLength="4.0737" font-size="1.6933" lengthAdjust="spacingAndGlyphs"
text-anchor="middle" opacity="0" stroke-opacity="0">GND</text>
<g class="stroked-text"><desc>GND</desc>
<path d="M24.4324 55.2500
L24.3114 55.1895
" />
<path d="M24.3114 55.1895
L24.1300 55.1895
" />
<path d="M24.1300 55.1895
L23.9486 55.2500
" />
<path d="M23.9486 55.2500
L23.8276 55.3710
" />
<path d="M23.8276 55.3710
L23.7671 55.4919
" />
<path d="M23.7671 55.4919
L23.7067 55.7338
" />
<path d="M23.7067 55.7338
L23.7067 55.9152
" />
<path d="M23.7067 55.9152
L23.7671 56.1571
" />
<path d="M23.7671 56.1571
L23.8276 56.2781
" />
<path d="M23.8276 56.2781
L23.9486 56.3991
" />
<path d="M23.9486 56.3991
L24.1300 56.4595
" />
<path d="M24.1300 56.4595
L24.2509 56.4595
" />
<path d="M24.2509 56.4595
L24.4324 56.3991
" />
<path d="M24.4324 56.3991
L24.4928 56.3386
" />
<path d="M24.4928 56.3386
L24.4928 55.9152
" />
<path d="M24.4928 55.9152
L24.2509 55.9152
" />
<path d="M25.0371 56.4595
L25.0371 55.1895
" />
<path d="M25.0371 55.1895
L25.7628 56.4595
" />
<path d="M25.7628 56.4595
L25.7628 55.1895
" />
<path d="M26.3676 56.4595
L26.3676 55.1895
" />
<path d="M26.3676 55.1895
L26.6700 55.1895
" />
<path d="M26.6700 55.1895
L26.8514 55.2500
" />
<path d="M26.8514 55.2500
L26.9724 55.3710
" />
<path d="M26.9724 55.3710
L27.0329 55.4919
" />
<path d="M27.0329 55.4919
L27.0933 55.7338
" />
<path d="M27.0933 55.7338
L27.0933 55.9152
" />
<path d="M27.0933 55.9152
L27.0329 56.1571
" />
<path d="M27.0329 56.1571
L26.9724 56.2781
" />
<path d="M26.9724 56.2781
L26.8514 56.3991
" />
<path d="M26.8514 56.3991
L26.6700 56.4595
" />
<path d="M26.6700 56.4595
L26.3676 56.4595
" />
</g><path style="fill:none; 
stroke:#840000; stroke-width:0.1524; stroke-opacity:1; 
stroke-linecap:round; stroke-linejoin:round;fill:none"
d="M 69.8500,50.8000
69.8500,52.0700
71.1200,52.0700
69.8500,53.3400
68.5800,52.0700
69.8500,52.0700
" /> 
</g>
<g style="fill:none; 
stroke:#840000; stroke-width:0.1524; stroke-opacity:1; 
stroke-linecap:round; stroke-linejoin:round;">
<path d="M69.8500 50.8000
L69.8500 50.8000
" />
</g>
<g style="fill:none; 
stroke:#006464; stroke-width:0.1524; stroke-opacity:1; 
stroke-linecap:round; stroke-linejoin:round;">
<text x="69.8500" y="56.5150"
textLength="4.0737" font-size="1.6933" lengthAdjust="spacingAndGlyphs"
text-anchor="middle" opacity="0" stroke-opacity="0">GND</text>
<g class="stroked-text"><desc>GND</desc>
<path d="M68.8824 55.2500
L68.7614 55.1895
" />
<path d="M68.7614 55.1895
L68.5800 55.1895
" />
<path d="M68.5800 55.1895
L68.3986 55.2500
" />
<path d="M68.3986 55.2500
L68.2776 55.3710
" />
<path d="M68.2776 55.3710
L68.2171 55.4919
" />
<path d="M68.2171 55.4919
L68.1567 55.7338
" />
<path d="M68.1567 55.7338
L68.1567 55.9152
" />
<path d="M68.1567 55.9152
L68.2171 56.1571
" />
<path d="M68.2171 56.1571
L68.2776 56.2781
" />
<path d="M68.2776 56.2781
L68.3986 56.3991
" />
<path d="M68.3986 56.3991
L68.5800 56.4595
" />
<path d="M68.5800 56.4595
L68.7009 56.4595
" />
<path d="M68.7009 56.4595
L68.8824 56.3991
" />
<path d="M68.8824 56.3991
L68.9428 56.3386
" />
<path d="M68.9428 56.3386
L68.9428 55.9152
" />
<path d="M68.9428 55.9152
L68.7009 55.9152
" />
<path d="M69.4871 56.4595
L69.4871 55.1895
" />
<path d="M69.4871 55.1895
L70.2128 56.4595
" />
<path d="M70.2128 56.4595
L70.2128 55.1895
" />
<path d="M70.8176 56.4595
L70.8176 55.1895
" />
<path d="M70.8176 55.1895
L71.1200 55.1895
" />
<path d="M71.1200 55.1895
L71.3014 55.2500
" />
<path d="M71.3014 55.2500
L71.4224 55.3710
" />
<path d="M71.4224 55.3710
L71.4829 55.4919
" />
<path d="M71.4829 55.4919
L71.5433 55.7338
" />
<path d="M71.5433 55.7338
L71.5433 55.9152
" />
<path d="M71.5433 55.9152
L71.4829 56.1571
" />
<path d="M71.4829 56.1571
L71.4224 56.2781
" />
<path d="M71.4224 56.2781
L71.3014 56.3991
" />
<path d="M71.3014 56.3991
L71.1200 56.4595
" />
<path d="M71.1200 56.4595
L70.8176 56.4595
" />
</g></g>
<g style="fill:none; 
stroke:#840000; stroke-width:0.1524; stroke-opacity:1; 
stroke-linecap:round; stroke-linejoin:round;">
<path d="M55.8800 30.4800 A0.6350 0.6350 0.0 0 0 54.6100 30.4800" />
<path d="M57.1500 30.4800 A0.6350 0.6350 0.0 0 0 55.8800 30.4800" />
<path d="M58.4200 30.4800 A0.6350 0.6350 0.0 0 0 57.1500 30.4800" />
<path d="M59.6900 30.4800 A0.6350 0.6350 0.0 0 0 58.4200 30.4800" />
<path d="M54.6100 30.4800
L53.3400 30.4800
" />
<path d="M59.6900 30.4800
L60.9600 30.4800
" />
</g>
<g style="fill:none; 
stroke:#006464; stroke-width:0.1524; stroke-opacity:1; 
stroke-linecap:round; stroke-linejoin:round;">
<g transform="rotate(-90.000000 57.1499 30.4400)">
<text x="57.1499" y="31.0750"
textLength="2.4408" font-size="1.6933" lengthAdjust="spacingAndGlyphs"
text-anchor="middle" opacity="0" stroke-opacity="0">L1</text>
</g>
<g class="stroked-text"><desc>L1</desc>
<path d="M57.7294 30.6516
L57.7294 31.2564
" />
<path d="M57.7294 31.2564
L56.4594 31.2564
" />
<path d="M57.7294 29.5630
L57.7294 30.2887
" />
<path d="M57.7294 29.9259
L56.4594 29.9259
" />
<path d="M56.4594 29.9259
L56.6409 30.0468
" />
<path d="M56.6409 30.0468
L56.7618 30.1678
" />
<path d="M56.7618 30.1678
L56.8223 30.2887
" />
</g><g transform="rotate(-90.000000 57.1499 34.9454)">
<text x="57.1499" y="35.5804"
textLength="5.1017" font-size="1.6933" lengthAdjust="spacingAndGlyphs"
text-anchor="middle" opacity="0" stroke-opacity="0">22uH</text>
</g>
<g class="stroked-text"><desc>22uH</desc>
<path d="M56.5804 37.1526
L56.5199 37.0922
" />
<path d="M56.5199 37.0922
L56.4594 36.9712
" />
<path d="M56.4594 36.9712
L56.4594 36.6688
" />
<path d="M56.4594 36.6688
L56.5199 36.5479
" />
<path d="M56.5199 36.5479
L56.5804 36.4874
" />
<path d="M56.5804 36.4874
L56.7013 36.4269
" />
<path d="M56.7013 36.4269
L56.8223 36.4269
" />
<path d="M56.8223 36.4269
L57.0037 36.4874
" />
<path d="M57.0037 36.4874
L57.7294 37.2131
" />
<path d="M57.7294 37.2131
L57.7294 36.4269
" />
<path d="M56.5804 35.9431
L56.5199 35.8827
" />
<path d="M56.5199 35.8827
L56.4594 35.7617
" />
<path d="M56.4594 35.7617
L56.4594 35.4593
" />
<path d="M56.4594 35.4593
L56.5199 35.3384
" />
<path d="M56.5199 35.3384
L56.5804 35.2779
" />
<path d="M56.5804 35.2779
L56.7013 35.2174
" />
<path d="M56.7013 35.2174
L56.8223 35.2174
" />
<path d="M56.8223 35.2174
L57.0037 35.2779
" />
<path d="M57.0037 35.2779
L57.7294 36.0036
" />
<path d="M57.7294 36.0036
L57.7294 35.2174
" />
<path d="M56.8828 34.1289
L57.7294 34.1289
" />
<path d="M56.8828 34.6732
L57.5480 34.6732
" />
<path d="M57.5480 34.6732
L57.6690 34.6127
" />
<path d="M57.6690 34.6127
L57.7294 34.4917
" />
<path d="M57.7294 34.4917
L57.7294 34.3103
" />
<path d="M57.7294 34.3103
L57.6690 34.1894
" />
<path d="M57.6690 34.1894
L57.6085 34.1289
" />
<path d="M57.7294 33.5242
L56.4594 33.5242
" />
<path d="M57.0642 33.5242
L57.0642 32.7985
" />
<path d="M57.7294 32.7985
L56.4594 32.7985
" />
</g><path style="fill:none; 
stroke:#840000; stroke-width:0.1524; stroke-opacity:1; 
stroke-linecap:round; stroke-linejoin:round;fill:none"
d="M 44.4500,50.8000
44.4500,52.0700
45.7200,52.0700
44.4500,53.3400
43.1800,52.0700
44.4500,52.0700
" /> 
</g>
<g style="fill:none; 
stroke:#840000; stroke-width:0.1524; stroke-opacity:1; 
stroke-linecap:round; stroke-linejoin:round;">
<path d="M44.4500 50.8000
L44.4500 50.8000
" />
</g>
<g style="fill:none; 
stroke:#006464; stroke-width:0.1524; stroke-opacity:1; 
stroke-linecap:round; stroke-linejoin:round;">
<text x="44.4500" y="56.5150"
textLength="4.0737" font-size="1.6933" lengthAdjust="spacingAndGlyphs"
text-anchor="middle" opacity="0" stroke-opacity="0">GND</text>
<g class="stroked-text"><desc>GND</desc>
<path d="M43.4824 55.2500
L43.3614 55.1895
" />
<path d="M43.3614 55.1895
L43.1800 55.1895
" />
<path d="M43.1800 55.1895
L42.9986 55.2500
" />
<path d="M42.9986 55.2500
L42.8776 55.3710
" />
<path d="M42.8776 55.3710
L42.8171 55.4919
" />
<path d="M42.8171 55.4919
L42.7567 55.7338
" />
<path d="M42.7567 55.7338
L42.7567 55.9152
" />
<path d="M42.7567 55.9152
L42.8171 56.1571
" />
<path d="M42.8171 56.1571
L42.8776 56.2781
" />
<path d="M42.8776 56.2781
L42.9986 56.3991
" />
<path d="M42.9986 56.3991
L43.1800 56.4595
" />
<path d="M43.1800 56.4595
L43.3009 56.4595
" />
<path d="M43.3009 56.4595
L43.4824 56.3991
" />
<path d="M43.4824 56.3991
L43.5428 56.3386
" />
<path d="M43.5428 56.3386
L43.5428 55.9152
" />
<path d="M43.5428 55.9152
L43.3009 55.9152
" />
<path d="M44.0871 56.4595
L44.0871 55.1895
" />
<path d="M44.0871 55.1895
L44.8128 56.4595
" />
<path d="M44.8128 56.4595
L44.8128 55.1895
" />
<path d="M45.4176 56.4595
L45.4176 55.1895
" />
<path d="M45.4176 55.1895
L45.7200 55.1895
" />
<path d="M45.7200 55.1895
L45.9014 55.2500
" />
<path d="M45.9014 55.2500
L46.0224 55.3710
" />
<path d="M46.0224 55.3710
L46.0829 55.4919
" />
<path d="M46.0829 55.4919
L46.1433 55.7338
" />
<path d="M46.1433 55.7338
L46.1433 55.9152
" />
<path d="M46.1433 55.9152
L46.0829 56.1571
" />
<path d="M46.0829 56.1571
L46.0224 56.2781
" />
<path d="M46.0224 56.2781
L45.9014 56.3991
" />
<path d="M45.9014 56.3991
L45.7200 56.4595
" />
<path d="M45.7200 56.4595
L45.4176 56.4595
" />
</g><path style="fill:none; 
stroke:#840000; stroke-width:0.2540; stroke-opacity:1; 
stroke-linecap:round; stroke-linejoin:round;fill:none"
d="M 38.3540,31.1150
38.3540,34.9250
" /> 
<path style="fill:none; 
stroke:#840000; stroke-width:0.1524; stroke-opacity:1; 
stroke-linecap:round; stroke-linejoin:round;fill:none"
d="M 38.3540,33.0200
35.5600,33.0200
" /> 
<path style="fill:none; 
stroke:#840000; stroke-width:0.2540; stroke-opacity:1; 
stroke-linecap:round; stroke-linejoin:round;fill:none"
d="M 38.8620,30.7340
38.8620,31.7500
" /> 
<path style="fill:none; 
stroke:#840000; stroke-width:0.2540; stroke-opacity:1; 
stroke-linecap:round; stroke-linejoin:round;fill:none"
d="M 38.8620,32.5120
38.8620,33.5280
" /> 
<path style="fill:none; 
stroke:#840000; stroke-width:0.2540; stroke-opacity:1; 
stroke-linecap:round; stroke-linejoin:round;fill:none"
d="M 38.8620,34.2900
38.8620,35.3060
" /> 
<path style="fill:none; 
stroke:#840000; stroke-width:0.1524; stroke-opacity:1; 
stroke-linecap:round; stroke-linejoin:round;fill:none"
d="M 38.8620,34.7980
41.4020,34.7980
41.4020,31.2420
38.8620,31.2420
" /> 
<path style="fill:#840000; fill-opacity:1.0000; 
stroke:#840000; stroke-width:0.1524; stroke-opacity:1; 
stroke-linecap:round; stroke-linejoin:round;fill-rule:evenodd;"
d="M 39.1160,33.0200
40.1320,32.6390
40.1320,33.4010
Z" /> 
</g>
<g style="fill:none; 
stroke:#840000; stroke-width:0.2540; stroke-opacity:1; 
stroke-linecap:round; stroke-linejoin:round;">
<circle cx="39.7510" cy="33.0200" r="2.7940" /> 
<path style="fill:none; 
stroke:#840000; stroke-width:0.1524; stroke-opacity:1; 
stroke-linecap:round; stroke-linejoin:round;fill:none"
d="M 40.6400,30.4800
40.6400,31.2420
" /> 
</g>
<g style="fill:#840000; fill-opacity:1.0000; 
stroke:#840000; stroke-width:0.1524; stroke-opacity:1; 
stroke-linecap:round; stroke-linejoin:round;">
<circle cx="40.6400" cy="31.2420" r="0.2540" /> 
<circle cx="40.6400" cy="34.7980" r="0.2540" /> 
<path style="fill:none; 
stroke:#840000; stroke-width:0.1524; stroke-opacity:1; 
stroke-linecap:round; stroke-linejoin:round;fill:none"
d="M 40.6400,35.5600
40.6400,33.0200
38.8620,33.0200
" /> 
<path style="fill:none; 
stroke:#840000; stroke-width:0.1524; stroke-opacity:1; 
stroke-linecap:round; stroke-linejoin:round;fill:none"
d="M 41.0210,32.6390
41.7830,32.6390
" /> 
<path style="fill:none; 
stroke:#840000; stroke-width:0.1524; stroke-opacity:1; 
stroke-linecap:round; stroke-linejoin:round;fill:none"
d="M 41.4020,32.6390
41.0210,33.2740
41.7830,33.2740
Z" /> 
</g>
<g style="fill:none; 
stroke:#840000; stroke-width:0.1524; stroke-opacity:1; 
stroke-linecap:round; stroke-linejoin:round;">
<path d="M35.5600 33.0200
L33.0200 33.0200
" />
<path d="M40.6400 30.4800
L40.6400 27.9400
" />
<path d="M40.6400 35.5600
L40.6400 38.1000
" />
</g>
<g style="fill:none; 
stroke:#006464; stroke-width:0.1524; stroke-opacity:1; 
stroke-linecap:round; stroke-linejoin:round;">
<text x="44.5612" y="34.9250"
textLength="2.7432" font-size="1.6933" lengthAdjust="spacingAndGlyphs"
text-anchor="middle" opacity="0" stroke-opacity="0">Q1</text>
<g class="stroked-text"><desc>Q1</desc>
<path d="M44.4402 34.9905
L44.3192 34.9300
" />
<path d="M44.3192 34.9300
L44.1983 34.8091
" />
<path d="M44.1983 34.8091
L44.0169 34.6276
" />
<path d="M44.0169 34.6276
L43.8959 34.5671
" />
<path d="M43.8959 34.5671
L43.7750 34.5671
" />
<path d="M43.8354 34.8695
L43.7145 34.8091
" />
<path d="M43.7145 34.8091
L43.5935 34.6881
" />
<path d="M43.5935 34.6881
L43.5331 34.4462
" />
<path d="M43.5331 34.4462
L43.5331 34.0229
" />
<path d="M43.5331 34.0229
L43.5935 33.7810
" />
<path d="M43.5935 33.7810
L43.7145 33.6600
" />
<path d="M43.7145 33.6600
L43.8354 33.5995
" />
<path d="M43.8354 33.5995
L44.0773 33.5995
" />
<path d="M44.0773 33.5995
L44.1983 33.6600
" />
<path d="M44.1983 33.6600
L44.3192 33.7810
" />
<path d="M44.3192 33.7810
L44.3797 34.0229
" />
<path d="M44.3797 34.0229
L44.3797 34.4462
" />
<path d="M44.3797 34.4462
L44.3192 34.6881
" />
<path d="M44.3192 34.6881
L44.1983 34.8091
" />
<path d="M44.1983 34.8091
L44.0773 34.8695
" />
<path d="M44.0773 34.8695
L43.8354 34.8695
" />
<path d="M45.5893 34.8695
L44.8636 34.8695
" />
<path d="M45.2264 34.8695
L45.2264 33.5995
" />
<path d="M45.2264 33.5995
L45.1055 33.7810
" />
<path d="M45.1055 33.7810
L44.9845 33.9019
" />
<path d="M44.9845 33.9019
L44.8636 33.9624
" />
</g><text x="44.6216" y="32.3850"
textLength="2.8641" font-size="1.6933" lengthAdjust="spacingAndGlyphs"
text-anchor="middle" opacity="0" stroke-opacity="0">SW</text>
<g class="stroked-text"><desc>SW</desc>
<path d="M43.5331 32.2691
L43.7145 32.3295
" />
<path d="M43.7145 32.3295
L44.0169 32.3295
" />
<path d="M44.0169 32.3295
L44.1378 32.2691
" />
<path d="M44.1378 32.2691
L44.1983 32.2086
" />
<path d="M44.1983 32.2086
L44.2588 32.0876
" />
<path d="M44.2588 32.0876
L44.2588 31.9667
" />
<path d="M44.2588 31.9667
L44.1983 31.8457
" />
<path d="M44.1983 31.8457
L44.1378 31.7852
" />
<path d="M44.1378 31.7852
L44.0169 31.7248
" />
<path d="M44.0169 31.7248
L43.7750 31.6643
" />
<path d="M43.7750 31.6643
L43.6540 31.6038
" />
<path d="M43.6540 31.6038
L43.5935 31.5433
" />
<path d="M43.5935 31.5433
L43.5331 31.4224
" />
<path d="M43.5331 31.4224
L43.5331 31.3014
" />
<path d="M43.5331 31.3014
L43.5935 31.1805
" />
<path d="M43.5935 31.1805
L43.6540 31.1200
" />
<path d="M43.6540 31.1200
L43.7750 31.0595
" />
<path d="M43.7750 31.0595
L44.0773 31.0595
" />
<path d="M44.0773 31.0595
L44.2588 31.1200
" />
<path d="M44.6821 31.0595
L44.9845 32.3295
" />
<path d="M44.9845 32.3295
L45.2264 31.4224
" />
<path d="M45.2264 31.4224
L45.4683 32.3295
" />
<path d="M45.4683 32.3295
L45.7707 31.0595
" />
</g><path style="fill:none; 
stroke:#840000; stroke-width:0.5080; stroke-opacity:1; 
stroke-linecap:round; stroke-linejoin:round;fill:none"
d="M 67.8180,37.3380
71.8820,37.3380
" /> 
<path style="fill:none; 
stroke:#840000; stroke-width:0.5080; stroke-opacity:1; 
stroke-linecap:round; stroke-linejoin:round;fill:none"
d="M 67.8180,38.8620
71.8820,38.8620
" /> 
</g>
<g style="fill:none; 
stroke:#840000; stroke-width:0.1524; stroke-opacity:1; 
stroke-linecap:round; stroke-linejoin:round;">
<path d="M69.8500 37.0840
L69.8500 34.2900
" />
<path d="M69.8500 39.1160
L69.8500 41.9100
" />
</g>
<g style="fill:none; 
stroke:#006464; stroke-width:0.1524; stroke-opacity:1; 
stroke-linecap:round; stroke-linejoin:round;">
<text x="71.8359" y="41.2750"
textLength="2.6827" font-size="1.6933" lengthAdjust="spacingAndGlyphs"
text-anchor="middle" opacity="0" stroke-opacity="0">C2</text>
<g class="stroked-text"><desc>C2</desc>
<path d="M71.6242 41.0986
L71.5638 41.1591
" />
<path d="M71.5638 41.1591
L71.3823 41.2195
" />
<path d="M71.3823 41.2195
L71.2614 41.2195
" />
<path d="M71.2614 41.2195
L71.0800 41.1591
" />
<path d="M71.0800 41.1591
L70.9590 41.0381
" />
<path d="M70.9590 41.0381
L70.8985 40.9171
" />
<path d="M70.8985 40.9171
L70.8381 40.6752
" />
<path d="M70.8381 40.6752
L70.8381 40.4938
" />
<path d="M70.8381 40.4938
L70.8985 40.2519
" />
<path d="M70.8985 40.2519
L70.9590 40.1310
" />
<path d="M70.9590 40.1310
L71.0800 40.0100
" />
<path d="M71.0800 40.0100
L71.2614 39.9495
" />
<path d="M71.2614 39.9495
L71.3823 39.9495
" />
<path d="M71.3823 39.9495
L71.5638 40.0100
" />
<path d="M71.5638 40.0100
L71.6242 40.0705
" />
<path d="M72.1081 40.0705
L72.1685 40.0100
" />
<path d="M72.1685 40.0100
L72.2895 39.9495
" />
<path d="M72.2895 39.9495
L72.5919 39.9495
" />
<path d="M72.5919 39.9495
L72.7128 40.0100
" />
<path d="M72.7128 40.0100
L72.7733 40.0705
" />
<path d="M72.7733 40.0705
L72.8338 40.1914
" />
<path d="M72.8338 40.1914
L72.8338 40.3124
" />
<path d="M72.8338 40.3124
L72.7733 40.4938
" />
<path d="M72.7733 40.4938
L72.0476 41.2195
" />
<path d="M72.0476 41.2195
L72.8338 41.2195
" />
</g><text x="72.9245" y="36.1950"
textLength="4.8598" font-size="1.6933" lengthAdjust="spacingAndGlyphs"
text-anchor="middle" opacity="0" stroke-opacity="0">22uF</text>
<g class="stroked-text"><desc>22uF</desc>
<path d="M70.8381 34.9905
L70.8985 34.9300
" />
<path d="M70.8985 34.9300
L71.0195 34.8695
" />
<path d="M71.0195 34.8695
L71.3219 34.8695
" />
<path d="M71.3219 34.8695
L71.4428 34.9300
" />
<path d="M71.4428 34.9300
L71.5033 34.9905
" />
<path d="M71.5033 34.9905
L71.5638 35.1114
" />
<path d="M71.5638 35.1114
L71.5638 35.2324
" />
<path d="M71.5638 35.2324
L71.5033 35.4138
" />
<path d="M71.5033 35.4138
L70.7776 36.1395
" />
<path d="M70.7776 36.1395
L71.5638 36.1395
" />
<path d="M72.0476 34.9905
L72.1080 34.9300
" />
<path d="M72.1080 34.9300
L72.2290 34.8695
" />
<path d="M72.2290 34.8695
L72.5314 34.8695
" />
<path d="M72.5314 34.8695
L72.6523 34.9300
" />
<path d="M72.6523 34.9300
L72.7128 34.9905
" />
<path d="M72.7128 34.9905
L72.7733 35.1114
" />
<path d="M72.7733 35.1114
L72.7733 35.2324
" />
<path d="M72.7733 35.2324
L72.7128 35.4138
" />
<path d="M72.7128 35.4138
L71.9871 36.1395
" />
<path d="M71.9871 36.1395
L72.7733 36.1395
" />
<path d="M73.8618 35.2929
L73.8618 36.1395
" />
<path d="M73.3175 35.2929
L73.3175 35.9581
" />
<path d="M73.3175 35.9581
L73.3780 36.0791
" />
<path d="M73.3780 36.0791
L73.4990 36.1395
" />
<path d="M73.4990 36.1395
L73.6804 36.1395
" />
<path d="M73.6804 36.1395
L73.8013 36.0791
" />
<path d="M73.8013 36.0791
L73.8618 36.0186
" />
<path d="M74.8899 35.4743
L74.4665 35.4743
" />
<path d="M74.4665 36.1395
L74.4665 34.8695
" />
<path d="M74.4665 34.8695
L75.0713 34.8695
" />
</g></g>
<g style="fill:none; 
stroke:#0F0F0F; stroke-width:0.1524; stroke-opacity:1; 
stroke-linecap:round; stroke-linejoin:round;">
<text x="46.9900" y="30.1307"
textLength="2.8641" font-size="1.6933" lengthAdjust="spacingAndGlyphs"
text-anchor="start" opacity="0" stroke-opacity="0">SW</text>
<g class="stroked-text"><desc>SW</desc>
<path d="M47.3321 29.9068
L47.5135 29.9672
" />
<path d="M47.5135 29.9672
L47.8159 29.9672
" />
<path d="M47.8159 29.9672
L47.9368 29.9068
" />
<path d="M47.9368 29.9068
L47.9973 29.8463
" />
<path d="M47.9973 29.8463
L48.0578 29.7253
" />
<path d="M48.0578 29.7253
L48.0578 29.6044
" />
<path d="M48.0578 29.6044
L47.9973 29.4834
" />
<path d="M47.9973 29.4834
L47.9368 29.4229
" />
<path d="M47.9368 29.4229
L47.8159 29.3625
" />
<path d="M47.8159 29.3625
L47.5740 29.3020
" />
<path d="M47.5740 29.3020
L47.4530 29.2415
" />
<path d="M47.4530 29.2415
L47.3925 29.1810
" />
<path d="M47.3925 29.1810
L47.3321 29.0601
" />
<path d="M47.3321 29.0601
L47.3321 28.9391
" />
<path d="M47.3321 28.9391
L47.3925 28.8182
" />
<path d="M47.3925 28.8182
L47.4530 28.7577
" />
<path d="M47.4530 28.7577
L47.5740 28.6972
" />
<path d="M47.5740 28.6972
L47.8763 28.6972
" />
<path d="M47.8763 28.6972
L48.0578 28.7577
" />
<path d="M48.4811 28.6972
L48.7835 29.9672
" />
<path d="M48.7835 29.9672
L49.0254 29.0601
" />
<path d="M49.0254 29.0601
L49.2673 29.9672
" />
<path d="M49.2673 29.9672
L49.5697 28.6972
" />
</g></g>
<g style="fill:none; 
stroke:#0F0F0F; stroke-width:0.1524; stroke-opacity:1; 
stroke-linecap:round; stroke-linejoin:round;">
<text x="31.7500" y="32.6707"
textLength="4.6784" font-size="1.6933" lengthAdjust="spacingAndGlyphs"
text-anchor="start" opacity="0" stroke-opacity="0">GATE</text>
<g class="stroked-text"><desc>GATE</desc>
<path d="M32.8178 31.2977
L32.6968 31.2372
" />
<path d="M32.6968 31.2372
L32.5154 31.2372
" />
<path d="M32.5154 31.2372
L32.3340 31.2977
" />
<path d="M32.3340 31.2977
L32.2130 31.4187
" />
<path d="M32.2130 31.4187
L32.1525 31.5396
" />
<path d="M32.1525 31.5396
L32.0921 31.7815
" />
<path d="M32.0921 31.7815
L32.0921 31.9629
" />
<path d="M32.0921 31.9629
L32.1525 32.2048
" />
<path d="M32.1525 32.2048
L32.2130 32.3258
" />
<path d="M32.2130 32.3258
L32.3340 32.4468
" />
<path d="M32.3340 32.4468
L32.5154 32.5072
" />
<path d="M32.5154 32.5072
L32.6363 32.5072
" />
<path d="M32.6363 32.5072
L32.8178 32.4468
" />
<path d="M32.8178 32.4468
L32.8782 32.3863
" />
<path d="M32.8782 32.3863
L32.8782 31.9629
" />
<path d="M32.8782 31.9629
L32.6363 31.9629
" />
<path d="M33.3621 32.1444
L33.9668 32.1444
" />
<path d="M33.2411 32.5072
L33.6644 31.2372
" />
<path d="M33.6644 31.2372
L34.0878 32.5072
" />
<path d="M34.3297 31.2372
L35.0554 31.2372
" />
<path d="M34.6926 32.5072
L34.6926 31.2372
" />
<path d="M35.4787 31.8420
L35.9021 31.8420
" />
<path d="M36.0835 32.5072
L35.4787 32.5072
" />
<path d="M35.4787 32.5072
L35.4787 31.2372
" />
<path d="M35.4787 31.2372
L36.0835 31.2372
" />
</g></g>
<g style="fill:none; 
stroke:#0F0F0F; stroke-width:0.1524; stroke-opacity:1; 
stroke-linecap:round; stroke-linejoin:round;">
<text x="63.5000" y="30.1307"
textLength="4.9204" font-size="1.6933" lengthAdjust="spacingAndGlyphs"
text-anchor="start" opacity="0" stroke-opacity="0">VOUT</text>
<g class="stroked-text"><desc>VOUT</desc>
<path d="M63.7211 28.6972
L64.1444 29.9672
" />
<path d="M64.1444 29.9672
L64.5678 28.6972
" />
<path d="M65.2330 28.6972
L65.4749 28.6972
" />
<path d="M65.4749 28.6972
L65.5959 28.7577
" />
<path d="M65.5959 28.7577
L65.7168 28.8787
" />
<path d="M65.7168 28.8787
L65.7773 29.1206
" />
<path d="M65.7773 29.1206
L65.7773 29.5439
" />
<path d="M65.7773 29.5439
L65.7168 29.7858
" />
<path d="M65.7168 29.7858
L65.5959 29.9068
" />
<path d="M65.5959 29.9068
L65.4749 29.9672
" />
<path d="M65.4749 29.9672
L65.2330 29.9672
" />
<path d="M65.2330 29.9672
L65.1121 29.9068
" />
<path d="M65.1121 29.9068
L64.9911 29.7858
" />
<path d="M64.9911 29.7858
L64.9307 29.5439
" />
<path d="M64.9307 29.5439
L64.9307 29.1206
" />
<path d="M64.9307 29.1206
L64.9911 28.8787
" />
<path d="M64.9911 28.8787
L65.1121 28.7577
" />
<path d="M65.1121 28.7577
L65.2330 28.6972
" />
<path d="M66.3216 28.6972
L66.3216 29.7253
" />
<path d="M66.3216 29.7253
L66.3821 29.8463
" />
<path d="M66.3821 29.8463
L66.4426 29.9068
" />
<path d="M66.4426 29.9068
L66.5635 29.9672
" />
<path d="M66.5635 29.9672
L66.8054 29.9672
" />
<path d="M66.8054 29.9672
L66.9264 29.9068
" />
<path d="M66.9264 29.9068
L66.9869 29.8463
" />
<path d="M66.9869 29.8463
L67.0473 29.7253
" />
<path d="M67.0473 29.7253
L67.0473 28.6972
" />
<path d="M67.4707 28.6972
L68.1964 28.6972
" />
<path d="M67.8336 29.9672
L67.8336 28.6972
" />
</g></g>
<g style="fill:none; 
stroke:#0F0F0F; stroke-width:0.1524; stroke-opacity:1; 
stroke-linecap:round; stroke-linejoin:round;">
<text x="30.4800" y="30.1307"
textLength="3.2271" font-size="1.6933" lengthAdjust="spacingAndGlyphs"
text-anchor="start" opacity="0" stroke-opacity="0">VIN</text>
<g class="stroked-text"><desc>VIN</desc>
<path d="M30.7011 28.6972
L31.1244 29.9672
" />
<path d="M31.1244 29.9672
L31.5478 28.6972
" />
<path d="M31.9711 29.9672
L31.9711 28.6972
" />
<path d="M32.5759 29.9672
L32.5759 28.6972
" />
<path d="M32.5759 28.6972
L33.3016 29.9672
" />
<path d="M33.3016 29.9672
L33.3016 28.6972
" />
</g></g>
<g style="fill:none; 
stroke:#009600; stroke-width:0.1524; stroke-opacity:1; 
stroke-linecap:round; stroke-linejoin:round;">
<path d="M31.7500 33.0200
L35.5600 33.0200
" />
<path d="M44.4500 44.4500
L44.4500 50.8000
" />
<path d="M44.4500 30.4800
L44.4500 36.8300
" />
<path d="M25.4000 25.4000
L25.4000 30.4800
" />
<path d="M44.4500 30.4800
L53.3400 30.4800
" />
<path d="M25.4000 30.4800
L25.4000 34.2900
" />
<path d="M40.6400 30.4800
L44.4500 30.4800
" />
<path d="M69.8500 41.9100
L69.8500 50.8000
" />
<path d="M69.8500 30.4800
L69.8500 34.2900
" />
<path d="M60.9600 30.4800
L69.8500 30.4800
" />
<path d="M25.4000 41.9100
L25.4000 50.8000
" />
<path d="M25.4000 30.4800
L35.5600 30.4800
" />
</g>
<g style="fill:none; 
stroke:#0000C2; stroke-width:0.1524; stroke-opacity:1; 
stroke-linecap:round; stroke-linejoin:round;">
<text x="38.1000" y="19.4350"
textLength="27.1149" font-size="1.6933" lengthAdjust="spacingAndGlyphs"
text-anchor="middle" opacity="0" stroke-opacity="0">Buck Converter 12V to 3.3V</text>
<g class="stroked-text"><desc>Buck Converter 12V to 3.3V</desc>
<path d="M25.3699 18.7143
L25.5513 18.7748
" />
<path d="M25.5513 18.7748
L25.6118 18.8352
" />
<path d="M25.6118 18.8352
L25.6722 18.9562
" />
<path d="M25.6722 18.9562
L25.6722 19.1376
" />
<path d="M25.6722 19.1376
L25.6118 19.2586
" />
<path d="M25.6118 19.2586
L25.5513 19.3191
" />
<path d="M25.5513 19.3191
L25.4303 19.3795
" />
<path d="M25.4303 19.3795
L24.9465 19.3795
" />
<path d="M24.9465 19.3795
L24.9465 18.1095
" />
<path d="M24.9465 18.1095
L25.3699 18.1095
" />
<path d="M25.3699 18.1095
L25.4908 18.1700
" />
<path d="M25.4908 18.1700
L25.5513 18.2305
" />
<path d="M25.5513 18.2305
L25.6118 18.3514
" />
<path d="M25.6118 18.3514
L25.6118 18.4724
" />
<path d="M25.6118 18.4724
L25.5513 18.5933
" />
<path d="M25.5513 18.5933
L25.4908 18.6538
" />
<path d="M25.4908 18.6538
L25.3699 18.7143
" />
<path d="M25.3699 18.7143
L24.9465 18.7143
" />
<path d="M26.7608 18.5329
L26.7608 19.3795
" />
<path d="M26.2165 18.5329
L26.2165 19.1981
" />
<path d="M26.2165 19.1981
L26.2770 19.3191
" />
<path d="M26.2770 19.3191
L26.3980 19.3795
" />
<path d="M26.3980 19.3795
L26.5794 19.3795
" />
<path d="M26.5794 19.3795
L26.7003 19.3191
" />
<path d="M26.7003 19.3191
L26.7608 19.2586
" />
<path d="M27.9098 19.3191
L27.7889 19.3795
" />
<path d="M27.7889 19.3795
L27.5470 19.3795
" />
<path d="M27.5470 19.3795
L27.4260 19.3191
" />
<path d="M27.4260 19.3191
L27.3655 19.2586
" />
<path d="M27.3655 19.2586
L27.3051 19.1376
" />
<path d="M27.3051 19.1376
L27.3051 18.7748
" />
<path d="M27.3051 18.7748
L27.3655 18.6538
" />
<path d="M27.3655 18.6538
L27.4260 18.5933
" />
<path d="M27.4260 18.5933
L27.5470 18.5329
" />
<path d="M27.5470 18.5329
L27.7889 18.5329
" />
<path d="M27.7889 18.5329
L27.9098 18.5933
" />
<path d="M28.4541 19.3795
L28.4541 18.1095
" />
<path d="M28.5751 18.8957
L28.9379 19.3795
" />
<path d="M28.9379 18.5329
L28.4541 19.0167
" />
<path d="M31.1755 19.2586
L31.1151 19.3191
" />
<path d="M31.1151 19.3191
L30.9336 19.3795
" />
<path d="M30.9336 19.3795
L30.8127 19.3795
" />
<path d="M30.8127 19.3795
L30.6313 19.3191
" />
<path d="M30.6313 19.3191
L30.5103 19.1981
" />
<path d="M30.5103 19.1981
L30.4498 19.0771
" />
<path d="M30.4498 19.0771
L30.3894 18.8352
" />
<path d="M30.3894 18.8352
L30.3894 18.6538
" />
<path d="M30.3894 18.6538
L30.4498 18.4119
" />
<path d="M30.4498 18.4119
L30.5103 18.2910
" />
<path d="M30.5103 18.2910
L30.6313 18.1700
" />
<path d="M30.6313 18.1700
L30.8127 18.1095
" />
<path d="M30.8127 18.1095
L30.9336 18.1095
" />
<path d="M30.9336 18.1095
L31.1151 18.1700
" />
<path d="M31.1151 18.1700
L31.1755 18.2305
" />
<path d="M31.9013 19.3795
L31.7803 19.3191
" />
<path d="M31.7803 19.3191
L31.7198 19.2586
" />
<path d="M31.7198 19.2586
L31.6594 19.1376
" />
<path d="M31.6594 19.1376
L31.6594 18.7748
" />
<path d="M31.6594 18.7748
L31.7198 18.6538
" />
<path d="M31.7198 18.6538
L31.7803 18.5933
" />
<path d="M31.7803 18.5933
L31.9013 18.5329
" />
<path d="M31.9013 18.5329
L32.0827 18.5329
" />
<path d="M32.0827 18.5329
L32.2036 18.5933
" />
<path d="M32.2036 18.5933
L32.2641 18.6538
" />
<path d="M32.2641 18.6538
L32.3246 18.7748
" />
<path d="M32.3246 18.7748
L32.3246 19.1376
" />
<path d="M32.3246 19.1376
L32.2641 19.2586
" />
<path d="M32.2641 19.2586
L32.2036 19.3191
" />
<path d="M32.2036 19.3191
L32.0827 19.3795
" />
<path d="M32.0827 19.3795
L31.9013 19.3795
" />
<path d="M32.8688 18.5329
L32.8688 19.3795
" />
<path d="M32.8688 18.6538
L32.9293 18.5933
" />
<path d="M32.9293 18.5933
L33.0503 18.5329
" />
<path d="M33.0503 18.5329
L33.2317 18.5329
" />
<path d="M33.2317 18.5329
L33.3526 18.5933
" />
<path d="M33.3526 18.5933
L33.4131 18.7143
" />
<path d="M33.4131 18.7143
L33.4131 19.3795
" />
<path d="M33.8969 18.5329
L34.1993 19.3795
" />
<path d="M34.1993 19.3795
L34.5016 18.5329
" />
<path d="M35.4692 19.3191
L35.3483 19.3795
" />
<path d="M35.3483 19.3795
L35.1064 19.3795
" />
<path d="M35.1064 19.3795
L34.9854 19.3191
" />
<path d="M34.9854 19.3191
L34.9250 19.1981
" />
<path d="M34.9250 19.1981
L34.9250 18.7143
" />
<path d="M34.9250 18.7143
L34.9854 18.5933
" />
<path d="M34.9854 18.5933
L35.1064 18.5329
" />
<path d="M35.1064 18.5329
L35.3483 18.5329
" />
<path d="M35.3483 18.5329
L35.4692 18.5933
" />
<path d="M35.4692 18.5933
L35.5297 18.7143
" />
<path d="M35.5297 18.7143
L35.5297 18.8352
" />
<path d="M35.5297 18.8352
L34.9250 18.9562
" />
<path d="M36.0740 19.3795
L36.0740 18.5329
" />
<path d="M36.0740 18.7748
L36.1345 18.6538
" />
<path d="M36.1345 18.6538
L36.1950 18.5933
" />
<path d="M36.1950 18.5933
L36.3159 18.5329
" />
<path d="M36.3159 18.5329
L36.4369 18.5329
" />
<path d="M36.6788 18.5329
L37.1626 18.5329
" />
<path d="M36.8602 18.1095
L36.8602 19.1981
" />
<path d="M36.8602 19.1981
L36.9207 19.3191
" />
<path d="M36.9207 19.3191
L37.0417 19.3795
" />
<path d="M37.0417 19.3795
L37.1626 19.3795
" />
<path d="M38.0697 19.3191
L37.9488 19.3795
" />
<path d="M37.9488 19.3795
L37.7069 19.3795
" />
<path d="M37.7069 19.3795
L37.5859 19.3191
" />
<path d="M37.5859 19.3191
L37.5255 19.1981
" />
<path d="M37.5255 19.1981
L37.5255 18.7143
" />
<path d="M37.5255 18.7143
L37.5859 18.5933
" />
<path d="M37.5859 18.5933
L37.7069 18.5329
" />
<path d="M37.7069 18.5329
L37.9488 18.5329
" />
<path d="M37.9488 18.5329
L38.0697 18.5933
" />
<path d="M38.0697 18.5933
L38.1302 18.7143
" />
<path d="M38.1302 18.7143
L38.1302 18.8352
" />
<path d="M38.1302 18.8352
L37.5255 18.9562
" />
<path d="M38.6745 19.3795
L38.6745 18.5329
" />
<path d="M38.6745 18.7748
L38.7350 18.6538
" />
<path d="M38.7350 18.6538
L38.7955 18.5933
" />
<path d="M38.7955 18.5933
L38.9164 18.5329
" />
<path d="M38.9164 18.5329
L39.0374 18.5329
" />
<path d="M41.0936 19.3795
L40.3679 19.3795
" />
<path d="M40.7307 19.3795
L40.7307 18.1095
" />
<path d="M40.7307 18.1095
L40.6098 18.2910
" />
<path d="M40.6098 18.2910
L40.4888 18.4119
" />
<path d="M40.4888 18.4119
L40.3679 18.4724
" />
<path d="M41.5774 18.2305
L41.6378 18.1700
" />
<path d="M41.6378 18.1700
L41.7588 18.1095
" />
<path d="M41.7588 18.1095
L42.0612 18.1095
" />
<path d="M42.0612 18.1095
L42.1821 18.1700
" />
<path d="M42.1821 18.1700
L42.2426 18.2305
" />
<path d="M42.2426 18.2305
L42.3031 18.3514
" />
<path d="M42.3031 18.3514
L42.3031 18.4724
" />
<path d="M42.3031 18.4724
L42.2426 18.6538
" />
<path d="M42.2426 18.6538
L41.5169 19.3795
" />
<path d="M41.5169 19.3795
L42.3031 19.3795
" />
<path d="M42.6659 18.1095
L43.0892 19.3795
" />
<path d="M43.0892 19.3795
L43.5126 18.1095
" />
<path d="M44.7221 18.5329
L45.2059 18.5329
" />
<path d="M44.9035 18.1095
L44.9035 19.1981
" />
<path d="M44.9035 19.1981
L44.9640 19.3191
" />
<path d="M44.9640 19.3191
L45.0850 19.3795
" />
<path d="M45.0850 19.3795
L45.2059 19.3795
" />
<path d="M45.8107 19.3795
L45.6897 19.3191
" />
<path d="M45.6897 19.3191
L45.6292 19.2586
" />
<path d="M45.6292 19.2586
L45.5688 19.1376
" />
<path d="M45.5688 19.1376
L45.5688 18.7748
" />
<path d="M45.5688 18.7748
L45.6292 18.6538
" />
<path d="M45.6292 18.6538
L45.6897 18.5933
" />
<path d="M45.6897 18.5933
L45.8107 18.5329
" />
<path d="M45.8107 18.5329
L45.9921 18.5329
" />
<path d="M45.9921 18.5329
L46.1130 18.5933
" />
<path d="M46.1130 18.5933
L46.1735 18.6538
" />
<path d="M46.1735 18.6538
L46.2340 18.7748
" />
<path d="M46.2340 18.7748
L46.2340 19.1376
" />
<path d="M46.2340 19.1376
L46.1735 19.2586
" />
<path d="M46.1735 19.2586
L46.1130 19.3191
" />
<path d="M46.1130 19.3191
L45.9921 19.3795
" />
<path d="M45.9921 19.3795
L45.8107 19.3795
" />
<path d="M47.6249 18.1095
L48.4111 18.1095
" />
<path d="M48.4111 18.1095
L47.9877 18.5933
" />
<path d="M47.9877 18.5933
L48.1692 18.5933
" />
<path d="M48.1692 18.5933
L48.2901 18.6538
" />
<path d="M48.2901 18.6538
L48.3506 18.7143
" />
<path d="M48.3506 18.7143
L48.4111 18.8352
" />
<path d="M48.4111 18.8352
L48.4111 19.1376
" />
<path d="M48.4111 19.1376
L48.3506 19.2586
" />
<path d="M48.3506 19.2586
L48.2901 19.3191
" />
<path d="M48.2901 19.3191
L48.1692 19.3795
" />
<path d="M48.1692 19.3795
L47.8063 19.3795
" />
<path d="M47.8063 19.3795
L47.6854 19.3191
" />
<path d="M47.6854 19.3191
L47.6249 19.2586
" />
<path d="M48.9553 19.2586
L49.0158 19.3191
" />
<path d="M49.0158 19.3191
L48.9553 19.3795
" />
<path d="M48.9553 19.3795
L48.8949 19.3191
" />
<path d="M48.8949 19.3191
L48.9553 19.2586
" />
<path d="M48.9553 19.2586
L48.9553 19.3795
" />
<path d="M49.4392 18.1095
L50.2254 18.1095
" />
<path d="M50.2254 18.1095
L49.8020 18.5933
" />
<path d="M49.8020 18.5933
L49.9835 18.5933
" />
<path d="M49.9835 18.5933
L50.1044 18.6538
" />
<path d="M50.1044 18.6538
L50.1649 18.7143
" />
<path d="M50.1649 18.7143
L50.2254 18.8352
" />
<path d="M50.2254 18.8352
L50.2254 19.1376
" />
<path d="M50.2254 19.1376
L50.1649 19.2586
" />
<path d="M50.1649 19.2586
L50.1044 19.3191
" />
<path d="M50.1044 19.3191
L49.9835 19.3795
" />
<path d="M49.9835 19.3795
L49.6206 19.3795
" />
<path d="M49.6206 19.3795
L49.4997 19.3191
" />
<path d="M49.4997 19.3191
L49.4392 19.2586
" />
<path d="M50.5882 18.1095
L51.0115 19.3795
" />
<path d="M51.0115 19.3795
L51.4349 18.1095
" />
</g></g>
<g style="fill:none; 
stroke:#006464; stroke-width:0.1524; stroke-opacity:1; 
stroke-linecap:round; stroke-linejoin:round;">
<text x="44.5612" y="34.9250"
textLength="2.7432" font-size="1.6933" lengthAdjust="spacingAndGlyphs"
text-anchor="middle" opacity="0" stroke-opacity="0">Q1</text>
<g class="stroked-text"><desc>Q1</desc>
<path d="M44.4402 34.9905
L44.3192 34.9300
" />
<path d="M44.3192 34.9300
L44.1983 34.8091
" />
<path d="M44.1983 34.8091
L44.0169 34.6276
" />
<path d="M44.0169 34.6276
L43.8959 34.5671
" />
<path d="M43.8959 34.5671
L43.7750 34.5671
" />
<path d="M43.8354 34.8695
L43.7145 34.8091
" />
<path d="M43.7145 34.8091
L43.5935 34.6881
" />
<path d="M43.5935 34.6881
L43.5331 34.4462
" />
<path d="M43.5331 34.4462
L43.5331 34.0229
" />
<path d="M43.5331 34.0229
L43.5935 33.7810
" />
<path d="M43.5935 33.7810
L43.7145 33.6600
" />
<path d="M43.7145 33.6600
L43.8354 33.5995
" />
<path d="M43.8354 33.5995
L44.0773 33.5995
" />
<path d="M44.0773 33.5995
L44.1983 33.6600
" />
<path d="M44.1983 33.6600
L44.3192 33.7810
" />
<path d="M44.3192 33.7810
L44.3797 34.0229
" />
<path d="M44.3797 34.0229
L44.3797 34.4462
" />
<path d="M44.3797 34.4462
L44.3192 34.6881
" />
<path d="M44.3192 34.6881
L44.1983 34.8091
" />
<path d="M44.1983 34.8091
L44.0773 34.8695
" />
<path d="M44.0773 34.8695
L43.8354 34.8695
" />
<path d="M45.5893 34.8695
L44.8636 34.8695
" />
<path d="M45.2264 34.8695
L45.2264 33.5995
" />
<path d="M45.2264 33.5995
L45.1055 33.7810
" />
<path d="M45.1055 33.7810
L44.9845 33.9019
" />
<path d="M44.9845 33.9019
L44.8636 33.9624
" />
</g><text x="44.6216" y="32.3850"
textLength="2.8641" font-size="1.6933" lengthAdjust="spacingAndGlyphs"
text-anchor="middle" opacity="0" stroke-opacity="0">SW</text>
<g class="stroked-text"><desc>SW</desc>
<path d="M43.5331 32.2691
L43.7145 32.3295
" />
<path d="M43.7145 32.3295
L44.0169 32.3295
" />
<path d="M44.0169 32.3295
L44.1378 32.2691
" />
<path d="M44.1378 32.2691
L44.1983 32.2086
" />
<path d="M44.1983 32.2086
L44.2588 32.0876
" />
<path d="M44.2588 32.0876
L44.2588 31.9667
" />
<path d="M44.2588 31.9667
L44.1983 31.8457
" />
<path d="M44.1983 31.8457
L44.1378 31.7852
" />
<path d="M44.1378 31.7852
L44.0169 31.7248
" />
<path d="M44.0169 31.7248
L43.7750 31.6643
" />
<path d="M43.7750 31.6643
L43.6540 31.6038
" />
<path d="M43.6540 31.6038
L43.5935 31.5433
" />
<path d="M43.5935 31.5433
L43.5331 31.4224
" />
<path d="M43.5331 31.4224
L43.5331 31.3014
" />
<path d="M43.5331 31.3014
L43.5935 31.1805
" />
<path d="M43.5935 31.1805
L43.6540 31.1200
" />
<path d="M43.6540 31.1200
L43.7750 31.0595
" />
<path d="M43.7750 31.0595
L44.0773 31.0595
" />
<path d="M44.0773 31.0595
L44.2588 31.1200
" />
<path d="M44.6821 31.0595
L44.9845 32.3295
" />
<path d="M44.9845 32.3295
L45.2264 31.4224
" />
<path d="M45.2264 31.4224
L45.4683 32.3295
" />
<path d="M45.4683 32.3295
L45.7707 31.0595
" />
</g></g>
<g style="fill:none; 
stroke:#840000; stroke-width:0.1524; stroke-opacity:1; 
stroke-linecap:round; stroke-linejoin:round;">
<path d="M35.5600 33.0200
L33.0200 33.0200
" />
<path d="M40.6400 30.4800
L40.6400 27.9400
" />
<path d="M40.6400 35.5600
L40.6400 38.1000
" />
</g>
<g style="fill:none; 
stroke:#006464; stroke-width:0.1524; stroke-opacity:1; 
stroke-linecap:round; stroke-linejoin:round;">
<text x="45.8009" y="43.8150"
textLength="2.6827" font-size="1.6933" lengthAdjust="spacingAndGlyphs"
text-anchor="middle" opacity="0" stroke-opacity="0">D1</text>
<g class="stroked-text"><desc>D1</desc>
<path d="M44.8635 43.7595
L44.8635 42.4895
" />
<path d="M44.8635 42.4895
L45.1659 42.4895
" />
<path d="M45.1659 42.4895
L45.3473 42.5500
" />
<path d="M45.3473 42.5500
L45.4683 42.6710
" />
<path d="M45.4683 42.6710
L45.5288 42.7919
" />
<path d="M45.5288 42.7919
L45.5892 43.0338
" />
<path d="M45.5892 43.0338
L45.5892 43.2152
" />
<path d="M45.5892 43.2152
L45.5288 43.4571
" />
<path d="M45.5288 43.4571
L45.4683 43.5781
" />
<path d="M45.4683 43.5781
L45.3473 43.6991
" />
<path d="M45.3473 43.6991
L45.1659 43.7595
" />
<path d="M45.1659 43.7595
L44.8635 43.7595
" />
<path d="M46.7988 43.7595
L46.0731 43.7595
" />
<path d="M46.4359 43.7595
L46.4359 42.4895
" />
<path d="M46.4359 42.4895
L46.3150 42.6710
" />
<path d="M46.3150 42.6710
L46.1940 42.7919
" />
<path d="M46.1940 42.7919
L46.0731 42.8524
" />
</g><text x="46.9802" y="38.7350"
textLength="5.0412" font-size="1.6933" lengthAdjust="spacingAndGlyphs"
text-anchor="middle" opacity="0" stroke-opacity="0">SS14</text>
<g class="stroked-text"><desc>SS14</desc>
<path d="M44.8031 38.6191
L44.9845 38.6795
" />
<path d="M44.9845 38.6795
L45.2869 38.6795
" />
<path d="M45.2869 38.6795
L45.4078 38.6191
" />
<path d="M45.4078 38.6191
L45.4683 38.5586
" />
<path d="M45.4683 38.5586
L45.5288 38.4376
" />
<path d="M45.5288 38.4376
L45.5288 38.3167
" />
<path d="M45.5288 38.3167
L45.4683 38.1957
" />
<path d="M45.4683 38.1957
L45.4078 38.1352
" />
<path d="M45.4078 38.1352
L45.2869 38.0748
" />
<path d="M45.2869 38.0748
L45.0450 38.0143
" />
<path d="M45.0450 38.0143
L44.9240 37.9538
" />
<path d="M44.9240 37.9538
L44.8635 37.8933
" />
<path d="M44.8635 37.8933
L44.8031 37.7724
" />
<path d="M44.8031 37.7724
L44.8031 37.6514
" />
<path d="M44.8031 37.6514
L44.8635 37.5305
" />
<path d="M44.8635 37.5305
L44.9240 37.4700
" />
<path d="M44.9240 37.4700
L45.0450 37.4095
" />
<path d="M45.0450 37.4095
L45.3473 37.4095
" />
<path d="M45.3473 37.4095
L45.5288 37.4700
" />
<path d="M46.0126 38.6191
L46.1940 38.6795
" />
<path d="M46.1940 38.6795
L46.4964 38.6795
" />
<path d="M46.4964 38.6795
L46.6173 38.6191
" />
<path d="M46.6173 38.6191
L46.6778 38.5586
" />
<path d="M46.6778 38.5586
L46.7383 38.4376
" />
<path d="M46.7383 38.4376
L46.7383 38.3167
" />
<path d="M46.7383 38.3167
L46.6778 38.1957
" />
<path d="M46.6778 38.1957
L46.6173 38.1352
" />
<path d="M46.6173 38.1352
L46.4964 38.0748
" />
<path d="M46.4964 38.0748
L46.2545 38.0143
" />
<path d="M46.2545 38.0143
L46.1335 37.9538
" />
<path d="M46.1335 37.9538
L46.0730 37.8933
" />
<path d="M46.0730 37.8933
L46.0126 37.7724
" />
<path d="M46.0126 37.7724
L46.0126 37.6514
" />
<path d="M46.0126 37.6514
L46.0730 37.5305
" />
<path d="M46.0730 37.5305
L46.1335 37.4700
" />
<path d="M46.1335 37.4700
L46.2545 37.4095
" />
<path d="M46.2545 37.4095
L46.5568 37.4095
" />
<path d="M46.5568 37.4095
L46.7383 37.4700
" />
<path d="M47.9478 38.6795
L47.2221 38.6795
" />
<path d="M47.5849 38.6795
L47.5849 37.4095
" />
<path d="M47.5849 37.4095
L47.4640 37.5910
" />
<path d="M47.4640 37.5910
L47.3430 37.7119
" />
<path d="M47.3430 37.7119
L47.2221 37.7724
" />
<path d="M49.0363 37.8329
L49.0363 38.6795
" />
<path d="M48.7339 37.3491
L48.4316 38.2562
" />
<path d="M48.4316 38.2562
L49.2177 38.2562
" />
</g></g>
<g style="fill:none; 
stroke:#840000; stroke-width:0.1524; stroke-opacity:1; 
stroke-linecap:round; stroke-linejoin:round;">
<path d="M43.1800 40.6400
L40.6400 40.6400
" />
<path d="M45.7200 40.6400
L48.2600 40.6400
" />
</g>
<g style="fill:#009600; fill-opacity:1.0000; 
stroke:#009600; stroke-width:0.1524; stroke-opacity:1; 
stroke-linecap:round; stroke-linejoin:round;">
<circle cx="25.4000" cy="30.4800" r="0.4572" /> 
<circle cx="69.8500" cy="30.4800" r="0.4572" /> 
<circle cx="44.4500" cy="30.4800" r="0.4572" /> 
</g> 
</svg>
