<?xml version="1.0" standalone="no"?>
 <!DOCTYPE svg PUBLIC "-//W3C//DTD SVG 1.1//EN" 
 "http://www.w3.org/Graphics/SVG/1.1/DTD/svg11.dtd"> 
<svg
  xmlns:svg="http://www.w3.org/2000/svg"
  xmlns="http://www.w3.org/2000/svg"
  xmlns:xlink="http://www.w3.org/1999/xlink"
  version="1.1"
  width="10.3632mm" height="14.1986mm" viewBox="0.0000 0.0000 10.3632 14.1986">
<title>SVG Image created as buck_converter_pcb.svg date 2026/03/22 21:43:23 </title>
  <desc>Image generated by PCBNEW </desc>
<g style="fill:#000000; fill-opacity:1.0000;stroke:#000000; stroke-opacity:1.0000;
stroke-linecap:round; stroke-linejoin:round;"
 transform="translate(0 0) scale(1 1)">
<path style="fill:#000000; fill-opacity:1.0000; stroke:none;fill-rule:evenodd;"
d="M 6.9598,5.5532
6.9788,5.4576
7.0330,5.3765
7.1141,5.3223
7.2098,5.3032
7.7098,5.3032
7.8054,5.3223
7.8865,5.3765
7.9407,5.4576
7.9598,5.5532
7.9598,6.5032
7.9407,6.5989
7.8865,6.6800
7.8054,6.7342
7.7098,6.7532
7.2098,6.7532
7.1141,6.7342
7.0330,6.6800
6.9788,6.5989
6.9598,6.5032
Z" /> 
<path style="fill:#000000; fill-opacity:1.0000; stroke:none;fill-rule:evenodd;"
d="M 8.8598,5.5532
8.8788,5.4576
8.9330,5.3765
9.0141,5.3223
9.1098,5.3032
9.6098,5.3032
9.7054,5.3223
9.7865,5.3765
9.8407,5.4576
9.8598,5.5532
9.8598,6.5032
9.8407,6.5989
9.7865,6.6800
9.7054,6.7342
9.6098,6.7532
9.1098,6.7532
9.0141,6.7342
8.9330,6.6800
8.8788,6.5989
8.8598,6.5032
Z" /> 
<path style="fill:#000000; fill-opacity:1.0000; stroke:none;fill-rule:evenodd;"
d="M 1.3548,9.8582
1.3662,9.8008
1.3987,9.7522
1.4474,9.7197
1.5048,9.7082
2.6798,9.7082
2.7372,9.7197
2.7858,9.7522
2.8183,9.8008
2.8298,9.8582
2.8298,10.1582
2.8183,10.2157
2.7858,10.2643
2.7372,10.2968
2.6798,10.3082
1.5048,10.3082
1.4474,10.2968
1.3987,10.2643
1.3662,10.2157
1.3548,10.1582
Z" /> 
<path style="fill:#000000; fill-opacity:1.0000; stroke:none;fill-rule:evenodd;"
d="M 1.3548,11.7583
1.3662,11.7008
1.3987,11.6522
1.4474,11.6197
1.5048,11.6082
2.6798,11.6082
2.7372,11.6197
2.7858,11.6522
2.8183,11.7008
2.8298,11.7583
2.8298,12.0582
2.8183,12.1157
2.7858,12.1643
2.7372,12.1968
2.6798,12.2082
1.5048,12.2082
1.4474,12.1968
1.3987,12.1643
1.3662,12.1157
1.3548,12.0582
Z" /> 
<path style="fill:#000000; fill-opacity:1.0000; stroke:none;fill-rule:evenodd;"
d="M 3.2298,10.8082
3.2412,10.7508
3.2737,10.7022
3.3224,10.6697
3.3798,10.6582
4.5548,10.6582
4.6122,10.6697
4.6608,10.7022
4.6933,10.7508
4.7048,10.8082
4.7048,11.1082
4.6933,11.1657
4.6608,11.2143
4.6122,11.2468
4.5548,11.2583
3.3798,11.2583
3.3224,11.2468
3.2737,11.2143
3.2412,11.1657
3.2298,11.1082
Z" /> 
<path style="fill:#000000; fill-opacity:1.0000; stroke:none;fill-rule:evenodd;"
d="M 1.3948,2.4732
1.4119,2.3871
1.4607,2.3142
1.5337,2.2654
1.6198,2.2483
2.0698,2.2483
2.1559,2.2654
2.2289,2.3142
2.2776,2.3871
2.2948,2.4732
2.2948,3.2232
2.2776,3.3094
2.2289,3.3823
2.1559,3.4311
2.0698,3.4482
1.6198,3.4482
1.5337,3.4311
1.4607,3.3823
1.4119,3.3094
1.3948,3.2232
Z" /> 
<path style="fill:#000000; fill-opacity:1.0000; stroke:none;fill-rule:evenodd;"
d="M 4.6948,2.4732
4.7119,2.3871
4.7607,2.3142
4.8337,2.2654
4.9198,2.2483
5.3698,2.2483
5.4559,2.2654
5.5289,2.3142
5.5776,2.3871
5.5948,2.4732
5.5948,3.2232
5.5776,3.3094
5.5289,3.3823
5.4559,3.4311
5.3698,3.4482
4.9198,3.4482
4.8337,3.4311
4.7607,3.3823
4.7119,3.3094
4.6948,3.2232
Z" /> 
<path style="fill:#000000; fill-opacity:1.0000; stroke:none;fill-rule:evenodd;"
d="M 1.3548,5.5532
1.3738,5.4576
1.4280,5.3765
1.5091,5.3223
1.6048,5.3032
2.3548,5.3032
2.4504,5.3223
2.5315,5.3765
2.5857,5.4576
2.6048,5.5532
2.6048,7.7032
2.5857,7.7989
2.5315,7.8800
2.4504,7.9342
2.3548,7.9532
1.6048,7.9532
1.5091,7.9342
1.4280,7.8800
1.3738,7.7989
1.3548,7.7032
Z" /> 
<path style="fill:#000000; fill-opacity:1.0000; stroke:none;fill-rule:evenodd;"
d="M 4.1548,5.5532
4.1738,5.4576
4.2280,5.3765
4.3091,5.3223
4.4048,5.3032
5.1548,5.3032
5.2504,5.3223
5.3315,5.3765
5.3857,5.4576
5.4048,5.5532
5.4048,7.7032
5.3857,7.7989
5.3315,7.8800
5.2504,7.9342
5.1548,7.9532
4.4048,7.9532
4.3091,7.9342
4.2280,7.8800
4.1738,7.7989
4.1548,7.7032
Z" /> 
<path style="fill:#000000; fill-opacity:1.0000; stroke:none;fill-rule:evenodd;"
d="M 6.9598,8.5633
6.9788,8.4676
7.0330,8.3865
7.1141,8.3323
7.2098,8.3133
7.7098,8.3133
7.8054,8.3323
7.8865,8.3865
7.9407,8.4676
7.9598,8.5633
7.9598,9.5132
7.9407,9.6089
7.8865,9.6900
7.8054,9.7442
7.7098,9.7632
7.2098,9.7632
7.1141,9.7442
7.0330,9.6900
6.9788,9.6089
6.9598,9.5132
Z" /> 
<path style="fill:#000000; fill-opacity:1.0000; stroke:none;fill-rule:evenodd;"
d="M 8.8598,8.5633
8.8788,8.4676
8.9330,8.3865
9.0141,8.3323
9.1098,8.3133
9.6098,8.3133
9.7054,8.3323
9.7865,8.3865
9.8407,8.4676
9.8598,8.5633
9.8598,9.5132
9.8407,9.6089
9.7865,9.6900
9.7054,9.7442
9.6098,9.7632
9.1098,9.7632
9.0141,9.7442
8.9330,9.6900
8.8788,9.6089
8.8598,9.5132
Z" /> 
</g>
<g style="fill:none; 
stroke:#000000; stroke-width:0.1500; stroke-opacity:1; 
stroke-linecap:round; stroke-linejoin:round;">
<text x="8.4098" y="4.8483"
textLength="2.2024" font-size="1.3333" lengthAdjust="spacingAndGlyphs"
text-anchor="middle" opacity="0" stroke-opacity="0">C1</text>
<g class="stroked-text"><desc>C1</desc>
<path d="M8.2431 4.7078
L8.1955 4.7554
" />
<path d="M8.1955 4.7554
L8.0526 4.8031
" />
<path d="M8.0526 4.8031
L7.9574 4.8031
" />
<path d="M7.9574 4.8031
L7.8145 4.7554
" />
<path d="M7.8145 4.7554
L7.7193 4.6602
" />
<path d="M7.7193 4.6602
L7.6717 4.5650
" />
<path d="M7.6717 4.5650
L7.6240 4.3745
" />
<path d="M7.6240 4.3745
L7.6240 4.2316
" />
<path d="M7.6240 4.2316
L7.6717 4.0412
" />
<path d="M7.6717 4.0412
L7.7193 3.9459
" />
<path d="M7.7193 3.9459
L7.8145 3.8507
" />
<path d="M7.8145 3.8507
L7.9574 3.8031
" />
<path d="M7.9574 3.8031
L8.0526 3.8031
" />
<path d="M8.0526 3.8031
L8.1955 3.8507
" />
<path d="M8.1955 3.8507
L8.2431 3.8983
" />
<path d="M9.1955 4.8031
L8.6240 4.8031
" />
<path d="M8.9098 4.8031
L8.9098 3.8031
" />
<path d="M8.9098 3.8031
L8.8145 3.9459
" />
<path d="M8.8145 3.9459
L8.7193 4.0412
" />
<path d="M8.7193 4.0412
L8.6240 4.0888
" />
</g><text x="3.0298" y="9.0582"
textLength="2.2500" font-size="1.3333" lengthAdjust="spacingAndGlyphs"
text-anchor="middle" opacity="0" stroke-opacity="0">Q1</text>
<g class="stroked-text"><desc>Q1</desc>
<path d="M2.9345 9.1083
L2.8393 9.0607
" />
<path d="M2.8393 9.0607
L2.7440 8.9654
" />
<path d="M2.7440 8.9654
L2.6012 8.8226
" />
<path d="M2.6012 8.8226
L2.5060 8.7750
" />
<path d="M2.5060 8.7750
L2.4107 8.7750
" />
<path d="M2.4583 9.0131
L2.3631 8.9654
" />
<path d="M2.3631 8.9654
L2.2679 8.8702
" />
<path d="M2.2679 8.8702
L2.2202 8.6797
" />
<path d="M2.2202 8.6797
L2.2202 8.3464
" />
<path d="M2.2202 8.3464
L2.2679 8.1559
" />
<path d="M2.2679 8.1559
L2.3631 8.0607
" />
<path d="M2.3631 8.0607
L2.4583 8.0131
" />
<path d="M2.4583 8.0131
L2.6488 8.0131
" />
<path d="M2.6488 8.0131
L2.7440 8.0607
" />
<path d="M2.7440 8.0607
L2.8393 8.1559
" />
<path d="M2.8393 8.1559
L2.8869 8.3464
" />
<path d="M2.8869 8.3464
L2.8869 8.6797
" />
<path d="M2.8869 8.6797
L2.8393 8.8702
" />
<path d="M2.8393 8.8702
L2.7440 8.9654
" />
<path d="M2.7440 8.9654
L2.6488 9.0131
" />
<path d="M2.6488 9.0131
L2.4583 9.0131
" />
<path d="M3.8393 9.0131
L3.2679 9.0131
" />
<path d="M3.5536 9.0131
L3.5536 8.0131
" />
<path d="M3.5536 8.0131
L3.4583 8.1559
" />
<path d="M3.4583 8.1559
L3.3631 8.2512
" />
<path d="M3.3631 8.2512
L3.2679 8.2988
" />
</g><text x="3.4948" y="1.3482"
textLength="2.2024" font-size="1.3333" lengthAdjust="spacingAndGlyphs"
text-anchor="middle" opacity="0" stroke-opacity="0">D1</text>
<g class="stroked-text"><desc>D1</desc>
<path d="M2.7567 1.3031
L2.7567 0.3031
" />
<path d="M2.7567 0.3031
L2.9948 0.3031
" />
<path d="M2.9948 0.3031
L3.1376 0.3507
" />
<path d="M3.1376 0.3507
L3.2329 0.4459
" />
<path d="M3.2329 0.4459
L3.2805 0.5412
" />
<path d="M3.2805 0.5412
L3.3281 0.7316
" />
<path d="M3.3281 0.7316
L3.3281 0.8745
" />
<path d="M3.3281 0.8745
L3.2805 1.0650
" />
<path d="M3.2805 1.0650
L3.2329 1.1602
" />
<path d="M3.2329 1.1602
L3.1376 1.2554
" />
<path d="M3.1376 1.2554
L2.9948 1.3031
" />
<path d="M2.9948 1.3031
L2.7567 1.3031
" />
<path d="M4.2805 1.3031
L3.7090 1.3031
" />
<path d="M3.9948 1.3031
L3.9948 0.3031
" />
<path d="M3.9948 0.3031
L3.8995 0.4459
" />
<path d="M3.8995 0.4459
L3.8043 0.5412
" />
<path d="M3.8043 0.5412
L3.7090 0.5888
" />
</g><text x="3.3798" y="4.8483"
textLength="2.0119" font-size="1.3333" lengthAdjust="spacingAndGlyphs"
text-anchor="middle" opacity="0" stroke-opacity="0">L1</text>
<g class="stroked-text"><desc>L1</desc>
<path d="M3.2131 4.8031
L2.7369 4.8031
" />
<path d="M2.7369 4.8031
L2.7369 3.8031
" />
<path d="M4.0702 4.8031
L3.4988 4.8031
" />
<path d="M3.7845 4.8031
L3.7845 3.8031
" />
<path d="M3.7845 3.8031
L3.6893 3.9459
" />
<path d="M3.6893 3.9459
L3.5940 4.0412
" />
<path d="M3.5940 4.0412
L3.4988 4.0888
" />
</g><text x="8.4098" y="7.8582"
textLength="2.2024" font-size="1.3333" lengthAdjust="spacingAndGlyphs"
text-anchor="middle" opacity="0" stroke-opacity="0">C2</text>
<g class="stroked-text"><desc>C2</desc>
<path d="M8.2431 7.7178
L8.1955 7.7654
" />
<path d="M8.1955 7.7654
L8.0526 7.8131
" />
<path d="M8.0526 7.8131
L7.9574 7.8131
" />
<path d="M7.9574 7.8131
L7.8145 7.7654
" />
<path d="M7.8145 7.7654
L7.7193 7.6702
" />
<path d="M7.7193 7.6702
L7.6717 7.5750
" />
<path d="M7.6717 7.5750
L7.6240 7.3845
" />
<path d="M7.6240 7.3845
L7.6240 7.2416
" />
<path d="M7.6240 7.2416
L7.6717 7.0512
" />
<path d="M7.6717 7.0512
L7.7193 6.9559
" />
<path d="M7.7193 6.9559
L7.8145 6.8607
" />
<path d="M7.8145 6.8607
L7.9574 6.8131
" />
<path d="M7.9574 6.8131
L8.0526 6.8131
" />
<path d="M8.0526 6.8131
L8.1955 6.8607
" />
<path d="M8.1955 6.8607
L8.2431 6.9083
" />
<path d="M8.6240 6.9083
L8.6717 6.8607
" />
<path d="M8.6717 6.8607
L8.7669 6.8131
" />
<path d="M8.7669 6.8131
L9.0050 6.8131
" />
<path d="M9.0050 6.8131
L9.1002 6.8607
" />
<path d="M9.1002 6.8607
L9.1479 6.9083
" />
<path d="M9.1479 6.9083
L9.1955 7.0035
" />
<path d="M9.1955 7.0035
L9.1955 7.0988
" />
<path d="M9.1955 7.0988
L9.1479 7.2416
" />
<path d="M9.1479 7.2416
L8.5764 7.8131
" />
<path d="M8.5764 7.8131
L9.1955 7.8131
" />
</g></g>
<g style="fill:none; 
stroke:#000000; stroke-width:0.1200; stroke-opacity:1; 
stroke-linecap:round; stroke-linejoin:round;">
<path d="M8.1485 5.2932
L8.6710 5.2932
" />
<path d="M8.1485 6.7632
L8.6710 6.7632
" />
<path d="M2.2698 9.3982
L3.7898 9.3982
" />
<path d="M2.2698 9.4482
L2.2698 9.3982
" />
<path d="M2.2698 11.3483
L2.2698 10.5682
" />
<path d="M2.2698 12.5183
L2.2698 12.4682
" />
<path d="M3.7898 9.3982
L3.7898 10.3982
" />
<path d="M3.7898 11.5183
L3.7898 12.5183
" />
<path d="M3.7898 12.5183
L2.2698 12.5183
" />
<path style="fill:#000000; fill-opacity:1.0000; 
stroke:#000000; stroke-width:0.1200; stroke-opacity:1; 
stroke-linecap:round; stroke-linejoin:round;fill-rule:evenodd;"
d="M 1.9698,10.9082
1.4898,10.9082
1.7298,10.5782
Z" /> 
</g>
<g style="fill:none; 
stroke:#000000; stroke-width:0.1200; stroke-opacity:1; 
stroke-linecap:round; stroke-linejoin:round;">
<path d="M1.1348 1.8482
L1.1348 3.8482
" />
<path d="M1.1348 1.8482
L5.1448 1.8482
" />
<path d="M1.1348 3.8482
L5.1448 3.8482
" />
<path d="M2.7777 5.2683
L3.9818 5.2683
" />
<path d="M2.7777 7.9882
L3.9818 7.9882
" />
<path d="M8.1485 8.3033
L8.6710 8.3033
" />
<path d="M8.1485 9.7732
L8.6710 9.7732
" />
</g> 
</svg>
