<?xml version="1.0" standalone="no"?>
 <!DOCTYPE svg PUBLIC "-//W3C//DTD SVG 1.1//EN" 
 "http://www.w3.org/Graphics/SVG/1.1/DTD/svg11.dtd"> 
<svg
  xmlns:svg="http://www.w3.org/2000/svg"
  xmlns="http://www.w3.org/2000/svg"
  xmlns:xlink="http://www.w3.org/1999/xlink"
  version="1.1"
  width="297.0022mm" height="210.0072mm" viewBox="0.0000 0.0000 297.0022 210.0072">
<title>SVG Image created as buck_converter.svg date 2026/03/22 21:43:21 </title>
  <desc>Image generated by Eeschema-SVG </desc>
<g style="fill:#000000; fill-opacity:1.0000;stroke:#000000; stroke-opacity:1.0000;
stroke-linecap:round; stroke-linejoin:round;"
 transform="translate(0 0) scale(1 1)">
<path style="fill:none; 
stroke:#000000; stroke-width:0.2540; stroke-opacity:1; 
stroke-linecap:round; stroke-linejoin:round;fill:none"
d="M 51.0540,37.4650
51.0540,41.2750
" /> 
<path style="fill:none; 
stroke:#000000; stroke-width:0.1524; stroke-opacity:1; 
stroke-linecap:round; stroke-linejoin:round;fill:none"
d="M 51.0540,39.3700
48.2600,39.3700
" /> 
<path style="fill:none; 
stroke:#000000; stroke-width:0.2540; stroke-opacity:1; 
stroke-linecap:round; stroke-linejoin:round;fill:none"
d="M 51.5620,37.0840
51.5620,38.1000
" /> 
<path style="fill:none; 
stroke:#000000; stroke-width:0.2540; stroke-opacity:1; 
stroke-linecap:round; stroke-linejoin:round;fill:none"
d="M 51.5620,38.8620
51.5620,39.8780
" /> 
<path style="fill:none; 
stroke:#000000; stroke-width:0.2540; stroke-opacity:1; 
stroke-linecap:round; stroke-linejoin:round;fill:none"
d="M 51.5620,40.6400
51.5620,41.6560
" /> 
<path style="fill:none; 
stroke:#000000; stroke-width:0.1524; stroke-opacity:1; 
stroke-linecap:round; stroke-linejoin:round;fill:none"
d="M 51.5620,41.1480
54.1020,41.1480
54.1020,37.5920
51.5620,37.5920
" /> 
<path style="fill:#000000; fill-opacity:1.0000; 
stroke:#000000; stroke-width:0.1524; stroke-opacity:1; 
stroke-linecap:round; stroke-linejoin:round;fill-rule:evenodd;"
d="M 51.8160,39.3700
52.8320,38.9890
52.8320,39.7510
Z" /> 
</g>
<g style="fill:none; 
stroke:#000000; stroke-width:0.2540; stroke-opacity:1; 
stroke-linecap:round; stroke-linejoin:round;">
<circle cx="52.4510" cy="39.3700" r="2.7940" /> 
<path style="fill:none; 
stroke:#000000; stroke-width:0.1524; stroke-opacity:1; 
stroke-linecap:round; stroke-linejoin:round;fill:none"
d="M 53.3400,36.8300
53.3400,37.5920
" /> 
</g>
<g style="fill:#000000; fill-opacity:1.0000; 
stroke:#000000; stroke-width:0.1524; stroke-opacity:1; 
stroke-linecap:round; stroke-linejoin:round;">
<circle cx="53.3400" cy="37.5920" r="0.2540" /> 
<circle cx="53.3400" cy="41.1480" r="0.2540" /> 
<path style="fill:none; 
stroke:#000000; stroke-width:0.1524; stroke-opacity:1; 
stroke-linecap:round; stroke-linejoin:round;fill:none"
d="M 53.3400,41.9100
53.3400,39.3700
51.5620,39.3700
" /> 
<path style="fill:none; 
stroke:#000000; stroke-width:0.1524; stroke-opacity:1; 
stroke-linecap:round; stroke-linejoin:round;fill:none"
d="M 53.7210,38.9890
54.4830,38.9890
" /> 
<path style="fill:none; 
stroke:#000000; stroke-width:0.1524; stroke-opacity:1; 
stroke-linecap:round; stroke-linejoin:round;fill:none"
d="M 54.1020,38.9890
53.7210,39.6240
54.4830,39.6240
Z" /> 
</g>
<g style="fill:none; 
stroke:#000000; stroke-width:0.1524; stroke-opacity:1; 
stroke-linecap:round; stroke-linejoin:round;">
<path d="M48.2600 39.3700
L45.7200 39.3700
" />
<text x="46.9900" y="39.1160"
textLength="1.4127" font-size="1.6933" lengthAdjust="spacingAndGlyphs"
text-anchor="middle" opacity="0" stroke-opacity="0">1</text>
<g class="stroked-text"><desc>1</desc>
<path d="M47.3529 38.9525
L46.6272 38.9525
" />
<path d="M46.9900 38.9525
L46.9900 37.6825
" />
<path d="M46.9900 37.6825
L46.8691 37.8640
" />
<path d="M46.8691 37.8640
L46.7481 37.9849
" />
<path d="M46.7481 37.9849
L46.6272 38.0454
" />
</g><path d="M53.3400 36.8300
L53.3400 34.2900
" />
<g transform="rotate(-90.000000 53.0860 35.5600)">
<text x="53.0860" y="35.5600"
textLength="1.4127" font-size="1.6933" lengthAdjust="spacingAndGlyphs"
text-anchor="middle" opacity="0" stroke-opacity="0">3</text>
</g>
<g class="stroked-text"><desc>3</desc>
<path d="M51.6525 35.9832
L51.6525 35.1970
" />
<path d="M51.6525 35.1970
L52.1363 35.6204
" />
<path d="M52.1363 35.6204
L52.1363 35.4389
" />
<path d="M52.1363 35.4389
L52.1968 35.3180
" />
<path d="M52.1968 35.3180
L52.2573 35.2575
" />
<path d="M52.2573 35.2575
L52.3782 35.1970
" />
<path d="M52.3782 35.1970
L52.6806 35.1970
" />
<path d="M52.6806 35.1970
L52.8016 35.2575
" />
<path d="M52.8016 35.2575
L52.8621 35.3180
" />
<path d="M52.8621 35.3180
L52.9225 35.4389
" />
<path d="M52.9225 35.4389
L52.9225 35.8018
" />
<path d="M52.9225 35.8018
L52.8621 35.9227
" />
<path d="M52.8621 35.9227
L52.8016 35.9832
" />
</g><path d="M53.3400 41.9100
L53.3400 44.4500
" />
<g transform="rotate(-90.000000 53.0860 43.1800)">
<text x="53.0860" y="43.1800"
textLength="1.4127" font-size="1.6933" lengthAdjust="spacingAndGlyphs"
text-anchor="middle" opacity="0" stroke-opacity="0">2</text>
</g>
<g class="stroked-text"><desc>2</desc>
<path d="M51.7735 43.5427
L51.7130 43.4823
" />
<path d="M51.7130 43.4823
L51.6525 43.3613
" />
<path d="M51.6525 43.3613
L51.6525 43.0589
" />
<path d="M51.6525 43.0589
L51.7130 42.9380
" />
<path d="M51.7130 42.9380
L51.7735 42.8775
" />
<path d="M51.7735 42.8775
L51.8944 42.8170
" />
<path d="M51.8944 42.8170
L52.0154 42.8170
" />
<path d="M52.0154 42.8170
L52.1968 42.8775
" />
<path d="M52.1968 42.8775
L52.9225 43.6032
" />
<path d="M52.9225 43.6032
L52.9225 42.8170
" />
</g><text x="57.2612" y="41.9100"
textLength="2.7432" font-size="1.6933" lengthAdjust="spacingAndGlyphs"
text-anchor="middle" opacity="0" stroke-opacity="0">Q1</text>
<g class="stroked-text"><desc>Q1</desc>
<path d="M57.1402 41.9755
L57.0192 41.9150
" />
<path d="M57.0192 41.9150
L56.8983 41.7941
" />
<path d="M56.8983 41.7941
L56.7169 41.6126
" />
<path d="M56.7169 41.6126
L56.5959 41.5521
" />
<path d="M56.5959 41.5521
L56.4750 41.5521
" />
<path d="M56.5354 41.8545
L56.4145 41.7941
" />
<path d="M56.4145 41.7941
L56.2935 41.6731
" />
<path d="M56.2935 41.6731
L56.2331 41.4312
" />
<path d="M56.2331 41.4312
L56.2331 41.0079
" />
<path d="M56.2331 41.0079
L56.2935 40.7660
" />
<path d="M56.2935 40.7660
L56.4145 40.6450
" />
<path d="M56.4145 40.6450
L56.5354 40.5845
" />
<path d="M56.5354 40.5845
L56.7773 40.5845
" />
<path d="M56.7773 40.5845
L56.8983 40.6450
" />
<path d="M56.8983 40.6450
L57.0192 40.7660
" />
<path d="M57.0192 40.7660
L57.0797 41.0079
" />
<path d="M57.0797 41.0079
L57.0797 41.4312
" />
<path d="M57.0797 41.4312
L57.0192 41.6731
" />
<path d="M57.0192 41.6731
L56.8983 41.7941
" />
<path d="M56.8983 41.7941
L56.7773 41.8545
" />
<path d="M56.7773 41.8545
L56.5354 41.8545
" />
<path d="M58.2893 41.8545
L57.5636 41.8545
" />
<path d="M57.9264 41.8545
L57.9264 40.5845
" />
<path d="M57.9264 40.5845
L57.8055 40.7660
" />
<path d="M57.8055 40.7660
L57.6845 40.8869
" />
<path d="M57.6845 40.8869
L57.5636 40.9474
" />
</g><text x="59.6802" y="40.0050"
textLength="7.5812" font-size="1.6933" lengthAdjust="spacingAndGlyphs"
text-anchor="middle" opacity="0" stroke-opacity="0">2N7002</text>
<g class="stroked-text"><desc>2N7002</desc>
<path d="M56.2331 38.8005
L56.2935 38.7400
" />
<path d="M56.2935 38.7400
L56.4145 38.6795
" />
<path d="M56.4145 38.6795
L56.7169 38.6795
" />
<path d="M56.7169 38.6795
L56.8378 38.7400
" />
<path d="M56.8378 38.7400
L56.8983 38.8005
" />
<path d="M56.8983 38.8005
L56.9588 38.9214
" />
<path d="M56.9588 38.9214
L56.9588 39.0424
" />
<path d="M56.9588 39.0424
L56.8983 39.2238
" />
<path d="M56.8983 39.2238
L56.1726 39.9495
" />
<path d="M56.1726 39.9495
L56.9588 39.9495
" />
<path d="M57.5030 39.9495
L57.5030 38.6795
" />
<path d="M57.5030 38.6795
L58.2287 39.9495
" />
<path d="M58.2287 39.9495
L58.2287 38.6795
" />
<path d="M58.7126 38.6795
L59.5592 38.6795
" />
<path d="M59.5592 38.6795
L59.0150 39.9495
" />
<path d="M60.2849 38.6795
L60.4059 38.6795
" />
<path d="M60.4059 38.6795
L60.5268 38.7400
" />
<path d="M60.5268 38.7400
L60.5873 38.8005
" />
<path d="M60.5873 38.8005
L60.6478 38.9214
" />
<path d="M60.6478 38.9214
L60.7083 39.1633
" />
<path d="M60.7083 39.1633
L60.7083 39.4657
" />
<path d="M60.7083 39.4657
L60.6478 39.7076
" />
<path d="M60.6478 39.7076
L60.5873 39.8286
" />
<path d="M60.5873 39.8286
L60.5268 39.8891
" />
<path d="M60.5268 39.8891
L60.4059 39.9495
" />
<path d="M60.4059 39.9495
L60.2849 39.9495
" />
<path d="M60.2849 39.9495
L60.1640 39.8891
" />
<path d="M60.1640 39.8891
L60.1035 39.8286
" />
<path d="M60.1035 39.8286
L60.0430 39.7076
" />
<path d="M60.0430 39.7076
L59.9826 39.4657
" />
<path d="M59.9826 39.4657
L59.9826 39.1633
" />
<path d="M59.9826 39.1633
L60.0430 38.9214
" />
<path d="M60.0430 38.9214
L60.1035 38.8005
" />
<path d="M60.1035 38.8005
L60.1640 38.7400
" />
<path d="M60.1640 38.7400
L60.2849 38.6795
" />
<path d="M61.4944 38.6795
L61.6154 38.6795
" />
<path d="M61.6154 38.6795
L61.7363 38.7400
" />
<path d="M61.7363 38.7400
L61.7968 38.8005
" />
<path d="M61.7968 38.8005
L61.8573 38.9214
" />
<path d="M61.8573 38.9214
L61.9178 39.1633
" />
<path d="M61.9178 39.1633
L61.9178 39.4657
" />
<path d="M61.9178 39.4657
L61.8573 39.7076
" />
<path d="M61.8573 39.7076
L61.7968 39.8286
" />
<path d="M61.7968 39.8286
L61.7363 39.8891
" />
<path d="M61.7363 39.8891
L61.6154 39.9495
" />
<path d="M61.6154 39.9495
L61.4944 39.9495
" />
<path d="M61.4944 39.9495
L61.3735 39.8891
" />
<path d="M61.3735 39.8891
L61.3130 39.8286
" />
<path d="M61.3130 39.8286
L61.2525 39.7076
" />
<path d="M61.2525 39.7076
L61.1921 39.4657
" />
<path d="M61.1921 39.4657
L61.1921 39.1633
" />
<path d="M61.1921 39.1633
L61.2525 38.9214
" />
<path d="M61.2525 38.9214
L61.3130 38.8005
" />
<path d="M61.3130 38.8005
L61.3735 38.7400
" />
<path d="M61.3735 38.7400
L61.4944 38.6795
" />
<path d="M62.4016 38.8005
L62.4620 38.7400
" />
<path d="M62.4620 38.7400
L62.5830 38.6795
" />
<path d="M62.5830 38.6795
L62.8854 38.6795
" />
<path d="M62.8854 38.6795
L63.0063 38.7400
" />
<path d="M63.0063 38.7400
L63.0668 38.8005
" />
<path d="M63.0668 38.8005
L63.1273 38.9214
" />
<path d="M63.1273 38.9214
L63.1273 39.0424
" />
<path d="M63.1273 39.0424
L63.0668 39.2238
" />
<path d="M63.0668 39.2238
L62.3411 39.9495
" />
<path d="M62.3411 39.9495
L63.1273 39.9495
" />
</g><path style="fill:none; 
stroke:#000000; stroke-width:0.5080; stroke-opacity:1; 
stroke-linecap:round; stroke-linejoin:round;fill:none"
d="M 36.0680,43.6880
40.1320,43.6880
" /> 
<path style="fill:none; 
stroke:#000000; stroke-width:0.5080; stroke-opacity:1; 
stroke-linecap:round; stroke-linejoin:round;fill:none"
d="M 36.0680,45.2120
40.1320,45.2120
" /> 
</g>
<g style="fill:none; 
stroke:#000000; stroke-width:0.1524; stroke-opacity:1; 
stroke-linecap:round; stroke-linejoin:round;">
<path d="M38.1000 43.4340
L38.1000 40.6400
" />
<path d="M38.1000 45.4660
L38.1000 48.2600
" />
<text x="40.0859" y="47.6250"
textLength="2.6827" font-size="1.6933" lengthAdjust="spacingAndGlyphs"
text-anchor="middle" opacity="0" stroke-opacity="0">C1</text>
<g class="stroked-text"><desc>C1</desc>
<path d="M39.8742 47.4486
L39.8138 47.5091
" />
<path d="M39.8138 47.5091
L39.6323 47.5695
" />
<path d="M39.6323 47.5695
L39.5114 47.5695
" />
<path d="M39.5114 47.5695
L39.3300 47.5091
" />
<path d="M39.3300 47.5091
L39.2090 47.3881
" />
<path d="M39.2090 47.3881
L39.1485 47.2671
" />
<path d="M39.1485 47.2671
L39.0881 47.0252
" />
<path d="M39.0881 47.0252
L39.0881 46.8438
" />
<path d="M39.0881 46.8438
L39.1485 46.6019
" />
<path d="M39.1485 46.6019
L39.2090 46.4810
" />
<path d="M39.2090 46.4810
L39.3300 46.3600
" />
<path d="M39.3300 46.3600
L39.5114 46.2995
" />
<path d="M39.5114 46.2995
L39.6323 46.2995
" />
<path d="M39.6323 46.2995
L39.8138 46.3600
" />
<path d="M39.8138 46.3600
L39.8742 46.4205
" />
<path d="M41.0838 47.5695
L40.3581 47.5695
" />
<path d="M40.7209 47.5695
L40.7209 46.2995
" />
<path d="M40.7209 46.2995
L40.6000 46.4810
" />
<path d="M40.6000 46.4810
L40.4790 46.6019
" />
<path d="M40.4790 46.6019
L40.3581 46.6624
" />
</g><text x="41.1745" y="42.5450"
textLength="4.8598" font-size="1.6933" lengthAdjust="spacingAndGlyphs"
text-anchor="middle" opacity="0" stroke-opacity="0">10uF</text>
<g class="stroked-text"><desc>10uF</desc>
<path d="M39.8138 42.4895
L39.0881 42.4895
" />
<path d="M39.4509 42.4895
L39.4509 41.2195
" />
<path d="M39.4509 41.2195
L39.3300 41.4010
" />
<path d="M39.3300 41.4010
L39.2090 41.5219
" />
<path d="M39.2090 41.5219
L39.0881 41.5824
" />
<path d="M40.5999 41.2195
L40.7209 41.2195
" />
<path d="M40.7209 41.2195
L40.8418 41.2800
" />
<path d="M40.8418 41.2800
L40.9023 41.3405
" />
<path d="M40.9023 41.3405
L40.9628 41.4614
" />
<path d="M40.9628 41.4614
L41.0233 41.7033
" />
<path d="M41.0233 41.7033
L41.0233 42.0057
" />
<path d="M41.0233 42.0057
L40.9628 42.2476
" />
<path d="M40.9628 42.2476
L40.9023 42.3686
" />
<path d="M40.9023 42.3686
L40.8418 42.4291
" />
<path d="M40.8418 42.4291
L40.7209 42.4895
" />
<path d="M40.7209 42.4895
L40.5999 42.4895
" />
<path d="M40.5999 42.4895
L40.4790 42.4291
" />
<path d="M40.4790 42.4291
L40.4185 42.3686
" />
<path d="M40.4185 42.3686
L40.3580 42.2476
" />
<path d="M40.3580 42.2476
L40.2976 42.0057
" />
<path d="M40.2976 42.0057
L40.2976 41.7033
" />
<path d="M40.2976 41.7033
L40.3580 41.4614
" />
<path d="M40.3580 41.4614
L40.4185 41.3405
" />
<path d="M40.4185 41.3405
L40.4790 41.2800
" />
<path d="M40.4790 41.2800
L40.5999 41.2195
" />
<path d="M42.1118 41.6429
L42.1118 42.4895
" />
<path d="M41.5675 41.6429
L41.5675 42.3081
" />
<path d="M41.5675 42.3081
L41.6280 42.4291
" />
<path d="M41.6280 42.4291
L41.7490 42.4895
" />
<path d="M41.7490 42.4895
L41.9304 42.4895
" />
<path d="M41.9304 42.4895
L42.0513 42.4291
" />
<path d="M42.0513 42.4291
L42.1118 42.3686
" />
<path d="M43.1399 41.8243
L42.7165 41.8243
" />
<path d="M42.7165 42.4895
L42.7165 41.2195
" />
<path d="M42.7165 41.2195
L43.3213 41.2195
" />
</g><path style="fill:none; 
stroke:#000000; stroke-width:0.1524; stroke-opacity:1; 
stroke-linecap:round; stroke-linejoin:round;fill:none"
d="M 38.1000,52.0700
38.1000,53.3400
39.3700,53.3400
38.1000,54.6100
36.8300,53.3400
38.1000,53.3400
" /> 
<path d="M38.1000 52.0700
L38.1000 52.0700
" />
<text x="38.1000" y="57.7850"
textLength="4.0737" font-size="1.6933" lengthAdjust="spacingAndGlyphs"
text-anchor="middle" opacity="0" stroke-opacity="0">GND</text>
<g class="stroked-text"><desc>GND</desc>
<path d="M37.1324 56.5200
L37.0114 56.4595
" />
<path d="M37.0114 56.4595
L36.8300 56.4595
" />
<path d="M36.8300 56.4595
L36.6486 56.5200
" />
<path d="M36.6486 56.5200
L36.5276 56.6410
" />
<path d="M36.5276 56.6410
L36.4671 56.7619
" />
<path d="M36.4671 56.7619
L36.4067 57.0038
" />
<path d="M36.4067 57.0038
L36.4067 57.1852
" />
<path d="M36.4067 57.1852
L36.4671 57.4271
" />
<path d="M36.4671 57.4271
L36.5276 57.5481
" />
<path d="M36.5276 57.5481
L36.6486 57.6691
" />
<path d="M36.6486 57.6691
L36.8300 57.7295
" />
<path d="M36.8300 57.7295
L36.9509 57.7295
" />
<path d="M36.9509 57.7295
L37.1324 57.6691
" />
<path d="M37.1324 57.6691
L37.1928 57.6086
" />
<path d="M37.1928 57.6086
L37.1928 57.1852
" />
<path d="M37.1928 57.1852
L36.9509 57.1852
" />
<path d="M37.7371 57.7295
L37.7371 56.4595
" />
<path d="M37.7371 56.4595
L38.4628 57.7295
" />
<path d="M38.4628 57.7295
L38.4628 56.4595
" />
<path d="M39.0676 57.7295
L39.0676 56.4595
" />
<path d="M39.0676 56.4595
L39.3700 56.4595
" />
<path d="M39.3700 56.4595
L39.5514 56.5200
" />
<path d="M39.5514 56.5200
L39.6724 56.6410
" />
<path d="M39.6724 56.6410
L39.7329 56.7619
" />
<path d="M39.7329 56.7619
L39.7933 57.0038
" />
<path d="M39.7933 57.0038
L39.7933 57.1852
" />
<path d="M39.7933 57.1852
L39.7329 57.4271
" />
<path d="M39.7329 57.4271
L39.6724 57.5481
" />
<path d="M39.6724 57.5481
L39.5514 57.6691
" />
<path d="M39.5514 57.6691
L39.3700 57.7295
" />
<path d="M39.3700 57.7295
L39.0676 57.7295
" />
</g><path style="fill:none; 
stroke:#000000; stroke-width:0.1524; stroke-opacity:1; 
stroke-linecap:round; stroke-linejoin:round;fill:none"
d="M 35.5600,52.0700
35.5600,53.3400
36.5760,53.9750
35.5600,54.6100
34.5440,53.9750
35.5600,53.3400
" /> 
<path d="M35.5600 52.0700
L35.5600 52.0700
" />
<text x="35.5599" y="57.7849"
textLength="9.6375" font-size="1.6933" lengthAdjust="spacingAndGlyphs"
text-anchor="middle" opacity="0" stroke-opacity="0">PWR_FLAG</text>
<g class="stroked-text"><desc>PWR_FLAG</desc>
<path d="M31.1451 57.7294
L31.1451 56.4594
" />
<path d="M31.1451 56.4594
L31.6289 56.4594
" />
<path d="M31.6289 56.4594
L31.7499 56.5199
" />
<path d="M31.7499 56.5199
L31.8104 56.5804
" />
<path d="M31.8104 56.5804
L31.8708 56.7013
" />
<path d="M31.8708 56.7013
L31.8708 56.8828
" />
<path d="M31.8708 56.8828
L31.8104 57.0037
" />
<path d="M31.8104 57.0037
L31.7499 57.0642
" />
<path d="M31.7499 57.0642
L31.6289 57.1247
" />
<path d="M31.6289 57.1247
L31.1451 57.1247
" />
<path d="M32.2942 56.4594
L32.5966 57.7294
" />
<path d="M32.5966 57.7294
L32.8385 56.8223
" />
<path d="M32.8385 56.8223
L33.0804 57.7294
" />
<path d="M33.0804 57.7294
L33.3828 56.4594
" />
<path d="M34.5922 57.7294
L34.1689 57.1247
" />
<path d="M33.8665 57.7294
L33.8665 56.4594
" />
<path d="M33.8665 56.4594
L34.3503 56.4594
" />
<path d="M34.3503 56.4594
L34.4713 56.5199
" />
<path d="M34.4713 56.5199
L34.5318 56.5804
" />
<path d="M34.5318 56.5804
L34.5922 56.7013
" />
<path d="M34.5922 56.7013
L34.5922 56.8828
" />
<path d="M34.5922 56.8828
L34.5318 57.0037
" />
<path d="M34.5318 57.0037
L34.4713 57.0642
" />
<path d="M34.4713 57.0642
L34.3503 57.1247
" />
<path d="M34.3503 57.1247
L33.8665 57.1247
" />
<path d="M34.8342 57.8504
L35.8018 57.8504
" />
<path d="M36.5275 57.0642
L36.1041 57.0642
" />
<path d="M36.1041 57.7294
L36.1041 56.4594
" />
<path d="M36.1041 56.4594
L36.7089 56.4594
" />
<path d="M37.7975 57.7294
L37.1927 57.7294
" />
<path d="M37.1927 57.7294
L37.1927 56.4594
" />
<path d="M38.1604 57.3666
L38.7651 57.3666
" />
<path d="M38.0394 57.7294
L38.4627 56.4594
" />
<path d="M38.4627 56.4594
L38.8861 57.7294
" />
<path d="M39.9747 56.5199
L39.8537 56.4594
" />
<path d="M39.8537 56.4594
L39.6723 56.4594
" />
<path d="M39.6723 56.4594
L39.4909 56.5199
" />
<path d="M39.4909 56.5199
L39.3699 56.6409
" />
<path d="M39.3699 56.6409
L39.3094 56.7618
" />
<path d="M39.3094 56.7618
L39.2490 57.0037
" />
<path d="M39.2490 57.0037
L39.2490 57.1851
" />
<path d="M39.2490 57.1851
L39.3094 57.4270
" />
<path d="M39.3094 57.4270
L39.3699 57.5480
" />
<path d="M39.3699 57.5480
L39.4909 57.6690
" />
<path d="M39.4909 57.6690
L39.6723 57.7294
" />
<path d="M39.6723 57.7294
L39.7932 57.7294
" />
<path d="M39.7932 57.7294
L39.9747 57.6690
" />
<path d="M39.9747 57.6690
L40.0351 57.6085
" />
<path d="M40.0351 57.6085
L40.0351 57.1851
" />
<path d="M40.0351 57.1851
L39.7932 57.1851
" />
</g><path style="fill:none; 
stroke:#000000; stroke-width:0.1524; stroke-opacity:1; 
stroke-linecap:round; stroke-linejoin:round;fill:none"
d="M 35.5600,34.2900
35.5600,33.0200
34.5440,32.3850
35.5600,31.7500
36.5760,32.3850
35.5600,33.0200
" /> 
<path d="M35.5600 34.2900
L35.5600 34.2900
" />
<text x="35.5600" y="29.8450"
textLength="9.6375" font-size="1.6933" lengthAdjust="spacingAndGlyphs"
text-anchor="middle" opacity="0" stroke-opacity="0">PWR_FLAG</text>
<g class="stroked-text"><desc>PWR_FLAG</desc>
<path d="M31.1452 29.7895
L31.1452 28.5195
" />
<path d="M31.1452 28.5195
L31.6290 28.5195
" />
<path d="M31.6290 28.5195
L31.7500 28.5800
" />
<path d="M31.7500 28.5800
L31.8105 28.6405
" />
<path d="M31.8105 28.6405
L31.8709 28.7614
" />
<path d="M31.8709 28.7614
L31.8709 28.9429
" />
<path d="M31.8709 28.9429
L31.8105 29.0638
" />
<path d="M31.8105 29.0638
L31.7500 29.1243
" />
<path d="M31.7500 29.1243
L31.6290 29.1848
" />
<path d="M31.6290 29.1848
L31.1452 29.1848
" />
<path d="M32.2943 28.5195
L32.5967 29.7895
" />
<path d="M32.5967 29.7895
L32.8386 28.8824
" />
<path d="M32.8386 28.8824
L33.0805 29.7895
" />
<path d="M33.0805 29.7895
L33.3829 28.5195
" />
<path d="M34.5923 29.7895
L34.1690 29.1848
" />
<path d="M33.8666 29.7895
L33.8666 28.5195
" />
<path d="M33.8666 28.5195
L34.3504 28.5195
" />
<path d="M34.3504 28.5195
L34.4714 28.5800
" />
<path d="M34.4714 28.5800
L34.5319 28.6405
" />
<path d="M34.5319 28.6405
L34.5923 28.7614
" />
<path d="M34.5923 28.7614
L34.5923 28.9429
" />
<path d="M34.5923 28.9429
L34.5319 29.0638
" />
<path d="M34.5319 29.0638
L34.4714 29.1243
" />
<path d="M34.4714 29.1243
L34.3504 29.1848
" />
<path d="M34.3504 29.1848
L33.8666 29.1848
" />
<path d="M34.8343 29.9105
L35.8019 29.9105
" />
<path d="M36.5276 29.1243
L36.1042 29.1243
" />
<path d="M36.1042 29.7895
L36.1042 28.5195
" />
<path d="M36.1042 28.5195
L36.7090 28.5195
" />
<path d="M37.7976 29.7895
L37.1928 29.7895
" />
<path d="M37.1928 29.7895
L37.1928 28.5195
" />
<path d="M38.1605 29.4267
L38.7652 29.4267
" />
<path d="M38.0395 29.7895
L38.4628 28.5195
" />
<path d="M38.4628 28.5195
L38.8862 29.7895
" />
<path d="M39.9748 28.5800
L39.8538 28.5195
" />
<path d="M39.8538 28.5195
L39.6724 28.5195
" />
<path d="M39.6724 28.5195
L39.4910 28.5800
" />
<path d="M39.4910 28.5800
L39.3700 28.7010
" />
<path d="M39.3700 28.7010
L39.3095 28.8219
" />
<path d="M39.3095 28.8219
L39.2491 29.0638
" />
<path d="M39.2491 29.0638
L39.2491 29.2452
" />
<path d="M39.2491 29.2452
L39.3095 29.4871
" />
<path d="M39.3095 29.4871
L39.3700 29.6081
" />
<path d="M39.3700 29.6081
L39.4910 29.7291
" />
<path d="M39.4910 29.7291
L39.6724 29.7895
" />
<path d="M39.6724 29.7895
L39.7933 29.7895
" />
<path d="M39.7933 29.7895
L39.9748 29.7291
" />
<path d="M39.9748 29.7291
L40.0352 29.6686
" />
<path d="M40.0352 29.6686
L40.0352 29.2452
" />
<path d="M40.0352 29.2452
L39.7933 29.2452
" />
</g><path style="fill:none; 
stroke:#000000; stroke-width:0.1524; stroke-opacity:1; 
stroke-linecap:round; stroke-linejoin:round;fill:none"
d="M 37.3380,30.4800
38.1000,29.2100
" /> 
<path style="fill:none; 
stroke:#000000; stroke-width:0.1524; stroke-opacity:1; 
stroke-linecap:round; stroke-linejoin:round;fill:none"
d="M 38.1000,29.2100
38.8620,30.4800
" /> 
<path style="fill:none; 
stroke:#000000; stroke-width:0.1524; stroke-opacity:1; 
stroke-linecap:round; stroke-linejoin:round;fill:none"
d="M 38.1000,31.7500
38.1000,29.2100
" /> 
<path d="M38.1000 31.7500
L38.1000 31.7500
" />
<text x="38.1000" y="27.3050"
textLength="5.2832" font-size="1.6933" lengthAdjust="spacingAndGlyphs"
text-anchor="middle" opacity="0" stroke-opacity="0">+12V</text>
<g class="stroked-text"><desc>+12V</desc>
<path d="M35.8623 26.7657
L36.8300 26.7657
" />
<path d="M36.3461 27.2495
L36.3461 26.2819
" />
<path d="M38.1000 27.2495
L37.3743 27.2495
" />
<path d="M37.7371 27.2495
L37.7371 25.9795
" />
<path d="M37.7371 25.9795
L37.6162 26.1610
" />
<path d="M37.6162 26.1610
L37.4952 26.2819
" />
<path d="M37.4952 26.2819
L37.3743 26.3424
" />
<path d="M38.5838 26.1005
L38.6442 26.0400
" />
<path d="M38.6442 26.0400
L38.7652 25.9795
" />
<path d="M38.7652 25.9795
L39.0676 25.9795
" />
<path d="M39.0676 25.9795
L39.1885 26.0400
" />
<path d="M39.1885 26.0400
L39.2490 26.1005
" />
<path d="M39.2490 26.1005
L39.3095 26.2214
" />
<path d="M39.3095 26.2214
L39.3095 26.3424
" />
<path d="M39.3095 26.3424
L39.2490 26.5238
" />
<path d="M39.2490 26.5238
L38.5233 27.2495
" />
<path d="M38.5233 27.2495
L39.3095 27.2495
" />
<path d="M39.6723 25.9795
L40.0956 27.2495
" />
<path d="M40.0956 27.2495
L40.5190 25.9795
" />
</g><path style="fill:none; 
stroke:#000000; stroke-width:0.1524; stroke-opacity:1; 
stroke-linecap:round; stroke-linejoin:round;fill:none"
d="M 82.5500,52.0700
82.5500,53.3400
83.8200,53.3400
82.5500,54.6100
81.2800,53.3400
82.5500,53.3400
" /> 
<path d="M82.5500 52.0700
L82.5500 52.0700
" />
<text x="82.5500" y="57.7850"
textLength="4.0737" font-size="1.6933" lengthAdjust="spacingAndGlyphs"
text-anchor="middle" opacity="0" stroke-opacity="0">GND</text>
<g class="stroked-text"><desc>GND</desc>
<path d="M81.5824 56.5200
L81.4614 56.4595
" />
<path d="M81.4614 56.4595
L81.2800 56.4595
" />
<path d="M81.2800 56.4595
L81.0986 56.5200
" />
<path d="M81.0986 56.5200
L80.9776 56.6410
" />
<path d="M80.9776 56.6410
L80.9171 56.7619
" />
<path d="M80.9171 56.7619
L80.8567 57.0038
" />
<path d="M80.8567 57.0038
L80.8567 57.1852
" />
<path d="M80.8567 57.1852
L80.9171 57.4271
" />
<path d="M80.9171 57.4271
L80.9776 57.5481
" />
<path d="M80.9776 57.5481
L81.0986 57.6691
" />
<path d="M81.0986 57.6691
L81.2800 57.7295
" />
<path d="M81.2800 57.7295
L81.4009 57.7295
" />
<path d="M81.4009 57.7295
L81.5824 57.6691
" />
<path d="M81.5824 57.6691
L81.6428 57.6086
" />
<path d="M81.6428 57.6086
L81.6428 57.1852
" />
<path d="M81.6428 57.1852
L81.4009 57.1852
" />
<path d="M82.1871 57.7295
L82.1871 56.4595
" />
<path d="M82.1871 56.4595
L82.9128 57.7295
" />
<path d="M82.9128 57.7295
L82.9128 56.4595
" />
<path d="M83.5176 57.7295
L83.5176 56.4595
" />
<path d="M83.5176 56.4595
L83.8200 56.4595
" />
<path d="M83.8200 56.4595
L84.0014 56.5200
" />
<path d="M84.0014 56.5200
L84.1224 56.6410
" />
<path d="M84.1224 56.6410
L84.1829 56.7619
" />
<path d="M84.1829 56.7619
L84.2433 57.0038
" />
<path d="M84.2433 57.0038
L84.2433 57.1852
" />
<path d="M84.2433 57.1852
L84.1829 57.4271
" />
<path d="M84.1829 57.4271
L84.1224 57.5481
" />
<path d="M84.1224 57.5481
L84.0014 57.6691
" />
<path d="M84.0014 57.6691
L83.8200 57.7295
" />
<path d="M83.8200 57.7295
L83.5176 57.7295
" />
</g><path style="fill:none; 
stroke:#000000; stroke-width:0.2540; stroke-opacity:1; 
stroke-linecap:round; stroke-linejoin:round;fill:none"
d="M 55.2450,48.8950
55.2450,48.2600
55.8800,48.2600
55.8800,50.8000
56.5150,50.8000
56.5150,50.1650
" /> 
<path style="fill:none; 
stroke:#000000; stroke-width:0.2540; stroke-opacity:1; 
stroke-linecap:round; stroke-linejoin:round;fill:none"
d="M 58.4200,48.2600
58.4200,50.8000
55.8800,49.5300
Z" /> 
<path style="fill:none; 
stroke:#000000; stroke-width:0.1524; stroke-opacity:1; 
stroke-linecap:round; stroke-linejoin:round;fill:none"
d="M 58.4200,49.5300
55.8800,49.5300
" /> 
</g>
<g style="fill:none; 
stroke:#000000; stroke-width:0.1524; stroke-opacity:1; 
stroke-linecap:round; stroke-linejoin:round;">
<path d="M55.8800 49.5300
L53.3400 49.5300
" />
<path d="M58.4200 49.5300
L60.9600 49.5300
" />
<text x="58.5009" y="52.7050"
textLength="2.6827" font-size="1.6933" lengthAdjust="spacingAndGlyphs"
text-anchor="middle" opacity="0" stroke-opacity="0">D1</text>
<g class="stroked-text"><desc>D1</desc>
<path d="M57.5635 52.6495
L57.5635 51.3795
" />
<path d="M57.5635 51.3795
L57.8659 51.3795
" />
<path d="M57.8659 51.3795
L58.0473 51.4400
" />
<path d="M58.0473 51.4400
L58.1683 51.5610
" />
<path d="M58.1683 51.5610
L58.2288 51.6819
" />
<path d="M58.2288 51.6819
L58.2892 51.9238
" />
<path d="M58.2892 51.9238
L58.2892 52.1052
" />
<path d="M58.2892 52.1052
L58.2288 52.3471
" />
<path d="M58.2288 52.3471
L58.1683 52.4681
" />
<path d="M58.1683 52.4681
L58.0473 52.5891
" />
<path d="M58.0473 52.5891
L57.8659 52.6495
" />
<path d="M57.8659 52.6495
L57.5635 52.6495
" />
<path d="M59.4988 52.6495
L58.7731 52.6495
" />
<path d="M59.1359 52.6495
L59.1359 51.3795
" />
<path d="M59.1359 51.3795
L59.0150 51.5610
" />
<path d="M59.0150 51.5610
L58.8940 51.6819
" />
<path d="M58.8940 51.6819
L58.7731 51.7424
" />
</g><text x="59.6802" y="47.6250"
textLength="5.0412" font-size="1.6933" lengthAdjust="spacingAndGlyphs"
text-anchor="middle" opacity="0" stroke-opacity="0">SS14</text>
<g class="stroked-text"><desc>SS14</desc>
<path d="M57.5031 47.5091
L57.6845 47.5695
" />
<path d="M57.6845 47.5695
L57.9869 47.5695
" />
<path d="M57.9869 47.5695
L58.1078 47.5091
" />
<path d="M58.1078 47.5091
L58.1683 47.4486
" />
<path d="M58.1683 47.4486
L58.2288 47.3276
" />
<path d="M58.2288 47.3276
L58.2288 47.2067
" />
<path d="M58.2288 47.2067
L58.1683 47.0857
" />
<path d="M58.1683 47.0857
L58.1078 47.0252
" />
<path d="M58.1078 47.0252
L57.9869 46.9648
" />
<path d="M57.9869 46.9648
L57.7450 46.9043
" />
<path d="M57.7450 46.9043
L57.6240 46.8438
" />
<path d="M57.6240 46.8438
L57.5635 46.7833
" />
<path d="M57.5635 46.7833
L57.5031 46.6624
" />
<path d="M57.5031 46.6624
L57.5031 46.5414
" />
<path d="M57.5031 46.5414
L57.5635 46.4205
" />
<path d="M57.5635 46.4205
L57.6240 46.3600
" />
<path d="M57.6240 46.3600
L57.7450 46.2995
" />
<path d="M57.7450 46.2995
L58.0473 46.2995
" />
<path d="M58.0473 46.2995
L58.2288 46.3600
" />
<path d="M58.7126 47.5091
L58.8940 47.5695
" />
<path d="M58.8940 47.5695
L59.1964 47.5695
" />
<path d="M59.1964 47.5695
L59.3173 47.5091
" />
<path d="M59.3173 47.5091
L59.3778 47.4486
" />
<path d="M59.3778 47.4486
L59.4383 47.3276
" />
<path d="M59.4383 47.3276
L59.4383 47.2067
" />
<path d="M59.4383 47.2067
L59.3778 47.0857
" />
<path d="M59.3778 47.0857
L59.3173 47.0252
" />
<path d="M59.3173 47.0252
L59.1964 46.9648
" />
<path d="M59.1964 46.9648
L58.9545 46.9043
" />
<path d="M58.9545 46.9043
L58.8335 46.8438
" />
<path d="M58.8335 46.8438
L58.7730 46.7833
" />
<path d="M58.7730 46.7833
L58.7126 46.6624
" />
<path d="M58.7126 46.6624
L58.7126 46.5414
" />
<path d="M58.7126 46.5414
L58.7730 46.4205
" />
<path d="M58.7730 46.4205
L58.8335 46.3600
" />
<path d="M58.8335 46.3600
L58.9545 46.2995
" />
<path d="M58.9545 46.2995
L59.2568 46.2995
" />
<path d="M59.2568 46.2995
L59.4383 46.3600
" />
<path d="M60.6478 47.5695
L59.9221 47.5695
" />
<path d="M60.2849 47.5695
L60.2849 46.2995
" />
<path d="M60.2849 46.2995
L60.1640 46.4810
" />
<path d="M60.1640 46.4810
L60.0430 46.6019
" />
<path d="M60.0430 46.6019
L59.9221 46.6624
" />
<path d="M61.7363 46.7229
L61.7363 47.5695
" />
<path d="M61.4339 46.2391
L61.1316 47.1462
" />
<path d="M61.1316 47.1462
L61.9177 47.1462
" />
</g><path d="M68.5800 36.8300 A0.6350 0.6350 0.0 0 0 67.3100 36.8300" />
<path d="M69.8500 36.8300 A0.6350 0.6350 0.0 0 0 68.5800 36.8300" />
<path d="M71.1200 36.8300 A0.6350 0.6350 0.0 0 0 69.8500 36.8300" />
<path d="M72.3900 36.8300 A0.6350 0.6350 0.0 0 0 71.1200 36.8300" />
<path d="M67.3100 36.8300
L66.0400 36.8300
" />
<path d="M72.3900 36.8300
L73.6600 36.8300
" />
<g transform="rotate(-90.000000 69.8499 36.7900)">
<text x="69.8499" y="37.4250"
textLength="2.4408" font-size="1.6933" lengthAdjust="spacingAndGlyphs"
text-anchor="middle" opacity="0" stroke-opacity="0">L1</text>
</g>
<g class="stroked-text"><desc>L1</desc>
<path d="M70.4294 37.0016
L70.4294 37.6064
" />
<path d="M70.4294 37.6064
L69.1594 37.6064
" />
<path d="M70.4294 35.9130
L70.4294 36.6387
" />
<path d="M70.4294 36.2759
L69.1594 36.2759
" />
<path d="M69.1594 36.2759
L69.3409 36.3968
" />
<path d="M69.3409 36.3968
L69.4618 36.5178
" />
<path d="M69.4618 36.5178
L69.5223 36.6387
" />
</g><g transform="rotate(-90.000000 69.8499 41.2954)">
<text x="69.8499" y="41.9304"
textLength="5.1017" font-size="1.6933" lengthAdjust="spacingAndGlyphs"
text-anchor="middle" opacity="0" stroke-opacity="0">22uH</text>
</g>
<g class="stroked-text"><desc>22uH</desc>
<path d="M69.2804 43.5026
L69.2199 43.4422
" />
<path d="M69.2199 43.4422
L69.1594 43.3212
" />
<path d="M69.1594 43.3212
L69.1594 43.0188
" />
<path d="M69.1594 43.0188
L69.2199 42.8979
" />
<path d="M69.2199 42.8979
L69.2804 42.8374
" />
<path d="M69.2804 42.8374
L69.4013 42.7769
" />
<path d="M69.4013 42.7769
L69.5223 42.7769
" />
<path d="M69.5223 42.7769
L69.7037 42.8374
" />
<path d="M69.7037 42.8374
L70.4294 43.5631
" />
<path d="M70.4294 43.5631
L70.4294 42.7769
" />
<path d="M69.2804 42.2931
L69.2199 42.2327
" />
<path d="M69.2199 42.2327
L69.1594 42.1117
" />
<path d="M69.1594 42.1117
L69.1594 41.8093
" />
<path d="M69.1594 41.8093
L69.2199 41.6884
" />
<path d="M69.2199 41.6884
L69.2804 41.6279
" />
<path d="M69.2804 41.6279
L69.4013 41.5674
" />
<path d="M69.4013 41.5674
L69.5223 41.5674
" />
<path d="M69.5223 41.5674
L69.7037 41.6279
" />
<path d="M69.7037 41.6279
L70.4294 42.3536
" />
<path d="M70.4294 42.3536
L70.4294 41.5674
" />
<path d="M69.5828 40.4789
L70.4294 40.4789
" />
<path d="M69.5828 41.0232
L70.2480 41.0232
" />
<path d="M70.2480 41.0232
L70.3690 40.9627
" />
<path d="M70.3690 40.9627
L70.4294 40.8417
" />
<path d="M70.4294 40.8417
L70.4294 40.6603
" />
<path d="M70.4294 40.6603
L70.3690 40.5394
" />
<path d="M70.3690 40.5394
L70.3085 40.4789
" />
<path d="M70.4294 39.8742
L69.1594 39.8742
" />
<path d="M69.7642 39.8742
L69.7642 39.1485
" />
<path d="M70.4294 39.1485
L69.1594 39.1485
" />
</g><path style="fill:none; 
stroke:#000000; stroke-width:0.5080; stroke-opacity:1; 
stroke-linecap:round; stroke-linejoin:round;fill:none"
d="M 80.5180,43.6880
84.5820,43.6880
" /> 
<path style="fill:none; 
stroke:#000000; stroke-width:0.5080; stroke-opacity:1; 
stroke-linecap:round; stroke-linejoin:round;fill:none"
d="M 80.5180,45.2120
84.5820,45.2120
" /> 
</g>
<g style="fill:none; 
stroke:#000000; stroke-width:0.1524; stroke-opacity:1; 
stroke-linecap:round; stroke-linejoin:round;">
<path d="M82.5500 43.4340
L82.5500 40.6400
" />
<path d="M82.5500 45.4660
L82.5500 48.2600
" />
<text x="84.5359" y="47.6250"
textLength="2.6827" font-size="1.6933" lengthAdjust="spacingAndGlyphs"
text-anchor="middle" opacity="0" stroke-opacity="0">C2</text>
<g class="stroked-text"><desc>C2</desc>
<path d="M84.3242 47.4486
L84.2638 47.5091
" />
<path d="M84.2638 47.5091
L84.0823 47.5695
" />
<path d="M84.0823 47.5695
L83.9614 47.5695
" />
<path d="M83.9614 47.5695
L83.7800 47.5091
" />
<path d="M83.7800 47.5091
L83.6590 47.3881
" />
<path d="M83.6590 47.3881
L83.5985 47.2671
" />
<path d="M83.5985 47.2671
L83.5381 47.0252
" />
<path d="M83.5381 47.0252
L83.5381 46.8438
" />
<path d="M83.5381 46.8438
L83.5985 46.6019
" />
<path d="M83.5985 46.6019
L83.6590 46.4810
" />
<path d="M83.6590 46.4810
L83.7800 46.3600
" />
<path d="M83.7800 46.3600
L83.9614 46.2995
" />
<path d="M83.9614 46.2995
L84.0823 46.2995
" />
<path d="M84.0823 46.2995
L84.2638 46.3600
" />
<path d="M84.2638 46.3600
L84.3242 46.4205
" />
<path d="M84.8081 46.4205
L84.8685 46.3600
" />
<path d="M84.8685 46.3600
L84.9895 46.2995
" />
<path d="M84.9895 46.2995
L85.2919 46.2995
" />
<path d="M85.2919 46.2995
L85.4128 46.3600
" />
<path d="M85.4128 46.3600
L85.4733 46.4205
" />
<path d="M85.4733 46.4205
L85.5338 46.5414
" />
<path d="M85.5338 46.5414
L85.5338 46.6624
" />
<path d="M85.5338 46.6624
L85.4733 46.8438
" />
<path d="M85.4733 46.8438
L84.7476 47.5695
" />
<path d="M84.7476 47.5695
L85.5338 47.5695
" />
</g><text x="85.6245" y="42.5450"
textLength="4.8598" font-size="1.6933" lengthAdjust="spacingAndGlyphs"
text-anchor="middle" opacity="0" stroke-opacity="0">22uF</text>
<g class="stroked-text"><desc>22uF</desc>
<path d="M83.5381 41.3405
L83.5985 41.2800
" />
<path d="M83.5985 41.2800
L83.7195 41.2195
" />
<path d="M83.7195 41.2195
L84.0219 41.2195
" />
<path d="M84.0219 41.2195
L84.1428 41.2800
" />
<path d="M84.1428 41.2800
L84.2033 41.3405
" />
<path d="M84.2033 41.3405
L84.2638 41.4614
" />
<path d="M84.2638 41.4614
L84.2638 41.5824
" />
<path d="M84.2638 41.5824
L84.2033 41.7638
" />
<path d="M84.2033 41.7638
L83.4776 42.4895
" />
<path d="M83.4776 42.4895
L84.2638 42.4895
" />
<path d="M84.7476 41.3405
L84.8080 41.2800
" />
<path d="M84.8080 41.2800
L84.9290 41.2195
" />
<path d="M84.9290 41.2195
L85.2314 41.2195
" />
<path d="M85.2314 41.2195
L85.3523 41.2800
" />
<path d="M85.3523 41.2800
L85.4128 41.3405
" />
<path d="M85.4128 41.3405
L85.4733 41.4614
" />
<path d="M85.4733 41.4614
L85.4733 41.5824
" />
<path d="M85.4733 41.5824
L85.4128 41.7638
" />
<path d="M85.4128 41.7638
L84.6871 42.4895
" />
<path d="M84.6871 42.4895
L85.4733 42.4895
" />
<path d="M86.5618 41.6429
L86.5618 42.4895
" />
<path d="M86.0175 41.6429
L86.0175 42.3081
" />
<path d="M86.0175 42.3081
L86.0780 42.4291
" />
<path d="M86.0780 42.4291
L86.1990 42.4895
" />
<path d="M86.1990 42.4895
L86.3804 42.4895
" />
<path d="M86.3804 42.4895
L86.5013 42.4291
" />
<path d="M86.5013 42.4291
L86.5618 42.3686
" />
<path d="M87.5899 41.8243
L87.1665 41.8243
" />
<path d="M87.1665 42.4895
L87.1665 41.2195
" />
<path d="M87.1665 41.2195
L87.7713 41.2195
" />
</g><path style="fill:none; 
stroke:#000000; stroke-width:0.1524; stroke-opacity:1; 
stroke-linecap:round; stroke-linejoin:round;fill:none"
d="M 60.9600,52.0700
60.9600,53.3400
62.2300,53.3400
60.9600,54.6100
59.6900,53.3400
60.9600,53.3400
" /> 
<path d="M60.9600 52.0700
L60.9600 52.0700
" />
<text x="60.9600" y="57.7850"
textLength="4.0737" font-size="1.6933" lengthAdjust="spacingAndGlyphs"
text-anchor="middle" opacity="0" stroke-opacity="0">GND</text>
<g class="stroked-text"><desc>GND</desc>
<path d="M59.9924 56.5200
L59.8714 56.4595
" />
<path d="M59.8714 56.4595
L59.6900 56.4595
" />
<path d="M59.6900 56.4595
L59.5086 56.5200
" />
<path d="M59.5086 56.5200
L59.3876 56.6410
" />
<path d="M59.3876 56.6410
L59.3271 56.7619
" />
<path d="M59.3271 56.7619
L59.2667 57.0038
" />
<path d="M59.2667 57.0038
L59.2667 57.1852
" />
<path d="M59.2667 57.1852
L59.3271 57.4271
" />
<path d="M59.3271 57.4271
L59.3876 57.5481
" />
<path d="M59.3876 57.5481
L59.5086 57.6691
" />
<path d="M59.5086 57.6691
L59.6900 57.7295
" />
<path d="M59.6900 57.7295
L59.8109 57.7295
" />
<path d="M59.8109 57.7295
L59.9924 57.6691
" />
<path d="M59.9924 57.6691
L60.0528 57.6086
" />
<path d="M60.0528 57.6086
L60.0528 57.1852
" />
<path d="M60.0528 57.1852
L59.8109 57.1852
" />
<path d="M60.5971 57.7295
L60.5971 56.4595
" />
<path d="M60.5971 56.4595
L61.3228 57.7295
" />
<path d="M61.3228 57.7295
L61.3228 56.4595
" />
<path d="M61.9276 57.7295
L61.9276 56.4595
" />
<path d="M61.9276 56.4595
L62.2300 56.4595
" />
<path d="M62.2300 56.4595
L62.4114 56.5200
" />
<path d="M62.4114 56.5200
L62.5324 56.6410
" />
<path d="M62.5324 56.6410
L62.5929 56.7619
" />
<path d="M62.5929 56.7619
L62.6533 57.0038
" />
<path d="M62.6533 57.0038
L62.6533 57.1852
" />
<path d="M62.6533 57.1852
L62.5929 57.4271
" />
<path d="M62.5929 57.4271
L62.5324 57.5481
" />
<path d="M62.5324 57.5481
L62.4114 57.6691
" />
<path d="M62.4114 57.6691
L62.2300 57.7295
" />
<path d="M62.2300 57.7295
L61.9276 57.7295
" />
</g></g>
<g style="fill:none; 
stroke:#000000; stroke-width:0.1524; stroke-opacity:1; 
stroke-linecap:round; stroke-linejoin:round;">
<text x="76.2000" y="36.4807"
textLength="4.9204" font-size="1.6933" lengthAdjust="spacingAndGlyphs"
text-anchor="start" opacity="0" stroke-opacity="0">VOUT</text>
<g class="stroked-text"><desc>VOUT</desc>
<path d="M76.4211 35.0472
L76.8444 36.3172
" />
<path d="M76.8444 36.3172
L77.2678 35.0472
" />
<path d="M77.9330 35.0472
L78.1749 35.0472
" />
<path d="M78.1749 35.0472
L78.2959 35.1077
" />
<path d="M78.2959 35.1077
L78.4168 35.2287
" />
<path d="M78.4168 35.2287
L78.4773 35.4706
" />
<path d="M78.4773 35.4706
L78.4773 35.8939
" />
<path d="M78.4773 35.8939
L78.4168 36.1358
" />
<path d="M78.4168 36.1358
L78.2959 36.2568
" />
<path d="M78.2959 36.2568
L78.1749 36.3172
" />
<path d="M78.1749 36.3172
L77.9330 36.3172
" />
<path d="M77.9330 36.3172
L77.8121 36.2568
" />
<path d="M77.8121 36.2568
L77.6911 36.1358
" />
<path d="M77.6911 36.1358
L77.6307 35.8939
" />
<path d="M77.6307 35.8939
L77.6307 35.4706
" />
<path d="M77.6307 35.4706
L77.6911 35.2287
" />
<path d="M77.6911 35.2287
L77.8121 35.1077
" />
<path d="M77.8121 35.1077
L77.9330 35.0472
" />
<path d="M79.0216 35.0472
L79.0216 36.0753
" />
<path d="M79.0216 36.0753
L79.0821 36.1963
" />
<path d="M79.0821 36.1963
L79.1426 36.2568
" />
<path d="M79.1426 36.2568
L79.2635 36.3172
" />
<path d="M79.2635 36.3172
L79.5054 36.3172
" />
<path d="M79.5054 36.3172
L79.6264 36.2568
" />
<path d="M79.6264 36.2568
L79.6869 36.1963
" />
<path d="M79.6869 36.1963
L79.7473 36.0753
" />
<path d="M79.7473 36.0753
L79.7473 35.0472
" />
<path d="M80.1707 35.0472
L80.8964 35.0472
" />
<path d="M80.5336 36.3172
L80.5336 35.0472
" />
</g></g>
<g style="fill:none; 
stroke:#000000; stroke-width:0.1524; stroke-opacity:1; 
stroke-linecap:round; stroke-linejoin:round;">
<text x="55.8800" y="36.4807"
textLength="2.8641" font-size="1.6933" lengthAdjust="spacingAndGlyphs"
text-anchor="start" opacity="0" stroke-opacity="0">SW</text>
<g class="stroked-text"><desc>SW</desc>
<path d="M56.2221 36.2568
L56.4035 36.3172
" />
<path d="M56.4035 36.3172
L56.7059 36.3172
" />
<path d="M56.7059 36.3172
L56.8268 36.2568
" />
<path d="M56.8268 36.2568
L56.8873 36.1963
" />
<path d="M56.8873 36.1963
L56.9478 36.0753
" />
<path d="M56.9478 36.0753
L56.9478 35.9544
" />
<path d="M56.9478 35.9544
L56.8873 35.8334
" />
<path d="M56.8873 35.8334
L56.8268 35.7729
" />
<path d="M56.8268 35.7729
L56.7059 35.7125
" />
<path d="M56.7059 35.7125
L56.4640 35.6520
" />
<path d="M56.4640 35.6520
L56.3430 35.5915
" />
<path d="M56.3430 35.5915
L56.2825 35.5310
" />
<path d="M56.2825 35.5310
L56.2221 35.4101
" />
<path d="M56.2221 35.4101
L56.2221 35.2891
" />
<path d="M56.2221 35.2891
L56.2825 35.1682
" />
<path d="M56.2825 35.1682
L56.3430 35.1077
" />
<path d="M56.3430 35.1077
L56.4640 35.0472
" />
<path d="M56.4640 35.0472
L56.7663 35.0472
" />
<path d="M56.7663 35.0472
L56.9478 35.1077
" />
<path d="M57.3711 35.0472
L57.6735 36.3172
" />
<path d="M57.6735 36.3172
L57.9154 35.4101
" />
<path d="M57.9154 35.4101
L58.1573 36.3172
" />
<path d="M58.1573 36.3172
L58.4597 35.0472
" />
</g><path d="M53.3400 44.4500
L53.3400 49.5300
" />
<path d="M38.1000 48.2600
L38.1000 52.0700
" />
<path d="M53.3400 36.8300
L66.0400 36.8300
" />
<path d="M53.3400 44.4500
L53.3400 36.8300
" />
<path d="M60.9600 49.5300
L60.9600 52.0700
" />
<path d="M35.5600 52.0700
L38.1000 52.0700
" />
<path d="M38.1000 34.2900
L38.1000 40.6400
" />
<path d="M35.5600 34.2900
L38.1000 34.2900
" />
<path d="M38.1000 34.2900
L53.3400 34.2900
" />
<path d="M38.1000 31.7500
L38.1000 34.2900
" />
<path d="M82.5500 48.2600
L82.5500 52.0700
" />
<path d="M82.5500 36.8300
L82.5500 40.6400
" />
<path d="M73.6600 36.8300
L82.5500 36.8300
" />
<path d="M45.1104 38.7604
L46.3296 39.9796
" />
<path d="M46.3296 38.7604
L45.1104 39.9796
" />
<text x="38.1000" y="27.3050"
textLength="5.2832" font-size="1.6933" lengthAdjust="spacingAndGlyphs"
text-anchor="middle" opacity="0" stroke-opacity="0">+12V</text>
<g class="stroked-text"><desc>+12V</desc>
<path d="M35.8623 26.7657
L36.8300 26.7657
" />
<path d="M36.3461 27.2495
L36.3461 26.2819
" />
<path d="M38.1000 27.2495
L37.3743 27.2495
" />
<path d="M37.7371 27.2495
L37.7371 25.9795
" />
<path d="M37.7371 25.9795
L37.6162 26.1610
" />
<path d="M37.6162 26.1610
L37.4952 26.2819
" />
<path d="M37.4952 26.2819
L37.3743 26.3424
" />
<path d="M38.5838 26.1005
L38.6442 26.0400
" />
<path d="M38.6442 26.0400
L38.7652 25.9795
" />
<path d="M38.7652 25.9795
L39.0676 25.9795
" />
<path d="M39.0676 25.9795
L39.1885 26.0400
" />
<path d="M39.1885 26.0400
L39.2490 26.1005
" />
<path d="M39.2490 26.1005
L39.3095 26.2214
" />
<path d="M39.3095 26.2214
L39.3095 26.3424
" />
<path d="M39.3095 26.3424
L39.2490 26.5238
" />
<path d="M39.2490 26.5238
L38.5233 27.2495
" />
<path d="M38.5233 27.2495
L39.3095 27.2495
" />
<path d="M39.6723 25.9795
L40.0956 27.2495
" />
<path d="M40.0956 27.2495
L40.5190 25.9795
" />
</g><path d="M38.1000 31.7500
L38.1000 31.7500
" />
<text x="35.5600" y="29.8450"
textLength="9.6375" font-size="1.6933" lengthAdjust="spacingAndGlyphs"
text-anchor="middle" opacity="0" stroke-opacity="0">PWR_FLAG</text>
<g class="stroked-text"><desc>PWR_FLAG</desc>
<path d="M31.1452 29.7895
L31.1452 28.5195
" />
<path d="M31.1452 28.5195
L31.6290 28.5195
" />
<path d="M31.6290 28.5195
L31.7500 28.5800
" />
<path d="M31.7500 28.5800
L31.8105 28.6405
" />
<path d="M31.8105 28.6405
L31.8709 28.7614
" />
<path d="M31.8709 28.7614
L31.8709 28.9429
" />
<path d="M31.8709 28.9429
L31.8105 29.0638
" />
<path d="M31.8105 29.0638
L31.7500 29.1243
" />
<path d="M31.7500 29.1243
L31.6290 29.1848
" />
<path d="M31.6290 29.1848
L31.1452 29.1848
" />
<path d="M32.2943 28.5195
L32.5967 29.7895
" />
<path d="M32.5967 29.7895
L32.8386 28.8824
" />
<path d="M32.8386 28.8824
L33.0805 29.7895
" />
<path d="M33.0805 29.7895
L33.3829 28.5195
" />
<path d="M34.5923 29.7895
L34.1690 29.1848
" />
<path d="M33.8666 29.7895
L33.8666 28.5195
" />
<path d="M33.8666 28.5195
L34.3504 28.5195
" />
<path d="M34.3504 28.5195
L34.4714 28.5800
" />
<path d="M34.4714 28.5800
L34.5319 28.6405
" />
<path d="M34.5319 28.6405
L34.5923 28.7614
" />
<path d="M34.5923 28.7614
L34.5923 28.9429
" />
<path d="M34.5923 28.9429
L34.5319 29.0638
" />
<path d="M34.5319 29.0638
L34.4714 29.1243
" />
<path d="M34.4714 29.1243
L34.3504 29.1848
" />
<path d="M34.3504 29.1848
L33.8666 29.1848
" />
<path d="M34.8343 29.9105
L35.8019 29.9105
" />
<path d="M36.5276 29.1243
L36.1042 29.1243
" />
<path d="M36.1042 29.7895
L36.1042 28.5195
" />
<path d="M36.1042 28.5195
L36.7090 28.5195
" />
<path d="M37.7976 29.7895
L37.1928 29.7895
" />
<path d="M37.1928 29.7895
L37.1928 28.5195
" />
<path d="M38.1605 29.4267
L38.7652 29.4267
" />
<path d="M38.0395 29.7895
L38.4628 28.5195
" />
<path d="M38.4628 28.5195
L38.8862 29.7895
" />
<path d="M39.9748 28.5800
L39.8538 28.5195
" />
<path d="M39.8538 28.5195
L39.6724 28.5195
" />
<path d="M39.6724 28.5195
L39.4910 28.5800
" />
<path d="M39.4910 28.5800
L39.3700 28.7010
" />
<path d="M39.3700 28.7010
L39.3095 28.8219
" />
<path d="M39.3095 28.8219
L39.2491 29.0638
" />
<path d="M39.2491 29.0638
L39.2491 29.2452
" />
<path d="M39.2491 29.2452
L39.3095 29.4871
" />
<path d="M39.3095 29.4871
L39.3700 29.6081
" />
<path d="M39.3700 29.6081
L39.4910 29.7291
" />
<path d="M39.4910 29.7291
L39.6724 29.7895
" />
<path d="M39.6724 29.7895
L39.7933 29.7895
" />
<path d="M39.7933 29.7895
L39.9748 29.7291
" />
<path d="M39.9748 29.7291
L40.0352 29.6686
" />
<path d="M40.0352 29.6686
L40.0352 29.2452
" />
<path d="M40.0352 29.2452
L39.7933 29.2452
" />
</g><path d="M35.5600 34.2900
L35.5600 34.2900
" />
<text x="35.5599" y="57.7849"
textLength="9.6375" font-size="1.6933" lengthAdjust="spacingAndGlyphs"
text-anchor="middle" opacity="0" stroke-opacity="0">PWR_FLAG</text>
<g class="stroked-text"><desc>PWR_FLAG</desc>
<path d="M31.1451 57.7294
L31.1451 56.4594
" />
<path d="M31.1451 56.4594
L31.6289 56.4594
" />
<path d="M31.6289 56.4594
L31.7499 56.5199
" />
<path d="M31.7499 56.5199
L31.8104 56.5804
" />
<path d="M31.8104 56.5804
L31.8708 56.7013
" />
<path d="M31.8708 56.7013
L31.8708 56.8828
" />
<path d="M31.8708 56.8828
L31.8104 57.0037
" />
<path d="M31.8104 57.0037
L31.7499 57.0642
" />
<path d="M31.7499 57.0642
L31.6289 57.1247
" />
<path d="M31.6289 57.1247
L31.1451 57.1247
" />
<path d="M32.2942 56.4594
L32.5966 57.7294
" />
<path d="M32.5966 57.7294
L32.8385 56.8223
" />
<path d="M32.8385 56.8223
L33.0804 57.7294
" />
<path d="M33.0804 57.7294
L33.3828 56.4594
" />
<path d="M34.5922 57.7294
L34.1689 57.1247
" />
<path d="M33.8665 57.7294
L33.8665 56.4594
" />
<path d="M33.8665 56.4594
L34.3503 56.4594
" />
<path d="M34.3503 56.4594
L34.4713 56.5199
" />
<path d="M34.4713 56.5199
L34.5318 56.5804
" />
<path d="M34.5318 56.5804
L34.5922 56.7013
" />
<path d="M34.5922 56.7013
L34.5922 56.8828
" />
<path d="M34.5922 56.8828
L34.5318 57.0037
" />
<path d="M34.5318 57.0037
L34.4713 57.0642
" />
<path d="M34.4713 57.0642
L34.3503 57.1247
" />
<path d="M34.3503 57.1247
L33.8665 57.1247
" />
<path d="M34.8342 57.8504
L35.8018 57.8504
" />
<path d="M36.5275 57.0642
L36.1041 57.0642
" />
<path d="M36.1041 57.7294
L36.1041 56.4594
" />
<path d="M36.1041 56.4594
L36.7089 56.4594
" />
<path d="M37.7975 57.7294
L37.1927 57.7294
" />
<path d="M37.1927 57.7294
L37.1927 56.4594
" />
<path d="M38.1604 57.3666
L38.7651 57.3666
" />
<path d="M38.0394 57.7294
L38.4627 56.4594
" />
<path d="M38.4627 56.4594
L38.8861 57.7294
" />
<path d="M39.9747 56.5199
L39.8537 56.4594
" />
<path d="M39.8537 56.4594
L39.6723 56.4594
" />
<path d="M39.6723 56.4594
L39.4909 56.5199
" />
<path d="M39.4909 56.5199
L39.3699 56.6409
" />
<path d="M39.3699 56.6409
L39.3094 56.7618
" />
<path d="M39.3094 56.7618
L39.2490 57.0037
" />
<path d="M39.2490 57.0037
L39.2490 57.1851
" />
<path d="M39.2490 57.1851
L39.3094 57.4270
" />
<path d="M39.3094 57.4270
L39.3699 57.5480
" />
<path d="M39.3699 57.5480
L39.4909 57.6690
" />
<path d="M39.4909 57.6690
L39.6723 57.7294
" />
<path d="M39.6723 57.7294
L39.7932 57.7294
" />
<path d="M39.7932 57.7294
L39.9747 57.6690
" />
<path d="M39.9747 57.6690
L40.0351 57.6085
" />
<path d="M40.0351 57.6085
L40.0351 57.1851
" />
<path d="M40.0351 57.1851
L39.7932 57.1851
" />
</g><path d="M35.5600 52.0700
L35.5600 52.0700
" />
<text x="38.1000" y="57.7850"
textLength="4.0737" font-size="1.6933" lengthAdjust="spacingAndGlyphs"
text-anchor="middle" opacity="0" stroke-opacity="0">GND</text>
<g class="stroked-text"><desc>GND</desc>
<path d="M37.1324 56.5200
L37.0114 56.4595
" />
<path d="M37.0114 56.4595
L36.8300 56.4595
" />
<path d="M36.8300 56.4595
L36.6486 56.5200
" />
<path d="M36.6486 56.5200
L36.5276 56.6410
" />
<path d="M36.5276 56.6410
L36.4671 56.7619
" />
<path d="M36.4671 56.7619
L36.4067 57.0038
" />
<path d="M36.4067 57.0038
L36.4067 57.1852
" />
<path d="M36.4067 57.1852
L36.4671 57.4271
" />
<path d="M36.4671 57.4271
L36.5276 57.5481
" />
<path d="M36.5276 57.5481
L36.6486 57.6691
" />
<path d="M36.6486 57.6691
L36.8300 57.7295
" />
<path d="M36.8300 57.7295
L36.9509 57.7295
" />
<path d="M36.9509 57.7295
L37.1324 57.6691
" />
<path d="M37.1324 57.6691
L37.1928 57.6086
" />
<path d="M37.1928 57.6086
L37.1928 57.1852
" />
<path d="M37.1928 57.1852
L36.9509 57.1852
" />
<path d="M37.7371 57.7295
L37.7371 56.4595
" />
<path d="M37.7371 56.4595
L38.4628 57.7295
" />
<path d="M38.4628 57.7295
L38.4628 56.4595
" />
<path d="M39.0676 57.7295
L39.0676 56.4595
" />
<path d="M39.0676 56.4595
L39.3700 56.4595
" />
<path d="M39.3700 56.4595
L39.5514 56.5200
" />
<path d="M39.5514 56.5200
L39.6724 56.6410
" />
<path d="M39.6724 56.6410
L39.7329 56.7619
" />
<path d="M39.7329 56.7619
L39.7933 57.0038
" />
<path d="M39.7933 57.0038
L39.7933 57.1852
" />
<path d="M39.7933 57.1852
L39.7329 57.4271
" />
<path d="M39.7329 57.4271
L39.6724 57.5481
" />
<path d="M39.6724 57.5481
L39.5514 57.6691
" />
<path d="M39.5514 57.6691
L39.3700 57.7295
" />
<path d="M39.3700 57.7295
L39.0676 57.7295
" />
</g><path d="M38.1000 52.0700
L38.1000 52.0700
" />
<text x="58.5009" y="52.7050"
textLength="2.6827" font-size="1.6933" lengthAdjust="spacingAndGlyphs"
text-anchor="middle" opacity="0" stroke-opacity="0">D1</text>
<g class="stroked-text"><desc>D1</desc>
<path d="M57.5635 52.6495
L57.5635 51.3795
" />
<path d="M57.5635 51.3795
L57.8659 51.3795
" />
<path d="M57.8659 51.3795
L58.0473 51.4400
" />
<path d="M58.0473 51.4400
L58.1683 51.5610
" />
<path d="M58.1683 51.5610
L58.2288 51.6819
" />
<path d="M58.2288 51.6819
L58.2892 51.9238
" />
<path d="M58.2892 51.9238
L58.2892 52.1052
" />
<path d="M58.2892 52.1052
L58.2288 52.3471
" />
<path d="M58.2288 52.3471
L58.1683 52.4681
" />
<path d="M58.1683 52.4681
L58.0473 52.5891
" />
<path d="M58.0473 52.5891
L57.8659 52.6495
" />
<path d="M57.8659 52.6495
L57.5635 52.6495
" />
<path d="M59.4988 52.6495
L58.7731 52.6495
" />
<path d="M59.1359 52.6495
L59.1359 51.3795
" />
<path d="M59.1359 51.3795
L59.0150 51.5610
" />
<path d="M59.0150 51.5610
L58.8940 51.6819
" />
<path d="M58.8940 51.6819
L58.7731 51.7424
" />
</g><text x="59.6802" y="47.6250"
textLength="5.0412" font-size="1.6933" lengthAdjust="spacingAndGlyphs"
text-anchor="middle" opacity="0" stroke-opacity="0">SS14</text>
<g class="stroked-text"><desc>SS14</desc>
<path d="M57.5031 47.5091
L57.6845 47.5695
" />
<path d="M57.6845 47.5695
L57.9869 47.5695
" />
<path d="M57.9869 47.5695
L58.1078 47.5091
" />
<path d="M58.1078 47.5091
L58.1683 47.4486
" />
<path d="M58.1683 47.4486
L58.2288 47.3276
" />
<path d="M58.2288 47.3276
L58.2288 47.2067
" />
<path d="M58.2288 47.2067
L58.1683 47.0857
" />
<path d="M58.1683 47.0857
L58.1078 47.0252
" />
<path d="M58.1078 47.0252
L57.9869 46.9648
" />
<path d="M57.9869 46.9648
L57.7450 46.9043
" />
<path d="M57.7450 46.9043
L57.6240 46.8438
" />
<path d="M57.6240 46.8438
L57.5635 46.7833
" />
<path d="M57.5635 46.7833
L57.5031 46.6624
" />
<path d="M57.5031 46.6624
L57.5031 46.5414
" />
<path d="M57.5031 46.5414
L57.5635 46.4205
" />
<path d="M57.5635 46.4205
L57.6240 46.3600
" />
<path d="M57.6240 46.3600
L57.7450 46.2995
" />
<path d="M57.7450 46.2995
L58.0473 46.2995
" />
<path d="M58.0473 46.2995
L58.2288 46.3600
" />
<path d="M58.7126 47.5091
L58.8940 47.5695
" />
<path d="M58.8940 47.5695
L59.1964 47.5695
" />
<path d="M59.1964 47.5695
L59.3173 47.5091
" />
<path d="M59.3173 47.5091
L59.3778 47.4486
" />
<path d="M59.3778 47.4486
L59.4383 47.3276
" />
<path d="M59.4383 47.3276
L59.4383 47.2067
" />
<path d="M59.4383 47.2067
L59.3778 47.0857
" />
<path d="M59.3778 47.0857
L59.3173 47.0252
" />
<path d="M59.3173 47.0252
L59.1964 46.9648
" />
<path d="M59.1964 46.9648
L58.9545 46.9043
" />
<path d="M58.9545 46.9043
L58.8335 46.8438
" />
<path d="M58.8335 46.8438
L58.7730 46.7833
" />
<path d="M58.7730 46.7833
L58.7126 46.6624
" />
<path d="M58.7126 46.6624
L58.7126 46.5414
" />
<path d="M58.7126 46.5414
L58.7730 46.4205
" />
<path d="M58.7730 46.4205
L58.8335 46.3600
" />
<path d="M58.8335 46.3600
L58.9545 46.2995
" />
<path d="M58.9545 46.2995
L59.2568 46.2995
" />
<path d="M59.2568 46.2995
L59.4383 46.3600
" />
<path d="M60.6478 47.5695
L59.9221 47.5695
" />
<path d="M60.2849 47.5695
L60.2849 46.2995
" />
<path d="M60.2849 46.2995
L60.1640 46.4810
" />
<path d="M60.1640 46.4810
L60.0430 46.6019
" />
<path d="M60.0430 46.6019
L59.9221 46.6624
" />
<path d="M61.7363 46.7229
L61.7363 47.5695
" />
<path d="M61.4339 46.2391
L61.1316 47.1462
" />
<path d="M61.1316 47.1462
L61.9177 47.1462
" />
</g><path d="M55.8800 49.5300
L53.3400 49.5300
" />
<path d="M58.4200 49.5300
L60.9600 49.5300
" />
<text x="60.9600" y="57.7850"
textLength="4.0737" font-size="1.6933" lengthAdjust="spacingAndGlyphs"
text-anchor="middle" opacity="0" stroke-opacity="0">GND</text>
<g class="stroked-text"><desc>GND</desc>
<path d="M59.9924 56.5200
L59.8714 56.4595
" />
<path d="M59.8714 56.4595
L59.6900 56.4595
" />
<path d="M59.6900 56.4595
L59.5086 56.5200
" />
<path d="M59.5086 56.5200
L59.3876 56.6410
" />
<path d="M59.3876 56.6410
L59.3271 56.7619
" />
<path d="M59.3271 56.7619
L59.2667 57.0038
" />
<path d="M59.2667 57.0038
L59.2667 57.1852
" />
<path d="M59.2667 57.1852
L59.3271 57.4271
" />
<path d="M59.3271 57.4271
L59.3876 57.5481
" />
<path d="M59.3876 57.5481
L59.5086 57.6691
" />
<path d="M59.5086 57.6691
L59.6900 57.7295
" />
<path d="M59.6900 57.7295
L59.8109 57.7295
" />
<path d="M59.8109 57.7295
L59.9924 57.6691
" />
<path d="M59.9924 57.6691
L60.0528 57.6086
" />
<path d="M60.0528 57.6086
L60.0528 57.1852
" />
<path d="M60.0528 57.1852
L59.8109 57.1852
" />
<path d="M60.5971 57.7295
L60.5971 56.4595
" />
<path d="M60.5971 56.4595
L61.3228 57.7295
" />
<path d="M61.3228 57.7295
L61.3228 56.4595
" />
<path d="M61.9276 57.7295
L61.9276 56.4595
" />
<path d="M61.9276 56.4595
L62.2300 56.4595
" />
<path d="M62.2300 56.4595
L62.4114 56.5200
" />
<path d="M62.4114 56.5200
L62.5324 56.6410
" />
<path d="M62.5324 56.6410
L62.5929 56.7619
" />
<path d="M62.5929 56.7619
L62.6533 57.0038
" />
<path d="M62.6533 57.0038
L62.6533 57.1852
" />
<path d="M62.6533 57.1852
L62.5929 57.4271
" />
<path d="M62.5929 57.4271
L62.5324 57.5481
" />
<path d="M62.5324 57.5481
L62.4114 57.6691
" />
<path d="M62.4114 57.6691
L62.2300 57.7295
" />
<path d="M62.2300 57.7295
L61.9276 57.7295
" />
</g><path d="M60.9600 52.0700
L60.9600 52.0700
" />
</g>
<g style="fill:#000000; fill-opacity:1.0000; 
stroke:#000000; stroke-width:0.1524; stroke-opacity:1; 
stroke-linecap:round; stroke-linejoin:round;">
<circle cx="82.5500" cy="36.8300" r="0.4572" /> 
<circle cx="38.1000" cy="34.2900" r="0.4572" /> 
<circle cx="53.3400" cy="44.4500" r="0.4572" /> 
</g> 
</svg>
