<?xml version="1.0" standalone="no"?>
 <!DOCTYPE svg PUBLIC "-//W3C//DTD SVG 1.1//EN" 
 "http://www.w3.org/Graphics/SVG/1.1/DTD/svg11.dtd"> 
<svg
  xmlns:svg="http://www.w3.org/2000/svg"
  xmlns="http://www.w3.org/2000/svg"
  xmlns:xlink="http://www.w3.org/1999/xlink"
  version="1.1"
  width="297.0022mm" height="210.0072mm" viewBox="0.0000 0.0000 297.0022 210.0072">
<title>SVG Image created as rc_charging.svg date 2026/03/07 17:50:39 </title>
  <desc>Image generated by Eeschema-SVG </desc>
<g style="fill:#000000; fill-opacity:1.0000;stroke:#000000; stroke-opacity:1.0000;
stroke-linecap:round; stroke-linejoin:round;"
 transform="translate(0 0) scale(1 1)">
<path style="fill:none; 
stroke:#141414; stroke-width:0.5080; stroke-opacity:1; 
stroke-linecap:round; stroke-linejoin:round;fill:none"
d="M 150.3680,67.8180
154.4320,67.8180
" /> 
<path style="fill:none; 
stroke:#141414; stroke-width:0.5080; stroke-opacity:1; 
stroke-linecap:round; stroke-linejoin:round;fill:none"
d="M 150.3680,69.3420
154.4320,69.3420
" /> 
</g>
<g style="fill:none; 
stroke:#8C8C8C; stroke-width:0.1524; stroke-opacity:1; 
stroke-linecap:round; stroke-linejoin:round;">
<path d="M152.4000 67.5640
L152.4000 64.7700
" />
<path d="M152.4000 69.5960
L152.4000 72.3900
" />
</g>
<g style="fill:none; 
stroke:#282828; stroke-width:0.1524; stroke-opacity:1; 
stroke-linecap:round; stroke-linejoin:round;">
<text x="157.5609" y="67.5850"
textLength="2.6827" font-size="1.6933" lengthAdjust="spacingAndGlyphs"
text-anchor="middle" opacity="0" stroke-opacity="0">C1</text>
<g class="stroked-text"><desc>C1</desc>
<path d="M157.3492 67.4086
L157.2888 67.4691
" />
<path d="M157.2888 67.4691
L157.1073 67.5295
" />
<path d="M157.1073 67.5295
L156.9864 67.5295
" />
<path d="M156.9864 67.5295
L156.8050 67.4691
" />
<path d="M156.8050 67.4691
L156.6840 67.3481
" />
<path d="M156.6840 67.3481
L156.6235 67.2271
" />
<path d="M156.6235 67.2271
L156.5631 66.9852
" />
<path d="M156.5631 66.9852
L156.5631 66.8038
" />
<path d="M156.5631 66.8038
L156.6235 66.5619
" />
<path d="M156.6235 66.5619
L156.6840 66.4410
" />
<path d="M156.6840 66.4410
L156.8050 66.3200
" />
<path d="M156.8050 66.3200
L156.9864 66.2595
" />
<path d="M156.9864 66.2595
L157.1073 66.2595
" />
<path d="M157.1073 66.2595
L157.2888 66.3200
" />
<path d="M157.2888 66.3200
L157.3492 66.3805
" />
<path d="M158.5588 67.5295
L157.8331 67.5295
" />
<path d="M158.1959 67.5295
L158.1959 66.2595
" />
<path d="M158.1959 66.2595
L158.0750 66.4410
" />
<path d="M158.0750 66.4410
L157.9540 66.5619
" />
<path d="M157.9540 66.5619
L157.8331 66.6224
" />
</g></g>
<g style="fill:none; 
stroke:#505050; stroke-width:0.1524; stroke-opacity:1; 
stroke-linecap:round; stroke-linejoin:round;">
<text x="158.1052" y="69.9050"
textLength="3.7712" font-size="1.6933" lengthAdjust="spacingAndGlyphs"
text-anchor="middle" opacity="0" stroke-opacity="0">10u</text>
<g class="stroked-text"><desc>10u</desc>
<path d="M157.2888 69.8495
L156.5631 69.8495
" />
<path d="M156.9259 69.8495
L156.9259 68.5795
" />
<path d="M156.9259 68.5795
L156.8050 68.7610
" />
<path d="M156.8050 68.7610
L156.6840 68.8819
" />
<path d="M156.6840 68.8819
L156.5631 68.9424
" />
<path d="M158.0749 68.5795
L158.1959 68.5795
" />
<path d="M158.1959 68.5795
L158.3168 68.6400
" />
<path d="M158.3168 68.6400
L158.3773 68.7005
" />
<path d="M158.3773 68.7005
L158.4378 68.8214
" />
<path d="M158.4378 68.8214
L158.4983 69.0633
" />
<path d="M158.4983 69.0633
L158.4983 69.3657
" />
<path d="M158.4983 69.3657
L158.4378 69.6076
" />
<path d="M158.4378 69.6076
L158.3773 69.7286
" />
<path d="M158.3773 69.7286
L158.3168 69.7891
" />
<path d="M158.3168 69.7891
L158.1959 69.8495
" />
<path d="M158.1959 69.8495
L158.0749 69.8495
" />
<path d="M158.0749 69.8495
L157.9540 69.7891
" />
<path d="M157.9540 69.7891
L157.8935 69.7286
" />
<path d="M157.8935 69.7286
L157.8330 69.6076
" />
<path d="M157.8330 69.6076
L157.7726 69.3657
" />
<path d="M157.7726 69.3657
L157.7726 69.0633
" />
<path d="M157.7726 69.0633
L157.8330 68.8214
" />
<path d="M157.8330 68.8214
L157.8935 68.7005
" />
<path d="M157.8935 68.7005
L157.9540 68.6400
" />
<path d="M157.9540 68.6400
L158.0749 68.5795
" />
<path d="M159.5868 69.0029
L159.5868 69.8495
" />
<path d="M159.0425 69.0029
L159.0425 69.6681
" />
<path d="M159.0425 69.6681
L159.1030 69.7891
" />
<path d="M159.1030 69.7891
L159.2240 69.8495
" />
<path d="M159.2240 69.8495
L159.4054 69.8495
" />
<path d="M159.4054 69.8495
L159.5263 69.7891
" />
<path d="M159.5263 69.7891
L159.5868 69.7286
" />
</g></g>
<g style="fill:none; 
stroke:#141414; stroke-width:0.2540; stroke-opacity:1; 
stroke-linecap:round; stroke-linejoin:round;">
<rect x="138.430000" y="62.484000" width="5.080000" height="2.032000" rx="0.000000" />
</g>
<g style="fill:none; 
stroke:#8C8C8C; stroke-width:0.1524; stroke-opacity:1; 
stroke-linecap:round; stroke-linejoin:round;">
<path d="M138.4300 63.5000
L137.1600 63.5000
" />
<path d="M143.5100 63.5000
L144.7800 63.5000
" />
</g>
<g style="fill:none; 
stroke:#282828; stroke-width:0.1524; stroke-opacity:1; 
stroke-linecap:round; stroke-linejoin:round;">
<text x="140.9699" y="60.3249"
textLength="2.6827" font-size="1.6933" lengthAdjust="spacingAndGlyphs"
text-anchor="middle" opacity="0" stroke-opacity="0">R1</text>
<g class="stroked-text"><desc>R1</desc>
<path d="M140.7582 60.2694
L140.3349 59.6647
" />
<path d="M140.0325 60.2694
L140.0325 58.9994
" />
<path d="M140.0325 58.9994
L140.5163 58.9994
" />
<path d="M140.5163 58.9994
L140.6373 59.0599
" />
<path d="M140.6373 59.0599
L140.6978 59.1204
" />
<path d="M140.6978 59.1204
L140.7582 59.2413
" />
<path d="M140.7582 59.2413
L140.7582 59.4228
" />
<path d="M140.7582 59.4228
L140.6978 59.5437
" />
<path d="M140.6978 59.5437
L140.6373 59.6042
" />
<path d="M140.6373 59.6042
L140.5163 59.6647
" />
<path d="M140.5163 59.6647
L140.0325 59.6647
" />
<path d="M141.9678 60.2694
L141.2421 60.2694
" />
<path d="M141.6049 60.2694
L141.6049 58.9994
" />
<path d="M141.6049 58.9994
L141.4840 59.1809
" />
<path d="M141.4840 59.1809
L141.3630 59.3018
" />
<path d="M141.3630 59.3018
L141.2421 59.3623
" />
</g></g>
<g style="fill:none; 
stroke:#505050; stroke-width:0.1524; stroke-opacity:1; 
stroke-linecap:round; stroke-linejoin:round;">
<text x="140.9700" y="62.3849"
textLength="2.4408" font-size="1.6933" lengthAdjust="spacingAndGlyphs"
text-anchor="middle" opacity="0" stroke-opacity="0">1k</text>
<g class="stroked-text"><desc>1k</desc>
<path d="M140.8188 62.3294
L140.0931 62.3294
" />
<path d="M140.4559 62.3294
L140.4559 61.0594
" />
<path d="M140.4559 61.0594
L140.3350 61.2409
" />
<path d="M140.3350 61.2409
L140.2140 61.3618
" />
<path d="M140.2140 61.3618
L140.0931 61.4223
" />
<path d="M141.3630 62.3294
L141.3630 61.0594
" />
<path d="M141.4840 61.8456
L141.8468 62.3294
" />
<path d="M141.8468 61.4828
L141.3630 61.9666
" />
</g></g>
<g style="fill:#F5F5F5; fill-opacity:1.0000; stroke:none;">
<circle cx="127.0000" cy="68.5800" r="2.5400" /> 
<path style="fill:none; 
stroke:#141414; stroke-width:0.1524; stroke-opacity:1; 
stroke-linecap:round; stroke-linejoin:round;fill:none"
d="M 125.7300,68.3260
128.2700,68.3260
" /> 
<path style="fill:none; 
stroke:#141414; stroke-width:0.1524; stroke-opacity:1; 
stroke-linecap:round; stroke-linejoin:round;fill:none"
d="M 126.2380,68.8340
125.7300,68.8340
" /> 
<path style="fill:none; 
stroke:#141414; stroke-width:0.1524; stroke-opacity:1; 
stroke-linecap:round; stroke-linejoin:round;fill:none"
d="M 127.2540,68.8340
126.7460,68.8340
" /> 
<path style="fill:none; 
stroke:#141414; stroke-width:0.1524; stroke-opacity:1; 
stroke-linecap:round; stroke-linejoin:round;fill:none"
d="M 128.2700,68.8340
127.7620,68.8340
" /> 
</g>
<g style="fill:none; 
stroke:#141414; stroke-width:0.2540; stroke-opacity:1; 
stroke-linecap:round; stroke-linejoin:round;">
<circle cx="127.0000" cy="68.5800" r="2.5400" /> 
</g>
<g style="fill:none; 
stroke:#141414; stroke-width:0.1524; stroke-opacity:1; 
stroke-linecap:round; stroke-linejoin:round;">
<text x="127.0000" y="67.3100"
textLength="1.7756" font-size="1.6933" lengthAdjust="spacingAndGlyphs"
text-anchor="middle" opacity="0" stroke-opacity="0">+</text>
<g class="stroked-text"><desc>+</desc>
<path d="M126.5161 66.7707
L127.4838 66.7707
" />
<path d="M126.9999 67.2545
L126.9999 66.2869
" />
</g></g>
<g style="fill:none; 
stroke:#8C8C8C; stroke-width:0.1524; stroke-opacity:1; 
stroke-linecap:round; stroke-linejoin:round;">
<path d="M127.0000 66.0400
L127.0000 63.5000
" />
<path d="M127.0000 71.1200
L127.0000 73.6600
" />
</g>
<g style="fill:none; 
stroke:#282828; stroke-width:0.1524; stroke-opacity:1; 
stroke-linecap:round; stroke-linejoin:round;">
<text x="124.4502" y="66.6750"
textLength="2.5013" font-size="1.6933" lengthAdjust="spacingAndGlyphs"
text-anchor="middle" opacity="0" stroke-opacity="0">V1</text>
<g class="stroked-text"><desc>V1</desc>
<path d="M123.4221 65.3495
L123.8454 66.6195
" />
<path d="M123.8454 66.6195
L124.2688 65.3495
" />
<path d="M125.3574 66.6195
L124.6317 66.6195
" />
<path d="M124.9945 66.6195
L124.9945 65.3495
" />
<path d="M124.9945 65.3495
L124.8736 65.5310
" />
<path d="M124.8736 65.5310
L124.7526 65.6519
" />
<path d="M124.7526 65.6519
L124.6317 65.7124
" />
</g></g>
<g style="fill:none; 
stroke:#505050; stroke-width:0.1524; stroke-opacity:1; 
stroke-linecap:round; stroke-linejoin:round;">
<text x="123.9059" y="68.9850"
textLength="1.4127" font-size="1.6933" lengthAdjust="spacingAndGlyphs"
text-anchor="middle" opacity="0" stroke-opacity="0">5</text>
<g class="stroked-text"><desc>5</desc>
<path d="M124.2083 67.6595
L123.6035 67.6595
" />
<path d="M123.6035 67.6595
L123.5431 68.2643
" />
<path d="M123.5431 68.2643
L123.6035 68.2038
" />
<path d="M123.6035 68.2038
L123.7245 68.1433
" />
<path d="M123.7245 68.1433
L124.0269 68.1433
" />
<path d="M124.0269 68.1433
L124.1478 68.2038
" />
<path d="M124.1478 68.2038
L124.2083 68.2643
" />
<path d="M124.2083 68.2643
L124.2688 68.3852
" />
<path d="M124.2688 68.3852
L124.2688 68.6876
" />
<path d="M124.2688 68.6876
L124.2083 68.8086
" />
<path d="M124.2083 68.8086
L124.1478 68.8691
" />
<path d="M124.1478 68.8691
L124.0269 68.9295
" />
<path d="M124.0269 68.9295
L123.7245 68.9295
" />
<path d="M123.7245 68.9295
L123.6035 68.8691
" />
<path d="M123.6035 68.8691
L123.5431 68.8086
" />
</g><path style="fill:none; 
stroke:#141414; stroke-width:0.1524; stroke-opacity:1; 
stroke-linecap:round; stroke-linejoin:round;fill:none"
d="M 138.4300,76.2000
139.7000,77.4700
140.9700,76.2000
Z" /> 
</g>
<g style="fill:none; 
stroke:#8C8C8C; stroke-width:0.1524; stroke-opacity:1; 
stroke-linecap:round; stroke-linejoin:round;">
<path d="M139.7000 76.2000
L139.7000 76.2000
" />
</g>
<g style="fill:none; 
stroke:#505050; stroke-width:0.1524; stroke-opacity:1; 
stroke-linecap:round; stroke-linejoin:round;">
<text x="139.7000" y="79.3750"
textLength="1.4127" font-size="1.6933" lengthAdjust="spacingAndGlyphs"
text-anchor="middle" opacity="0" stroke-opacity="0">0</text>
<g class="stroked-text"><desc>0</desc>
<path d="M139.6395 78.0495
L139.7605 78.0495
" />
<path d="M139.7605 78.0495
L139.8814 78.1100
" />
<path d="M139.8814 78.1100
L139.9419 78.1705
" />
<path d="M139.9419 78.1705
L140.0024 78.2914
" />
<path d="M140.0024 78.2914
L140.0629 78.5333
" />
<path d="M140.0629 78.5333
L140.0629 78.8357
" />
<path d="M140.0629 78.8357
L140.0024 79.0776
" />
<path d="M140.0024 79.0776
L139.9419 79.1986
" />
<path d="M139.9419 79.1986
L139.8814 79.2591
" />
<path d="M139.8814 79.2591
L139.7605 79.3195
" />
<path d="M139.7605 79.3195
L139.6395 79.3195
" />
<path d="M139.6395 79.3195
L139.5186 79.2591
" />
<path d="M139.5186 79.2591
L139.4581 79.1986
" />
<path d="M139.4581 79.1986
L139.3976 79.0776
" />
<path d="M139.3976 79.0776
L139.3372 78.8357
" />
<path d="M139.3372 78.8357
L139.3372 78.5333
" />
<path d="M139.3372 78.5333
L139.3976 78.2914
" />
<path d="M139.3976 78.2914
L139.4581 78.1705
" />
<path d="M139.4581 78.1705
L139.5186 78.1100
" />
<path d="M139.5186 78.1100
L139.6395 78.0495
" />
</g><path style="fill:none; 
stroke:#141414; stroke-width:0.1524; stroke-opacity:1; 
stroke-linecap:round; stroke-linejoin:round;fill:none"
d="M 134.6200,76.2000
134.6200,77.4700
135.6360,78.1050
134.6200,78.7400
133.6040,78.1050
134.6200,77.4700
" /> 
</g>
<g style="fill:none; 
stroke:#8C8C8C; stroke-width:0.1524; stroke-opacity:1; 
stroke-linecap:round; stroke-linejoin:round;">
<path d="M134.6200 76.2000
L134.6200 76.2000
" />
</g>
<g style="fill:none; 
stroke:#505050; stroke-width:0.1524; stroke-opacity:1; 
stroke-linecap:round; stroke-linejoin:round;">
<text x="134.6199" y="81.2543"
textLength="9.6375" font-size="1.6933" lengthAdjust="spacingAndGlyphs"
text-anchor="middle" opacity="0" stroke-opacity="0">PWR_FLAG</text>
<g class="stroked-text"><desc>PWR_FLAG</desc>
<path d="M130.2051 81.1988
L130.2051 79.9288
" />
<path d="M130.2051 79.9288
L130.6889 79.9288
" />
<path d="M130.6889 79.9288
L130.8099 79.9893
" />
<path d="M130.8099 79.9893
L130.8704 80.0498
" />
<path d="M130.8704 80.0498
L130.9308 80.1707
" />
<path d="M130.9308 80.1707
L130.9308 80.3522
" />
<path d="M130.9308 80.3522
L130.8704 80.4731
" />
<path d="M130.8704 80.4731
L130.8099 80.5336
" />
<path d="M130.8099 80.5336
L130.6889 80.5941
" />
<path d="M130.6889 80.5941
L130.2051 80.5941
" />
<path d="M131.3542 79.9288
L131.6566 81.1988
" />
<path d="M131.6566 81.1988
L131.8985 80.2917
" />
<path d="M131.8985 80.2917
L132.1404 81.1988
" />
<path d="M132.1404 81.1988
L132.4428 79.9288
" />
<path d="M133.6522 81.1988
L133.2289 80.5941
" />
<path d="M132.9265 81.1988
L132.9265 79.9288
" />
<path d="M132.9265 79.9288
L133.4103 79.9288
" />
<path d="M133.4103 79.9288
L133.5313 79.9893
" />
<path d="M133.5313 79.9893
L133.5918 80.0498
" />
<path d="M133.5918 80.0498
L133.6522 80.1707
" />
<path d="M133.6522 80.1707
L133.6522 80.3522
" />
<path d="M133.6522 80.3522
L133.5918 80.4731
" />
<path d="M133.5918 80.4731
L133.5313 80.5336
" />
<path d="M133.5313 80.5336
L133.4103 80.5941
" />
<path d="M133.4103 80.5941
L132.9265 80.5941
" />
<path d="M133.8942 81.3198
L134.8618 81.3198
" />
<path d="M135.5875 80.5336
L135.1641 80.5336
" />
<path d="M135.1641 81.1988
L135.1641 79.9288
" />
<path d="M135.1641 79.9288
L135.7689 79.9288
" />
<path d="M136.8575 81.1988
L136.2527 81.1988
" />
<path d="M136.2527 81.1988
L136.2527 79.9288
" />
<path d="M137.2204 80.8360
L137.8251 80.8360
" />
<path d="M137.0994 81.1988
L137.5227 79.9288
" />
<path d="M137.5227 79.9288
L137.9461 81.1988
" />
<path d="M139.0347 79.9893
L138.9137 79.9288
" />
<path d="M138.9137 79.9288
L138.7323 79.9288
" />
<path d="M138.7323 79.9288
L138.5509 79.9893
" />
<path d="M138.5509 79.9893
L138.4299 80.1103
" />
<path d="M138.4299 80.1103
L138.3694 80.2312
" />
<path d="M138.3694 80.2312
L138.3090 80.4731
" />
<path d="M138.3090 80.4731
L138.3090 80.6545
" />
<path d="M138.3090 80.6545
L138.3694 80.8964
" />
<path d="M138.3694 80.8964
L138.4299 81.0174
" />
<path d="M138.4299 81.0174
L138.5509 81.1384
" />
<path d="M138.5509 81.1384
L138.7323 81.1988
" />
<path d="M138.7323 81.1988
L138.8532 81.1988
" />
<path d="M138.8532 81.1988
L139.0347 81.1384
" />
<path d="M139.0347 81.1384
L139.0951 81.0779
" />
<path d="M139.0951 81.0779
L139.0951 80.6545
" />
<path d="M139.0951 80.6545
L138.8532 80.6545
" />
</g></g>
<g style="fill:none; 
stroke:#3C3C3C; stroke-width:0.1524; stroke-opacity:1; 
stroke-linecap:round; stroke-linejoin:round;">
<text x="147.3200" y="63.1507"
textLength="6.2506" font-size="1.6933" lengthAdjust="spacingAndGlyphs"
text-anchor="start" opacity="0" stroke-opacity="0">output</text>
<g class="stroked-text"><desc>output</desc>
<path d="M147.9040 62.9872
L147.7830 62.9268
" />
<path d="M147.7830 62.9268
L147.7225 62.8663
" />
<path d="M147.7225 62.8663
L147.6621 62.7453
" />
<path d="M147.6621 62.7453
L147.6621 62.3825
" />
<path d="M147.6621 62.3825
L147.7225 62.2615
" />
<path d="M147.7225 62.2615
L147.7830 62.2010
" />
<path d="M147.7830 62.2010
L147.9040 62.1406
" />
<path d="M147.9040 62.1406
L148.0854 62.1406
" />
<path d="M148.0854 62.1406
L148.2063 62.2010
" />
<path d="M148.2063 62.2010
L148.2668 62.2615
" />
<path d="M148.2668 62.2615
L148.3273 62.3825
" />
<path d="M148.3273 62.3825
L148.3273 62.7453
" />
<path d="M148.3273 62.7453
L148.2668 62.8663
" />
<path d="M148.2668 62.8663
L148.2063 62.9268
" />
<path d="M148.2063 62.9268
L148.0854 62.9872
" />
<path d="M148.0854 62.9872
L147.9040 62.9872
" />
<path d="M149.4158 62.1406
L149.4158 62.9872
" />
<path d="M148.8715 62.1406
L148.8715 62.8058
" />
<path d="M148.8715 62.8058
L148.9320 62.9268
" />
<path d="M148.9320 62.9268
L149.0530 62.9872
" />
<path d="M149.0530 62.9872
L149.2344 62.9872
" />
<path d="M149.2344 62.9872
L149.3553 62.9268
" />
<path d="M149.3553 62.9268
L149.4158 62.8663
" />
<path d="M149.8391 62.1406
L150.3229 62.1406
" />
<path d="M150.0205 61.7172
L150.0205 62.8058
" />
<path d="M150.0205 62.8058
L150.0810 62.9268
" />
<path d="M150.0810 62.9268
L150.2020 62.9872
" />
<path d="M150.2020 62.9872
L150.3229 62.9872
" />
<path d="M150.7462 62.1406
L150.7462 63.4106
" />
<path d="M150.7462 62.2010
L150.8672 62.1406
" />
<path d="M150.8672 62.1406
L151.1091 62.1406
" />
<path d="M151.1091 62.1406
L151.2300 62.2010
" />
<path d="M151.2300 62.2010
L151.2905 62.2615
" />
<path d="M151.2905 62.2615
L151.3510 62.3825
" />
<path d="M151.3510 62.3825
L151.3510 62.7453
" />
<path d="M151.3510 62.7453
L151.2905 62.8663
" />
<path d="M151.2905 62.8663
L151.2300 62.9268
" />
<path d="M151.2300 62.9268
L151.1091 62.9872
" />
<path d="M151.1091 62.9872
L150.8672 62.9872
" />
<path d="M150.8672 62.9872
L150.7462 62.9268
" />
<path d="M152.4395 62.1406
L152.4395 62.9872
" />
<path d="M151.8952 62.1406
L151.8952 62.8058
" />
<path d="M151.8952 62.8058
L151.9557 62.9268
" />
<path d="M151.9557 62.9268
L152.0767 62.9872
" />
<path d="M152.0767 62.9872
L152.2581 62.9872
" />
<path d="M152.2581 62.9872
L152.3790 62.9268
" />
<path d="M152.3790 62.9268
L152.4395 62.8663
" />
<path d="M152.8628 62.1406
L153.3466 62.1406
" />
<path d="M153.0442 61.7172
L153.0442 62.8058
" />
<path d="M153.0442 62.8058
L153.1047 62.9268
" />
<path d="M153.1047 62.9268
L153.2257 62.9872
" />
<path d="M153.2257 62.9872
L153.3466 62.9872
" />
</g></g>
<g style="fill:none; 
stroke:#3C3C3C; stroke-width:0.1524; stroke-opacity:1; 
stroke-linecap:round; stroke-linejoin:round;">
<text x="130.8100" y="63.1507"
textLength="4.9807" font-size="1.6933" lengthAdjust="spacingAndGlyphs"
text-anchor="start" opacity="0" stroke-opacity="0">input</text>
<g class="stroked-text"><desc>input</desc>
<path d="M131.2125 62.9872
L131.2125 62.1406
" />
<path d="M131.2125 61.7172
L131.1521 61.7777
" />
<path d="M131.1521 61.7777
L131.2125 61.8382
" />
<path d="M131.2125 61.8382
L131.2730 61.7777
" />
<path d="M131.2730 61.7777
L131.2125 61.7172
" />
<path d="M131.2125 61.7172
L131.2125 61.8382
" />
<path d="M131.8173 62.1406
L131.8173 62.9872
" />
<path d="M131.8173 62.2615
L131.8778 62.2010
" />
<path d="M131.8778 62.2010
L131.9988 62.1406
" />
<path d="M131.9988 62.1406
L132.1802 62.1406
" />
<path d="M132.1802 62.1406
L132.3011 62.2010
" />
<path d="M132.3011 62.2010
L132.3616 62.3220
" />
<path d="M132.3616 62.3220
L132.3616 62.9872
" />
<path d="M132.9663 62.1406
L132.9663 63.4106
" />
<path d="M132.9663 62.2010
L133.0873 62.1406
" />
<path d="M133.0873 62.1406
L133.3292 62.1406
" />
<path d="M133.3292 62.1406
L133.4501 62.2010
" />
<path d="M133.4501 62.2010
L133.5106 62.2615
" />
<path d="M133.5106 62.2615
L133.5711 62.3825
" />
<path d="M133.5711 62.3825
L133.5711 62.7453
" />
<path d="M133.5711 62.7453
L133.5106 62.8663
" />
<path d="M133.5106 62.8663
L133.4501 62.9268
" />
<path d="M133.4501 62.9268
L133.3292 62.9872
" />
<path d="M133.3292 62.9872
L133.0873 62.9872
" />
<path d="M133.0873 62.9872
L132.9663 62.9268
" />
<path d="M134.6596 62.1406
L134.6596 62.9872
" />
<path d="M134.1153 62.1406
L134.1153 62.8058
" />
<path d="M134.1153 62.8058
L134.1758 62.9268
" />
<path d="M134.1758 62.9268
L134.2968 62.9872
" />
<path d="M134.2968 62.9872
L134.4782 62.9872
" />
<path d="M134.4782 62.9872
L134.5991 62.9268
" />
<path d="M134.5991 62.9268
L134.6596 62.8663
" />
<path d="M135.0829 62.1406
L135.5667 62.1406
" />
<path d="M135.2643 61.7172
L135.2643 62.8058
" />
<path d="M135.2643 62.8058
L135.3248 62.9268
" />
<path d="M135.3248 62.9268
L135.4458 62.9872
" />
<path d="M135.4458 62.9872
L135.5667 62.9872
" />
</g></g>
<g style="fill:none; 
stroke:#8C8C8C; stroke-width:0.1524; stroke-opacity:1; 
stroke-linecap:round; stroke-linejoin:round;">
<path d="M144.7800 63.5000
L152.4000 63.5000
" />
<path d="M152.4000 63.5000
L152.4000 64.7700
" />
<path d="M152.4000 72.3900
L152.4000 76.2000
" />
<path d="M139.7000 76.2000
L152.4000 76.2000
" />
<path d="M127.0000 63.5000
L137.1600 63.5000
" />
<path d="M127.0000 73.6600
L127.0000 76.2000
" />
<path d="M127.0000 76.2000
L134.6200 76.2000
" />
<path d="M134.6200 76.2000
L139.7000 76.2000
" />
</g>
<g style="fill:none; 
stroke:#505050; stroke-width:0.1524; stroke-opacity:1; 
stroke-linecap:round; stroke-linejoin:round;">
<text x="139.7000" y="79.3750"
textLength="1.4127" font-size="1.6933" lengthAdjust="spacingAndGlyphs"
text-anchor="middle" opacity="0" stroke-opacity="0">0</text>
<g class="stroked-text"><desc>0</desc>
<path d="M139.6395 78.0495
L139.7605 78.0495
" />
<path d="M139.7605 78.0495
L139.8814 78.1100
" />
<path d="M139.8814 78.1100
L139.9419 78.1705
" />
<path d="M139.9419 78.1705
L140.0024 78.2914
" />
<path d="M140.0024 78.2914
L140.0629 78.5333
" />
<path d="M140.0629 78.5333
L140.0629 78.8357
" />
<path d="M140.0629 78.8357
L140.0024 79.0776
" />
<path d="M140.0024 79.0776
L139.9419 79.1986
" />
<path d="M139.9419 79.1986
L139.8814 79.2591
" />
<path d="M139.8814 79.2591
L139.7605 79.3195
" />
<path d="M139.7605 79.3195
L139.6395 79.3195
" />
<path d="M139.6395 79.3195
L139.5186 79.2591
" />
<path d="M139.5186 79.2591
L139.4581 79.1986
" />
<path d="M139.4581 79.1986
L139.3976 79.0776
" />
<path d="M139.3976 79.0776
L139.3372 78.8357
" />
<path d="M139.3372 78.8357
L139.3372 78.5333
" />
<path d="M139.3372 78.5333
L139.3976 78.2914
" />
<path d="M139.3976 78.2914
L139.4581 78.1705
" />
<path d="M139.4581 78.1705
L139.5186 78.1100
" />
<path d="M139.5186 78.1100
L139.6395 78.0495
" />
</g></g>
<g style="fill:none; 
stroke:#8C8C8C; stroke-width:0.1524; stroke-opacity:1; 
stroke-linecap:round; stroke-linejoin:round;">
<path d="M139.7000 76.2000
L139.7000 76.2000
" />
</g>
<g style="fill:none; 
stroke:#505050; stroke-width:0.1524; stroke-opacity:1; 
stroke-linecap:round; stroke-linejoin:round;">
<text x="134.6199" y="81.2543"
textLength="9.6375" font-size="1.6933" lengthAdjust="spacingAndGlyphs"
text-anchor="middle" opacity="0" stroke-opacity="0">PWR_FLAG</text>
<g class="stroked-text"><desc>PWR_FLAG</desc>
<path d="M130.2051 81.1988
L130.2051 79.9288
" />
<path d="M130.2051 79.9288
L130.6889 79.9288
" />
<path d="M130.6889 79.9288
L130.8099 79.9893
" />
<path d="M130.8099 79.9893
L130.8704 80.0498
" />
<path d="M130.8704 80.0498
L130.9308 80.1707
" />
<path d="M130.9308 80.1707
L130.9308 80.3522
" />
<path d="M130.9308 80.3522
L130.8704 80.4731
" />
<path d="M130.8704 80.4731
L130.8099 80.5336
" />
<path d="M130.8099 80.5336
L130.6889 80.5941
" />
<path d="M130.6889 80.5941
L130.2051 80.5941
" />
<path d="M131.3542 79.9288
L131.6566 81.1988
" />
<path d="M131.6566 81.1988
L131.8985 80.2917
" />
<path d="M131.8985 80.2917
L132.1404 81.1988
" />
<path d="M132.1404 81.1988
L132.4428 79.9288
" />
<path d="M133.6522 81.1988
L133.2289 80.5941
" />
<path d="M132.9265 81.1988
L132.9265 79.9288
" />
<path d="M132.9265 79.9288
L133.4103 79.9288
" />
<path d="M133.4103 79.9288
L133.5313 79.9893
" />
<path d="M133.5313 79.9893
L133.5918 80.0498
" />
<path d="M133.5918 80.0498
L133.6522 80.1707
" />
<path d="M133.6522 80.1707
L133.6522 80.3522
" />
<path d="M133.6522 80.3522
L133.5918 80.4731
" />
<path d="M133.5918 80.4731
L133.5313 80.5336
" />
<path d="M133.5313 80.5336
L133.4103 80.5941
" />
<path d="M133.4103 80.5941
L132.9265 80.5941
" />
<path d="M133.8942 81.3198
L134.8618 81.3198
" />
<path d="M135.5875 80.5336
L135.1641 80.5336
" />
<path d="M135.1641 81.1988
L135.1641 79.9288
" />
<path d="M135.1641 79.9288
L135.7689 79.9288
" />
<path d="M136.8575 81.1988
L136.2527 81.1988
" />
<path d="M136.2527 81.1988
L136.2527 79.9288
" />
<path d="M137.2204 80.8360
L137.8251 80.8360
" />
<path d="M137.0994 81.1988
L137.5227 79.9288
" />
<path d="M137.5227 79.9288
L137.9461 81.1988
" />
<path d="M139.0347 79.9893
L138.9137 79.9288
" />
<path d="M138.9137 79.9288
L138.7323 79.9288
" />
<path d="M138.7323 79.9288
L138.5509 79.9893
" />
<path d="M138.5509 79.9893
L138.4299 80.1103
" />
<path d="M138.4299 80.1103
L138.3694 80.2312
" />
<path d="M138.3694 80.2312
L138.3090 80.4731
" />
<path d="M138.3090 80.4731
L138.3090 80.6545
" />
<path d="M138.3090 80.6545
L138.3694 80.8964
" />
<path d="M138.3694 80.8964
L138.4299 81.0174
" />
<path d="M138.4299 81.0174
L138.5509 81.1384
" />
<path d="M138.5509 81.1384
L138.7323 81.1988
" />
<path d="M138.7323 81.1988
L138.8532 81.1988
" />
<path d="M138.8532 81.1988
L139.0347 81.1384
" />
<path d="M139.0347 81.1384
L139.0951 81.0779
" />
<path d="M139.0951 81.0779
L139.0951 80.6545
" />
<path d="M139.0951 80.6545
L138.8532 80.6545
" />
</g></g>
<g style="fill:none; 
stroke:#8C8C8C; stroke-width:0.1524; stroke-opacity:1; 
stroke-linecap:round; stroke-linejoin:round;">
<path d="M134.6200 76.2000
L134.6200 76.2000
" />
</g> 
</svg>
